<svg id="Layer_1" data-name="Layer 1" xmlns="http://www.w3.org/2000/svg" viewBox="0 0 1600 600"><defs><style>.cls-1{font-size:125.93px;font-family:Roboto-Bold, Roboto;font-weight:700;}.cls-1,.cls-4{fill:#101728;}.cls-2{fill:#231f20;}.cls-3{fill:#f37423;}.cls-5{fill:none;}</style></defs><text class="cls-1" transform="translate(445.5 336.8)">DisasterInsight<tspan class="cls-2" x="859.09" y="0"> </tspan><tspan class="cls-3" x="890.45" y="0">AI</tspan></text><path class="cls-4" d="M258,230.48c.23.19.49.36.68.51-.26.39-.42.79-.2,1.12.07.11.19.17.2.29,0,.34-.28.45-.34.75s.28.42.43.69a2.11,2.11,0,0,0,0,.26l-.42.46c-.1.37-.2.73-.31,1.09a1.28,1.28,0,0,0,.07.8c.12.2.27.24.25.45,0,.77-.55,1.52-.64,2.32,0,.22.17.41.14.64s-.27.36-.34.59,0,.75-.16,1.12-.38.48-.47.75,0,.44.06.66c0,.59-.41,1.36-1.07,1.25l-.53-.36a10.64,10.64,0,0,1-1.49-.43c-.15-.08-.17-.21-.25-.3l-.55-.26a2.84,2.84,0,0,0-1.23,0l-.36.12-1.78-.27c-.34,0-.64.38-1,.39h-.79c-.44-.12-.77-.59-1.19-.65l-1.2-.11c-.41.08-.72.36-1.15.37-.39-.41-.86-.29-1.28-.28-.57,0-1.08-.05-1.67-.08l-.66,0-.2.25c-.28-.22-.53-.62-.83-.91-.09,0-.1.07-.16.07l-1.74-.4a2,2,0,0,0-.53-1l-.27-.27a8.06,8.06,0,0,1-.9-1.72c-.42-.09-.5-.39-.93-.36a1.64,1.64,0,0,0-.26-.42l-.31,0a4.18,4.18,0,0,1-.06-.51l-.11,0h-.18l-.05.06a3,3,0,0,1,.08.48c-.22.25-.42.25-.65.58a2.56,2.56,0,0,0,.13.67,2.22,2.22,0,0,1-.53,1c-.23.19-.52.11-.76.21a1.79,1.79,0,0,0-.85.81l.46.47-.06.1c-.22.1-.3.51-.54.7l-.56-.12c0,.11,0,.21,0,.25s-.24.07-.37.28c0,.08,0,.17.06.26l-.05,0-.14,0c-.06-.07-.05-.09-.06-.17h-.05l-.39.46-.12,0,.06-.25-.07,0-.33.13c-.14,0-.26-.16-.41-.26a3.44,3.44,0,0,0-.55.43l-.1-.08-.12-.19a.8.8,0,0,0,.26-.14c0-.17,0-.16-.12-.16s-.21,0-.25,0a.5.5,0,0,0,0-.29H228l-.09.14c-.1-.08-.06-.13-.13-.13a.23.23,0,0,0-.22.07c0-.06,0-.13-.05-.19a.46.46,0,0,0,0-.23h0c-.11.24-.22.47-.34.7-.14-.11-.26-.25-.41-.39.1-.2,0-.13,0-.28a1.3,1.3,0,0,1,.2-.78c.16.05.31-.12.37-.32l0,0a.67.67,0,0,1-.12.06s0,0,0,0a.29.29,0,0,1,.16-.2l0,.13a4.76,4.76,0,0,1,.58-.81l0-.09-.06,0-.18.15c-.06,0-.05-.06-.08-.14a3.12,3.12,0,0,0,.39-.74h0l-.26.4c-.13,0-.23,0-.35.05l-.12-.22.53-.64s0-.11,0-.17c.24-.25.51-.29.56-.75l-.13-.07c.15-.52.09-1.08.3-1.64s.81-.76.83-1.37c.22,0,.37.12.56,0s.16-.4.26-.44.34.08.56-.05c.1-.43.41-.31.68-.59a3.44,3.44,0,0,0,.72-.86l.15-.47c.14-.31.5-.39.64-.77.26-.67.3-1.24-.54-1.53l-.46-.16c-.38,0-.8.45-1.15.57l-.12-.12c-.1.16-.45.16-.63.21a3.84,3.84,0,0,0-1,.33l-.32.26c-.13,0-.25,0-.39.07a.32.32,0,0,1-.11.25,4.52,4.52,0,0,1-.74.06,3.13,3.13,0,0,0,.22-.6c-.22-.18-.25-.39-.4-.6a.59.59,0,0,0,.15-.39,1.73,1.73,0,0,0-.76.18.56.56,0,0,0,0-.12,2.19,2.19,0,0,0,.33-1.26l-.21,0c-.11.26-.23.51-.35.77,0,.05,0,0,0,.07l-.32.59c0,.1.05.19.07.29-.15.35-.3.69-.46,1,0,.13,0,.21,0,.36s0,.08-.08.11l-.16,0s0,0,0,.05a.74.74,0,0,1,.17.41,3.82,3.82,0,0,0-.46.77h0a1.51,1.51,0,0,1,1.29-.32c.22-.19.2-.45.3-.64l.39-.42a1.26,1.26,0,0,1,.17.35l-.15.31c-.1.09-.23.1-.28.28s0,.26,0,.39-.14.26-.22.39c-.15.54.26.37-.35,1l0,0c-.46-.72-.65-.25-1.08.17h-.08c-.06-.33.17-.83.1-1.12l-.25,0c-.33.46-.5.95-1,1h0c0-.1,0-.19,0-.28l0,0-.3,0v.07l.07.14c-.7,1-.05,1.07-.09,1.76,0,.2-.24.5.06.59a1,1,0,0,1,.25,0c.07.14.15.27.23.41-.35.57,0,.93.47,1.35l.27.24c0,.06-.1.27-.11.35.15.15.28.31.46.5a.76.76,0,0,0,0,.37l.13.09c.11-.24.91,0,1.17-.15s.35-.36.57-.36a1,1,0,0,1,.13.31c-.28.39-.4.22-.49.65,0,.16-.2.27-.21.4l.14.26c0,.2-.07.39-.11.59s.12.34.06.54l-.19-.23c0-.1,0-.21,0-.32h0a2.34,2.34,0,0,1-.35.29s0,.07,0,.1c-.35-.19-.46.56-.78.49a.71.71,0,0,1-.13.46c-.09,0-.08,0-.15,0,0,.41,0,.26-.18.63h0c.32.08.51-.11.81-.13h0v.07l-.2.05c-.09,0-.16,0-.24.12a.45.45,0,0,0,0,.12c.14,0,.21-.06.35,0l0,0-.06.12a.5.5,0,0,0-.5.19h0a2.15,2.15,0,0,0,.44-.09l0,0c-.06.08-.13.14-.19.22-.29-.18-.43.08-.69,0a.45.45,0,0,1,0-.11l-.08,0-.06.05a.34.34,0,0,1,0,.28l.14,0a.34.34,0,0,0,.15.25,4.26,4.26,0,0,0,1.13,0,.36.36,0,0,1,0,.11.14.14,0,0,1,0,.06h0a.32.32,0,0,0-.2-.08c-.09.08-.12.1-.12.21h0l.28.06a1,1,0,0,1-.07.32h0c.16-.16,1.15-.69,1.3-.6a.25.25,0,0,1,0,.07l.36.11a.61.61,0,0,0,0,.14l-.06,0a.59.59,0,0,0-.5.09l-.12.42a.88.88,0,0,1,.35,0,1.42,1.42,0,0,0,.08-.18c.1.08.09.06.2,0-.09.13-.08.17,0,.27l-.13.09-.07-.11,0,0-.25.2.08,0a2.3,2.3,0,0,1,.88.26c-.15.08-.28.12-.3.3s.06.11.08.17l0,0c-.15-.06-.5-.11-.53,0a1.65,1.65,0,0,1,0,.21l-.22.06c-.12-.07-.21-.23-.34-.28l-.53.05c-.06-.12-.12-.23-.17-.35.14-.18.11-.35.19-.44.24-.26.79-.26.63-.72h0c-.19.23-.41.23-.59.39s-.37.63-.53.89h-.59c0-.12.12-.21.08-.33l0,0-.1,0a.8.8,0,0,1-.89.39l-.25-.1c-.23,0-.47.26-.71.2l.07-.07a.42.42,0,0,0-.31-.08l-.14-.28s-.5-.28-.6-.36,0-.14-.11-.21l-.36.2-.42,0c-.45.17-.83.42-1.28.58-.18.06-.4.05-.56.11l-.45.29c-.11.1,0,.27-.15.28a10.16,10.16,0,0,1-1.1.21h0c0-.09.11-.18.16-.28-.62.5-.84-.26-1.52.19l.26.36a1,1,0,0,1,0,.3,4.33,4.33,0,0,1-.79-.17.27.27,0,0,0,0-.25h-.18a2.94,2.94,0,0,1-.26.39l.11.1a1.77,1.77,0,0,0-.25.72l.12.17a.39.39,0,0,1,.08-.1c.18.12.22.06.37,0a1.94,1.94,0,0,1,.07.33,1.28,1.28,0,0,0,1.29-.1c.14-.06.26-.18.41-.19s.41.15.62.19a3.55,3.55,0,0,0,1.17-.1c.36-.06.62-.89.88-.88l.09,0a.69.69,0,0,0,0,.35l.15,0a4.86,4.86,0,0,1,2.32-1.07l.25.33-.35.15c-.12,0-.13-.11-.23-.07s-.39.48-.61.31c-.22.25.06.74.32.93l.56-.28a.41.41,0,0,0,.33.21c0,.05,0,.1.05.14a.53.53,0,0,0-.12.5c.13.06.21.08.27.18s.07.43.16.63l-.14.2-.13.05-.19-.13c0-.21,0-.32-.23-.39a.59.59,0,0,1,0-.13c0-.05.09-.1.13-.16l0,0a5.23,5.23,0,0,0-1.39-.34c0,.1,0,.17-.07.21l-.42.18a.42.42,0,0,0-.22-.19l-.24.06c0,.11-.07.22-.12.33a.25.25,0,0,0,0-.07l0-.1-.18,0h0l-.09.26c-.55-.25-.67.21-1.13.46s-1.18.33-1.77.58-1.55-.35-2.19,0a1.07,1.07,0,0,0-.67,1.07c0,.11,0,.22.08.32l-.15.41c0,.57.23,1-.07,1.64-.15.34-.5.26-.68.39s-.14.26-.2.35c-.24.34-.58.21-.57.79,0,.92.71.59,1.07,1.11.09.27-.14.62-.1.9l.08.18c0,.46-.49.76-.27,1.22.08,0,.09,0,.16,0s0,0,0,0a2.36,2.36,0,0,0,.47,1.6l.51.1.28-.15.05,0a1.49,1.49,0,0,0,.29,1.27c.07.07.11,0,.16.09-.14.33-.35.63-.23.9s.24.3.24.58l-.13,0a1.7,1.7,0,0,0-.09.36l-.86,1.21c0,.12,0,.25,0,.37-.09.33-.21.39,0,.66v0l-.09,0h0c.06.05.06.05.07.1a.57.57,0,0,1-.82.26l-.13.09a.66.66,0,0,0-.94.38c0,.14,0,.28-.07.43s-.16.14-.23.21a.84.84,0,0,0-.27.58l0,0c-.16,0-.22-.27-.32-.37a.61.61,0,0,0-.41-.2s0,0,0,0l-.35-.35h-.05a.73.73,0,0,1-.16.33l-.14-.05,0,0a.33.33,0,0,0,.08-.34l-.17,0v.07a.39.39,0,0,1,0,.32c-.08.06-.08.07-.18.06a1.28,1.28,0,0,0-.43-.44c.06-.54-1.14-1.62-1.78-1.72a2.69,2.69,0,0,0-.46-.59.6.6,0,0,0-.65.14l-.18-.1a.59.59,0,0,1,.08-.65l.14-.2-.18-.26c.1-.43.44-.53.72-.83s.2-.55.28-.76c0,0,.65-.57.8-.73.34-.36.89-1,.79-1.31.3-.26.61-.35.81-.79a6.1,6.1,0,0,0-.83-1,.79.79,0,0,1,0-.17h-.12s0,.09,0,.13a2.13,2.13,0,0,1-.66-.64v0l.48,0a1.47,1.47,0,0,0-.72,0,1.12,1.12,0,0,1-.22-.33c-.5-.08-.29,0-.68.19l-.56.05-.12-.19a2.78,2.78,0,0,1-.54.22c0-.07-.07-.13-.1-.19l-.1.05c0,.08,0,.16-.08.24a1.81,1.81,0,0,0-1.05.88l-.09,0c-.11,0-.17.13-.29.12l.15-.32h0l-.07,0s-.13.15-.16.09,0-.12,0-.21a.93.93,0,0,0-.18.36l-.19-.16c.15-.22.1-.45.22-.65h0a.84.84,0,0,0,.17-.27l-.08-.12a3.9,3.9,0,0,0,.19-.35l.4,0a2.1,2.1,0,0,0,.32-.76l.11.08a.49.49,0,0,0,.12-.31c-.19,0-.32-.13-.52-.27a.76.76,0,0,1-.65-.06,1.73,1.73,0,0,0,.34-.49.61.61,0,0,0,.39.17c.06-.47.69-.62.6-1.11l-.15.12-.08-.08c-.11-.37.2-.7.21-1.1s-.41-.47-.64-.76c0-.16,0-.31.07-.47l.16-.26c0-.2,0-.4,0-.59s.36-.33.3-.57a.41.41,0,0,0-.29.05l-.09-.86-.51-.76c0-.09.07-.18.1-.27a.61.61,0,0,1,.3,0,.67.67,0,0,1,.06.12.31.31,0,0,1,0,.12.51.51,0,0,1,.24.21c.15-.17.3-.21.3-.39s0-.21-.13-.36a.33.33,0,0,1-.19.14c-.1-.07-.09-.1-.13-.18l-.15.19a1.18,1.18,0,0,1-.33-.28c.08-.28.16-.93.49-1.14a.85.85,0,0,0,.31-.06l0-.06,0-.05c-.11,0-.13.09-.26,0l-.12-.13a2.41,2.41,0,0,1,.38-.75,2.33,2.33,0,0,1,.3.12l.07,0s0,0,0-.06l0-.09-.18,0,.24-.18c-.19,0-.2-.09-.31-.24.1-.13.24-.23.26-.38a1.18,1.18,0,0,0-.19.11l-.09,0s0-.08,0-.12l-.18,0c0-.06,0-.07,0-.12-.08.13-.09.23-.22.18a.54.54,0,0,0,.06-.34c-.18-.07-.37,0-.52,0s-.43-.31-.6-.39c-.1.13-.15.09-.26.12a.27.27,0,0,1,0,.12l-.14.08a1.45,1.45,0,0,1-.17-.39c-.27-.16-.58-.08-.73-.44,0-.08.29-.15.3-.27s-.15-.27-.13-.43l.28.05c0-.06,0-.08,0-.13l-.35-.32a1.66,1.66,0,0,1,.46-.59c.13.09.33.23.43.18l.27-.36c.12,0,.29.3.33.36a1.09,1.09,0,0,0-.05.17h-.19l0,.21c.3.06.2.28.36.47l-.13.21h.11a1.2,1.2,0,0,0,.41.6c.18-.13.6-.28.74,0,.08-.13.07-.13.2-.09,0-.18.13-.14.26-.26s.14-.25.22-.37h.12a1,1,0,0,1,.08.42h.06a.27.27,0,0,0,.13-.25h0l.12,0,.12-.17c-.14-.21.18-1.31.28-1.45.42.11.43-.21.67-.34l.28.15c.19-.12.36-.22.56-.37-.15-.1-.21-.11-.38-.22a9.47,9.47,0,0,0,.73-2.55c.07-.2.3-.82.5-.66a.77.77,0,0,1,.38.08c.46-.33.37-.69.42-1.1a2,2,0,0,1-.36-.34c.21-.27.57-.62.59-.89a.49.49,0,0,0-.23-.13.46.46,0,0,0,0-.09c-.08,0,0,.06-.08,0a3.36,3.36,0,0,1-1.52-.82c0-.12,0-.24,0-.36l-.32-.24c0-.15-.09-.31-.14-.46.19-.28.13-.46.31-.75l.11.08.49-.17.36.09a.63.63,0,0,0,.36-.91c-.53-.19-.68-.54-1-.86L209,232c0,.1,0,.2,0,.3a3.19,3.19,0,0,0-.32.2l-.41-.3a.3.3,0,0,1,0,.19,3.89,3.89,0,0,0-.47-.17c0-.12,0-.13-.13-.18a1.63,1.63,0,0,0,.22-.85c.1-.08.1-.15.19-.24l-.09-.11.32-.3a1.36,1.36,0,0,1,0-.2c.13,0,.19-.32.36-.48.32-.34.62-.61.92-1,.09-.11,0-.34,0-.37l.1,0c-.13-.1-.22,0-.37,0a.87.87,0,0,0-.09-.11l.06-.1c.11,0,.2,0,.19-.14s-.06,0-.1-.09.11-.1.23-.21c0-.17-.14-.33,0-.52s.38-.2.54-.43v-.16c-.9-.1-.6.81-1.38.81-.07-.08-.2-.31-.25-.24l.07.14a1.77,1.77,0,0,0-.24.91l-.19.09a.33.33,0,0,0,0,.29l-.27.2-.14-.1a.36.36,0,0,1,.15.27c0,.2-.22.33-.05.51h0l-.28.11c.1.15,0,.39-.05.56h-.08a.75.75,0,0,0,0,.53c-.15.09-.15.15-.22.33l-.07,0c0,.14-.06.55-.3.63a.4.4,0,0,1-.35.05l-.12-.19a1.23,1.23,0,0,0-.19.48l-.18-.14c-.06.23-.17.2-.34.29-.41.21-.74.07-1.14-.33l-.25-.26-.56,0a2.51,2.51,0,0,0-.47-.44l-.31.11a1.23,1.23,0,0,1-.27-.74l-.22-.1a.58.58,0,0,1,.3-.37c.06-.47-.34-.48-.42-.86l0,0a1.47,1.47,0,0,1,.21,0l.05-.08a9.94,9.94,0,0,1-.4-2.47c.07-.09.14-.19.22-.28-.09-.07-.13-.12-.2-.12a1.6,1.6,0,0,1-.23,0,1,1,0,0,0-.35-.31l-.19,0a1,1,0,0,1-.72.44c-.14.2-.36.77-.43.8l-.51.2c-.06.38.24.59.26.93s-.2.25-.08.61c.11,0,.27-.06.32.06a1,1,0,0,1,.07.59h.08c.17,0,.34-.08.53-.07a.64.64,0,0,1,0,.07c0,.34.2.54.3.86s0,.72,0,1.07l-.23.09c0,.21.11.31.12.5a2.12,2.12,0,0,0,.1.86l-.22.31c.12,0,.26.08.3.15a2.11,2.11,0,0,0,.1.3l-.29.22c.4.2.57.12.9.55,0,.06-.05.13-.07.2.21.24,1,.43,1,.61h0c.12-.18.23-.19.33-.26l.11-.19a1,1,0,0,0,.91-.26c.23.07.32,0,.56.12l-.1.14c0,.12.09.89-.15,1s-.85.6-.82.76l.07.13h0c.12-.4.5-.33.73-.57s.09-.58.36-.75l-.08-.06.06-.08h0l.08,0a1.13,1.13,0,0,1-.12.21l.18.08a.38.38,0,0,0,.07.46s-.05.1-.08.14h0l-.24-.16c-.07.26.45.36.08.74l.09.08c-.1.15-.19.3-.29.44.18.08.88,0,.89.37l-.1.15.19.13.11-.07c.08.11.2.1.24.18a1.45,1.45,0,0,0,.23.36l.28.22c.17.33.33.66.5,1H207l-.21.08a2.81,2.81,0,0,1-.37.66l.11.12c-.07,0-.08,0-.08.08a.53.53,0,0,0,.16.45c.14,0,.24,0,.25.11a.74.74,0,0,1,0,.14c-.28.25-.31.62-.64.93-.12-.13-.12-.21-.24-.35a1.7,1.7,0,0,1-.81,0l0-.2-.13-.07.11-.13-.11-.12a2.15,2.15,0,0,1-1.19,0l-.1.11a.75.75,0,0,0-.62-.16,1.11,1.11,0,0,0-.33-.38c-.11.08-.1.08-.15.22l-.13-.07a1.19,1.19,0,0,0-.09.15c-.17-.13-.54-.36-.69-.28-.11-.11-.1-.2-.23-.27l0,0c-.07.34-.24.24-.51.24,0-.11-.06-.13-.19-.18V241a.77.77,0,0,1,.4.57c0,.18-.18.24-.2.36s0,.24.07.39c.07.45,0,.89.09,1.34a2.53,2.53,0,0,1-.48.92c-.11,0-.14,0-.23,0s0,.1.05.15l-.13,0,0-.16c-.26.23-.5.31-.79.55l-.37-.05c-.07-.13-.1-.21-.24-.25l.1-.12.15.08v-.07c-.05-.12.08-.13.19-.18h-.09a.2.2,0,0,1,0-.21h0c-.11.18-.05.17-.2.22s-.07,0-.12,0,0-.26,0-.39h0a.29.29,0,0,1-.2.18.88.88,0,0,0-.09-.29c0,.11,0,.22,0,.33v0a.22.22,0,0,0-.24,0l.2.11a.73.73,0,0,1-.1.28h-.11l.07.06a.31.31,0,0,0-.1.05l-.26-.09-.09-.33h0l.15.06v0l-.1-.07c.1,0,.16-.07.17-.18l-.07,0a.43.43,0,0,0,.08-.41.82.82,0,0,1-.14.36l-.17.05s0-.07,0-.12,0-.24-.15-.35c-.21.25-.2.47-.48.47,0-.16-.05-.34-.07-.5h-.14a.33.33,0,0,1-.24.28l-.1,0c-.16-.19-.12-.3-.14-.51,0,0,0,0-.05,0s-.26,0-.43.06c-.08-.19-.31-.26-.45-.44l.3-.5-.06-.05a1.09,1.09,0,0,1-.35.15,1.14,1.14,0,0,1-.11-.11c.09-.3,0-.55.22-.72.07-.24,0-.26-.19-.46.21-.25.51-.38.44-.66-.16.16-.34.28-.55.2a.59.59,0,0,1,0-.13,2.72,2.72,0,0,1,.64-.77c-.26-.17-.48-.84-.21-.95l.19-.07s0,0,0-.07c-.15-.22,0-.46-.14-.66a2.28,2.28,0,0,0-.22-.22,2.7,2.7,0,0,1-.16-1.23c.16-.15.28-.16.27-.39h0l-.16-.05c0-.31-.18-.58-.24-.89a1.3,1.3,0,0,0,.22-.28l-.34-.21-.15.12c-.17-.33-.49-.57-.13-.9l-.27-.27c0-.11.11-.22.16-.34h0a2.34,2.34,0,0,0-.54.09l-.14-.33a4.08,4.08,0,0,0,.28-.44h0l-.37,0v-.07c0-.24.25-.68.13-.89a.2.2,0,0,1-.25,0c.06-.19,0-.29,0-.46a3.22,3.22,0,0,1,.29-.26c-.07-.13-.05-.2,0-.36l-.09-.06c-.11,0-.21,0-.26,0s-.12-.33,0-.5h0a.59.59,0,0,0,.37-.07v-.07c0-.09-.07-.19-.11-.28s-.26-.11-.39-.15a.48.48,0,0,0,.2-.49h0l-.28.08-.06-.24c.1-.34-.12-.37-.13-.62,0-.45.37-.3-.13-.87l.28-.07c.11-.41.32-.37.58-.68-.05-.11-.14-.25-.22-.41a78.75,78.75,0,0,1,48.42-2.13A78.49,78.49,0,0,0,147.13,326.1a80,80,0,0,1-2.56-9.11,0,0,0,0,1,0,0c-.23-1.08-.44-2.16-.63-3.25a2,2,0,0,0,.76-.85,2.17,2.17,0,0,0,1.57-1.22c.06-.14,0-.26.14-.43a6.68,6.68,0,0,0,1.07-1.91c.34-.11.7-.11.95-.49-.07-.11-.24-.39-.44-.35s-.5.42-.82.69l-.22-.17a2.2,2.2,0,0,1,.94-1c.21-.14.3-.29.47-.38.24.13.35.36.53.52.4.37.89-.11,1.18-.31-.46-.31-1.17-.31-1.25-.84.1-.12.32-.39.31-.51s-.13-.44-.19-.66.25-.34.17-.64c-.19,0-.47-.19-.61,0a1.16,1.16,0,0,1-.31.6h0l-.18-.34c.15-.28.06-.41.24-.68a1.22,1.22,0,0,0,.59-.17l-.68-.46h0c-.19.64-.61.59-.9.84l-.13.3c-.36.38-1.19,1-1.67.63a1.26,1.26,0,0,0-.08-.58,2.15,2.15,0,0,0-.72.26,2.36,2.36,0,0,1-.39-.84c.15-.25.32-.23.5-.43l-.21-.19a.7.7,0,0,1-.55,0c.06-.17-.1-.27,0-.43a2,2,0,0,1,1.72-1.21c.28,0,.4.31.64.41a6.44,6.44,0,0,1,1.54-.39l.12.22a.81.81,0,0,0-.17.59l.25.36c.16-.21.35-.23.5-.36a.68.68,0,0,0,.19-.41c.09-.28.51-.48.68-.53a2,2,0,0,1,.14.5c.2.06.33-.06.51-.05a1.91,1.91,0,0,1,.88.42c.3-.68-.51-1-.55-1.65a1.35,1.35,0,0,1,1.81-.08l-.27.36c.06.08.18.3.33.34a7.51,7.51,0,0,0,1.53-.16,2.63,2.63,0,0,0,.18-.76c-.48-.36-.25-.69-.45-1.07s-.64-.54-.7-.87c.14-.18.34-.37.36-.57l-.24-.21-.81.35-.48-.4a2.51,2.51,0,0,0,0-.27,4.05,4.05,0,0,1,1.1-1.12l.41-.35.68-.15c.11-.18.14-.37.28-.38s.74.23.79.38,0,.22,0,.33a1,1,0,0,1-.53.07c-.11.17-.07.3-.1.45.8.43,1.46.06,2.18,0a2,2,0,0,1,.51,1.43c0,.33-.16.48-.1.78-.45.41-1.19.07-1.59.59a2.62,2.62,0,0,1,0,.28h.05a2.71,2.71,0,0,1,1.32-.37c-.11.22-.26.31-.37.54-.22.44-.39.5-.8.37a2.67,2.67,0,0,0-.58,1.08l.06.11,0,0c.26-.05.48-.27.74-.36.13.25.39,1.69,0,2s-.5.16-.75.26l-.44.34-.48.26a2.4,2.4,0,0,0-.43.84l0,0,.79-.62.77-.25a3.31,3.31,0,0,0,1.18-1.06h0c.14.19.27.38.41.56s.22,1.32-.13,1.67a2.91,2.91,0,0,1-.67.45c.27.21.56.25.74.42a3.37,3.37,0,0,1-1.09,1l-1,1.09,0,0,0,0,.87-.37c.5-.41.72-.8,1.24-.91l.14.1a1.32,1.32,0,0,1-.09.66c-.14.34-.51.53-.51.75l0,.07h0l.49-.24s0,0,0,.06c.18.31-.07,1.16.08,1.6.12.07.33.13.37.22s-.09.32-.05.51c.11.6,1.42,2.36,2.35,2.35.47-.27.4-.49.76-.87a4,4,0,0,1,1.67.28l.48.38c.32-.48.21-.95.64-1.39a6.12,6.12,0,0,1,2.22-1.42h.67c.35-.3.69-.59,1-.9a7.6,7.6,0,0,1,.7-.35c.54-.35,1.16-1.76,1.78-1.86l.58.62.47.08c.44.19.54.54.82.74.42-.09.59-.3,1.09.11a1.31,1.31,0,0,1,1.47-.42c.26-.38.62-.26.92-.44a2.31,2.31,0,0,0-.5-.07.64.64,0,0,1-.15-.44c.2-.15.41,0,.62-.08a2.31,2.31,0,0,0-.58-.42c0-.61-.73-.55-1.16-.73l-.29-.2-.54-.19.11-.15c-.39-.26-.38,0-.69.07a1.44,1.44,0,0,1-.6-.19c.57-1.22.39-4-1.65-4-.51,0-1.48.62-1.9.47a1.86,1.86,0,0,0-.32-.93l-.18-.26c0-.18.13-.22,0-.45l-.44-.19-.35,0c-.15-.07-.15-.21-.31-.33l-.41.52h0c-.17-.35-.18-.79-.5-1.09a1.31,1.31,0,0,1-.61.15.7.7,0,0,1-.37-1.06c.4-.44.87-.64,1.28-1.06s.47-1.36.78-1.56a11,11,0,0,1,1.7-.58c.12.23.12.22.37.2.32-.31.78-.52,1.15-.85.21-.18.11-.42.21-.5h.17a.5.5,0,0,1,.21.19c-.11.72,1.54.7,1.75,1.25l-.2.25c.21.19.27.25.48.24v0c.17-.63.13-1.11.92-1.1a.29.29,0,0,1,.14.16h.2c0-.27.37-.72.35-1s-.17-.36-.26-.54c.18-.23.43-.07.64-.11h0c-.55-.39-.49-.66-.63-1.1-.78,0-.39-.17-.38-.68l-.21-.36h.06a9.48,9.48,0,0,1,2.38-.18c.11.12.09.2.28.29l.12-.2c.76.39.74-.3,1.3,0a.55.55,0,0,0,0,.33,3,3,0,0,0,.83-.29.58.58,0,0,1,.23.2c-.07.22-.42.45-.44.63v0c.19,0,.7.11.87,0l.16-.23c.18-.14,1-.4,1.24-.26l.27.41c.18-.23.14-.48.34-.7a3.76,3.76,0,0,1,.92-.53l.75-.67c.15.29,0,.58-.18.93s0,.64-.06.95l-.24.41c0,.18.23.41.38.56a6.28,6.28,0,0,0,.27-.9c.07-.65-.33-1.5.7-1.72a.81.81,0,0,0,.15.29h.2c0-.13,0-.39.11-.48s.63-.42.89-.27.26.39.35.58l.61,0,0,0a6.2,6.2,0,0,1,0,1.36l-.67,1.21c.08.35.16.7.25,1.06a4.47,4.47,0,0,1-.67,1.73l-.88,1.15c-.31.36-.49.88-.85,1.27a3.21,3.21,0,0,0-.72,1.07c-.16.6.37.83.37,1.22s-.28.59-.3.87a6.77,6.77,0,0,0,.89,3.39c0-.69-.33-1.37-.35-2a10.75,10.75,0,0,1,.5-2.59c.19-.81.74-1.58,1.51-1.39a2.69,2.69,0,0,1-.11,1.28l-.28.17a1,1,0,0,0-.22.53h0a.89.89,0,0,1,.8-.36l.09-.53.08,0,0-.18.15-.06a2.56,2.56,0,0,1,.05.27c.27.29.15.26.22.62.09-.16.19-.33.32-.34a.45.45,0,0,0,.27.23c0-.08,0-.07.13-.08.33.36.62-.16.91-.33,0,0,0,0,0,0a1.55,1.55,0,0,1-.07.23h0l0,0c.09-.09.19-.06.27-.1l.12-.22.19-.07c.13-.08.08-.3.26-.41h0l0,0,.06.11c0-.07.1-.15.12-.25s0-.27.06-.45c.3.13.19-.08.38-.21l.26,0,0,.09a.5.5,0,0,1,0,.12h.07c.1-.16.17-.26.31-.27a1.46,1.46,0,0,0-.05.2c-.09,0-.09,0-.11.08V299h.07l-.17.21.07,0a4.22,4.22,0,0,0-.33,1.24c-.07,0-.08,0-.15.06s0,0,0,.05l.09.11-.1,0c.09.09.05.12.11.21a2.62,2.62,0,0,0-.22.25.47.47,0,0,0-.1-.1v.05a.26.26,0,0,1,0,.19v0H188l-.07.09c.14.09.19,0,.29.15-.19.28.09.57.08.78l-.07,0,.11.07a.58.58,0,0,0-.15.29l.13.18c-.13,0-.12,0-.17.15l-.33,0a.17.17,0,0,1,0,.1c-.25-.1-.55-.13-.62-.46,0-.09,0-.07,0-.17,0,.11,0,.21,0,.32l-.06,0,0,0c0-.13,0-.27,0-.41s.06,0,.09-.07h0l-.09.05,0,0a3.25,3.25,0,0,1,.15-1.39l.16.14c.05-.06.05-.05.14-.07l-.11-.07a2.39,2.39,0,0,1,.26-.65h-.07a2.64,2.64,0,0,0-.66,1.1c-.07-.06-.08-.07-.1-.12a.88.88,0,0,0-.08-.66h0c0,.07,0,.13,0,.2a.27.27,0,0,0-.26,0l.17.05a2.12,2.12,0,0,0,.11.21c-.25.37,0,.71-.23,1.08a1.36,1.36,0,0,1-.21.1l.13,0,0,.35c-.15.05-.36.24-.34.41l-.11,0,.23,0a.66.66,0,0,0,.05.15l.09-.12s0,0,0,.08,0,.29-.16.44c.08.07.07.05.08.12l-.16.06c0,.13.07.25.08.39l-.17,0c-.06.13,0,.25-.13.35l.16.06-.2.16h0l-.12-.16h0v0a1.7,1.7,0,0,1,.31.72l-.13,0a1.74,1.74,0,0,1,.11.18l-.11.1-.09-.11a.49.49,0,0,0,0,.12c.13.07.1.06.14.19v0l-.11.06-.07-.07-.06.25.17.12c-.08.26.24.66.35.9.16,0,.15,0,.27-.11l0,.05c-.06.18-.12.34,0,.48a.59.59,0,0,1,.75-.08l.12-.1.06-.27-.08-.06,0,.08h-.22l.12-.11a.67.67,0,0,1,.39.13l-.24.62a.32.32,0,0,0-.19-.09v0a.43.43,0,0,1,0,.44l0,0c-.1-.07-.16-.15-.22-.17s-.08.16-.07.17l.26.28a3.56,3.56,0,0,0-.7,2.18l-.27-.34.29.4c-.07.06,0,.09,0,.2l.06,0a.32.32,0,0,0,.27-.14,5.42,5.42,0,0,1,.58.75l-.09.07c.22.15.26.53.27.73l0,0h0a.77.77,0,0,0-.19-.17c-.18.3-.37.21-.65.22a1.25,1.25,0,0,0-.07-.26h0a2,2,0,0,0,.05.26c.24.1.76.26,1,.12l.31.17c.14.15.1.31.18.48l.28.45c0,.06,0,0,0,.09l.2.31,0,.08-.11,0a2.57,2.57,0,0,1-.37-.66c-.07,0-.07,0-.09.12v0h0l-.06-.11-.14.06c0-.11,0-.08-.13-.18a1.55,1.55,0,0,1,0,.22l-.16.07h-.16l0,0c0-.09,0-.18.08-.27h-.07c-.14.09-.16,0-.18.19h0l-.08-.09s0,0,0,0a.41.41,0,0,0,.11-.07l-.06,0h0c-.07.06-.1.09-.16.09l0-.06c.09-.12.07-.15,0-.24l-.08.12h0l-.07-.16.08-.22-.11.06-.09-.13v.16c.05,0,.05.05.06.15l-.09,0c.07.06.07.06.08.11h0c-.08,0,0,0-.1,0l.13.11-.1.11c.49.06.19.19.49.32l.34.07v0h-.05a.26.26,0,0,1-.24,0v0c.21.08.32-.07.56,0a2,2,0,0,1-.52.19l.11.05c-.15.09-.22.06-.33.23l-.1-.07,0-.2c0,.05,0,.1-.05.15a.51.51,0,0,0,.23.16,3.4,3.4,0,0,1,.91-.49.32.32,0,0,1,.1.27l-.07,0-.39.09a.75.75,0,0,0,.59-.15.17.17,0,0,1,0,.07c.09-.06.11-.05.22,0v0l-.13.1.1,0,0,.07-.23.06c.17,0,.26-.08.42-.14l.16.09c-.08.12-.06.1-.16.14a.48.48,0,0,0-.38.09.34.34,0,0,1,0,.1H188a.37.37,0,0,1,.48-.1c.11-.28.19-.48.52-.3h.06l.06,0h0l0,0v0l0,0h0l-.07,0,0,.08c.07,0,.05,0,.12,0l-.06.1a1,1,0,0,1,.44.05l0,.05-.13-.05c0,.11-.11.13-.21.18h.16l0,0s0,.06,0,.09l-.18.1c.06,0,.07,0,.11,0l-.06.19H189c-.08,0-.1-.09-.16-.09h0c0,.12.18.1.26.18a3.17,3.17,0,0,0,.28-.49h.05c.08.09.12.19.23.19l0,0c0-.09-.13-.15-.13-.25s0,0,0,0a.27.27,0,0,1,.27,0,.31.31,0,0,0,.05.1c-.06.07-.09.05-.06.1s.05.22.08.33c-.15.17-.25.15-.39.24h.13l-.34.25h.11a.62.62,0,0,1,.38-.24l0,0c0,.14.07.17.05.35s-.15.06-.24.09c.07,0,.12,0,.18,0l.14-.06a3.16,3.16,0,0,0,0-.32c.09,0,.09,0,.17,0l0,0,0,.29c-.1.18-.19.37-.28.57l.27.86c0,.22-.27.55-.28.81s.14.39.26.64A1.56,1.56,0,0,1,190,320a3.57,3.57,0,0,1,.35.84l.57.73c.53.55,1.61.37,2.15.52l.67.33c.27.09.58.09.82.17.6.2,1,.93,1.3,1.29l0,0-.14-.14a2.18,2.18,0,0,0-.21.49,7.37,7.37,0,0,1-.77-.14c-.28.35-.3.09-.65,0l-.18.08-.27-.11-.1.13-.7-.07a.44.44,0,0,0,0-.3l-.15-.08c0,.11,0,.22-.07.27l-.06,0-.73-.73c-.2-.09-.29.08-.47.16s-1.08-.09-1.24.35c-.06.17,0,.33,0,.49s-.12.33-.17.49a2.47,2.47,0,0,1-.54-.05,1,1,0,0,1-.61.38,2.36,2.36,0,0,1-.48.74l.11.08c0,.09-.09.19-.14.29l-.44,0v0c.07.07.13.15.19.22a2.65,2.65,0,0,0-.58.79c0,.12,0,.25,0,.41s-.42.08-.45.35a.7.7,0,0,0,.09.17c.24,0,.24-.26.32-.43a.76.76,0,0,1,.43-.14c0,.1,0,.2,0,.29.29.14.5-.16.79-.14a2.41,2.41,0,0,1-.23.36.79.79,0,0,0-.67.25l.06.14h.07l.15-.05h0c0,.05,0,.1,0,.15v0h-.2c0,.13-.05.27-.07.4l-.34.2H187l-.49.22a1.21,1.21,0,0,1-.09.2h0l.23-.07,0,0c0,.14-.16.34-.31.48a2.39,2.39,0,0,0-.81,1c-.07.21,0,.3-.23.55l-.2-.07a.81.81,0,0,0,0,.16c.14,0,.3,0,.38.11-.07.37.1.71,0,1.11s-.42.4-.37.57l.26,0c.16.33-.14.63-.09,1l0,0,.28-.06s0,0,0,.06l.12.41c.34.43.91.3,1.22.63l.36.73.5.47a5.33,5.33,0,0,0,2.51,1.42c.44,0,.93,0,1.37,0s.79.1,1.18.08a1.76,1.76,0,0,1,.46-.53c.2-.1.43,0,.63-.22.35-.36.54-1.44.79-1.9l.16.11c.1-.09.23-.16.23-.26s0-.16,0-.24-.16,0-.26.05l0,0c0-.23.12-.58,0-.78l-.29-.22,0-.25-.45-.28-.28-.36c.24-.86.69-2.45,1.57-2.73.09.05.19.09.23.18s.09.52.17.76c0,0,.39.57.42.61h0s0-.09.05-.13l.78.75,0,0-.47-.07a.37.37,0,0,0,0,.11.17.17,0,0,0,0,.07.81.81,0,0,1,.26.27l.09-.23.17.12c.3.42.78.57,1.07,1,.14.22,0,.48.19.68l.24-.11v0l-.15-.12a.66.66,0,0,0,.39-.24c.08-.5.6-.73.85-1.33,0-.12.05-.24.07-.37l.22-.12.46-.77.33-.21c.2.15.14.16.33.16l.41-.37a1.28,1.28,0,0,1,.89.56l.12.33c.2.27.65.48.88.74a2.09,2.09,0,0,0,.78.65,4.75,4.75,0,0,0,2-.23l.41.1c.32-.07.1-.4.45-.42.35-.34.23-.6.33-1,0-.11.1-.18.1-.29s0-.33,0-.5.29-.28.35-.32.26-.35.41-.46a2.17,2.17,0,0,1,1.57-.12,2.65,2.65,0,0,1,.09.49v0a.14.14,0,0,0-.17,0c.15.05.14.13.19.25,0-.12.07-.25.11-.36,0-.27-.4-.7,0-1a.48.48,0,0,1,.49-.07s0,.09,0,.14a.89.89,0,0,0-.19.73,3.16,3.16,0,0,1,.77.21,1.64,1.64,0,0,0,.41.72,3.69,3.69,0,0,0,.81,0,.66.66,0,0,0,0-.51c-.15-.27-1.06-.37-1.21-.29,0-.08,0-.11-.08-.19l-.06,0c.07-.27.48-1.46.35-1.61l-.14,0-.12.22-.26,0a.28.28,0,0,1,0-.38,2.32,2.32,0,0,0,.63.11c.29-.42.63-.73,1-.64.2,0,.24.12.41,0,.34-.19.5-.9.75-1.22s.92-.21,1.22-.94c.1-.26-.05-.51,0-.76a3.46,3.46,0,0,1,.86-1.35h0a.25.25,0,0,1,0,.07v.11l-.32.42.12.08a.69.69,0,0,1,.76-.13.06.06,0,0,0,0,0,.28.28,0,0,1-.11-.24c.12-.06.25-.28.39-.34H217c.19-.08.33-.23.5-.3l0,0c-.09.42.26.48.09,1h0l.36-.46a1.73,1.73,0,0,1,.36-.62,2.7,2.7,0,0,1,1.57-.61l.72.37,0,0a1.62,1.62,0,0,0-.1-.18c.24-.46,1-.5,1.37-.45a1.29,1.29,0,0,1,0-.19h0l.64-.59c-.08-.06-.11-.08-.11-.15a2.56,2.56,0,0,1,.94-1.11l.82-.62c.24-.13,1.5-.34,1.54-.37s0-.17.06-.24.35,0,.55.11c.65.21,1.46.71,2,.13.17,0,.33.09.41.26-.07.33.2.61.29.91s-.06.73.08,1.06.44.57.45.88l.06,0c.31-.21.16-.72.25-1l.71.15a3.28,3.28,0,0,0,.6-1,1,1,0,0,0,.3.32v0c-.21-.33,0-.76-.14-1.1s-.31-.39-.26-.61a4.47,4.47,0,0,1,.29-.58,2.81,2.81,0,0,0,.51-.22c.43-.3.68-.75,1.19-.59l0-.07a1.38,1.38,0,0,1,0-.2c.13-.16.63-.28.8-.11s-.05.29.51.51a2.85,2.85,0,0,1,.15-1.31c.15-.28.58-.32.78-.5l.6-.65c.36-.35.32-.79.79-1.08a16.47,16.47,0,0,1,2.61-.83c.39-.16.54-.69.93-1a4.48,4.48,0,0,1,2.21.74,3.75,3.75,0,0,1,1.19,2.74c0,.15-.05.3-.07.45s.19.23.33.44a3.37,3.37,0,0,1,.59,1.46l0,0-.33,0-.09.09a10.26,10.26,0,0,1,1,1c.43.24.86.48,1.3.71s.54.58.77.81a2.26,2.26,0,0,0,.57.32.83.83,0,0,0,.5,1l.47.26c.13.14.07.36.13.52l.34.6c.13.28.15.66.42.9l.42.2c-.23.4-.32.85.12,1.14a5.17,5.17,0,0,1-.74,1.22,2.77,2.77,0,0,0-.49.67c.26.25.12.36.1.66,0,.13.07.26.11.4s-.23.11-.29.25a9.46,9.46,0,0,0-.05,2.07c0,.3.23.47-.06.8l.1.07c.31-.19.53.27.58.47a2.46,2.46,0,0,1,.52.15c1.49.72,1,1.5,1.41,2.39l.63,1a3.75,3.75,0,0,1,.35,1.31c-.39-.43-.27-1.12-.76-1.41h0a.62.62,0,0,1-.33.39l0,0c.16.18.31.36.48.53s0,.58.14.81l.71.74a5.19,5.19,0,0,1,.43,1.46c.15.46.42.88.26,1.39-.11.32-.39.34-.52.53s-.12.51-.28.75c-.56,0-.77.27-1.05.83-.18.05-.41,0-.56.16,0,.09.07.18.1.28l.08,0c.52,0,.87-.41,1.34-.42.17.13.13.19.22.31.29.4.65.09.9,0,.13.07.33.11.37.21a3.11,3.11,0,0,1,.33.89c.06.17.22.3.29.48.19.49-.35,1.47-.61,2.09A4.3,4.3,0,0,1,253,349c-.1.1-.36.31-.35.38.12.3.51.22.67.18a3.1,3.1,0,0,0,.39.67c.18.19.41,0,.56.21s0,.24,0,.4a1.76,1.76,0,0,1-.45.92c-.25.21-.69.35-.85.67a.88.88,0,0,0,0,.15c.27.15.46.11.69.23s.22.26.43.36c.14-.07.57-.08.56-.41l0-.07h-.23c0-.16.1-.31.16-.47h0l.58.26,0,.09c0,.1-.06.26-.16.3s-.16,0-.24,0a1,1,0,0,0-.27.69h.09l.45-.39,0,0a1.66,1.66,0,0,0,0,1c.51.34.66.31.72.84.15.07.25,0,.35.06l-.38.75c-.11.52.08,1.47.86,1.57a1.74,1.74,0,0,0,1-.31c.15-.12.26-.33.42-.38,1.07.42.44,1.49.65,2.17.07.15.13.3.19.45.24.25.54.24.64.57s-.24.75-.13,1.08c.31,1,1.57.77,2.13.91a.78.78,0,0,1-.54.53l0,.11c0,.2.11.35,0,.56s-.32.45-.23.7l0,0c.16.37.69.51.87.87-.06.12-.12.25-.17.38l-.4.17a5.92,5.92,0,0,1-.3-1l0,0-.27.12a3.6,3.6,0,0,1-.38,1.15.75.75,0,0,1-.25-.13c.16-.34.19-.61.33-1-.18.05-.36.35-.51.59-.2-.14-.18-.23-.32-.36a.36.36,0,0,1-.41.09c0,.11,0,.23,0,.34l-.21.15c-.11-.11-.1-.19-.25-.3h0c0,.09,0,.19-.08.29a.5.5,0,0,0-.32,0,.56.56,0,0,0,0-.12c0-.08,0-.09,0-.17l-.16,0c-.16,0-.3.19-.51.21a.74.74,0,0,0-.14-.85c-.09.16-.11.37-.25.4l-.35-.13a2.28,2.28,0,0,1,0-.26.8.8,0,0,1-.5-.05c0-.11,0-.23,0-.35l-.19-.08c0,.12,0,.24,0,.36l-.68-.43-.12-.26-.48-.26c.19-.28.31-.22.51-.48l0-.1-.07-.05-.34.14-.39.59-.12-.08c0-.15-.19-.26-.25-.4s.12-.14.09-.21l-.12-.16c-.4.07-.42.31-.77.55l-.17-.12-.19.35c-.06,0,0-.05-.07-.12a1.48,1.48,0,0,0-.15-1c.11-.18.15-.25.3-.3l.16.1a.56.56,0,0,0,0,.42l.23.09,0,0c0-.14-.11-.22-.1-.36l.06-.05a.78.78,0,0,0,.34.19.06.06,0,0,0,0,0c-.06-.17-.13-.34-.2-.51-.41-.54-.51-.18-.52-.89-.12.1-.27.21-.37,0s0-.22,0-.35a1.06,1.06,0,0,0-.14-.54l-.13-.05-.43.2a1.12,1.12,0,0,1-.33-.32c-.33-.34-.54-.21-.39-.69-.18-.08-.48,0-.64-.27a.28.28,0,0,1,0-.28.52.52,0,0,0-.11-.1c-.14,0-.21,0-.34.06l-.21-.26a.75.75,0,0,0-.22.22c.1.23.07.47-.19.55-.23-.11-.41-.05-.6-.12-.78-.26-.68-1-1-1.39l-.05,0c-.24-.21-.58-.21-.83-.32l-.65-.45-.56-.11a.07.07,0,0,0,0,0,1.78,1.78,0,0,0,.17-.41,29.23,29.23,0,0,1-1.8-2.47c-.16-.21-.16-.5-.38-.68-.12,0-.34-.05-.42-.15l-.16-.45-.32-.13a7.64,7.64,0,0,1-1.52-.84c-.14-.19-.13-.47-.3-.66s-.55-.11-.78-.33l-.63-.74c-.05-.11-.09-.23-.13-.34a4.84,4.84,0,0,0-1.35-1.16c-.09-.16-.16-.32-.24-.48l-.37-.16a2.51,2.51,0,0,1-.85-.72,2.21,2.21,0,0,0-.25.05l-.23-.15c0-.1,0-.19,0-.29-.65-.61-2.84-2.3-3.63-2.32-.28,0-.51.32-.77.39l-.54-.08-.85.49a8.63,8.63,0,0,1-3,1.25h-.65l-.5-.34a2.24,2.24,0,0,0-.73,0c-.56,0-1.06-.26-1.57,0-.65-.53-2.65-.49-3.39-.5l-1,0c-.38.09-.69.41-1.07.52,0,0,0,0,0-.06a.91.91,0,0,1,.15-.32c-.36-.34-.78,0-1.22-.24-.35-.65,0-1.52-.43-2.06-.11-.13-.33-.16-.46-.26,0,.49.29.83-.45.89l0-.06a.26.26,0,0,0,0-.21,3.55,3.55,0,0,0-.9-.38c0-.2,0-.41.06-.61h-.23c-.15-.17-.05-.38-.16-.53s-.49-.22-.53-.39c.12-.46.29-.69.15-1.09a.61.61,0,0,0-.26,0l0-.1a1.69,1.69,0,0,1,.21-.31c-.13-.16-.24-.09-.45-.24,0-.18.29-.53.27-.71l-.54-1.08-.41.06-.38-.44c-.23-.12-.49-.09-.69-.25.05-.11.08-.18,0-.28s-.27.11-.44,0a.79.79,0,0,0-.18-.28,2.89,2.89,0,0,0-.72.08c-.17-.18-.14-.34-.34-.43a.49.49,0,0,1,.21,0c0-.15-.11-.33-.08-.47-.24-.1-.45,0-.66-.09h0c.27-.14.52,0,.81-.08a.13.13,0,0,1,0-.06c0-.06,0-.08,0-.14l-.34-.07-.27-.94c.06-.12.11-.25.17-.37-.35-.47-.83-.52-.75-1.2,0-.09,0-.22.07-.29s.17-.09.32,0a1.1,1.1,0,0,1,0-.18c-.21-.12-.26-.22-.26-.38a1,1,0,0,0,.44-.91c-.19,0-.59,0-.74-.19s0-.21.12-.34h0c-.09.05-.15,0-.27,0a.38.38,0,0,1-.08.32c-.48-.12-.79.09-1,.68a.44.44,0,0,0,.21.16,1.21,1.21,0,0,0-.06.72c.26.05.42-.15.71,0-.14.27,0,.45-.27.69l-.08,0c-.13-.14-.37-.11-.52-.13h0l.18.17a.52.52,0,0,1-.6.11c-.24.32-.53.4-.66.76l.09.23a.62.62,0,0,0-.69-.09.43.43,0,0,1,0,.05h.28v0a.4.4,0,0,1-.38.19c-.26-.58-.66-.05-1,.16-.12.07-.33-.07-.45-.08l-.45.22h0l.23.07c.1-.08.14-.12.26-.12l.06.27,0,0c-.35-.08-.37.3-.91.15-.06-.12,0-.24-.13-.34l-.08,0a1,1,0,0,0-.21.11l.06-.14-.08,0c-.15.15-.53.11-.71.12-.54,0-1,.28-1.59.35l-.07-.05.13-.19c-.19,0-.35-.08-.5.07a.76.76,0,0,1,.13.23,7.76,7.76,0,0,1-1.87,1.52c-.28.23-.31.52-.59.62-.78.28-2.24.39-2.9.9s-.33,1.08-.6,1.64a7.38,7.38,0,0,1-1.07,1l-1,.52-.5.5-.93.55c-.35.16-.84.17-1,.52l-.83.7-.9.12-.63.36a2.42,2.42,0,0,1-.76,0l-.26,0c-.12-.07,0-.33,0-.44s-.14,0-.22,0c-.11-.48-.56-.41-.9-.41l-.17-.23-2.39.27-.59.22a3.54,3.54,0,0,0-.39-.14l-.42.26h-.39c-.09,0-.11.21-.11.25l-.14,0a.5.5,0,0,1-.39-.43c-.32-.09-.48,0-.57.27-.6-.18-.6.2-1,.15-.13-.13-.18-.19-.32-.2l-.49.35a5.61,5.61,0,0,1-3.27-.35c-.15.09-.3.21-.45.32a.41.41,0,0,0-.26-.08l-.16.12.08.16c-.17.21-.4.26-.59.4.14.12.26.38.45.42l.34,0,.62.39c.36.06.65-.26,1-.26s.63.18.89.13l.38-.22a1.8,1.8,0,0,0,.66.23l.25-.22c.49.09.68.4.94-.08.24.06.54.22.82.28l1,.12c.4.13.31.3.7.2,0-.11,0-.22,0-.32l.69,0c.15-.05.18-.14.34-.13a.84.84,0,0,1,.22.63l-.12.08a3.5,3.5,0,0,0-.46-.14c-.21,0-.37.14-.56.21a5,5,0,0,1-1.48.37c-.22,0-.33-.32-.55-.37a1.42,1.42,0,0,0-.73-.07c-.13.05-.2.17-.32.21l-.44.06c-.09.46-1.3.74-1.67.7.21-.17.46-.42.34-.65-.1-.49-.76-.35-1-.27a7.19,7.19,0,0,1-1,.36l-.52-.15c-.12,0-.19.13-.33.09s-.31-.18-.49-.18-.66.13-.87-.23l-.39.09-.31-.21c-.38-.1-1.58-.37-1.59.2l-.1.05c-.09-.1-.13-.09-.25-.08-.31.48-.5.29-.8.5l-.49.65c-.15,0-.17.08-.28-.06s-.24-.16-.35-.22-.11.12-.22.12c-.19-.21-1.14.3-1.61,0,.08-.18-.09-.22-.23-.25a.9.9,0,0,1-.54.27c-.11-.17-.29-.05-.42-.25l-.05-.07.05,0a.33.33,0,0,0,.41-.06l-.06,0a1.1,1.1,0,0,1-.64-.05h0l.23.18c-.08,0-.12,0-.15.08l-1.39.16,0,0a2.7,2.7,0,0,1-.38-.15l-.14-.19c-.3-.12-.66.08-.94,0s-.39-.63-.88-.85c-.32-.14-1.34-.26-1.54-.6-.06-.1,0-.21,0-.31l-.2-.32-.3,0c-.3-.1-.55-.52-.71-.7a4.25,4.25,0,0,0-1.25-.93l.12-.19-.24.23-.54-.37a1.77,1.77,0,0,0,0-.2l-.19.11c.06.06,0,0,0,.1v0c-.55-.37-1-.17-1.44-.51.09-.28.43-.38.62-.56s.36-.81.81-.48c0,.14.1.3.14.45h0c.13-.13.27-.08.36-.18-.27-.25-.25-.67-.72-.86l-.61-.19c-.33,0-.74.32-1-.06a.93.93,0,0,1-.17.42l-.42-.08.36.6a.8.8,0,0,1,.94-.05l.09.18a2.06,2.06,0,0,1-.61.57A78.63,78.63,0,1,0,265.86,235.26,80.71,80.71,0,0,0,258,230.48Zm-52.8,12.27,0,0a.5.5,0,0,0,.46-.07,1.71,1.71,0,0,1-.32-.4c.06-.07.11-.15.17-.21a.66.66,0,0,1,.44.58h0l.21-.11s0,0,0,.05a.85.85,0,0,1,.06.52l-.29,0c-.07.12-.17.32-.3.32C205.08,243.35,205.26,243.1,205.15,242.75ZM202.42,244c.1-.2.21-.4.32-.6s-.16-.44-.17-.66.12-.32.17-.48l0-.1s.05,0,.08-.06c.11.26.18.25.47.42,0,.14,0,.19.13.31-.24.42-.52.71-.68,1,.19.21.15.34.21.56l-.34.06A.75.75,0,0,1,202.42,244Zm-58.19,67.41a4,4,0,0,1-.53.89c-.07-.41-.12-.81-.18-1.21a1.09,1.09,0,0,1,.23-.45c.21,0,.31-.11.56.05C144.24,311,144.34,311.18,144.23,311.45Zm-.14-1.76a1.69,1.69,0,0,1-.68.59c0-.26-.07-.52-.1-.78a1,1,0,0,1,.78.14Zm-1.21-5.21c.3.32.72.64.28,1.07a.8.8,0,0,1-.21.13C142.92,305.28,142.9,304.88,142.88,304.48Zm.09,1.44h.08l.06.43a.73.73,0,0,1-.1.13C143,306.29,143,306.11,143,305.92Zm3.91.69c.54.1.47,0,.91-.06l0,0c0,.23,0,.48,0,.71-.21.6-1.18,1.07-1.55,1.36-.21.17-.32.39-.54.49,0,0,0,0,0-.08-.16-.27,0-.54,0-.84s-.37-.5-.46-.7l.12-.27A7.83,7.83,0,0,1,146.88,306.61Zm-3.2-8.21c.07.71.57,1.36.62,2.07-.3.44-1,1.14-1.1,1.57l.22,0,.49-.12c.33.44.14.93-.36,1.25a1.25,1.25,0,0,0-.75-.17c0-1.23-.05-2.46,0-3.69.22-.41.26-.88.85-.93Zm45.63,16v0l-.12-.06h0l0,0,.06,0,.13,0,.49.09-.06,0A1.24,1.24,0,0,1,189.31,314.43Zm13.81,10.31c-.1.16-.19.14-.31.24s-.05.31-.09.44-.79.5-.89.5a2.17,2.17,0,0,1,0-.26c.29-.45.84-1,1.23-1A.23.23,0,0,1,203.12,324.74Zm-1-1.76-.57.66c-.26.27-.31.68-.57,1h0l-.06-.25a.47.47,0,0,0-.14-.46c-.32.11-.65.59-1,.73-.15-.09-.44-.2-.57-.13s-.33.46-.48.6-.64.35-.92.57-.52.76-.91.89l.15-.41H197c-.69.62-.4.81-.49,1.35,0,.16-.21.33-.23.46a.47.47,0,0,1-.09.7.36.36,0,0,0,0-.11l0-.25a.48.48,0,0,1-.31-.28,9,9,0,0,1,.25-1.19l.36-.65a6.65,6.65,0,0,1,1.1-1.25l.14-.2.71-.2c.44-.26.72-.74,1.16-.91l.53-.07c.33-.22.82-.89,1.15-.94l.14.22h.07a1.71,1.71,0,0,1,1.08-.81s0,0,0,0A9.18,9.18,0,0,0,202.12,323Zm4.52-3.85c-.2.09-.55,0-.61.46a.44.44,0,0,0-.21.2c-.07.19.09.44-.12.56l-.27,0a1.13,1.13,0,0,0,.26.91c-.16.14-.52.11-.72.15l-.34.6-.46.51c-.06.13,0,.2,0,.34s-.33.2-.55.17l0,0c0-.06,0-.12,0-.17.39-.31,1-.93,1-1.38h-.07c-.44.31-.4-.1-.67-.11s-.43.29-.61.39l-.07,0,0-.09c0-.07.07-.15.11-.23a6.37,6.37,0,0,1,.68-.69c.14-.15.08-.26.12-.37l.24-.27a.63.63,0,0,1,.07-.27c.3,0,.44-.3.64-.5.54.16,1.05-.59,1.59-.59A1,1,0,0,1,206.64,319.13Zm9.69,4c.08.19.31.25.47.44-.09.17-.23.4-.37.61l0,0s0,0,0-.06l.06-.32a.3.3,0,0,1-.2-.14c-.09,0-.11,0-.19.1a.14.14,0,0,0,0-.06,1.29,1.29,0,0,0,.21-.47l.06-.1Zm-8.5-5.49c-.15.22-.1.35-.3.52a1.93,1.93,0,0,0-.34-.19l0-.13c.2-.28.52-.8.8-.89C208.24,317.22,208,317.35,207.83,317.64Zm-19.7-19.09c-.42-.16-.48-.94-.65-1.22l.4-.16c.07.17.3.39.34.58s-.13.43.13.57l.16-.07c.11-.36-.4-.87.34-.89C189.17,297.76,188.72,298.77,188.13,298.55Zm61.35,60.93.11-.22c0-.07,0-.07.09-.07a.27.27,0,0,1,.29,0c0,.14.05.29.07.44l.4,0,.45.47s0,0,0,0c-.17.14-.26.24-.47.22C250.22,360.11,249.69,359.81,249.48,359.48Zm10.43,6.2-.05,0-.12,0-.36-.25v0a.47.47,0,0,1-.16.23c-.15,0-.18-.12-.26-.22.15-.17.27-.28.25-.47l.1,0A1.54,1.54,0,0,1,259.91,365.68Zm5.59-4.34a.61.61,0,0,1,.05.12c-.19.29-.31.86-.5,1l-.4.25-.6.74c-.13.25-.26.5-.38.75s-.38.08-.5.36-.11.45-.23.71h0a4.79,4.79,0,0,0-.36-.41c.18-.35.37-.77.72-.78l.11-.22a1.26,1.26,0,0,0-.55,0c-.37.19-.28.28-.72.21l0,0c0-.22.07-.44.11-.66l-.14-.1-.07,0c-.15.27-.2.61-.43.7h0c-.33-.38-.17-.86-.27-1.27.28-.12.54-.5.82-.59l.08.06c.07.21,0,.45.25.45.28-.46.68-.29,1.1-.37a2.34,2.34,0,0,0,1.88-1.07ZM233.94,240.25a.17.17,0,0,0-.15-.11l.35-.4c.07-.3.15-.61.23-.91.07.24,0,.5.08.74h.22c-.19.31,0,.52-.24.88.07.06.06,0,.06.11a1.83,1.83,0,0,0-.39.31,2.7,2.7,0,0,1-.36-.09A3.07,3.07,0,0,0,233.94,240.25Zm-4.79,6.44,0-.08c-.06-.05-.06-.05-.07-.09l0,0c.09,0,.13-.06.22-.12s0-.1,0-.15h.07l0,.09c.07-.08.08-.06.16-.07.1-.18.2-.37.31-.55a1,1,0,0,0,.43-.46h0a1.14,1.14,0,0,0,.11.11l.07,0c0-.16.08-.3.09-.46a.83.83,0,0,1,.19.25c-.21.36-.43.72-.65,1.08l-.11-.08c-.25.17-.52.61-.77.76ZM222,252.47c.52-.21.65-.42.88-1a1.11,1.11,0,0,1,.23-.46h0c.12.18.25.66.54.73.13,0,.25,0,.31.05a2.79,2.79,0,0,0,.07.4,11.16,11.16,0,0,1-1.52.89c-.25.14-.29.33-.57.29C221.63,253,222,252.83,222,252.47Zm-5.85,1a3,3,0,0,1,.07-.7l-.2-.18a.06.06,0,0,1,0,0l.09,0c.46.3,1.14.67,1.23,1.12l-.08.08-.08-.05-.11.13-.12,0a1.31,1.31,0,0,0,0-.15l-.17.12s0,0,0,0l0-.13h0c-.07.11-.05.12-.15.1a.49.49,0,0,0,0-.12c-.09,0-.12,0-.24,0a.31.31,0,0,0,0-.09A.13.13,0,0,1,216.11,253.46Zm1.16,1.15a1.51,1.51,0,0,0,.25-1c.14-.1.71-.17.89.07.05.06.08.19.16.27l.37.18c.22.12.28.33.38.47-.1.1-.24.17-.27.34l.09.26c-.48.46-.7-.26-1.21-.49-.26-.11-.42,0-.65-.1A.11.11,0,0,0,217.27,254.61Zm-22-.53c0-.08,0-.18,0-.28l-.37,0a.33.33,0,0,1,0-.29.88.88,0,0,0,.26-.28l-.5-.07c0-.12.07-.24.11-.36h-.32a1.61,1.61,0,0,0-.09-.26l.37-.17c.28-.23.23-.84.57-1.06.13,0,.16,0,.18.1.21.41-.23,1,.22,1.31h.09c.28-.4.77-1.35,1.11-1.48.09,0,.1,0,.14.06.26.37.81,1,.49,1.52h0l.31-.15s0,0,0,0a1.26,1.26,0,0,1-.33.89h0c.44-.29.29-.43.49-.76a2.07,2.07,0,0,1,1.08-.4c.31.07.57.3.88.27s.22-.2.39-.29l.71,0c.18,0,.53.28.53.27.57-.07.64-.31.9.35l.22-.21c-.17-.47.39-.75.7-.85l.43.24a2.6,2.6,0,0,1,.06,1.47h0c.12-.14.54-.66.58-.67l0,0,.22.15c0,.14-.14.37,0,.48-.2.23-.1.4-.19.6l-.37.41c0,.12-.09.24-.14.36s-.17.05-.24.18l-.33.68.13,0a4.61,4.61,0,0,0-.77,1c.48.35.2.5-.13.66a.25.25,0,0,1-.13.26,1.29,1.29,0,0,0,0,.78l-.18,0-.23.19,0,0c.11-.35.13-1.13-.18-1.39.15-.16,0-.19,0-.35.05-.36.41-.47.56-.85-.17-.12-.18-.33-.27-.5a1.63,1.63,0,0,1-.16.62v0h0l-.53.3c-.14.21-.29.41-.44.61l-.28.08a.51.51,0,0,1,0-.13c-.1-.18.2-.65.06-1-.13-.1-.27-.25-.4-.26l0,0-.22.33h0c-.23-.43,0-1,.41-1.48h0c-.41-.06-.47-.36-.85-.63h0l-.13.3a1.36,1.36,0,0,1-.41,0,1.18,1.18,0,0,1-.23-.6c-.42.37-.16.36-.37.7-.1.08-.18.16-.28.23a.23.23,0,0,1,.1.2l-.35.31c-.21-.2-.27-.74-.48-.76a.35.35,0,0,1-.39-.09.41.41,0,0,0,0-.29l-.23-.09,0,.07a4.57,4.57,0,0,1,0,.82l0,0c-.32,0-.44-.5-.6-.72l-.25.09a.05.05,0,0,0,0,0,.93.93,0,0,1,.07.33l-.18.09-.31-.61Zm2,1.25-.06.06a.69.69,0,0,1-.3-.2c0-.05,0-.09,0-.14l.27.14A.57.57,0,0,1,197.29,255.33Zm.65,5.56c.09-.13.28-.36.28-.48s-.15-.18-.18-.27.22-.37.08-.52l-.18.37a.07.07,0,0,1,0-.05c0-.06-.05-.13-.08-.19s-.07,0-.11,0c-.14-.22,0-.3,0-.56l-.15,0a2.35,2.35,0,0,1-.67.77l-.06-.18-.11,0a2.72,2.72,0,0,0,.11-.25c-.19-.08-.15-.1-.19-.26l0,0c-.15,0-.18.12-.24.29l-.1-.06a.65.65,0,0,1-.18-.43,4.38,4.38,0,0,0,.75-.83.42.42,0,0,1-.19-.06.49.49,0,0,0,0-.51l-.31.45a.29.29,0,0,0,0-.09,1.8,1.8,0,0,1,.08-.21.65.65,0,0,1-.11-.9.27.27,0,0,0,.35-.12,1.45,1.45,0,0,1,.64-1,5.29,5.29,0,0,1,1,.3.88.88,0,0,1,0,.82,2.11,2.11,0,0,1,1.27.44c.14.19.15.41.38.63-.07.13-.15.25-.22.37l0,.13c-.1.19-.21.38-.32.57s0,.56,0,.83l-.16.26a3,3,0,0,1-.29.79,1,1,0,0,0-.37-.22l-.15.29c-.1-.05-.17-.05-.24-.12a1.74,1.74,0,0,1,.05-.22h0c-.09.12-.17.22-.25.34Zm-30.46-9.36h.07l-.13.46c.21-.06.4-.36.59-.52h0a.63.63,0,0,1,0,.35s-.09,0-.14,0a.84.84,0,0,0-.21.21,10.15,10.15,0,0,1-.82,1.1c-.09.08-.35.29-.42.13a4.4,4.4,0,0,1,.2-.77c.23-.52.58-.54.84-.9Zm-1.37,1.62.06-.67a7.15,7.15,0,0,0,.41-.79l0,.06c0,.16-.09.33-.14.5s0,.23,0,.35-.1.26-.16.39a1.72,1.72,0,0,1-.14.4l0,0C166.06,253.37,166.11,253.24,166.11,253.15Zm-.64.56c0-.11-.08-.24-.11-.33s.11-.25.17-.37.25-.35.35-.29A3,3,0,0,1,165.47,253.71Zm-2.93-3.81c.16-.06.44,0,.56-.23,0-.06,0-.26.07-.29s.1.05.11.1a3.72,3.72,0,0,1-.09.81.27.27,0,0,1-.14.07l-.46,0C162.54,250.31,162.6,250,162.54,249.9Zm1,1.08c-.08.17-.49.29-.52.07l0,0,.19-.16C163.43,250.74,163.51,250.74,163.53,251Zm-2.95-.26.66-.24c.07,0,.21-.11.28-.07s0,0,0,0l0,0-.3.1-.25.19-.16.05c-.11.05-.18.17-.3.19s-.22-.09-.32-.13C160.3,250.74,160.43,250.76,160.58,250.72ZM144.42,284c.06,0,.1,0,.12,0a2.73,2.73,0,0,1-.24.54Zm-.34,1.78a.46.46,0,0,1,.18.16c.19.36-.08.77-.41,1.13C143.92,286.68,144,286.25,144.08,285.82Zm-.41,2.36c.34-.38.68-.79,1-1.08s.33-.57.55-.67l.3,0,.26.18c0,.15,0,.3.08.45l-.55,1.26a3.32,3.32,0,0,1-.29.92l-.89,0-.23.41-.43.25C143.51,289.29,143.58,288.73,143.67,288.18Zm-.25,1.78h0l.43.13a2.66,2.66,0,0,1-.54.64C143.35,290.48,143.38,290.22,143.42,290Zm-.44,4.28a1.13,1.13,0,0,0,.57-.4c0-.16-.08-.32-.13-.47a7.82,7.82,0,0,1,1.65-3.19l.86-.36c.47-.34.55-.65,1.07-.63l0,.06c-.05.2-.23,1,0,1.1l.49.13a9.37,9.37,0,0,1-.9,1.53c-.14.09-.29.16-.44.25-.14-.07-.42-.22-.55-.17l-.28.19a.37.37,0,0,0,0,.11l.49.31a3.46,3.46,0,0,1-.67,1.21c-.25.22-.55.29-.79.55l.24.25a5.09,5.09,0,0,1-.85,1.36.92.92,0,0,1-.69-.22c-.1.21-.23.48-.16.66s.1.17.14.26a.75.75,0,0,1-.26.6C142.84,296.32,142.9,295.28,143,294.24Zm18.33,5.57a1,1,0,0,0,0,.52c-.32.28-.6.78-1,.92s-.7-.16-1.15.48a1.42,1.42,0,0,1,.08.18l.35.15a.19.19,0,0,1,0,.08c-.4.68.12,1.12-.36,1.81a1.63,1.63,0,0,0-.65-.34c-.19.4-.37.81-.54,1.22l-.07,0a1.34,1.34,0,0,1-.1-1.14c-.88-.15-1.3-1.15-1.76-1.74l.57-.16.22.29a.86.86,0,0,0,.49-.28c0-.1-.1-.2-.14-.3a6.49,6.49,0,0,1,1.24-.51c.72-.35.71-.91,1.61-.18.23-.26.4-.64.67-.81l.45-.19ZM167.26,284c0,.13.15.34.16.43-.09.45-.52.27-.55.79h0a.77.77,0,0,1,.72-.1.77.77,0,0,0,0,.8.94.94,0,0,1-.61.16v0c.17.15.34.3.5.46l.54.21,0,0a1.25,1.25,0,0,1-.66.43c-.17,0-.25-.1-.4-.09s-.05.27-.07.41c-.19,0-.34.06-.56-.06-.06-.09-.13-.18-.19-.28-.18.08-.28.31-.48.43-.47.28-.95.1-1.4.61.05.17-.11.41.06.54l.72-.09a.32.32,0,0,1,0,.09c0,.11-.11.21-.17.32a1.17,1.17,0,0,0-.78.21,6.1,6.1,0,0,0,1,.16l.33-.34c.44.07.88.11,1.3.14l0-.11V289c.19-.16.47-.11.69-.21l.52-.3,0,0a1.43,1.43,0,0,1-.08.22l.06.11c.65,0,.9-.56,1.65.08l-.09,0a1.92,1.92,0,0,0-1,.08c.41.36.85,0,1.31.35h0l-.26.26.76.11a1.68,1.68,0,0,1-1.06.26c-.49.83-1.2.66-1.87.88l.4.18c-.32.23-.57.17-.88.62.58.31,1.25-.27,1.76-.47a2.72,2.72,0,0,1,1.83-.11l-1.55,1.12c-.29.26-.41.57-.71.7l-.54.07-.29.32-.26.11a1,1,0,0,0-.2.23c-.37.1-.55.47-1,.38a1.3,1.3,0,0,0-.11-.51l-.54.26-.32.33a1.07,1.07,0,0,1-1.19,0c-.31.46-.59.47-.91.82l.06,0c.12,0,.35.1.39.2s0,0,0,.1l-.65.53c0,.19.07.37.1.55a4.51,4.51,0,0,1-1.3,1.34c-.43-.27-.52-.53-.3-1-.07-.08-.32-.23-.34-.3a3.8,3.8,0,0,1,1-.95l.5-.07,0,0c-.19-.12-.3-.13-.41-.27a6,6,0,0,0,.41-1c.11-.15.23-.28.34-.43l0,0-.09-.11a5,5,0,0,1-1.17.11,11.48,11.48,0,0,1,.08-1.24c-.07-.14-.15-.26-.23-.39s-.11-.46-.17-.69a3.16,3.16,0,0,0-1.66-.23,2.92,2.92,0,0,1-1,.55l-.68-.08c0,.15,0,.3,0,.45l-.21.31c-.06.23-.22.54-.29.78v0l-.45-.2c.14-.28.29-.54.44-.82L157,292l-1.33.48-.24.31-.26.11c-.56-.3-.74.07-1.19.24l-.49.12-.09.32c-.16.16-.77.37-.79.58,0,0,0,.08,0,.13l0,0c.47.07,1.09-.89,1.67-.79a.38.38,0,0,1,.2.14,1.34,1.34,0,0,1-.08.41c-.27.56-1.26.66-1.27,1.15h0c.24.15.45,0,.64.17-.19.1-.7.18-.8.47l-.09.42a1,1,0,0,0-.52.37l-.12.31-.86.84-.61.89-.3.2a1.07,1.07,0,0,0-.43-.23l-.34.32a2.15,2.15,0,0,1,.14.26c-.32.64-1.22,1.46-1.74.94.18-.3,1-1.18.91-1.45-1,.06-1.28.86-2.07,1.54-.45-.35-.53-.47-.39-1a.39.39,0,0,0-.17-.1c-.14.07-.29.12-.44.18-1.25-.76-1.13-3.65.31-4.58l0,.11a4.34,4.34,0,0,0,.43,1.87l.29.13.59-.18c.37.92,1.22.27,1.78.22l.06.08c0,.17-.07.34-.09.51l.18.13.61-.72c-.14-.19-.18-.51-.52-.58s-.37.19-.61.26l-.53,0a1,1,0,0,1-.11-.57,1.61,1.61,0,0,0,.43-.56h-.07l-.45.17c-.07.07-.12.15-.18.22l-.37.14a1.13,1.13,0,0,1-.46-.39v-.34a3.72,3.72,0,0,0,.61-.82h0l-.79.39a.36.36,0,0,0,0-.09c.09-.55.38-2.29,1.19-2.61l.79-.05.66-.07c.21.07.42.83.55,1l.48.33a.65.65,0,0,0,.1-1,1,1,0,0,1,.52-.56l.47.25.28-.21s0-.05,0-.08l-.57-.3c-.67-.93.32-1.4.88-2,.18-.2.19-.49.45-.58s.4,0,.58,0a2.27,2.27,0,0,1,.62-.21l.11.08a1.4,1.4,0,0,0,.05,1l.24,0a1.85,1.85,0,0,0,.14-.14,1,1,0,0,1,.12-.87,7.79,7.79,0,0,1,1,0v-.07a3.43,3.43,0,0,1-.25-.9,4.79,4.79,0,0,1,1-.66h0c.08.28.15.55.23.82.22-.37.2-.62.4-1l.41.23.37-.11c.27-.53.17-1.2,1-1.23.25.35-.16.77,0,1.13a1.09,1.09,0,0,0,.08.15l.23,0a2.54,2.54,0,0,0,.14-.54l.22-.41c0-.11-.07-.25-.06-.38a1.18,1.18,0,0,1,1.1-.25,3.35,3.35,0,0,0-.47.86l.09.1c.3,0,.6-.5.86-.65a.85.85,0,0,1,.47-.09l0,0a3.59,3.59,0,0,1-.45.63c-.14.12-.49.2-.58.46,0,.06,0,.12.05.18h0l.57-.16s0,.08.07.13-.19.35-.27.53c.54.08,1-.59,1.49-.77.16-.06.45.12.62.11.08-.55.29-.44.62-.76s0-.44.28-.61a2,2,0,0,1,1.11-.19l0,0c-.06.18-.13.35-.19.53l.23.15c.3-.43.45-.84.73-1.19a3.65,3.65,0,0,0,.24.31c.29-.28.43-.45.38-.81l.88-.33Zm-9.52,9.54c.08-.18.15-.36.22-.54a1.25,1.25,0,0,1,.69-.36l.62.45a1.37,1.37,0,0,1-.6,1.57C158.1,294.86,157.71,293.92,157.74,293.54Zm-1.48-19c-.09.12-.22.26-.35.22a.63.63,0,0,1-.11-.35,0,0,0,0,0,0,0A.47.47,0,0,1,156.26,274.51Zm5.85,2.29a.51.51,0,0,1,0-.29.45.45,0,0,0,.15-.26h0a.77.77,0,0,1-.13.2l-.06,0,0,0-.08.18-.29.25-.19.19s0,0-.06,0a1,1,0,0,1,.19-.36,3.31,3.31,0,0,0-.41.14s0-.1,0-.19l.13-.17c-.14,0-.21.14-.32.11a1,1,0,0,1,0-.52,1.28,1.28,0,0,1,.85-.81,1,1,0,0,0,.48-.18c.16-.13.57-.48.7-.2a1.39,1.39,0,0,1,0,.81c-.05.17-.16.25-.21.42l-.09.4C162.6,276.69,162.19,276.89,162.11,276.8ZM231,320.29a2,2,0,0,1-.59,1.42,1.56,1.56,0,0,1-1-.76c.24-.36.9-1.29,1.13-1.34C230.65,319.78,231,320.08,231,320.29Zm-39.48-28.12-.38.31-.28-.15,0,.3-.11.11-.13-.07a.65.65,0,0,0-.25-.4h-.31l-.09.06a7.31,7.31,0,0,1,.19,1.36.85.85,0,0,1-.27.29c-.08,0-.06,0-.11-.07.16-.44-.07-.71,0-1.1l0,0-.33.39a.24.24,0,0,1,.08.24.42.42,0,0,0,0,.1h-.07l-.24-.16c0,.09-.09.18-.14.27.17.18,0,.51-.21.74l-.73.8-.42.77c-.11,0-.27,0-.32-.13-.18-.35.06-.81,0-1.18l-.34.29a.43.43,0,0,1,0-.07c-.3-.41.07-.49,0-.85l-.44,0a5.14,5.14,0,0,1-.91-2.45l.24-.68.1-.07.1,0,0,.06a3.84,3.84,0,0,1-.13.41c.67.09.45,1.2,1.07,1.6.12-.31-.17-.47,0-.77.11-.08.23-.17.35-.24,0,.14.06.29.08.44h0l0,0a1.27,1.27,0,0,0,.88-.62,2.12,2.12,0,0,0-.11-.21,1.51,1.51,0,0,1,.76-.67,1.09,1.09,0,0,0,0,.17c0,.18,0,.37.05.56l.07,0a.7.7,0,0,0,.4-.07,1,1,0,0,0,.12-.41l.12-.08.08.05c.06.39,0,.33-.08.72h0a1.58,1.58,0,0,0,.52.09s0,0,0,0a.39.39,0,0,1-.08-.25l.16-.13h0c.18.21.28.24.46-.07C191.27,291.58,191.38,291.94,191.56,292.17ZM178,277.24h0c-.09-.11,0-.34,0-.41l.06-.09a.2.2,0,0,1,.11,0A1,1,0,0,1,178,277.24Zm-5.17-18.45a3,3,0,0,0-.21.32.92.92,0,0,1-.63.43h0s0,.08.05.13.45-.38.57-.22,0,.07,0,.13h0c.07-.07.12-.19.19-.22.22-.11.22.31.27.4a.52.52,0,0,0,.11.1c.07.13-.05.38,0,.47s.22.09.29.19,0,.22.07.3a.43.43,0,0,0,.34.14l.14,0c.08.1.05.25.11.36s0,0,0,0a.29.29,0,0,1,.27.1l.13.24c.1.18.23.32.32.5a.31.31,0,0,1,0,.36.68.68,0,0,1-.22.09c-.07.12-.41.56-.35.64s.31-.23.42-.14,0,.17.08.24a1.84,1.84,0,0,1,.22.17c.09.18-.22.41-.32.5h0l.06,0a.86.86,0,0,1,.14.52l0,0c-.08.1-.2,0-.29,0v0a.43.43,0,0,1,0,.5c.13,0,.22.07.31.12h0c-.06.1-.12.22-.2.25s-.13-.17-.22-.19h-.12c-.09-.06-.09-.24-.14-.34a2.72,2.72,0,0,1-.27-.42,1.22,1.22,0,0,1-.36.57c.12,0,.27,0,.25.17h0l0-.07a1.46,1.46,0,0,1,.08.48c0,.06,0,.2,0,.23s.59-.53.62,0c0,0-.06,0-.06.09s.11.16.11.28a.63.63,0,0,1-.23.43l-.11,0-.07.07a.76.76,0,0,0-.22.11v0l.35.05h0s0,0,0,.05-.17.1-.28.14v.06c.16.2.22.19,0,.59h0c.13-.11.25-.32.39-.39s.41.23.42.37a1.28,1.28,0,0,1-.06.32c-.27.34-.39.14-.54.78l.13-.09c.26.18.33-.16.58-.31l.14-.06h.18c.05,0,.05-.07.11-.06s.15.08.11.2.19-.13.27-.08-.14.19-.2.39,0,.31-.06.48l-.09.32.37-.29c.05-.06.1-.18.16-.2l.15,0a1.36,1.36,0,0,0,.21-.1c.09,0,.29-.12.34,0s-.07.22-.11.28l-.21.33c-.08.1-.17.17-.25.28a.48.48,0,0,0,.18-.08l.09-.14c.11-.13.29-.24.32-.47.08,0,.16.05.19.12s-.11.19-.11.26.08.11.08.17-.11.19-.15.29l0,0c.1,0,.18-.11.28-.13s0,.06,0,.13-.17.16-.25.26v0c.07.07.28-.08.38-.13s0,0,0,.06h0a1.52,1.52,0,0,1-.45.43h0c.06.18.28.06.41.05l.13,0h.11a3.89,3.89,0,0,1-.1.4c0,.17,0,.33,0,.49.09,0,.2.06.3,0s.24-.2.35-.28h0v0c0,.2-.42.39-.54.62a2,2,0,0,0,.73-.53c.18.11.37,0,.55,0a.67.67,0,0,1,0,.63h.05a1.13,1.13,0,0,0,.17-.33l0,.13c0,.1.12.13.11.28.1,0,.28.16.28.23a.14.14,0,0,1,0,.1c-.14.07-.35.31-.28.48s0,.08.08.09.29-.36.45-.42h0c-.06.33.1.14.19.32s-.07.21-.1.3l0,0a.79.79,0,0,1,.2-.17c-.08.15-.15.33-.23.51.12,0,.31-.1.4-.23a1,1,0,0,0,.08-.31,1.4,1.4,0,0,0,.1-.16c.16.11-.06.89-.22,1.27a.32.32,0,0,0,.35-.28,1.67,1.67,0,0,1,0-.29c.1.16.26-.19.41,0a.18.18,0,0,1,.05.11c0,.12-.13.2-.18.27l-.18.3c-.12.14-.33.27-.41.5s.18.32.15.5a.08.08,0,0,1,0,.05c-.09.07-.2,0-.28.14s-.11.38-.21.5c-.28,0-.11-.56-.31-.5l0,0c-.06-.12-.13-.23-.19-.36a.44.44,0,0,0,0,.23c0,.08.15.3,0,.42s-.17-.22-.28-.29-.19.07-.23.2.25.2.16.42h0a.41.41,0,0,0-.19,0,2.4,2.4,0,0,1-.11.23c0-.12,0-.25,0-.37s-.07-.11-.08-.18.06-.28,0-.33-.13,0-.19.06a.62.62,0,0,1-.19,0c0,.08,0,.17,0,.26s-.07.13-.09.2a.84.84,0,0,0,0,.28,1.94,1.94,0,0,1-.13-.54s-.06,0-.1,0-.16,0-.25,0c-.06.22-.08.43.16.26.12,0,.08.23,0,.38.13.09,0,.15-.07.28l0,.32c0,.13-.14.16-.18.25h0c0,.09,0,.12,0,.17a1.42,1.42,0,0,1-.07.22h0s0,.06.08.07a1.68,1.68,0,0,1-.47.68c.07-.17.12-.39.05-.44s-.18,0-.27-.07l-.06.05a.72.72,0,0,0,0,.35.16.16,0,0,1,0,.06c-.17.05-.11-.26-.26-.24s-.43.48-.6.57c.08-.17.14-.34.09-.43h0c-.21.19-.09.22-.12.36s-.06.05-.08.12V279a.48.48,0,0,1-.38.42c0-.11,0-.2,0-.32s-.12.07-.19.06,0-.47-.17-.54c-.1.25,0,.43-.17.73-.11-.1-.08-.21,0-.41a.36.36,0,0,0,0-.14h0a1.86,1.86,0,0,1-.1.37s-.09.07-.14.06,0,0,0-.05a.74.74,0,0,0,0-.27.49.49,0,0,0-.21,0c-.09.12-.19.23-.28.34s-.17.24-.25.37-.36.13-.43,0l-.27-.64c0-.07,0-.2-.11-.25l-.06.05c0,.27.11.42,0,.74h0c-.09,0-.11-.17-.15-.23v0c-.09.11-.08.23-.18.33-.26,0-.08-.3-.19-.42s-.32-.05-.42.13-.09.34-.2.48h0c0-.27-.05-.53-.07-.79a2.61,2.61,0,0,0-.15.37c0,.18,0,.38-.16.54-.19-.06-.22-.15-.42,0l0,0c0-.12.11-.23.08-.3h0a.43.43,0,0,0,0,.07c-.11-.05-.21,0-.33,0a.89.89,0,0,0,.15-.38,8,8,0,0,1,.25-.79c0-.11.09-.21.11-.28s-.19.1-.31.08a.77.77,0,0,1,0,.15c0,.28-.11.55-.17.83s-.23.42-.35.41.06-.22.08-.31a5.42,5.42,0,0,0,.07-.64c0-.07,0-.21,0-.26s-.19,0-.25.06h0a.69.69,0,0,1,.12-.51c.09-.08.24,0,.34,0a1.36,1.36,0,0,0,.61-.48h0a1,1,0,0,0-.29.08l-.21.16a1.08,1.08,0,0,1-.53-.06c0,.11-.07.29-.15.36a.26.26,0,0,1-.32,0s0-.08-.1-.08l-.21.1v0a1.27,1.27,0,0,0,.22.25l.36.21.06.16v0a.5.5,0,0,0-.32,0v.05a.34.34,0,0,0,.08.23l.12.06a1.42,1.42,0,0,1,.12.53c0,.07.06.23,0,.31s0,0-.05,0-.22-.19-.26-.24c-.12-.23-.6-.27-.38-.76-.08,0-.2,0-.27,0s-.13.36-.29.34l0-.07a1.57,1.57,0,0,0-.09-.23.22.22,0,0,0-.14,0,.56.56,0,0,1,0,.27c-.08.06-.16.13-.24.12-.08-.19.07-.55,0-.76h0s0,0,0,0a2.94,2.94,0,0,1-.13.58h-.06c0-.12-.32-.41-.46-.11.07.17-.09.38-.24.47l0,0a.63.63,0,0,0,0-.53c-.11.26-.08.41-.31.49,0,0-.11,0-.13,0s0-.3,0-.4a5.36,5.36,0,0,1,.11-1.28l-.08,0a.46.46,0,0,0,0-.37s-.06,0-.06-.07.09-.42,0-.55a4.8,4.8,0,0,0,.44-.83,1.26,1.26,0,0,0,0-.28,1.09,1.09,0,0,1-.17.13,1.35,1.35,0,0,0-.08.24c-.05.11-.09.22-.14.34a2.58,2.58,0,0,0-.09.35,2.18,2.18,0,0,0-.09.53l.06.48c0,.08,0,.16,0,.25a6.76,6.76,0,0,0,0,.78,1.81,1.81,0,0,1,0,.51c0,.11-.13.19-.19.13s0-.17,0-.2-.11.11-.15.12-.23-.15-.21-.28.11-.18.17-.28.15-.46.15-.47a2.1,2.1,0,0,1-.44.45v0c0-.27.35-.68.36-.94s-.2-.18-.29,0a.58.58,0,0,1,0,.18,3.9,3.9,0,0,1-.42.46h-.23c-.1.05-.17.22-.29.25,0-.12.09-.25.13-.38a4.31,4.31,0,0,1,.89-1.54l.29-.32c-.16,0-.35,0-.48.18l-.13.21-.17.15a2.72,2.72,0,0,1-.11.25c-.22.39-.45,1.12-.7,1.29,0-.1,0-.19,0-.3A2.86,2.86,0,0,0,165,278c0-.18,0-.36.07-.53a1,1,0,0,1,.07-.4c.07-.14.21-.22.3-.34s.35-.51.52-.77c-.08,0-.14,0-.21.08s-.05-.26-.07-.38h0a1.08,1.08,0,0,0-.28.4h0c.14,0,.11.17.11.27l-.09.14c-.11.18-.13.3-.26.34s0-.08-.07-.12a2.16,2.16,0,0,0-.15.67,2.58,2.58,0,0,1-.08.26c0,.14.15.46-.08.69,0,0-.05,0-.07,0l-.12-.38c-.07-.18-.25-.26-.13-.58s.38-.38.41-.51-.05,0-.09,0-.39.43-.45.38l0-.05,0,0,.41-.43a2.91,2.91,0,0,0,.32-.36c.08-.13.15-.28.23-.41a2.76,2.76,0,0,1,.41-.47s0,0,0-.06-.46.41-.6.31,0-.27-.1-.33-.22.24-.18.34h0a.08.08,0,0,1,.11,0v0c0,.16-.11.24-.08.37a4.18,4.18,0,0,1-.29.38l-.15.15-.13.33a1.91,1.91,0,0,1-.22.3c.13-.38,0-.64.07-1a2,2,0,0,1,.27-.42,4.45,4.45,0,0,0,.19-.54,1.35,1.35,0,0,0,.15-.26c0-.14-.08-.34-.23-.23s0,.28-.11.49c0-.1-.09-.19-.13-.29s0-.1,0-.14l-.07,0a2.29,2.29,0,0,1-.08-.28c.05-.16.28-.44.21-.54l0,0h0l-.09.07c-.08,0-.11,0-.18.07s0,.2-.1.42h0c0-.06,0-.17,0-.23s-.16-.05-.2-.08a1.13,1.13,0,0,1,0-.18l0,0s-.06.08-.09.09-.09-.08-.13-.11a.68.68,0,0,0,0-.19c0-.06-.13,0-.19,0s0-.12,0-.15-.1-.11-.13-.18,0-.18,0-.26c0,.1-.11.13-.14.25s0,.25-.12.45h0v-.1h0a.32.32,0,0,0,0,.32c0,.06-.09.07-.13.12a1.51,1.51,0,0,1-.45.43,2.23,2.23,0,0,0-.71.38,1,1,0,0,0-.08.14v0a1.17,1.17,0,0,1-.59.43c-.06,0-.08-.08-.15-.06s-.17.16-.26.14a.68.68,0,0,1,.05-.58l.29-.25c.09-.1.14-.36.23-.46a3.85,3.85,0,0,1,.72-.47,2,2,0,0,0,.44-.22,3.12,3.12,0,0,0,.43-.53.23.23,0,0,0-.09-.24l0,0a.67.67,0,0,0-.06.15.45.45,0,0,1-.28.28h0v-.05c0-.11.13-.18.16-.3h0c-.11-.13-.3.33-.45.21.07-.17.19-.26.16-.4-.23-.05-.63.67-.81.53l0,0,0,0c.09-.09.51-.33.39-.52-.11,0-.24.1-.33.21a.44.44,0,0,1-.08.1c-.17.08-.15-.13-.23-.12s0,.62-.25.74c0-.07,0-.15,0-.23a1.27,1.27,0,0,1,0-.2c0-.17,0-.34.07-.54h0a1.7,1.7,0,0,0-.18.3c0,.14.05.38-.17.48h-.16a6,6,0,0,0,.24-.78l-.06-.11a2.47,2.47,0,0,1-.24.67l-.16.17c-.07.08-.13.16-.22.13a.49.49,0,0,0-.18-.45.4.4,0,0,0,0,.45.17.17,0,0,1,0,.05h0s-.08-.07-.12,0l0,0c.1.1,0,.25,0,.42a.51.51,0,0,1,.32.53c0,.3-.43.62-.58.76s-.14.16-.21.18-.11-.07-.15-.1-.14.07-.18,0,.13-.35.15-.51a1.52,1.52,0,0,0,0-.42c0-.11,0-.24,0-.28s-.05,0-.06.06a1.24,1.24,0,0,0,0,.18.85.85,0,0,1-.36.51c-.09-.14,0-.55,0-.75a.16.16,0,0,0-.21-.12c-.17.08-.28.39-.47.44h0c.08-.21.21-.26.32-.39l.16-.26c0-.05.15-.21.13-.26l-.11-.07c-.17-.11-.34-.09-.48.14-.16,0-.13-.2-.27-.26l0,0-.06.12-.2.16s-.11.15-.15.17a.87.87,0,0,1,0-.4c0-.07-.06-.11-.09-.16s0-.2-.1-.13l-.21.13-.25.06-.11,0c-.11,0-.14-.1-.11-.19l.12-.14s0,0,0,0-.12,0-.18.06-.53.13-.6,0a5.34,5.34,0,0,1-.29.63h0c.05-.25,0-.49.07-.73l-.08,0c0-.07.06-.22,0-.28s-.45.17-.54.22a.76.76,0,0,0-.64-.06c-.1.05-.23.18-.33.19l-.17,0a1.51,1.51,0,0,1-.7-.06,1.53,1.53,0,0,0-.4-.22l-.14.24c-.06,0-.15,0-.21,0s-.23.22-.37.24-.21-.07-.31-.05-.29.3-.44.38-.13.05-.17.12a.71.71,0,0,0-.07.32h0c-.09-.11-.25-.13-.39,0s.08.47,0,.6a.6.6,0,0,1-.26,0,.14.14,0,0,0,0,.06.44.44,0,0,1,0,.38c-.07.12-.17.1-.21.27s.08.12.05.2c-.23.11-.16-.24-.35-.25a.36.36,0,0,0-.06.51h-.05a.46.46,0,0,1-.07.07c-.09,0-.16,0-.24,0s0,0,0,.05c0,.22.14.08.19.17a1.06,1.06,0,0,1-1,.66h-.28c0-.06,0-.19.07-.31l.05,0a1,1,0,0,0,.06-.29L148,276l0,0a2.1,2.1,0,0,1-.62.52c-.16.08-.24,0-.22-.19h0c-.05.12,0,.16-.05.27s-.3.27-.36.11,0-.19,0-.28a.47.47,0,0,1,0-.3l.22-.24c.21-.22.39-.44.59-.65a1.5,1.5,0,0,0,.33-.37h0a.46.46,0,0,0-.25.11c-.12.12-.26.41-.4.38a.08.08,0,0,1,0-.07c0-.28.51-.74.63-.85s.17-.08.21-.17c-.33,0-.07-.18-.11-.4a.49.49,0,0,0-.4.1.27.27,0,0,0,0,.15,2.68,2.68,0,0,1-.07.27,3,3,0,0,1-.35.52c-.06.1-.13.31-.15.33l-.09,0a78.64,78.64,0,0,1,9.87-19.77q1.36-2,2.84-3.86a1,1,0,0,1-.09.34,0,0,0,0,0,0,0l.16-.1h0c.12,0,.11.22.16.28s.09.06.12.11-.27.25-.38.37,0,0,0,.06l0,0c.13,0,.32,0,.43,0s.15-.26.24-.31,0,0,.05,0c.1-.2.23-.18.37-.19h0c0-.13,0-.2,0-.3s.13-.23.18-.33a.79.79,0,0,0,.05-.25.5.5,0,0,1,.25-.25c.08,0,.13.06.13.12a4.28,4.28,0,0,1-.07.48,1.21,1.21,0,0,1,0,.47h0a1.72,1.72,0,0,0,.12-.39,1,1,0,0,1,.07-.31l.14-.16c.11-.19.19-.43.32-.49s.12.06.2,0,.38-.25.59-.24a.22.22,0,0,1,.19.34c-.07.06-.16.05-.23.11s-.09.29-.1.4a1.31,1.31,0,0,1-.36.35,2.08,2.08,0,0,0-.39.51h0c.07-.06.19-.21.26-.2a.26.26,0,0,1,0,.25c.15-.09.24-.33.38-.53a3,3,0,0,1,.22-.26c.05-.05.08-.11.13-.14h0a1.27,1.27,0,0,0,.08.37l.07.12,0,0c-.08.11-.35.34-.32.49.13-.23.39-.31.49-.61-.05-.22-.25-.17-.08-.56a2.08,2.08,0,0,0,.43,0c.09,0,.19.13.25.18s0-.16,0-.24c0-.24.09-.48.13-.72s.34-.38.43-.33.21.29.18.53a.89.89,0,0,0,0,.14c-.08.14-.2.15-.28.28s-.05.46-.17.67-.2.2-.28.31h0c.13,0,.41-.21.49-.07s0,.14,0,.17.09-.17.13-.19.18.15.28.2v0l.27-.39h0a.18.18,0,0,1-.14,0c-.13-.19.26-.57.37-.71s.12-.18.19-.25.69-.16.7,0a1.48,1.48,0,0,1-.13.45.52.52,0,0,0-.07.12,1.55,1.55,0,0,1,.29.59l-.16.23a4.88,4.88,0,0,1-.34.56,1.63,1.63,0,0,1-.38.22h0c0-.15.25-.52.31-.62s0-.2-.07-.24a.35.35,0,0,1,0,.14.3.3,0,0,1-.09.15l-.08.16c-.15.26-.33.73-.14.79a.32.32,0,0,1,.14,0c-.12.17-.21.31-.33.45a.74.74,0,0,0,.34-.26v0a2,2,0,0,0,0,.48l.08.07a.52.52,0,0,1,.12.45c-.13,0-.24.34-.3.53h0v0c.06,0,.17-.2.24-.14s-.19.67.22.51a.34.34,0,0,0,.12-.09c-.19-.11-.17-.25-.17-.51v-.23c0-.13.08-.15.07-.27a6.31,6.31,0,0,1,.51-.52s0,0,0,.06c0,.22.16.39.14.6s-.18.29-.15.4h0c.1-.22.28-.31.43-.26,0,0,0,0,0-.05a1.48,1.48,0,0,1-.16-.27,1.49,1.49,0,0,0,0-.21.26.26,0,0,1,0-.26c.08-.12.2-.13.29-.21s.2-.24.3-.23.16.3.16.37,0,.15,0,.19.34,0,.43-.08a0,0,0,0,0,0,0c0-.09-.07-.17-.1-.26a1.81,1.81,0,0,0-.18-.27,3.08,3.08,0,0,1,.44-.62c.33,0,.28-.13.52-.5a1.86,1.86,0,0,0,.21-.31h0a.25.25,0,0,1,0-.09l0,0c.06,0,.08.07.14.08.13-.18.14-.23.28-.14l.06-.06c0-.12-.09-.22,0-.36a.86.86,0,0,0,.38.13c.1,0,.16.07.23.1l.05,0h0c-.09-.11-.22-.23-.3-.35v0c.35-.3.44-.17.78-.06h0a.67.67,0,0,1,.06-.12s.08.06.1.12c.1-.33.2-.11.31-.05a.32.32,0,0,1,.07-.13.12.12,0,0,0,.15-.05l0,.06c.14,0,.37-.26.46-.07a.27.27,0,0,1,0,.16.4.4,0,0,1-.13.23,2,2,0,0,1-.73.29h0c.18.15.49-.1.59,0s0,.09,0,.15a1,1,0,0,1-.35.73,1.21,1.21,0,0,1-.5.37h-.24c-.05,0-.06,0-.1.1l-.22,0-.18.13a2,2,0,0,0-.4.26c0,.11,0,.13,0,.24a5.91,5.91,0,0,0-.54.57,4.87,4.87,0,0,0-.23.82,8.38,8.38,0,0,0-.93.7,2.69,2.69,0,0,1-.26.42c-.05.05-.12.08-.16.16a.57.57,0,0,0,.46-.25,2.09,2.09,0,0,0,.08-.23c.08-.14.41-.46.5-.37s0,.32,0,.42h0c0-.09,0-.27.09-.37s.19-.12.26-.24c-.12-.19.08-.32.17-.59s0-.33.21-.57a.38.38,0,0,1,.17-.12c.06,0,.21,0,.24,0a2.15,2.15,0,0,1,.23.73,2.53,2.53,0,0,1-.1.42.08.08,0,0,1,0,.08l-.33.89c.11-.07.2-.2.32-.23.41-.1.24.88.49.89l0,0s0,0,0-.05a.87.87,0,0,1,0-.53c.05,0,.09,0,.15,0a2.59,2.59,0,0,0,.2-.92l.12-.34c0-.07,0-.09,0-.2s.16-.09.2,0a4.16,4.16,0,0,1-.08.52c0,.17.21.25.18.47a.61.61,0,0,1-.09.2.52.52,0,0,0-.08.39s0,.07.07.06.06-.37.19-.44l0,0c.06-.17.2-.31.24-.48s-.08-.28-.1-.42a1.89,1.89,0,0,0-.11-.44,3.43,3.43,0,0,1-.11-.8h0l.17,0c.17-.16.22-.51.32-.75a2.55,2.55,0,0,1,.27-.42,2.41,2.41,0,0,0,.24-.63,2,2,0,0,0,0-.53c0-.09-.06-.12,0-.24l.34.14-.11.1c0,.15,0,.4.11.45s.15-.1.2-.06a.07.07,0,0,1,0,.05,1.16,1.16,0,0,1-.15.26h0s.06,0,.09-.08c0,.2-.21.91.13.83l.32-.14h0a.53.53,0,0,0-.09.42c.09,0,.16,0,.25-.07s-.08.33-.05.48a.19.19,0,0,1,.24-.06c0,.12-.07.31,0,.39a.33.33,0,0,1,.32.05s0,.09,0,.12l.09,0a.45.45,0,0,0-.05.32h.1c.14,0,0,.16,0,.25s0,0,0,.07l-.07.1c.12.06.12.46.1.63s0,.13,0,.22l-.06.3c0,.17,0,.32,0,.48s-.09.27-.13.41.21.14.14.36-.26.24-.37.27a.13.13,0,0,0,0,.06c.11.11.3,0,.43.09a.45.45,0,0,1-.11.34c-.26,0-.14.06-.3.27.12,0,.28-.21.39-.14a1.19,1.19,0,0,1-.21.54C173.09,258.67,173,258.69,172.87,258.79ZM163,274c.22-.05.35.27.35.4l-.05,0C162.87,274.56,163,274.26,163,274Zm-3,.8a.51.51,0,0,1-.07-.24s0,0,0,0c.15,0,.4,0,.44.17C160.17,274.88,160.07,275,160,274.81Zm-.41-.75h0c.11-.15.43-.29.29,0A.18.18,0,0,1,159.56,274.06Zm5-23.23a1.69,1.69,0,0,1,0,.24,1.22,1.22,0,0,1,0,.27.76.76,0,0,1-.47.49c-.16-.08-.11-.34-.09-.56S164.41,251,164.58,250.83Zm5.5,2.94c0,.18.08.24.07.4a.23.23,0,0,1-.13.14.06.06,0,0,1,0,0c0,.11,0,.22,0,.33l-.08.26a.61.61,0,0,0,0,.13,2.16,2.16,0,0,1,0,.35,1.41,1.41,0,0,1-.18.44s-.16-.26-.19-.31-.24-.21-.25-.35l.09-.51-.09-.69a.05.05,0,0,0,0,0C169.52,253.92,170,253.64,170.08,253.77Zm12.3,5.15a3.22,3.22,0,0,1-.71.63l-.49.18c-.39.28-.73,1.35-1.21,1.39-.08-.4.09-.68-.08-1.11a.9.9,0,0,1-.76.39c-.11.24-.28.77-.5.91h-.13l0-.05c-.15-.29.51-1.17.49-1.57l-.1-.15-.18-.07a2.63,2.63,0,0,0-.59.46c-.36.38-.19,1.11-.77,1.09a.21.21,0,0,1-.18-.11,4.73,4.73,0,0,1,.31-.72l-.08,0-.37,0c-.3-.5.53-.31.52-.81h0a.78.78,0,0,0-.48,0s0,0,0-.06a1.21,1.21,0,0,1,0-.18c.36-.3.83-.8,1.28-.61.22.09.2.42.34.44h.53c0-.12-.05-.25-.06-.38s.14-.35.1-.54c-.21-.14-.47-.24-.54-.4v-.18h0a1.39,1.39,0,0,0,.81-.09.83.83,0,0,0,0-.15h0l-.29-.1c0-.25,0-.52.26-.58a.67.67,0,0,0,.62-.27.86.86,0,0,0-.43-.13c.34-.39.75-.76.74-1.23l-.38-.26a1,1,0,0,1,.36-.36c.43.08.56-.24.94-.48l.15,0c.08.1.19.23.31.25L182,254c.17-.12.28-.46.47-.47s.68.39.79.61l-.21.52.18.14a.52.52,0,0,1-.16.83,4.61,4.61,0,0,1-.06,1.28l-.42.81C182.51,258.07,182.94,258.34,182.38,258.92Zm63.56,15.2-.1.07-.14-.1c0-.13-.08-.28-.11-.4a.28.28,0,0,1,.25-.1C245.82,273.8,246.05,273.89,245.94,274.12ZM280,253.78a1.35,1.35,0,0,1-.6,0V254a1.38,1.38,0,0,0,.81.24c.22.24.19.57.37.78s.52.32.7.55l2.79,3.54c.33.43,1.23,1.31,1.21,1.76l-.3.56c-.12.33,0,.56-.18.9-.44,0-.66.48-1.09.48-.13,0-.19-.11-.34-.16s-.4.13-.7-.18c-.09-.12-.19-.23-.29-.34l-1-.1a1.54,1.54,0,0,1-.6-.74l.06-.23c0-.2-.67-1.35-1-1.46l-.44,0a2.34,2.34,0,0,1-.15-.27,1.88,1.88,0,0,1-1.15-.35c-.24-.36-.18-.62-.7-1l.21-.34c0-.09,0-.19,0-.28s.19-.11.21-.24a1.41,1.41,0,0,0-.06-.22c.05-.29.31-.29.39-.49l-.21-.1c0-.16,0-.32,0-.48s.14-.06.15-.13,0-.09,0-.14a.5.5,0,0,1-.24,0c0-.12,0-.25,0-.37v0c.09,0,.1,0,.17-.06s0-.2-.06-.3-.21,0-.32-.06l0,0a.37.37,0,0,0,.07-.25l-.06-.08a1.08,1.08,0,0,1-.46-.19l.11-.12a.31.31,0,0,0,.28,0c-.11-.16-.07-.26-.08-.42s-.35-.53-.61-.67c0-.26-.06-.26.18-.33s.36-.13.56-.12c.39,0,1.13.54,1.56.66l.52.06C279.89,253.3,280,253.65,280,253.78ZM261.4,240c.14.08.11.3.19.4l.6.48c.14.29.29.6.44.89s.05.35.07.52l.22.12.49,1.13c.1.12.2.22.31.33a10.06,10.06,0,0,1,.78,2.44l.33,1.14c.06.87-.07,1.79,0,2.66.22.9.44,1.81.67,2.7a.26.26,0,0,1,.22.18c0,.21,0,.37-.2.55.36.26.21.48.18.81.53.4.33.73.59,1.06.12.15.27.11.36.34s0,.2,0,.3a2.38,2.38,0,0,0,.92,1,3.08,3.08,0,0,0,.86-.12,2.24,2.24,0,0,1,.38.58c.09,0,.15-.06.24-.06a2.19,2.19,0,0,0,1.47.76c.4,0,.65-.28,1.1-.2l.25.49a3.6,3.6,0,0,1,1.06.52c.09.1.11.23.19.29.36,0,.73.33,1.16.55l.2-.11.09,0a1.6,1.6,0,0,1,.17.46.86.86,0,0,1,.21.07,6.09,6.09,0,0,1,.41,1.47c0,.68-.33,1.35-.37,2.05a11.59,11.59,0,0,0,.32,1.66c0,.44,0,.87,0,1.31l.49.34a.53.53,0,0,1,.53-.05,1.81,1.81,0,0,0,1,.52.54.54,0,0,0,.08-.22,4.7,4.7,0,0,1,.91.7c.05.09.11.17.17.26l0,0c.1,0,.12-.11.28,0,.46.71,0,1.37-.12,2.2a2.55,2.55,0,0,0,.16,1l.09,0a.49.49,0,0,0,.34-.1,2.55,2.55,0,0,1,1.06,1.05c0,.11-.07.21,0,.32s.3.06.39.2.07.87.22,1.24a13.58,13.58,0,0,1,1.07,4.39c0,.32.07.64.11,1s-.54.89-.51,1.09a1.86,1.86,0,0,1,.14.2l-.39.36a.81.81,0,0,1,.09.4c-.21.16-.66.25-.78.6,0,.12,0,.23,0,.35-.2.28-.47.32-.56.8a2.63,2.63,0,0,1,.06.39c-.05.34-.47.54-.57.87s0,.46.05.68a1,1,0,0,1-.5.26,1.21,1.21,0,0,0-.29-.07c-.08.12-.11.19-.15.26l-.24,0a.21.21,0,0,0,0,.15.75.75,0,0,0,.07.12l-.05,0-.12,0c-.1-.12-.18-.25-.28-.37s-.93,0-1-.09.06-.18.1-.28a2.54,2.54,0,0,0-1.94-.6c-.68-.06-1.34-.37-2-.4l-1.55.19-.93-.27c-.08-.05-.08-.18-.21-.22a3.43,3.43,0,0,1-.67-.13c-.15-.09-.22-.32-.45-.41l-.52-.11-1.17-.48c-.13-.69-1.25-.4-1.74-.47l-2.12-.29a4,4,0,0,1-1.15,0,8.21,8.21,0,0,1-1.6-1.06c0-.67-1-1.12-1.35-1.72,0-.13,0-.25-.08-.38l-.21-.32c0-.1,0-.19.07-.27,0-.28-.34-.69-.57-.93l-.77-.44c-.39-.11-1.49.17-1.34-.6-.44-.41-.76-.23-1.18-.31l-.52-.21h-.68c-.34,0-.49-.3-.7-.34a4.58,4.58,0,0,0-.83-.09l-1.32.29a2.08,2.08,0,0,0-.86.15.39.39,0,0,0-.06-.15c-.15,0-.13.1-.29.18h-.66s0,0,0,0a1.77,1.77,0,0,1,0-.23c-.2,0-.21.13-.36.16a1.83,1.83,0,0,1-.47-.05,1,1,0,0,0-.39-.95l.22-.26h0l-.55.14c.07-.19-.06-.33-.27-.46l-.16.16,0,0a1.49,1.49,0,0,0-.38-.8l-.27-.1-.26-.29A6.1,6.1,0,0,0,246,273a1.48,1.48,0,0,0,0-.21h-.18c-.37.57-.37.31-.78.27a.71.71,0,0,0-.43.35.27.27,0,0,1,.18.07,1.87,1.87,0,0,1-.56.85,1,1,0,0,1-1.37,1l-.18-.25h-.09c0,.06-.09.11-.13.16l-.26,0a3.17,3.17,0,0,0-1,.46c0,.14,0,.2,0,.3l-.94,1.67c-.06.21.11.33.12.53l-.38.67c-.12.66-.23,1.32-.36,2a4,4,0,0,0-.88.42s0,.09,0,.14-.34.34-.45.44a3.05,3.05,0,0,0-.62,1l-.32.92-.12,1c-.08.22-.89.56-1.07.66a10.74,10.74,0,0,1-1.69.55l-.71.38a3.48,3.48,0,0,0-1.08.41c-.11-.09-.13-.12-.25-.14a1,1,0,0,1-.93.29l0,0a2.28,2.28,0,0,0,0-.26l-.07,0a.33.33,0,0,1-.17.11l-.23-.16c-.23-.07-.42.1-.62.07l-.27-.11a1.83,1.83,0,0,1-.85.37.36.36,0,0,0-.23-.15.5.5,0,0,1-.28.24c-.07-.06-.08-.09-.15-.08s-.2.13-.28.17c-.24-.1-.22-.29-.27-.46-.23,0-.29.31-.36.48l-.4.18-.13,0c-.33.13,0,.2-.48.17-.17-.2-.5-.28-.58-.51l.06-.17a.37.37,0,0,0-.21-.09c-.24.14-.72-.19-1.2.12,0,0,0,0,0,0a1.66,1.66,0,0,0-.43-1.27l-.45-.41c-.45-.56-1.12-1.52-2-1.26-.18-.46-1-1-1.36-.52,0,.07,0,.13,0,.2a2,2,0,0,1-.84-.81c0-.2-.09-.4-.13-.6-.26-.39-.5-.8-.75-1.2-.1-.29,0-.71-.17-1l-.31-.24a2.67,2.67,0,0,1-.55-.83c-.1-.27.09-.6,0-.87s-.64-.78-.58-1.13.26-.59.32-.87a5.33,5.33,0,0,0-.21-2.22c-.3-.79-.94-.41-1.31-.92-.14-.22-.13-.52-.25-.73s-.33-.21-.43-.37a3.24,3.24,0,0,1-.17-1c0-.56.32-1.09.14-1.63-.12-.37-.87-1.24-.88-1.5,0-.1,0-.21.05-.31a1.93,1.93,0,0,0,1.06-.27,4.47,4.47,0,0,0,.64-1.27c.27.06.63-.25.75-.63s-.09-.46-.1-.75a4.34,4.34,0,0,1,.19-.73.36.36,0,0,0,.24-.16,3.08,3.08,0,0,1-.07-1c.07-.38.44-.72.61-1.13,0-.14.05-.29.08-.45s.26-.13.31-.35,0-.26,0-.39c.21-.57.8-.63,1-1.12a2.09,2.09,0,0,0,.11-.87c.16-.13.34-.14.5-.3s0-.29,0-.46.4-.13.46-.18c.4-.32.25-1,.32-1.33l.12-.24.39-.23a.8.8,0,0,0,.37.12l.08-.07,0-.65c.52.35.14,1.32,1.17.82l.36.14c.21.13.3,1.15.36,1.41a1.07,1.07,0,0,0,.85-.15c.06-.14,0-.19.14-.33l.29.11,1-.67.44-.73.42-.42.33-.07c.13-.08.16-.23.32-.33s.88.17,1.25,0,.84-.89,1.18-1.13,1-.24,1.25-.58c.11-.13.08-.33.09-.46.11-1.05-.71-.52-1-1.24a2.21,2.21,0,0,1,.8-2.26c.28-.17.43.07.64,0a7.72,7.72,0,0,0,.72-.68l.24-.36c.16-.11.38.09.54,0l.53-.78,1-.92h.19l.35-.41c.14-.12.42-.19.51-.41l0-.45a2.51,2.51,0,0,1,.75-1.66c.21.07.28,0,.45,0,.16-.33.4-.33.4-.73.51-.27.35-.53.52-.85l1.76.41c.06.5.68.84.93,1.31a.22.22,0,0,1-.16.16,4.36,4.36,0,0,1-2.23-.1.55.55,0,0,0,0,.38,4.78,4.78,0,0,0,1.78.15l1.32.32c.72,0,1.5.21,2.25.22l.63-.12,0,.28a3,3,0,0,0,.72.22c.19,0,.34-.16.52-.22a2.72,2.72,0,0,1,1.46.1c.59.22,1.38,1,1.91,1,.34,0,.88-.53,1.23-.46.77.15,2,.83,2.66.65,0,0,0,0,0-.05s-.21-.14-.24-.23a1.77,1.77,0,0,1,.65,0,.82.82,0,0,1,.23-.3l1.16-.16c.1,0,.14-.2.24-.22s.54.12.61.1c.39-.08.88-.56,1.3-.3a3,3,0,0,1-.08.89l0,0,0,0a3.22,3.22,0,0,1,.35-.44,5,5,0,0,0,1.28-.1l.3-.44c.05-.29.11-.58.16-.87s.42-.22.5-.52,0-.51,0-.76l0,0c.11-.14.23-.27.35-.41s0-.41.15-.59a1.27,1.27,0,0,0,.39-.43,3.09,3.09,0,0,0,.14-1.29l.41-.27.06,0c.06.11.13.22.2.33S261.29,239.91,261.4,240Z"/><path class="cls-5" d="M409.54,249.66c-10-42.44-32.61-76.32-70.59-98.92-26.93-16-56.49-23.12-87.56-23.89-21.72-.54-43.46-.13-65.19-.28-3.74,0-4.94,1.36-4.92,5,.13,18.76.07,37.52.08,56.28,0,5,.41,5.4,5.67,5.43,18.5.06,37-.06,55.47.21,41.78.61,72,21.23,86,59a127.69,127.69,0,0,1,7.83,46.26v.09c0,.36,0,.74,0,1.1V300l0,1.12h6.22c0-.37,0-.75,0-1.12V300c0-.38,0-.79,0-1.19a128.56,128.56,0,0,0-13.12-58.64c-16.74-34.37-45.43-51.23-83.25-52.51-17.79-.62-35.62-.13-53.43-.14H187.4V132.75c1.06-.07,2.21-.25,3.36-.25,18.9,0,37.79-.34,56.67.12,29,.69,57,6.13,82.88,20.11,34.95,18.91,58,47.73,69.75,85.45a204.09,204.09,0,0,1,9.56,60.58v.09c0,.37,0,.77,0,1.14v1.17h5.93v-2.4A215.17,215.17,0,0,0,409.54,249.66Z"/><path class="cls-5" d="M409.61,298.85V300c0,.4,0,.79,0,1.17v.06a204.07,204.07,0,0,1-9.56,60.6c-11.74,37.72-34.8,66.55-69.75,85.44-25.85,14-53.85,19.42-82.88,20.11-18.88.47-37.77.12-56.67.12-1.15,0-2.3-.16-3.36-.26v-54.7h5.36c17.81,0,35.64.46,53.43-.14,37.82-1.27,66.51-18.15,83.25-52.52a128.52,128.52,0,0,0,13.12-58.65c0-.38,0-.79,0-1.18V300c0-.36,0-.74,0-1.1h-6.22l0,1.1V300c0,.37,0,.75,0,1.12v.06a127.6,127.6,0,0,1-7.83,46.27c-14,37.77-44.22,58.4-86,59-18.48.27-37,.15-55.47.22-5.26,0-5.67.41-5.67,5.43,0,18.77,0,37.52-.08,56.29,0,3.64,1.18,5,4.92,5,21.73-.15,43.47.26,65.19-.27,31.07-.77,60.63-7.9,87.56-23.92,38-22.58,60.55-56.46,70.59-98.89a215.43,215.43,0,0,0,6-49.13v-2.37Z"/><path class="cls-4" d="M415.54,298.76v2.46a215.43,215.43,0,0,1-6,49.13c-10,42.43-32.61,76.31-70.59,98.89-26.93,16-56.49,23.15-87.56,23.92-21.72.53-43.46.12-65.19.27-3.74,0-4.94-1.36-4.92-5,.13-18.77.07-37.52.08-56.29,0-5,.41-5.41,5.67-5.43,18.5-.07,37,.05,55.47-.22,41.78-.6,72-21.23,86-59a127.6,127.6,0,0,0,7.83-46.27v-.06h0l0-1.12V300l0-1.1h0v-.09a127.69,127.69,0,0,0-7.83-46.26c-14-37.77-44.22-58.39-86-59-18.48-.27-37-.15-55.47-.21-5.26,0-5.67-.42-5.67-5.43,0-18.76,0-37.52-.08-56.28,0-3.65,1.18-5,4.92-5,21.73.15,43.47-.26,65.19.28,31.07.77,60.63,7.88,87.56,23.89,38,22.6,60.55,56.48,70.59,98.92A215.17,215.17,0,0,1,415.54,298.76Z"/></svg>