<svg id="Layer_1" data-name="Layer 1" xmlns="http://www.w3.org/2000/svg" viewBox="0 0 1024 1024"><defs><style>.cls-1{fill:#101728;}.cls-2{fill:none;}</style></defs><path class="cls-1" d="M461.12,344.45c.56.44,1.19.85,1.63,1.21-.62.95-1,1.92-.48,2.69.18.27.46.43.48.72.07.81-.68,1.07-.8,1.81s.66,1,1,1.65c0,.19,0,.4-.06.62-.32.37-.65.75-1,1.12-.25.88-.49,1.75-.75,2.62a3.15,3.15,0,0,0,.16,1.93c.3.47.65.57.62,1.08-.08,1.87-1.34,3.67-1.54,5.6-.05.52.39,1,.31,1.54s-.64.85-.8,1.42c-.25.83-.1,1.8-.38,2.7-.19.59-.93,1.14-1.14,1.81.05.53.08,1,.13,1.58,0,1.42-1,3.27-2.57,3l-1.26-.86a22.09,22.09,0,0,1-3.59-1c-.38-.18-.41-.5-.61-.7l-1.33-.63a6.58,6.58,0,0,0-3,0l-.86.28-4.29-.64c-.82.08-1.56.91-2.4.93l-1.88,0c-1.06-.28-1.88-1.43-2.89-1.55l-2.89-.28c-1,.2-1.73.87-2.77.89-.93-1-2.05-.7-3.08-.68-1.37,0-2.6-.11-4-.18l-1.61.1-.48.61c-.67-.55-1.28-1.52-2-2.2-.22.08-.24.17-.39.16l-4.18-.95a4.74,4.74,0,0,0-1.29-2.37l-.64-.66c-.61-1.27-1.91-2.69-2.16-4.13-1-.22-1.22-.94-2.24-.88a4.05,4.05,0,0,0-.64-1c-.25,0-.48,0-.74-.06-.12-.41-.07-.8-.15-1.21l-.25-.12a3.46,3.46,0,0,1-.45,0l-.11.16a7.12,7.12,0,0,1,.19,1.17c-.53.58-1,.59-1.57,1.39.15.58,0,1,.33,1.61a5.47,5.47,0,0,1-1.28,2.41c-.55.45-1.26.26-1.83.49a4.36,4.36,0,0,0-2.06,2l1.1,1.12c0,.09-.08.16-.12.26-.54.23-.73,1.22-1.32,1.67l-1.35-.27c0,.26.11.5-.09.6-.4.25-.57.15-.88.66,0,.21.07.42.12.63l-.1,0c-.12,0-.22,0-.34-.06-.16-.17-.12-.22-.16-.4h-.11l-.93,1.12-.3-.05c.05-.2.09-.4.15-.61l-.18-.06-.78.34c-.35,0-.63-.41-1-.63a9.53,9.53,0,0,0-1.31,1l-.26-.18-.28-.47a1.92,1.92,0,0,0,.62-.34c0-.39.11-.38-.29-.38a.53.53,0,0,1-.6-.07,1.19,1.19,0,0,0,.09-.71h-.22l-.23.34c-.24-.21-.13-.32-.32-.33a.52.52,0,0,0-.52.19c-.05-.15-.08-.31-.12-.46a.8.8,0,0,0-.08-.55l0,0c-.27.57-.54,1.13-.82,1.69-.33-.27-.62-.61-1-.95.25-.47,0-.31-.09-.67a3.23,3.23,0,0,1,.47-1.88c.39.11.76-.28.9-.76l-.11-.07-.27.14s0-.06,0-.09a.79.79,0,0,1,.39-.48,3.18,3.18,0,0,1,.09.33,12.35,12.35,0,0,1,1.4-2l-.06-.21a1,1,0,0,1-.16.06,4.83,4.83,0,0,1-.42.37c-.15-.1-.13-.16-.2-.35a7,7,0,0,0,.95-1.77l0,0c-.2.32-.41.64-.61,1-.32-.12-.56.07-.85.12-.1-.18-.2-.36-.29-.54l1.27-1.53a3.17,3.17,0,0,0,.12-.41c.59-.61,1.25-.71,1.37-1.82l-.33-.16c.37-1.26.22-2.61.74-4s1.95-1.83,2-3.3c.53,0,.89.29,1.35-.11s.38-1,.61-1.06c.59,0,.82.19,1.37-.12.24-1,1-.75,1.62-1.41a9,9,0,0,0,1.75-2.08c.13-.38.24-.76.35-1.14.35-.75,1.2-.95,1.55-1.85.62-1.61.71-3-1.3-3.7l-1.12-.38c-.92,0-1.91,1.09-2.76,1.39l-.29-.31c-.23.39-1.09.39-1.51.51a10.92,10.92,0,0,0-2.36.79l-.75.64c-.31.11-.61,0-1,.17a.86.86,0,0,1-.25.61,13.5,13.5,0,0,1-1.8.13,7.31,7.31,0,0,0,.55-1.44c-.55-.43-.61-.95-1-1.44a1.57,1.57,0,0,0,.38-.95,4.47,4.47,0,0,0-1.85.43,1.47,1.47,0,0,0-.08-.28,5.24,5.24,0,0,0,.78-3L386,340l-.83,1.84c.11.14.07.06.09.18l-.75,1.42c0,.24.11.47.16.71-.36.83-.73,1.66-1.1,2.48-.08.31.08.5,0,.86-.05.18,0,.19-.18.26l-.39.11a.36.36,0,0,0,0,.1,2,2,0,0,1,.41,1,8.74,8.74,0,0,0-1.12,1.87l.1,0a3.62,3.62,0,0,1,3.11-.78c.53-.45.49-1.08.73-1.54s.61-.68.92-1a2.71,2.71,0,0,1,.42.83l-.36.75c-.23.23-.54.25-.68.68,0,.31.05.62.07.93l-.54.95c-.35,1.3.62.88-.84,2.33L385,354c-1.1-1.74-1.57-.6-2.6.42a.68.68,0,0,0-.19,0c-.14-.8.41-2,.24-2.69l-.6-.08c-.8,1.11-1.19,2.29-2.37,2.32l-.07,0-.09-.67-.08-.05-.71.05a1,1,0,0,1,0,.17l.16.33c-1.68,2.33-.11,2.59-.22,4.24,0,.5-.58,1.21.16,1.44a2.78,2.78,0,0,1,.59,0c.18.34.37.66.57,1-.85,1.36.09,2.23,1.12,3.24.22.2.44.38.65.58s-.23.65-.27.86c.37.34.68.74,1.11,1.19a1.7,1.7,0,0,0,0,.9l.3.21c.26-.59,2.19-.05,2.83-.36s.83-.86,1.37-.88a2.46,2.46,0,0,1,.3.76c-.68.94-.95.53-1.18,1.56-.09.4-.48.66-.5,1l.34.62c-.09.48-.18.95-.26,1.42s.28.83.14,1.3l-.46-.54c0-.25,0-.52.06-.78l-.11,0a5,5,0,0,1-.85.69c0,.08,0,.16.05.25-.84-.46-1.09,1.36-1.86,1.18a1.86,1.86,0,0,1-.32,1.11c-.22-.06-.2-.09-.37.13.12,1-.05.62-.44,1.51l0,0c.77.17,1.22-.27,1.94-.32l0,0a.76.76,0,0,0,0,.15l-.46.13a.74.74,0,0,0-.6.29c0,.11,0,.2,0,.29.34.06.52-.14.85-.11l.1.11-.15.28a1.24,1.24,0,0,0-1.19.45l0,0a5.33,5.33,0,0,0,1.07-.2l-.05.07c-.15.18-.31.34-.46.51-.7-.42-1,.2-1.67.11,0-.08,0-.16,0-.26a.67.67,0,0,1-.18-.07.86.86,0,0,1-.14.13c.14.23.08.41,0,.68l.35,0a.81.81,0,0,0,.37.59,10.29,10.29,0,0,0,2.72-.05l.09.28c0,.05,0,.1,0,.14l0,0a.7.7,0,0,0-.47-.2c-.22.2-.29.25-.29.5l0,0,.68.14a2.36,2.36,0,0,1-.16.78l0,0c.39-.41,2.76-1.68,3.14-1.47,0,.06,0,.12-.05.18l.85.26c0,.12,0,.24,0,.35l-.14.06a1.49,1.49,0,0,0-1.21.22l-.29,1a2.24,2.24,0,0,1,.86.1c.06-.15.13-.28.18-.43.25.19.21.13.48.11-.22.32-.2.41-.07.66l-.32.22-.15-.26,0,.07-.6.47.19.13a5.28,5.28,0,0,1,2.11.62c-.37.19-.66.28-.73.72l.21.42-.08,0c-.36-.16-1.21-.29-1.27.06,0,.18,0,.35,0,.52l-.54.13c-.28-.17-.49-.56-.8-.67l-1.28.12c-.14-.29-.28-.56-.41-.84.32-.44.26-.86.45-1.06.58-.64,1.91-.62,1.53-1.75l0,0c-.46.56-1,.56-1.42.94a6.55,6.55,0,0,0-1.26,2.15l-1.41,0,0,0c.12-.29.3-.49.21-.79l-.07-.05-.25.05a1.93,1.93,0,0,1-2.14.95l-.61-.25c-.54,0-1.14.63-1.7.48l.17-.16a1,1,0,0,0-.75-.19l-.35-.68c0-.06-1.21-.67-1.44-.87.1-.28.06-.32-.26-.51l-.88.48-1,.08c-1.08.42-2,1-3.1,1.4-.41.15-.94.13-1.34.27-.1.05-1,.66-1.08.69-.27.24-.11.65-.36.68a26.29,26.29,0,0,1-2.65.49l0,0c.12-.21.26-.43.39-.66-1.5,1.19-2-.64-3.66.44.2.3.41.59.62.87a2.63,2.63,0,0,1,0,.74,10.64,10.64,0,0,1-1.9-.43.59.59,0,0,0,.09-.6l-.43,0a7.46,7.46,0,0,1-.64.94l.27.24a4.5,4.5,0,0,0-.59,1.75l.27.39c.07-.08.14-.15.21-.24.43.3.53.15.88.11a2.64,2.64,0,0,1,.16.78,3.18,3.18,0,0,0,3.13-.22c.33-.16.63-.45,1-.47s1,.37,1.48.47a8.64,8.64,0,0,0,2.82-.25c.86-.15,1.49-2.14,2.11-2.12l.22.09a2,2,0,0,0,0,.84l.36,0a11.77,11.77,0,0,1,5.57-2.59l.61.8-.85.36c-.29,0-.29-.25-.53-.16-.53.18-.94,1.16-1.47.76-.55.58.13,1.77.77,2.23l1.34-.67a1,1,0,0,0,.8.5l.11.35a1.18,1.18,0,0,0-.28,1.18c.3.16.51.21.64.44a2.12,2.12,0,0,0,.38,1.52l-.33.49-.31.12-.45-.31a.72.72,0,0,0-.57-.94c0-.1,0-.21-.05-.31l.32-.39-.07-.05a12.07,12.07,0,0,0-3.35-.82c0,.25,0,.41-.18.5l-1,.44a.93.93,0,0,0-.51-.46l-.6.14c-.09.27-.17.54-.27.8l-.1-.17.06-.24-.42,0,0,0c-.07.21-.14.42-.22.62-1.34-.6-1.63.51-2.73,1.1s-2.84.79-4.27,1.4c-1.61.71-3.72-.85-5.26,0a2.56,2.56,0,0,0-1.62,2.58l.18.78c-.12.32-.22.64-.34,1,0,1.39.53,2.36-.18,3.95-.37.82-1.19.64-1.65.95s-.32.62-.47.83c-.58.84-1.39.51-1.37,1.91,0,2.22,1.72,1.42,2.58,2.67.21.67-.35,1.49-.26,2.18.08.15.14.29.21.42,0,1.11-1.18,1.85-.66,3,.21.07.22,0,.4,0l0,.09a5.7,5.7,0,0,0,1.14,3.87l1.21.23.69-.36.11.08a3.62,3.62,0,0,0,.7,3.06c.17.16.27.05.39.22-.33.79-.86,1.51-.55,2.15s.57.73.58,1.4l-.33.09a3.08,3.08,0,0,0-.2.85L356.43,430c0,.29.07.59.1.89-.22.79-.51.94.07,1.58l0,0-.22-.1,0,0c.14.12.13.11.17.24a1.37,1.37,0,0,1-2,.62c-.11.06-.2.15-.32.22a1.61,1.61,0,0,0-2.27.91c-.06.34-.11.69-.17,1s-.39.35-.56.5a2.11,2.11,0,0,0-.65,1.41l-.07-.05c-.37-.1-.53-.64-.75-.9a1.56,1.56,0,0,0-1-.47l-.05-.09c-.26-.24-.58-.58-.84-.86l-.12,0a2,2,0,0,1-.38.77l-.35-.12,0,0a.83.83,0,0,0,.18-.83l-.41-.05a1,1,0,0,1,0,.17.93.93,0,0,1,.08.77c-.19.14-.2.17-.44.14a2.72,2.72,0,0,0-1-1.05c.14-1.31-2.74-3.92-4.29-4.16a7.53,7.53,0,0,0-1.1-1.42,1.42,1.42,0,0,0-1.57.35l-.43-.25a1.4,1.4,0,0,1,.19-1.56l.34-.48-.45-.64c.25-1,1.07-1.27,1.76-2s.46-1.33.67-1.85c0-.12,1.55-1.36,1.92-1.76.82-.86,2.14-2.32,1.9-3.15.73-.62,1.46-.83,2-1.89a14.67,14.67,0,0,0-2-2.43c0-.15,0-.27,0-.41l-.29,0c0,.1,0,.2,0,.29a4.88,4.88,0,0,1-1.59-1.53l0,0,1.16-.07a3.29,3.29,0,0,0-1.73,0,2.57,2.57,0,0,1-.55-.82c-1.18-.19-.68-.05-1.63.46l-1.36.12-.27-.46a6.1,6.1,0,0,1-1.31.53l-.24-.45-.24.12-.18.59a4.36,4.36,0,0,0-2.55,2.1,1,1,0,0,0-.21-.09c-.27,0-.41.32-.7.29l.36-.76,0,0-.17-.05c-.11.09-.32.36-.39.22a.4.4,0,0,0,0-.51,2.34,2.34,0,0,0-.42.86l-.46-.37c.36-.54.24-1.09.52-1.56l.13,0a2.19,2.19,0,0,0,.4-.67l-.19-.28c.16-.28.32-.56.47-.84.33,0,.64,0,1-.06a5,5,0,0,0,.77-1.83l.27.19a1.32,1.32,0,0,0,.28-.75c-.46,0-.77-.3-1.26-.64a1.76,1.76,0,0,1-1.55-.14,4.61,4.61,0,0,0,.82-1.19,1.48,1.48,0,0,0,.92.42c.17-1.13,1.67-1.5,1.46-2.68l-.36.3-.2-.2c-.27-.9.49-1.69.52-2.66s-1-1.13-1.55-1.84l.15-1.11.4-.65c0-.47,0-.94,0-1.41s.89-.8.72-1.37a.94.94,0,0,0-.68.13c-.08-.69-.16-1.39-.23-2.09l-1.22-1.82c.08-.22.16-.43.24-.66a1.39,1.39,0,0,1,.73-.1l.15.27a.73.73,0,0,1-.15.29,1.45,1.45,0,0,1,.59.5c.35-.39.73-.49.74-.92-.15-.35,0-.52-.33-.88a.79.79,0,0,1-.46.34.74.74,0,0,1-.3-.43c-.12.16-.25.31-.38.47a3.43,3.43,0,0,1-.79-.68c.19-.68.38-2.24,1.17-2.75a2.54,2.54,0,0,0,.76-.14l.1-.15-.09-.12c-.26.05-.31.21-.63.06l-.29-.3a5.18,5.18,0,0,1,.91-1.8,3.36,3.36,0,0,1,.73.29l.15-.07s0-.09.05-.13l-.08-.22-.43-.08.57-.43c-.46-.06-.48-.22-.76-.58.25-.3.6-.56.64-.92-.16.08-.31.18-.47.27l-.21-.09c0-.1,0-.19,0-.29l-.44.08a.69.69,0,0,0-.06-.31c-.19.32-.23.56-.53.45a1.21,1.21,0,0,0,.13-.83c-.42-.15-.87.08-1.24,0s-1.05-.74-1.45-.93c-.24.3-.35.21-.62.28a2.76,2.76,0,0,1,.08.27l-.36.2a3.33,3.33,0,0,1-.4-.94c-.64-.38-1.41-.19-1.75-1,.12-.21.69-.38.72-.66s-.36-.65-.32-1l.68.13a.39.39,0,0,0,.07-.33c-.28-.26-.57-.51-.86-.76a4.25,4.25,0,0,1,1.13-1.42c.32.2.79.55,1,.44l.66-.87c.29-.07.7.71.78.86l-.12.41-.46,0c0,.18,0,.34-.06.5.72.17.47.68.85,1.14-.09.17-.2.34-.29.52l.26,0a2.89,2.89,0,0,0,1,1.44c.44-.31,1.46-.67,1.78.07.19-.31.17-.31.48-.23.06-.43.32-.32.64-.6s.33-.61.51-.9l.3,0a2.55,2.55,0,0,1,.19,1h.16a.7.7,0,0,0,.31-.61l0,0,.27.07.28-.41c-.33-.49.44-3.15.7-3.48,1,.27,1-.51,1.6-.82l.69.36c.45-.3.85-.54,1.33-.89-.35-.24-.49-.26-.91-.52,1.29-2.17,1.13-4.08,1.76-6.16.16-.47.72-2,1.21-1.58a1.77,1.77,0,0,1,.92.19c1.1-.79.88-1.67,1-2.66a6.19,6.19,0,0,1-.87-.82c.5-.64,1.38-1.48,1.43-2.15a1.08,1.08,0,0,0-.57-.29c0-.07.06-.13.09-.22-.2,0-.09.14-.2,0-.57-.14-3.09-1-3.65-2,0-.29,0-.57-.07-.87l-.75-.57c-.11-.37-.23-.74-.34-1.1.45-.68.31-1.12.74-1.8l.26.18,1.18-.42.88.23a1.54,1.54,0,0,0,.86-2.21c-1.28-.43-1.64-1.28-2.5-2.06l-.3.14c0,.24.06.48.1.72a5.84,5.84,0,0,0-.78.5l-1-.73a.79.79,0,0,1-.08.45c-.49-.15-.7-.3-1.15-.41.06-.28,0-.29-.32-.43a3.81,3.81,0,0,0,.54-2.06c.24-.18.23-.34.45-.55l-.21-.27.77-.74c0-.15,0-.31-.05-.47.33-.1.46-.77.86-1.17a27.82,27.82,0,0,0,2.23-2.36c.22-.28-.05-.83.07-.9l.24,0c-.32-.25-.54-.09-.88-.07l-.22-.25c0-.09.08-.17.13-.25.26,0,.5-.06.45-.34-.21-.08-.13,0-.23-.21.13-.35.27-.25.55-.51-.07-.4-.34-.78-.06-1.26.49-.38.91-.47,1.31-1,0-.13,0-.25,0-.39-2.17-.24-1.46,1.95-3.32,2-.17-.21-.49-.76-.6-.58.05.11.11.21.17.33a4.06,4.06,0,0,0-.58,2.18l-.48.23a.8.8,0,0,0,0,.69c-.23.15-.45.32-.66.48l-.34-.23a.81.81,0,0,1,.37.65c.05.48-.54.79-.12,1.23l0,0-.66.25c.23.37-.07.94-.12,1.36l-.2,0a1.89,1.89,0,0,0-.05,1.28c-.37.21-.36.35-.54.79l-.15-.1c0,.33-.15,1.34-.73,1.53a1.06,1.06,0,0,1-.85.12c-.1-.15-.19-.31-.29-.47a3.07,3.07,0,0,0-.46,1.16c-.15-.11-.29-.24-.43-.34-.15.56-.4.48-.81.7-1,.52-1.79.18-2.75-.79l-.61-.64-1.34,0a7.94,7.94,0,0,0-1.14-1.06c-.23.07-.49.2-.73.26a2.78,2.78,0,0,1-.66-1.76c-.18-.1-.36-.18-.54-.26a1.53,1.53,0,0,1,.72-.9c.15-1.12-.82-1.15-1-2.05l.08.06h.49l.13-.19c-.3-.78-1.21-5.26-1-5.94.17-.23.34-.46.53-.69-.22-.16-.32-.27-.48-.27l-.55.07a2.06,2.06,0,0,0-.86-.75l-.46,0a2.44,2.44,0,0,1-1.71,1.07c-.35.48-.88,1.85-1.05,1.92l-1.21.48c-.15.9.57,1.42.6,2.23s-.48.6-.19,1.47c.27,0,.67-.13.79.15a2.4,2.4,0,0,1,.16,1.43.53.53,0,0,0,.18,0c.43.08.84-.18,1.28-.16,0,.05,0,.1,0,.16-.12.83.5,1.31.72,2.08,0,.86,0,1.72,0,2.58l-.54.22c-.07.5.26.74.29,1.19a4.86,4.86,0,0,0,.22,2.07l-.51.75c.27.12.63.19.72.38s.15.48.23.72l-.69.51c1,.5,1.38.3,2.17,1.33-.06.16-.12.32-.17.49.49.57,2.4,1,2.44,1.46l.11,0a1.93,1.93,0,0,1,.8-.6c.09-.17.18-.32.27-.47a2.26,2.26,0,0,0,2.19-.64c.56.19.77-.07,1.33.3l-.23.34c.1.28.23,2.14-.36,2.44s-2.06,1.46-2,1.84c.05.11.11.21.17.32l0,0c.3-1,1.2-.79,1.76-1.37s.22-1.39.87-1.82l-.19-.13.13-.18h.1l.21.09c-.09.16-.18.34-.29.51l.43.18a.91.91,0,0,0,.17,1.11c-.07.12-.13.24-.19.36h-.06l-.57-.39c-.16.64,1.09.89.2,1.8l.2.19c-.23.35-.45.71-.69,1.06.43.19,2.12,0,2.15.88l-.26.37.46.32a2.2,2.2,0,0,1,.28-.18c.19.26.49.24.58.44a4.18,4.18,0,0,0,.55.88l.67.51c.41.79.8,1.58,1.2,2.36l-.13,0-.52.19a6.8,6.8,0,0,1-.88,1.59,3.33,3.33,0,0,1,.25.28c-.17.11-.18.05-.19.2-.09.45.13.72.4,1.1.32,0,.56-.1.59.25a2.14,2.14,0,0,1,.09.34c-.66.61-.73,1.49-1.53,2.24-.3-.32-.29-.5-.58-.84a4.37,4.37,0,0,1-1.94,0c0-.16,0-.34.07-.5l-.33-.16.27-.32-.26-.28a5.18,5.18,0,0,1-2.87.11c-.07.09-.16.18-.24.27a1.71,1.71,0,0,0-1.5-.37c-.2-.3-.47-.78-.79-.93-.25.19-.24.2-.36.52l-.32-.17c-.08.13-.14.25-.2.37-.43-.3-1.32-.87-1.68-.66-.25-.28-.22-.48-.55-.65l-.09,0c-.17.83-.58.57-1.23.58-.09-.27-.14-.31-.46-.43v.4a2,2,0,0,1,1,1.37c0,.45-.46.58-.49.88s.11.57.17.94c.15,1.09,0,2.15.2,3.23a5.77,5.77,0,0,1-1.16,2.22c-.25-.1-.31,0-.53.07a3.37,3.37,0,0,0,.1.34l-.31.12c0-.13,0-.25-.07-.38-.63.57-1.2.76-1.9,1.34l-.9-.14c-.16-.3-.23-.49-.58-.6a3.32,3.32,0,0,1,.25-.27l.36.19v-.17c-.12-.29.19-.33.47-.44a.82.82,0,0,0-.22,0,.44.44,0,0,1,0-.5l0,0c-.25.43-.11.41-.48.53-.24-.06-.17,0-.29-.14s.06-.62.1-.92l-.05,0a.7.7,0,0,1-.47.44,2.85,2.85,0,0,0-.21-.71c0,.28.06.53.1.8l0,0a.53.53,0,0,0-.57-.06l.47.27a1.45,1.45,0,0,1-.23.67l-.27,0,.17.16-.25.11-.62-.2c-.07-.27-.15-.55-.22-.81,0,0,.08,0,.11,0l.35.13,0,0-.23-.15c.23-.12.37-.19.4-.44-.13,0-.08,0-.16-.06a1,1,0,0,0,.17-1,2,2,0,0,1-.33.87l-.4.11c0-.09-.05-.17-.08-.28.1-.34-.06-.57-.36-.84-.51.6-.49,1.13-1.16,1.13-.07-.39-.12-.84-.16-1.21l-.35,0a.77.77,0,0,1-.56.67l-.24-.06c-.39-.46-.31-.72-.36-1.23a.16.16,0,0,0-.1,0c-.37.24-.63.14-1,.15-.2-.46-.74-.62-1.08-1.07l.72-1.2-.14-.11a2.6,2.6,0,0,1-.85.35,3.2,3.2,0,0,1-.27-.25c.22-.74-.09-1.33.54-1.75.15-.57,0-.63-.46-1.09.49-.61,1.23-.92,1-1.59a1.2,1.2,0,0,1-1.31.46,1.42,1.42,0,0,1-.06-.31,6.58,6.58,0,0,1,1.54-1.84c-.62-.41-1.15-2-.51-2.29l.45-.18a1,1,0,0,0,0-.17c-.34-.52-.1-1.1-.32-1.59l-.53-.53a6.3,6.3,0,0,1-.38-3c.38-.36.66-.38.64-.92l0,0-.41-.12c-.09-.77-.42-1.4-.56-2.15a2.7,2.7,0,0,0,.52-.68l-.81-.5c-.12.1-.25.19-.36.3-.41-.82-1.19-1.4-.31-2.19l-.67-.63c.13-.28.26-.55.4-.83l0,0a5.35,5.35,0,0,0-1.29.2c-.12-.26-.23-.52-.34-.78a12.05,12.05,0,0,0,.68-1.07l0,0-.89-.07a.86.86,0,0,1,0-.16c.07-.59.61-1.65.31-2.14a.51.51,0,0,1-.6.08c.15-.45-.05-.71-.08-1.1a6.15,6.15,0,0,1,.71-.62,1,1,0,0,1,0-.87l-.23-.16c-.25.09-.5.11-.62-.05.12-.46-.29-.78-.06-1.2l0,0a1.3,1.3,0,0,0,.88-.16v-.17c-.09-.22-.17-.44-.26-.67-.31-.12-.63-.26-.94-.37a1.17,1.17,0,0,0,.47-1.17l0,0-.68.2q-.08-.32-.15-.6c.24-.82-.28-.89-.3-1.48,0-1.1.88-.73-.32-2.09l.68-.19c.26-1,.78-.88,1.39-1.62-.11-.27-.33-.62-.53-1a189.34,189.34,0,0,1,116.64-5.13c-75.92-21.32-160.12,6.34-207.23,74.78A188.87,188.87,0,0,0,194.15,574.8a190.53,190.53,0,0,1-6.18-22,.15.15,0,0,0,0-.06c-.57-2.6-1.07-5.21-1.53-7.82a5,5,0,0,0,1.85-2,5.32,5.32,0,0,0,3.78-2.94c.14-.34.07-.64.33-1,1.09-1.66,2.28-3.2,2.56-4.61.83-.27,1.71-.25,2.31-1.18-.18-.26-.59-.94-1.07-.85-.82.17-1.21,1-2,1.68l-.53-.42a5.16,5.16,0,0,1,2.27-2.29c.5-.34.71-.71,1.13-.92.57.31.85.87,1.28,1.26,1,.89,2.14-.27,2.83-.74-1.11-.75-2.81-.76-3-2,.23-.3.78-1,.75-1.24-.16-.53-.3-1.05-.46-1.58,0-.64.61-.82.4-1.54-.44-.12-1.12-.46-1.47,0a2.75,2.75,0,0,1-.74,1.46l0,0-.42-.83c.36-.67.15-1,.58-1.65a3,3,0,0,0,1.42-.39l-1.64-1.12,0,0c-.46,1.55-1.48,1.43-2.17,2-.11.23-.21.47-.32.71-.86.91-2.86,2.36-4,1.52a3.13,3.13,0,0,0-.19-1.39,5.7,5.7,0,0,0-1.75.61,5.58,5.58,0,0,1-.92-2c.36-.6.78-.55,1.21-1l-.51-.46a1.68,1.68,0,0,1-1.34,0c.14-.41-.22-.65-.12-1a4.7,4.7,0,0,1,4.16-2.92c.67.1,1,.75,1.52,1a16.46,16.46,0,0,1,3.73-1l.29.54a1.87,1.87,0,0,0-.42,1.41l.61.87c.38-.5.84-.56,1.21-.87s.35-.69.45-1c.21-.7,1.23-1.16,1.64-1.29a4.24,4.24,0,0,1,.32,1.22c.49.14.81-.15,1.25-.14a4.7,4.7,0,0,1,2.11,1c.71-1.64-1.24-2.52-1.33-4a3.28,3.28,0,0,1,4.36-.19l-.65.87c.15.2.43.72.8.83a18.44,18.44,0,0,0,3.68-.39,6.18,6.18,0,0,0,.44-1.83c-1.15-.86-.59-1.67-1.09-2.57s-1.54-1.3-1.69-2.11c.35-.43.83-.88.89-1.37l-.58-.5-2,.85c-.37-.32-.76-.64-1.15-1,0-.22-.06-.44-.09-.67a9.86,9.86,0,0,1,2.64-2.7l1-.84,1.64-.36c.27-.42.34-.88.67-.91.5-.27,1.77.56,1.9.93,0,.26,0,.51-.05.78a2.4,2.4,0,0,1-1.27.17,2.52,2.52,0,0,0-.26,1.09c1.95,1,3.53.14,5.26,0,.86.6,1.35,2.73,1.24,3.44s-.38,1.16-.24,1.88c-1.09,1-2.87.17-3.83,1.42,0,.23,0,.46,0,.68l.1,0a6.57,6.57,0,0,1,3.19-.88c-.28.53-.62.74-.9,1.3-.54,1-.92,1.19-1.92.88a6.58,6.58,0,0,0-1.41,2.6,3,3,0,0,0,.15.26l0-.07c.63-.11,1.16-.65,1.79-.85.31.58.92,4.06.1,4.73-.58.48-1.22.39-1.81.63l-1.07.81-1.14.64c-.66.6-.73,1.42-1.06,2l.09-.06,1.9-1.49c.62-.19,1.23-.4,1.85-.6a7.93,7.93,0,0,0,2.85-2.55l0,0,1,1.35c.28.69.52,3.16-.31,4a7.48,7.48,0,0,1-1.62,1.08c.65.49,1.35.61,1.78,1a8.2,8.2,0,0,1-2.64,2.47c-.82.88-1.65,1.76-2.48,2.63l0,0,.05-.08,2.11-.91c1.19-1,1.73-1.92,3-2.19l.34.24a3.39,3.39,0,0,1-.23,1.61c-.34.79-1.22,1.26-1.23,1.78l.09.19,0,0,1.16-.58a.61.61,0,0,1,0,.13c.45.75-.17,2.79.19,3.87.31.16.81.3.91.52.24.45-.22.77-.14,1.22.27,1.46,3.42,5.7,5.67,5.67,1.13-.65,1-1.19,1.84-2.1a10,10,0,0,1,4,.69l1.15.9c.76-1.16.5-2.27,1.53-3.35a14.63,14.63,0,0,1,5.35-3.4l1.63,0,2.47-2.15a17,17,0,0,1,1.69-.87c1.3-.82,2.79-4.22,4.29-4.47.46.51.92,1,1.39,1.51l1.14.18c1,.45,1.3,1.3,2,1.78,1-.21,1.42-.71,2.62.27a3.18,3.18,0,0,1,3.56-1c.62-.92,1.48-.63,2.21-1a5.78,5.78,0,0,0-1.2-.17,1.66,1.66,0,0,1-.37-1.07c.48-.35,1-.06,1.51-.18a5.56,5.56,0,0,0-1.4-1c-.09-1.47-1.76-1.33-2.8-1.76l-.7-.49-1.29-.44.25-.37c-.93-.63-.92.12-1.66.17A3.57,3.57,0,0,1,252,526c1.37-2.95.93-9.71-4-9.72-1.23,0-3.56,1.51-4.57,1.14a4.25,4.25,0,0,0-.77-2.24c-.15-.2-.29-.42-.44-.63-.09-.44.32-.52.09-1.09l-1.07-.46-.85-.1c-.35-.17-.35-.5-.74-.78-.33.41-.65.85-1,1.26l0,0c-.4-.84-.42-1.9-1.2-2.64a3,3,0,0,1-1.46.37,1.68,1.68,0,0,1-.89-2.54c1-1.06,2.08-1.56,3.08-2.55,1.14-1.15,1.12-3.3,1.88-3.78a28.59,28.59,0,0,1,4.1-1.4c.29.57.28.53.88.48.77-.74,1.89-1.24,2.78-2,.49-.44.27-1,.49-1.2l.42,0a1.43,1.43,0,0,1,.52.47c-.29,1.73,3.68,1.67,4.2,3-.16.21-.32.4-.47.61.5.45.64.59,1.14.56l0,0c.42-1.5.32-2.67,2.21-2.65a.7.7,0,0,1,.34.4h.48c.1-.65.89-1.74.86-2.43-.22-.45-.43-.88-.63-1.32.41-.54,1-.15,1.54-.26l0,0c-1.33-.94-1.19-1.59-1.52-2.65-1.87.07-.94-.4-.92-1.62l-.49-.89.13,0c1-.58,4.42-.3,5.74-.44.27.31.21.49.67.72l.28-.5c1.83.94,1.79-.72,3.14-.1a1.37,1.37,0,0,0-.1.81,7.1,7.1,0,0,0,2-.71,1.5,1.5,0,0,1,.55.49c-.17.53-1,1.08-1.05,1.53,0,0,0,.06,0,.1.45,0,1.69.27,2.08,0l.39-.56c.45-.34,2.44-.95,3-.63.21.34.43.67.64,1,.43-.55.34-1.14.84-1.68a9.23,9.23,0,0,1,2.2-1.29c.61-.54,1.22-1.06,1.82-1.6.34.69-.11,1.4-.44,2.23s.1,1.55-.16,2.31c-.18.32-.38.66-.56,1,0,.43.54,1,.9,1.33a16.58,16.58,0,0,0,.66-2.17c.16-1.56-.8-3.61,1.69-4.14a1.65,1.65,0,0,0,.35.7h.49c0-.31,0-.93.25-1.15.46-.46,1.54-1,2.15-.65.27.46.62.95.85,1.41l1.48-.08.08.05a14.38,14.38,0,0,1,.06,3.27l-1.62,2.91c.2.85.4,1.7.61,2.56,0,1.29-.94,2.74-1.62,4.17-.7.92-1.42,1.85-2.12,2.78s-1.17,2.1-2.05,3.05a7.84,7.84,0,0,0-1.74,2.58c-.39,1.45.9,2,.91,2.93,0,.66-.69,1.44-.73,2.1a16.48,16.48,0,0,0,2.13,8.17c-.11-1.65-.78-3.29-.84-4.93-.08-2,.73-4.15,1.22-6.24s1.77-3.81,3.62-3.35a6.2,6.2,0,0,1-.26,3.08l-.67.42a2.58,2.58,0,0,0-.54,1.27l0,0a2.12,2.12,0,0,1,1.93-.87c.08-.43.15-.85.22-1.28l.18.12.09-.43.36-.13c.05.21.08.41.12.63.65.71.35.62.52,1.5.23-.38.47-.78.77-.83a1.1,1.1,0,0,0,.67.57c.07-.19,0-.17.29-.19.81.86,1.49-.4,2.2-.8,0,0,0,.07,0,.11s-.11.36-.16.54l.05,0,0,0,0,0c.22-.22.46-.14.66-.26s.2-.34.3-.51l.45-.18c.32-.19.18-.73.63-1h.11l.05-.07c0,.09.09.17.14.27,0-.17.26-.38.31-.62s-.08-.63.13-1.06c.72.31.45-.21.91-.52l.64-.12c0,.07.05.14.07.21a1.45,1.45,0,0,1-.06.3,1.08,1.08,0,0,0,.18,0c.24-.4.41-.63.73-.64a3.43,3.43,0,0,0-.11.46c-.21.08-.23,0-.26.21v.17h.17l-.42.53.17.07a10.3,10.3,0,0,0-.8,3c-.17,0-.18,0-.36.14,0,0,0,.08,0,.13l.21.25-.24.11c.23.23.12.28.26.51l-.51.58-.25-.21a.14.14,0,0,1,0,.09.75.75,0,0,1,.12.48l0,0-.28,0-.15.22c.34.22.45.09.68.37-.45.68.23,1.38.2,1.88l-.16.06.26.18a1.22,1.22,0,0,0-.36.69l.31.44c-.31.05-.29.05-.41.36l-.8,0c0,.15,0,.12,0,.22-.59-.24-1.33-.31-1.5-1.09,0-.22.12-.18,0-.42,0,.26,0,.5,0,.77a1.42,1.42,0,0,0-.16,0l0-.09c0-.33.05-.66.07-1,.17-.06.15,0,.23-.18l0,0-.24.12.06-.08a8.09,8.09,0,0,1,.36-3.33l.39.33c.12-.14.11-.11.33-.16l-.27-.19a6.67,6.67,0,0,1,.63-1.54h-.16a6.24,6.24,0,0,0-1.6,2.65.64.64,0,0,1-.25-.29,2.08,2.08,0,0,0-.17-1.59l0,0c0,.15,0,.31-.05.47a.66.66,0,0,0-.62,0l.41.12c.08.17.17.34.26.51-.58.89-.07,1.71-.54,2.6-.15.09-.33.17-.5.25l.3,0c0,.28-.05.55-.07.83-.37.12-.86.59-.8,1l-.27.09.53.09a3.17,3.17,0,0,1,.13.36l.21-.3c.09.08.07.07.14.21-.08.44,0,.69-.4,1.05.2.16.17.12.19.29l-.37.14c0,.32.17.6.18.94l-.41-.12c-.13.31-.07.6-.31.85l.39.14c-.16.13-.32.26-.49.38a.14.14,0,0,1-.09,0c-.09-.13-.18-.27-.28-.4l-.09,0,0,0a4,4,0,0,1,.75,1.72l-.31.12.27.41-.28.25-.21-.26c0,.1,0,.19,0,.29.31.16.24.14.34.46l0,0-.26.14-.17-.16c-.05.2-.1.4-.14.61l.41.28c-.2.62.57,1.6.83,2.17.4,0,.36,0,.66-.26l.08.12c-.13.42-.28.8.09,1.15A1.38,1.38,0,0,1,291,530a3.55,3.55,0,0,1,.31-.23c0-.23.09-.46.14-.67l-.19-.13-.13.18h-.48l0,0,.27-.24a1.46,1.46,0,0,1,.94.31c-.2.49-.38,1-.57,1.47a.8.8,0,0,0-.46-.21l0,0a1,1,0,0,1,0,1.07l-.1,0c-.25-.16-.39-.35-.52-.42a2,2,0,0,1-.19.42c.22.23.43.44.64.67a8.49,8.49,0,0,0-1.69,5.26l-.64-.83c.22.33.46.66.69,1-.17.14-.12.22-.11.47l.15,0a.72.72,0,0,0,.65-.31,11.79,11.79,0,0,1,1.4,1.79,1.18,1.18,0,0,0-.21.18c.52.36.61,1.27.63,1.76l-.08,0,0,0c-.18-.19-.2-.28-.43-.4-.44.7-.92.5-1.57.51a3.58,3.58,0,0,0-.17-.62h-.07a3.29,3.29,0,0,0,.12.64c.57.25,1.83.61,2.33.28l.76.41c.32.36.21.75.41,1.17l.69,1.07c0,.15,0,.1-.09.22.16.25.3.5.47.76,0,0-.05.12-.08.18l-.26-.08a6.8,6.8,0,0,1-.9-1.6c-.15.06-.15.1-.2.29l0,0,0,0c-.05-.09-.1-.17-.15-.27l-.33.16c-.14-.27,0-.2-.31-.43,0,.17,0,.36,0,.52l-.39.17-.4,0a.31.31,0,0,0-.05-.1c.07-.21.12-.43.18-.65h-.16c-.35.22-.4.09-.43.47l0,0-.17-.22a.34.34,0,0,1,0-.1l.26-.15-.14-.11h-.1c-.16.16-.23.21-.38.23l-.07-.15c.2-.29.16-.37,0-.59l-.2.31,0,0c-.05-.13-.11-.26-.17-.4s.13-.34.2-.52l-.27.14c-.07-.09-.15-.2-.22-.31,0,.13,0,.26,0,.39s.13.12.14.37l-.21-.1c.16.13.17.14.2.26l0,0c-.18,0-.08,0-.22,0l.31.27c-.09.09-.17.19-.25.28,1.17.12.47.44,1.19.76l.81.17,0,0-.12,0a.65.65,0,0,1-.57.11l0,0c.51.21.77-.17,1.36.11a5.39,5.39,0,0,1-1.25.46,1.42,1.42,0,0,1,.25.12c-.35.21-.52.15-.78.56l-.26-.18c0-.15,0-.32-.05-.47,0,.11-.1.23-.14.35a1.3,1.3,0,0,0,.56.38,8.65,8.65,0,0,1,2.2-1.18.85.85,0,0,1,.25.66l-.19,0-.93.24a2,2,0,0,0,1.43-.39,1.25,1.25,0,0,0,0,.19c.21-.15.26-.13.52,0l0,0-.31.23.24.11-.1.15-.54.17a2.6,2.6,0,0,0,1-.35l.39.22c-.19.29-.15.24-.39.34a1.18,1.18,0,0,0-.91.2,2.11,2.11,0,0,0,0,.25s.07,0,.11,0a.92.92,0,0,1,1.15-.25c.27-.66.46-1.15,1.27-.72a.93.93,0,0,0,.13,0l.14,0,0,0-.11-.07,0,0-.11-.07,0,0-.17-.06a1.63,1.63,0,0,0,.09.19c.16,0,.11-.05.3,0l-.15.22a2.51,2.51,0,0,1,1.06.13l-.07.11-.31-.1c0,.24-.27.3-.5.42h.37a.33.33,0,0,1,.06.08l0,.2-.44.25c.15,0,.17,0,.27.07l-.14.46-.29,0c-.2-.06-.26-.22-.39-.22l.06,0c.13.28.45.24.64.44a6.89,6.89,0,0,0,.66-1.19l.12,0c.2.2.29.45.57.44l-.07-.05c-.11-.19-.32-.35-.31-.6,0-.08,0,0,.05-.07a.63.63,0,0,1,.64.11,1.92,1.92,0,0,0,.12.25c-.14.16-.22.1-.15.22s.13.53.2.81c-.36.41-.61.35-.93.57l0,0h.27l-.81.6.26,0a1.49,1.49,0,0,1,.91-.59l.08.06c-.05.33.15.41.11.85-.19.17-.36.14-.56.2a.61.61,0,0,0,.42,0l.33-.15a6.73,6.73,0,0,0,.09-.77c.2,0,.22,0,.4-.11a.36.36,0,0,0,.05.09c0,.24,0,.47.07.71-.23.45-.45.9-.67,1.37.21.68.43,1.38.65,2.07,0,.54-.64,1.34-.69,2s.36.94.64,1.54a3.77,3.77,0,0,1-.33,3,8.82,8.82,0,0,1,.87,2l1.36,1.75c1.29,1.31,3.88.9,5.19,1.25l1.61.8c.66.22,1.39.21,2,.4,1.45.5,2.5,2.25,3.14,3.11l-.05.07-.32-.33a5.29,5.29,0,0,0-.53,1.17c-.45,0-1.37-.31-1.85-.33-.66.85-.72.21-1.55.08l-.45.19-.64-.28-.23.33-1.7-.17a1.1,1.1,0,0,0,0-.74c-.11,0-.24-.14-.37-.19-.06.28.12.53-.17.65l-.14.12-1.75-1.76c-.5-.24-.7.19-1.13.38-.67.28-2.62-.22-3,.83a3.33,3.33,0,0,0,0,1.18c-.15.39-.3.79-.43,1.19a7.14,7.14,0,0,1-1.29-.13,2.62,2.62,0,0,1-1.47.93,5.77,5.77,0,0,1-1.16,1.78l.26.18c-.11.23-.22.47-.32.71l-1.06-.07,0,0c.16.17.31.36.46.53a6.51,6.51,0,0,0-1.4,1.89c-.09.29,0,.63-.08,1s-1,.21-1.09.86l.22.41c.59.05.57-.62.78-1a1.74,1.74,0,0,1,1-.33c0,.23-.07.47-.1.7.7.35,1.21-.39,1.89-.34a5.56,5.56,0,0,1-.55.88,1.93,1.93,0,0,0-1.62.59,2.59,2.59,0,0,0,.17.33h.15l.38-.13,0,0c0,.13,0,.25,0,.36l0,0h-.48c-.07.33-.13.65-.19,1l-.82.48-.65,0-1.18.52c-.07.16-.15.33-.24.49l.11,0,.55-.16,0,.06c0,.33-.38.81-.73,1.15a6.06,6.06,0,0,0-2,2.38c-.14.52,0,.73-.53,1.34l-.49-.17c0,.13,0,.25,0,.38.36.1.74,0,.92.26-.16.89.26,1.71-.09,2.69-.21.63-1,1-.88,1.37l.61-.08c.38.79-.34,1.52-.2,2.34l.05-.07.7-.14a.58.58,0,0,0,0,.14l.3,1c.82,1,2.18.72,2.93,1.51.28.6.57,1.18.87,1.76.4.39.79.77,1.2,1.15,1.51,1.54,4.53,3.31,6.06,3.41,1.05.07,2.24-.09,3.3-.08s1.9.22,2.84.18a3.7,3.7,0,0,1,1.1-1.27c.49-.25,1.05-.06,1.53-.55.83-.85,1.29-3.45,1.89-4.57l.4.27c.23-.21.54-.39.55-.63s0-.37-.05-.57c-.28-.07-.38.07-.63.11l.05-.07c-.09-.54.28-1.39,0-1.88l-.69-.52c0-.2,0-.41-.08-.61l-1.07-.68-.67-.85c.56-2.08,1.66-5.91,3.76-6.59a1.18,1.18,0,0,1,.57.45c.32.55.2,1.23.4,1.81,0,.13.94,1.38,1,1.47a.5.5,0,0,0,.13,0,2.64,2.64,0,0,0,.1-.3l1.9,1.8-.11.05-1.14-.15a2.34,2.34,0,0,0,0,.26V591a1.69,1.69,0,0,1,.65.66c.07-.18.14-.37.2-.56l.42.29c.72,1,1.88,1.37,2.58,2.48.35.54-.1,1.15.46,1.65l.57-.28s0-.07,0-.1l-.35-.29c.36-.15.64-.16.94-.56.18-1.22,1.43-1.78,2-3.21.06-.3.12-.59.17-.89l.53-.29,1.11-1.86.8-.51c.47.36.33.39.78.38l1-.87a3.07,3.07,0,0,1,2.16,1.33c.08.27.18.52.28.8.47.66,1.56,1.16,2.12,1.79a5.28,5.28,0,0,0,1.88,1.56c1.25.42,3.64-.27,4.85-.56l1,.24c.76-.16.24-1,1.08-1,.83-.8.54-1.44.78-2.32.07-.28.24-.45.26-.69,0-.41,0-.81,0-1.21s.7-.67.86-.78c.45-.29.6-.85,1-1.09,1.12-.75,2.5-.51,3.79-.31a6.53,6.53,0,0,1,.22,1.2l0,0c-.2-.07-.24-.08-.42,0,.37.12.34.33.47.6.1-.29.18-.59.27-.87.06-.64-1-1.68,0-2.35a1.15,1.15,0,0,1,1.17-.18c0,.11.07.22.1.34a2.16,2.16,0,0,0-.45,1.78,7.18,7.18,0,0,1,1.85.5,4,4,0,0,0,1,1.73,8.45,8.45,0,0,0,1.94.07,1.74,1.74,0,0,0,.13-1.23c-.38-.64-2.57-.9-2.93-.7-.05-.2,0-.25-.18-.45l-.15.07c.17-.66,1.15-3.53.84-3.88-.12,0-.22.07-.34.09l-.29.53q-.32,0-.63-.06a.67.67,0,0,1,.09-.92,6.07,6.07,0,0,0,1.51.27c.7-1,1.51-1.77,2.45-1.56.48.11.59.31,1,.07.81-.45,1.21-2.17,1.8-2.93s2.22-.51,2.94-2.27c.24-.62-.11-1.23,0-1.83a8.36,8.36,0,0,1,2.07-3.24h.1a1.45,1.45,0,0,0,.1.18c0,.09,0,.18,0,.27-.26.33-.5.67-.75,1l.27.19a1.68,1.68,0,0,1,1.85-.32.36.36,0,0,1,0-.1.69.69,0,0,1-.27-.57c.29-.14.6-.68.95-.82h.49c.45-.18.79-.55,1.21-.71l0,.09c-.21,1,.62,1.16.21,2.5l0,0c.29-.36.58-.72.86-1.1a4.26,4.26,0,0,1,.87-1.49,6.42,6.42,0,0,1,3.78-1.48c.57.29,1.15.59,1.75.88l-.08,0c-.09-.15-.16-.29-.24-.44.58-1.11,2.32-1.22,3.28-1.1,0-.14,0-.29-.08-.44l0,0,1.53-1.42c-.18-.13-.25-.19-.26-.34.24-1.1,1.71-2.28,2.28-2.68s1.31-1,2-1.5c.58-.3,3.63-.83,3.72-.9s0-.4.15-.56c.41-.23.84.1,1.31.26,1.58.49,3.52,1.71,4.79.31.43.11.82.21,1,.64-.16.78.48,1.46.69,2.17s-.14,1.77.21,2.57,1,1.36,1.08,2.12l.15-.06c.74-.5.37-1.74.58-2.35.58.11,1.15.23,1.73.36a8.19,8.19,0,0,0,1.44-2.42,2.14,2.14,0,0,0,.72.77l0-.09c-.51-.8,0-1.83-.33-2.64-.19-.49-.76-1-.63-1.47a10.75,10.75,0,0,1,.69-1.4,6.52,6.52,0,0,0,1.23-.53c1-.74,1.63-1.82,2.86-1.44l.11-.16a3.86,3.86,0,0,1-.09-.49,1.8,1.8,0,0,1,1.94-.27c.61.61-.13.72,1.23,1.24a6.71,6.71,0,0,1,.37-3.16c.35-.67,1.37-.77,1.86-1.19l1.46-1.57c.85-.84.77-1.91,1.9-2.61,2-1.2,4.27-1.16,6.28-2,.93-.39,1.31-1.66,2.25-2.4.46-.36,4.5,1,5.32,1.79a9.06,9.06,0,0,1,2.87,6.6c-.05.35-.12.71-.18,1.07.1.51.45.56.8,1.06a8.14,8.14,0,0,1,1.43,3.52l-.07.11-.8-.12-.22.24a21.51,21.51,0,0,1,2.34,2.43c1,.57,2.07,1.14,3.12,1.7.81.4,1.3,1.39,1.85,1.94a6.34,6.34,0,0,0,1.38.8,2,2,0,0,0,1.2,2.41l1.15.63c.3.34.16.88.3,1.25l.82,1.45c.31.68.37,1.59,1,2.18l1,.47c-.55,1-.77,2.05.31,2.74a12.76,12.76,0,0,1-1.8,3,7.44,7.44,0,0,0-1.17,1.61c.62.6.28.88.24,1.58.08.33.17.65.26,1-.21.16-.55.28-.69.61a22.21,22.21,0,0,0-.14,5c.09.72.55,1.14-.12,1.94l.22.15c.75-.46,1.29.67,1.41,1.14a6.25,6.25,0,0,1,1.24.36c3.6,1.73,2.49,3.61,3.41,5.76.5.78,1,1.56,1.51,2.36a9.45,9.45,0,0,1,.85,3.16c-.94-1-.66-2.7-1.83-3.41l0,0a1.53,1.53,0,0,1-.8.93l.07.05c.39.44.76.87,1.15,1.29.3.58,0,1.39.36,2l1.69,1.77c.75,1.1.66,2.38,1,3.52s1,2.11.62,3.35c-.25.77-.94.81-1.23,1.29-.39.65-.3,1.2-.67,1.8-1.37,0-1.87.65-2.54,2-.43.13-1,.07-1.35.38l.24.67.18.06c1.27,0,2.1-1,3.23-1,.41.32.33.48.53.75.7,1,1.57.22,2.18,0,.3.15.8.26.9.51a7.94,7.94,0,0,1,.79,2.13c.14.41.53.71.69,1.15.46,1.18-.85,3.55-1.47,5a10.24,10.24,0,0,1-1.92,3c-.25.25-.88.76-.85.92.3.74,1.22.53,1.62.44a8.67,8.67,0,0,0,.92,1.62c.44.46,1,.06,1.36.51.18.32,0,.57-.05.95a4.12,4.12,0,0,1-1.09,2.22c-.59.51-1.66.85-2.05,1.62l.13.36c.65.37,1.11.27,1.66.54s.55.64,1,.88c.33-.17,1.38-.2,1.35-1a.85.85,0,0,1,.06-.17h-.56c.14-.37.26-.74.39-1.11h.06l1.38.61c0,.08.06.16.08.23-.07.25-.15.64-.38.72s-.38,0-.59,0a2.24,2.24,0,0,0-.64,1.65l.21,0c.36-.32.72-.64,1.09-1a.25.25,0,0,1,0,.09,4.1,4.1,0,0,0,0,2.43c1.23.8,1.59.74,1.74,2,.36.16.61,0,.85.15-.32.59-.6,1.2-.92,1.8-.27,1.26.19,3.54,2.07,3.77a4.18,4.18,0,0,0,2.5-.74c.36-.29.62-.8,1-.9,2.59,1,1.06,3.57,1.58,5.2.16.37.3.73.46,1.09.56.62,1.29.59,1.52,1.38s-.56,1.81-.3,2.59c.75,2.35,3.77,1.87,5.13,2.21a1.88,1.88,0,0,1-1.3,1.27c0,.08-.05.17-.08.26-.06.48.26.85.11,1.35-.18.69-.75,1.1-.55,1.7l0,0c.38.9,1.64,1.24,2.08,2.09-.14.3-.28.61-.41.92l-.95.4a15.55,15.55,0,0,1-.73-2.38l-.1-.07-.64.28c-.31.8-.22,1.87-.92,2.78a1.61,1.61,0,0,1-.61-.31c.38-.82.48-1.48.81-2.3-.44.11-.88.84-1.24,1.4-.48-.33-.43-.55-.78-.87a.81.81,0,0,1-1,.22l0,.83-.52.36c-.26-.27-.23-.45-.59-.73l0,0c-.06.23-.12.47-.2.69a1.45,1.45,0,0,0-.77.07,2.76,2.76,0,0,0-.08-.27c0-.19,0-.23-.1-.41l-.38-.08c-.41.1-.73.46-1.24.52a1.81,1.81,0,0,0-.35-2.06c-.22.38-.26.9-.6,1l-.84-.3c0-.22,0-.43,0-.64a1.93,1.93,0,0,1-1.19-.11q0-.42,0-.84l-.46-.2c0,.28,0,.57,0,.86l-1.64-1c-.09-.21-.19-.43-.29-.63l-1.15-.64c.44-.65.75-.52,1.22-1.14l-.11-.24-.18-.12-.83.32-.93,1.44-.27-.19c-.14-.36-.46-.63-.61-1,.19-.21.28-.33.21-.51l-.29-.37c-1,.15-1,.74-1.85,1.31l-.4-.27c-.17.27-.32.55-.47.83-.14-.1-.12-.11-.18-.29a3.67,3.67,0,0,0-.35-2.39c.27-.43.37-.59.72-.71l.4.22a1.27,1.27,0,0,0,0,1l.56.23.09-.05c0-.32-.27-.53-.23-.88a1.49,1.49,0,0,0,.14-.12,1.71,1.71,0,0,0,.83.47.36.36,0,0,0,0-.1c-.16-.41-.32-.81-.49-1.21-1-1.32-1.22-.45-1.27-2.15-.27.23-.64.49-.87.06-.09-.27.07-.52.07-.83a3,3,0,0,0-.33-1.32l-.32-.11-1.05.48a2.88,2.88,0,0,1-.79-.76c-.79-.82-1.3-.51-.93-1.68-.43-.17-1.17-.07-1.54-.64-.14-.22-.07-.42,0-.68l-.27-.25c-.35,0-.52.11-.83.16l-.5-.63a1.83,1.83,0,0,0-.53.52c.24.57.17,1.13-.46,1.33-.55-.26-1-.13-1.46-.29-1.87-.62-1.63-2.43-2.38-3.34l-.11-.08a7.11,7.11,0,0,0-2-.77l-1.57-1.08-1.36-.26a.51.51,0,0,0,0-.13,3.49,3.49,0,0,0,.4-1c-1.81-2-2.75-3.91-4.32-6-.39-.5-.4-1.19-.91-1.62-.3-.06-.83-.14-1-.36s-.27-.73-.41-1.09l-.76-.33a18,18,0,0,1-3.67-2c-.33-.45-.29-1.12-.71-1.59-.68-.76-1.34-.26-1.88-.8s-1-1.18-1.52-1.76c-.11-.28-.22-.55-.32-.83a10.9,10.9,0,0,0-3.26-2.79l-.57-1.16c-.3-.12-.59-.26-.89-.39a6,6,0,0,1-2-1.74,5.82,5.82,0,0,0-.6.14l-.56-.38c0-.24,0-.46,0-.69-1.56-1.47-6.85-5.55-8.75-5.59-.67,0-1.21.78-1.84.93l-1.31-.18-2,1.19c-2.31,1.25-4.73,2.73-7.22,3l-1.56,0-1.2-.82a5.77,5.77,0,0,0-1.76,0c-1.34-.07-2.55-.62-3.79-.08-1.56-1.28-6.39-1.18-8.17-1.23l-2.53-.08c-.9.22-1.66,1-2.57,1.24a.53.53,0,0,0-.06-.14,2,2,0,0,1,.35-.76c-.87-.82-1.87,0-2.94-.59-.85-1.56,0-3.65-1-4.95-.27-.32-.79-.4-1.1-.64.1,1.18.7,2-1.1,2.15a1.56,1.56,0,0,1-.06-.15.62.62,0,0,0-.09-.51,8.92,8.92,0,0,0-2.18-.9c0-.5.09-1,.14-1.49h-.55c-.36-.42-.12-.93-.38-1.29s-1.18-.53-1.27-.94c.28-1.11.69-1.65.36-2.61a1.36,1.36,0,0,0-.64-.11,2.56,2.56,0,0,0-.11-.24,3.47,3.47,0,0,1,.52-.75c-.32-.38-.59-.22-1.09-.57.06-.44.69-1.27.64-1.72-.44-.86-.87-1.73-1.3-2.59-.33,0-.66.09-1,.15-.3-.36-.61-.72-.92-1.07-.56-.28-1.18-.21-1.66-.6.11-.27.18-.43.06-.67-.4,0-.64.26-1.06,0a1.78,1.78,0,0,0-.42-.68,8.19,8.19,0,0,0-1.73.19c-.42-.43-.36-.81-.84-1a1.77,1.77,0,0,1,.52-.09c0-.36-.27-.78-.19-1.11-.58-.24-1.09,0-1.6-.22l0,0c.66-.34,1.25-.1,2-.2,0,0,0-.08,0-.13s0-.19-.09-.33l-.82-.18-.64-2.26.39-.89c-.83-1.14-2-1.26-1.8-2.88,0-.24,0-.55.16-.72s.42-.22.77-.08c0-.13,0-.27-.05-.41-.49-.31-.61-.54-.62-.92a2.39,2.39,0,0,0,1.06-2.2c-.46-.06-1.43,0-1.78-.44s0-.51.3-.84l-.1,0c-.23.13-.36.1-.64-.1a1,1,0,0,1-.21.78c-1.16-.3-1.91.22-2.34,1.63a1.2,1.2,0,0,0,.5.4,3,3,0,0,0-.14,1.72c.64.12,1-.35,1.73,0-.35.66-.08,1.11-.66,1.68l-.2.05c-.3-.34-.88-.27-1.25-.32l0,0,.44.4a1.25,1.25,0,0,1-1.45.27c-.58.76-1.26.95-1.59,1.81.07.2.16.38.23.56a1.51,1.51,0,0,0-1.66-.22,1,1,0,0,0,0,.14c.21,0,.45,0,.67,0a.56.56,0,0,1,.05.08,1,1,0,0,1-.92.46c-.63-1.39-1.59-.12-2.47.4-.28.15-.78-.17-1.08-.2l-1.07.53,0,0c.18.06.35.1.54.17.25-.21.35-.3.63-.29.05.22.11.44.16.65l-.09.06c-.84-.19-.88.73-2.18.36-.16-.28-.12-.58-.32-.8a.93.93,0,0,0-.2-.1,4,4,0,0,0-.51.25l.16-.33a1.31,1.31,0,0,0-.21-.08c-.34.38-1.26.27-1.7.31-1.3.09-2.54.66-3.82.83l-.18-.12.31-.45c-.46-.1-.83-.2-1.21.15a2.09,2.09,0,0,1,.33.56c-1.28,1.85-3.13,2.52-4.51,3.67-.67.56-.76,1.26-1.41,1.5-1.89.68-5.41.93-7,2.17s-.8,2.6-1.46,3.94a16.71,16.71,0,0,1-2.57,2.47l-2.52,1.25-1.2,1.19c-.74.45-1.48.88-2.23,1.32s-2,.41-2.51,1.26c-.66.55-1.32,1.13-2,1.69l-2.17.28-1.53.87a5.75,5.75,0,0,1-1.81.07l-.65.06c-.28-.16,0-.8-.08-1.07-.26,0-.34.09-.54,0-.25-1.16-1.33-1-2.17-1l-.4-.55-5.77.65-1.41.52c-.3-.1-.61-.22-.94-.32l-1,.61h-.94c-.2.1-.25.51-.25.6l-.33.1a1.19,1.19,0,0,1-.94-1c-.79-.21-1.17,0-1.38.65-1.44-.43-1.46.48-2.51.37-.32-.32-.44-.47-.78-.48l-1.17.84c-1.34.5-6.34.26-7.87-.86a12,12,0,0,0-1.1.79,1,1,0,0,0-.63-.21c-.12.1-.24.2-.37.29.06.13.12.26.17.39-.39.51-1,.62-1.42,1,.35.3.65.91,1.11,1l.8,0,1.51.93c.85.14,1.54-.63,2.36-.64.64,0,1.5.44,2.14.32l.91-.53a4.65,4.65,0,0,0,1.6.56c.19-.18.38-.36.59-.54,1.18.23,1.65,1,2.28-.19.57.15,1.28.54,1.95.69l2.39.27c1,.33.77.73,1.69.5,0-.27,0-.53.05-.79l1.67.12c.36-.13.43-.36.83-.32a2.07,2.07,0,0,1,.51,1.5l-.3.19a9.6,9.6,0,0,0-1.1-.32c-.5,0-.87.33-1.34.51a12.79,12.79,0,0,1-3.58.89c-.51,0-.79-.78-1.31-.9a3.57,3.57,0,0,0-1.76-.16c-.3.12-.48.4-.78.5l-1,.15c-.24,1.1-3.14,1.77-4,1.69.49-.42,1.09-1,.82-1.58-.25-1.18-1.84-.84-2.46-.65a16.16,16.16,0,0,1-2.41.87l-1.25-.36c-.29,0-.46.31-.8.21-.51-.14-.75-.42-1.18-.43-.79,0-1.6.31-2.09-.56l-.94.23-.74-.51c-.92-.23-3.83-.89-3.85.48a1.42,1.42,0,0,1-.25.12c-.2-.24-.29-.2-.58-.19-.76,1.15-1.21.7-1.94,1.21l-1.18,1.55c-.36-.05-.42.21-.67-.14-.39-.1-.57-.37-.84-.53-.2.18-.28.29-.54.3-.44-.52-2.75.71-3.88,0,.19-.42-.21-.52-.53-.59a2.37,2.37,0,0,1-1.32.63c-.26-.41-.69-.11-1-.59l-.11-.18.12-.08a.8.8,0,0,0,1-.15l-.14,0a2.83,2.83,0,0,1-1.56-.14l0,0,.54.42c-.18,0-.29,0-.35.2l-3.36.39-.07-.05c-.17-.11-.71-.19-.91-.36l-.35-.46c-.71-.29-1.58.2-2.26-.06-1-.4-1-1.54-2.11-2-.79-.35-3.23-.64-3.71-1.47-.14-.23,0-.5,0-.74l-.47-.76-.73-.06c-.71-.23-1.31-1.25-1.7-1.67a10,10,0,0,0-3-2.25l.31-.45-.59.54-1.3-.9c0-.16.07-.32.11-.48-.16.1-.31.19-.47.27.14.16.09.09.11.25l0,0c-1.3-.89-2.4-.41-3.45-1.21.22-.67,1-.93,1.49-1.35.71-.7.87-2,2-1.18.1.36.22.74.33,1.1l0,0c.32-.31.65-.21.87-.45-.64-.59-.6-1.61-1.72-2.06l-1.49-.47c-.79,0-1.78.78-2.44-.15a2.17,2.17,0,0,1-.42,1,10.29,10.29,0,0,1-1-.21c.29.49.58,1,.88,1.45a1.92,1.92,0,0,1,2.26-.1c.07.14.14.28.22.42a5.11,5.11,0,0,1-1.46,1.37,189.38,189.38,0,0,0,52.88,54.92c86.32,59.43,204.35,37.79,263.64-48.33S566.51,415.38,480.19,356A194.18,194.18,0,0,0,461.12,344.45ZM333.92,374l.09-.05a1.13,1.13,0,0,0,1.11-.16c-.18-.22-.7-.7-.76-1l.39-.49a1.55,1.55,0,0,1,1.08,1.39l.09,0,.51-.26c0,.1,0,0,0,.12a2,2,0,0,1,.14,1.25l-.7-.1c-.17.3-.41.78-.71.78C333.75,375.43,334.19,374.85,333.92,374Zm-6.58,3.11.77-1.45c.14-.55-.37-1.06-.4-1.58l.42-1.15a1.89,1.89,0,0,1-.11-.25.8.8,0,0,0,.19-.13c.28.61.43.6,1.14,1,0,.35.07.46.3.76-.57,1-1.25,1.69-1.63,2.45.45.5.36.81.51,1.34l-.82.15A1.83,1.83,0,0,1,327.34,377.1ZM187.16,539.5a8.93,8.93,0,0,1-1.28,2.14c-.16-1-.29-1.95-.42-2.92a2.2,2.2,0,0,1,.54-1.06c.52.07.76-.28,1.36.11C187.19,538.4,187.43,538.85,187.16,539.5Zm-.33-4.24a4.2,4.2,0,0,1-1.65,1.43c-.07-.63-.16-1.27-.23-1.89a2.4,2.4,0,0,1,1.86.34A.43.43,0,0,1,186.83,535.26Zm-2.93-12.54c.73.75,1.75,1.52.67,2.58a1.25,1.25,0,0,1-.49.29C184,524.64,184,523.67,183.9,522.72Zm.22,3.46.19,0c.05.35.1.7.16,1.05-.08.12-.17.21-.25.31C184.19,527.07,184.15,526.63,184.12,526.18Zm9.42,1.66c1.3.25,1.13-.06,2.19-.15,0,0,0,.07.05.09l0,1.73c-.52,1.43-2.86,2.58-3.74,3.26-.52.41-.79,1-1.32,1.2a1.62,1.62,0,0,0,0-.2c-.38-.64.09-1.31.08-2,0-.52-.89-1.21-1.1-1.69.11-.22.2-.43.28-.63A19.23,19.23,0,0,1,193.54,527.84Zm-7.71-19.78c.17,1.72,1.38,3.28,1.5,5-.73,1.07-2.44,2.74-2.65,3.79l.53-.07,1.19-.28c.77,1.06.33,2.24-.88,3a3.15,3.15,0,0,0-1.8-.44c-.1-3-.14-5.91-.1-8.88.53-1,.61-2.11,2.06-2.24Zm109.94,38.62,0,.05-.29-.15,0,0-.11-.08.14,0,.32.1,1.17.2-.15.07A3.23,3.23,0,0,1,295.77,546.68ZM329,571.51c-.25.38-.47.35-.74.6-.47.4-.13.74-.24,1s-1.91,1.2-2.14,1.21c0-.21,0-.42,0-.63.7-1.1,2-2.41,3-2.39A1.25,1.25,0,0,1,329,571.51Zm-2.42-4.24c-.44.53-.91,1.06-1.37,1.59-.62.67-.76,1.65-1.36,2.46l0,0-.15-.6a1.08,1.08,0,0,0-.33-1.11c-.76.27-1.56,1.42-2.31,1.76-.38-.22-1.05-.48-1.37-.33s-.79,1.13-1.16,1.45c-.71.62-1.56.86-2.22,1.39-.93.74-1.25,1.83-2.18,2.13l.34-1,0,0h-.27c-1.65,1.48-1,1.95-1.19,3.24-.06.39-.5.8-.54,1.12a1.11,1.11,0,0,1-.23,1.67,1.09,1.09,0,0,0,0-.25c0-.2-.05-.41-.07-.61a1.14,1.14,0,0,1-.75-.68,22.69,22.69,0,0,1,.61-2.87c.29-.52.57-1.05.85-1.57a15.42,15.42,0,0,1,2.67-3l.33-.49c.57-.16,1.14-.31,1.71-.48,1.06-.63,1.73-1.8,2.79-2.2l1.27-.17c.79-.52,2-2.14,2.77-2.27.11.18.21.36.34.56l.17,0a4.05,4.05,0,0,1,2.61-1.94l0,.08C327.08,565.86,327,566.58,326.62,567.27ZM337.51,558c-.48.22-1.32.11-1.48,1.11a1,1,0,0,0-.5.49c-.17.45.23,1-.27,1.35-.23,0-.45.06-.67.09a2.78,2.78,0,0,0,.64,2.19c-.4.33-1.25.27-1.74.37-.27.48-.55,1-.83,1.44l-1.11,1.22c-.14.33.06.48-.08.82-.47.14-.81.48-1.32.41l-.06-.08c0-.14-.06-.27-.1-.4.95-.76,2.35-2.24,2.38-3.31h-.15c-1.08.74-1-.24-1.62-.28s-1,.71-1.48,1l-.15-.1c0-.08-.05-.15-.07-.22s.16-.36.25-.54a11.88,11.88,0,0,1,1.65-1.67c.33-.37.18-.63.29-.89l.56-.67a1.79,1.79,0,0,1,.17-.65c.73.07,1.06-.72,1.54-1.19,1.31.37,2.54-1.42,3.84-1.44A2.83,2.83,0,0,1,337.51,558Zm23.34,9.63c.19.47.74.61,1.14,1.06a14.29,14.29,0,0,1-.9,1.47l0,0A1.31,1.31,0,0,1,361,570c0-.26.09-.52.14-.78a.7.7,0,0,1-.48-.34c-.22,0-.26,0-.45.25l-.06-.15a2.82,2.82,0,0,0,.51-1.14l.15-.22Zm-20.48-13.22c-.35.53-.23.85-.71,1.27a3.51,3.51,0,0,0-.84-.47c0-.1,0-.21-.05-.32.47-.67,1.24-1.93,1.91-2.14C341.37,553.4,340.82,553.71,340.37,554.41Zm-47.46-46c-1-.38-1.15-2.27-1.56-2.94.33-.13.65-.24,1-.38.16.41.71.94.82,1.39s-.32,1,.31,1.37l.39-.16c.27-.86-1-2.09.82-2.14C295.43,506.52,294.33,509,292.91,508.42ZM440.7,655.21c.09-.18.18-.34.27-.53s.1-.16.22-.18a.7.7,0,0,1,.71.1c.05.35.11.69.16,1.06.32,0,.64.06,1,.1l1.1,1.14a.15.15,0,0,0,0,.1c-.42.32-.64.58-1.14.53C442.5,656.72,441.22,656,440.7,655.21Zm25.13,14.93a.48.48,0,0,1-.11.09l-.3.13-.86-.6,0,0a1.09,1.09,0,0,1-.39.56c-.35-.06-.42-.3-.62-.53.35-.42.65-.68.61-1.13a1.33,1.33,0,0,1,.24-.11A3.9,3.9,0,0,1,465.83,670.14Zm13.48-10.46.13.31c-.47.69-.75,2-1.21,2.46l-1,.6-1.46,1.8c-.31.6-.61,1.2-.91,1.8-.35.35-.93.19-1.21.87s-.26,1.09-.56,1.71l0,0a10.15,10.15,0,0,0-.87-1c.43-.84.91-1.86,1.74-1.88l.26-.54a3.22,3.22,0,0,0-1.32.08c-.89.46-.69.67-1.73.51l-.09-.11.27-1.58-.34-.23a.69.69,0,0,0-.15.07c-.36.64-.5,1.46-1.06,1.68l0,0c-.79-.9-.41-2.06-.64-3.06.66-.29,1.3-1.2,1.95-1.42l.2.14c.18.52.06,1.08.61,1.08.68-1.1,1.64-.69,2.64-.87,1.75-.31,3.1-.49,4.55-2.6ZM403.29,368a.43.43,0,0,0-.38-.26l.84-1,.57-2.19c.16.58,0,1.21.2,1.79l.51,0c-.44.76,0,1.26-.58,2.12.18.15.16.09.15.27a4.81,4.81,0,0,0-1,.74,4.56,4.56,0,0,1-.85-.21A10.51,10.51,0,0,0,403.29,368Zm-11.56,15.52.13-.19c-.14-.12-.14-.11-.18-.23l.08.05a.94.94,0,0,0,.52-.29c0-.13,0-.24.05-.36a.75.75,0,0,1,.15,0c0,.07,0,.14.07.22.19-.2.2-.14.39-.18.25-.43.5-.87.74-1.31a2.22,2.22,0,0,0,1-1.1h.07a3.33,3.33,0,0,0,.25.28l.17-.1c0-.41.21-.74.22-1.11a2.06,2.06,0,0,1,.47.6c-.53.86-1.05,1.73-1.57,2.59l-.27-.18c-.6.41-1.26,1.47-1.85,1.81Zm-17.3,13.93c1.24-.51,1.56-1,2.11-2.5a2.64,2.64,0,0,1,.54-1.1l0,0c.27.45.6,1.6,1.3,1.77.31.05.59-.11.75.13a6.19,6.19,0,0,0,.17.94,25.77,25.77,0,0,1-3.68,2.15c-.59.34-.69.8-1.36.71C373.62,398.68,374.54,398.29,374.43,397.42Zm-14.12,2.38a7.93,7.93,0,0,1,.18-1.69l-.48-.44a.87.87,0,0,0,0-.1l.22-.07c1.1.74,2.75,1.62,3,2.71l-.2.2-.18-.13-.27.32-.28.07c0-.11-.08-.24-.13-.36l-.41.27s0-.06,0-.09,0-.21,0-.31l0,0c-.17.26-.11.3-.35.25,0-.1,0-.2,0-.29-.24,0-.3.11-.6,0a.81.81,0,0,0,0-.22C360.46,399.89,360.47,399.9,360.31,399.8Zm2.82,2.77a3.69,3.69,0,0,0,.59-2.3c.34-.23,1.71-.4,2.14.17a5.71,5.71,0,0,0,.38.65l.9.45c.54.28.67.78.93,1.13-.26.23-.6.39-.66.81l.21.64c-1.15,1.11-1.67-.64-2.92-1.19-.61-.26-1,0-1.55-.23A.69.69,0,0,0,363.13,402.57Zm-53-1.28c-.07-.2.11-.43,0-.66l-.9.1a.77.77,0,0,1-.12-.69,2,2,0,0,0,.62-.68l-1.2-.16c.09-.29.18-.58.26-.86l-.75,0c-.07-.21-.14-.42-.22-.64l.88-.39c.67-.57.55-2,1.38-2.57.3,0,.39-.09.43.25.51,1-.57,2.27.52,3.16h.23c.66-.95,1.84-3.26,2.67-3.56.23.05.25,0,.34.14.62.88,1.94,2.48,1.17,3.66a.18.18,0,0,1,.1,0l.74-.37a.45.45,0,0,1,0,.11c.18.58-.3,1.42-.81,2.13l.1,0c1.07-.7.7-1,1.2-1.82a4.78,4.78,0,0,1,2.59-1c.76.18,1.36.73,2.13.65.42,0,.51-.49.92-.69l1.72-.09c.42,0,1.27.68,1.29.67,1.36-.19,1.54-.77,2.16.85l.53-.53c-.42-1.13.93-1.8,1.68-2l1,.57c.44.56.39,2.8.14,3.55l0,0c.28-.35,1.3-1.59,1.39-1.62l.06-.09.52.37c-.12.33-.35.87,0,1.14-.47.57-.23,1-.46,1.45-.29.32-.58.65-.89,1-.09.29-.22.58-.32.87s-.42.12-.57.43l-.81,1.65.32.11a11.14,11.14,0,0,0-1.86,2.51c1.15.85.47,1.21-.32,1.6a.59.59,0,0,1-.3.61,3.2,3.2,0,0,0,0,1.89l-.43.08-.55.45,0-.08c.26-.84.3-2.72-.45-3.35.37-.39.07-.46,0-.83.14-.87,1-1.15,1.35-2-.41-.32-.41-.81-.64-1.22a3.84,3.84,0,0,1-.39,1.5l0,0,0,0-1.27.72-1.06,1.47-.67.18a2.84,2.84,0,0,1-.06-.31c-.22-.43.5-1.56.16-2.47-.32-.24-.66-.59-1-.61l-.07,0-.54.79,0,0c-.57-1,.11-2.29,1-3.56l0,0c-1-.14-1.14-.86-2-1.52l0,0-.32.71a3.27,3.27,0,0,1-1,.09,3.11,3.11,0,0,1-.56-1.43c-1,.88-.37.85-.89,1.69l-.65.55a.49.49,0,0,1,.22.48l-.83.74c-.52-.48-.66-1.78-1.16-1.83a.83.83,0,0,1-.95-.22,1,1,0,0,0,0-.68l-.56-.22-.1.15a12.1,12.1,0,0,1-.06,2l-.07-.05c-.75-.1-1.05-1.2-1.43-1.75l-.62.24a.28.28,0,0,0,.06.08,2.73,2.73,0,0,1,.17.79,4.56,4.56,0,0,1-.44.24c-.08-.15-.73-1.48-.73-1.48Zm4.85,3a1.21,1.21,0,0,1-.16.16,1.72,1.72,0,0,1-.71-.49c0-.11.09-.22.12-.34l.66.34Zm1.56,13.4c.23-.31.68-.85.67-1.14s-.35-.44-.42-.67c.21-.44.52-.87.2-1.24-.16.3-.31.59-.46.9a.93.93,0,0,0,0-.14c-.07-.14-.12-.29-.18-.44-.22,0-.17.05-.28-.09-.33-.53,0-.71.11-1.35l-.37-.1c0,.42-1.26,1.67-1.61,1.87l-.15-.43-.25,0,.25-.6c-.45-.19-.35-.24-.44-.63l-.05.07c-.37.1-.45.31-.6.7l-.22-.15a1.56,1.56,0,0,1-.44-1,11.84,11.84,0,0,0,1.81-2,1.19,1.19,0,0,1-.46-.15,1.18,1.18,0,0,0-.09-1.22L312.8,411c0-.07,0-.14-.07-.22s.14-.34.2-.52a1.58,1.58,0,0,1-.27-2.16.65.65,0,0,0,.86-.29,3.5,3.5,0,0,1,1.54-2.41,14.66,14.66,0,0,1,2.32.72,2.12,2.12,0,0,1,0,2,5,5,0,0,1,3.07,1.05c.34.45.37,1,.93,1.53l-.55.89c0,.1.08.2.12.3-.27.46-.53.91-.79,1.38,0,.66,0,1.35,0,2-.13.21-.26.41-.38.62a7.47,7.47,0,0,1-.69,1.89,2.47,2.47,0,0,0-.91-.51l-.36.68c-.24-.11-.41-.11-.57-.28a4.87,4.87,0,0,1,.12-.52l0,0c-.21.26-.41.53-.61.79C316.7,417.84,316.64,417.77,316.55,417.69Zm-73.37-22.54h.16a0,0,0,0,1,0,0l-.3,1.1c.5-.15,1-.86,1.42-1.25v0a1.54,1.54,0,0,1-.09.83c-.11.1-.23.07-.34.13a1.81,1.81,0,0,0-.51.49,22.58,22.58,0,0,1-2,2.65c-.2.2-.83.71-1,.34s.4-1.46.47-1.87c.56-1.24,1.41-1.31,2-2.17C243.07,395.36,243.13,395.26,243.18,395.15Zm-3.3,3.91c0-.54.08-1.07.13-1.62a18.52,18.52,0,0,0,1-1.91l.11.16c-.1.38-.22.79-.33,1.19s-.07.56-.09.85-.26.63-.39.93a4.21,4.21,0,0,1-.35,1l-.08.05C239.75,399.58,239.87,399.26,239.88,399.06Zm-1.55,1.35c0-.28-.19-.59-.27-.8.13-.31.28-.6.41-.9s.61-.84.84-.69A7.64,7.64,0,0,1,238.33,400.41Zm-7.06-9.2c.38-.13,1.07,0,1.34-.53,0-.17-.1-.63.17-.71s.24.13.27.25a7.65,7.65,0,0,1-.22,1.94.87.87,0,0,1-.32.18c-.07,0-1.12.05-1.12.05C231.27,392.2,231.42,391.51,231.27,391.21Zm2.39,2.6c-.19.43-1.19.71-1.25.19l.08,0,.46-.39C233.41,393.25,233.6,393.24,233.66,393.81Zm-7.11-.6,1.58-.6c.19-.07.5-.26.68-.15a.19.19,0,0,0,0,.08.08.08,0,0,0-.05,0l-.71.25-.61.46-.39.1c-.25.14-.42.42-.71.47s-.54-.21-.78-.31C225.88,393.25,226.19,393.29,226.55,393.21Zm-38.92,80.25a.38.38,0,0,1,.28.11,7.31,7.31,0,0,1-.57,1.29C187.43,474.39,187.53,473.93,187.63,473.46Zm-.84,4.29a1.18,1.18,0,0,1,.44.38c.47.88-.19,1.87-1,2.73C186.41,479.82,186.59,478.78,186.79,477.75Zm-1,5.68c.83-.91,1.64-1.9,2.32-2.59.51-.54.79-1.37,1.33-1.62l.7-.07.64.44c.06.36.13.72.2,1.07-.45,1-.89,2-1.34,3a7.63,7.63,0,0,1-.69,2.22c-.14,0-2.16-.05-2.16-.05l-.54,1-1,.6C185.41,486.12,185.6,484.77,185.81,483.43Zm-.61,4.29,0,0,1,.33a7.18,7.18,0,0,1-1.3,1.53C185.05,489,185.11,488.35,185.2,487.72ZM184.14,498a2.54,2.54,0,0,0,1.38-1c-.1-.37-.2-.76-.31-1.13.08-1.33,2.34-6.22,4-7.68l2.08-.87c1.14-.81,1.34-1.57,2.59-1.52l.06.15c-.11.48-.55,2.39,0,2.66l1.17.31a23.07,23.07,0,0,1-2.16,3.68l-1.06.59c-.33-.17-1-.52-1.32-.41l-.7.46c0,.08,0,.17,0,.26l1.18.76a8.52,8.52,0,0,1-1.61,2.91c-.6.54-1.32.7-1.9,1.32.19.2.37.41.57.61a12.17,12.17,0,0,1-2,3.28,2.2,2.2,0,0,1-1.67-.54c-.24.52-.56,1.16-.38,1.59.11.22.22.43.34.62a1.85,1.85,0,0,1-.63,1.45C183.81,503.06,184,500.54,184.14,498Zm44.16,13.43a2.76,2.76,0,0,0,.07,1.25c-.77.67-1.44,1.88-2.3,2.22-1.12.42-1.68-.39-2.79,1.16.08.15.15.28.21.42l.85.36a1.18,1.18,0,0,1,0,.2c-1,1.64.3,2.69-.86,4.35a3.89,3.89,0,0,0-1.58-.81c-.44,1-.88,2-1.31,2.94l-.14-.1c-.65-.82-.41-1.8-.25-2.75-2.12-.36-3.14-2.76-4.24-4.18.47-.12.92-.25,1.37-.38l.52.69c.45-.18.78-.17,1.18-.68-.1-.23-.22-.48-.34-.71a16.81,16.81,0,0,1,3-1.24c1.73-.85,1.69-2.2,3.86-.43.55-.64,1-1.53,1.62-1.95l1.09-.46A.34.34,0,0,0,228.3,511.46Zm14.34-38.08c.05.3.37.81.38,1-.21,1.08-1.26.64-1.31,1.9l.1,0a1.9,1.9,0,0,1,1.75-.23,1.82,1.82,0,0,0,0,1.92,2.31,2.31,0,0,1-1.46.38.25.25,0,0,0,0,.09l1.21,1.12,1.3.51,0,.07a3,3,0,0,1-1.6,1c-.41,0-.6-.24-.95-.21-.07.32-.12.65-.18,1-.46,0-.83.16-1.34-.14-.15-.22-.32-.44-.47-.67-.43.19-.66.74-1.15,1-1.13.67-2.28.24-3.37,1.47.11.39-.26,1,.13,1.3l1.76-.22c0,.07.05.14.07.21-.13.26-.28.51-.41.77a2.82,2.82,0,0,0-1.89.51,15,15,0,0,0,2.42.39l.79-.83a31.28,31.28,0,0,0,3.12.34c0-.08,0-.17-.06-.26s0-.33,0-.5c.46-.39,1.15-.28,1.67-.52s.84-.46,1.26-.72l-.05.08c-.06.18-.13.35-.19.52s.1.18.14.27c1.57.09,2.17-1.36,4,.2a.9.9,0,0,1-.21.08,4.74,4.74,0,0,0-2.45.2c1,.86,2.06.13,3.16.85l0,0c-.21.2-.42.42-.64.61l1.84.27a4,4,0,0,1-2.56.62c-1.17,2-2.87,1.59-4.49,2.12l1,.44c-.78.55-1.39.42-2.14,1.51,1.41.72,3-.66,4.25-1.14a6.49,6.49,0,0,1,4.4-.28c-1.23.91-2.48,1.81-3.72,2.71-.71.62-1,1.36-1.71,1.69l-1.31.15c-.23.25-.47.52-.71.77l-.62.29c-.25.15-.45.52-.49.53-.87.26-1.3,1.13-2.27.92a2.89,2.89,0,0,0-.27-1.22l-1.31.63c-.25.27-.51.53-.76.79a2.62,2.62,0,0,1-2.88-.05c-.74,1.12-1.4,1.13-2.18,2l.15.1c.29.08.84.25.93.48s0,.07,0,.24l-1.56,1.29c.09.44.16.88.24,1.33a11.37,11.37,0,0,1-3.14,3.22c-1-.65-1.26-1.28-.73-2.32-.15-.18-.76-.55-.82-.73a9.45,9.45,0,0,1,2.35-2.29l1.21-.15,0,0c-.45-.3-.71-.34-1-.67a13.1,13.1,0,0,0,1-2.46c.27-.35.55-.68.83-1l-.08-.05-.21-.25a12,12,0,0,1-2.81.25c-.21-.4.25-2.39.19-3l-.57-.94c-.13-.56-.27-1.11-.4-1.65-.81-.43-3.48-.9-4-.57a7,7,0,0,1-2.46,1.34l-1.63-.2c0,.36,0,.72,0,1.08l-.51.74c-.16.57-.53,1.31-.69,1.89l0,0-1.1-.48c.35-.65.7-1.3,1.07-2l-.38-.32-3.21,1.15c-.2.24-.39.5-.59.75l-.63.28c-1.34-.74-1.76.16-2.86.56l-1.18.29c-.07.26-.15.52-.21.78-.4.38-1.85.89-1.9,1.4,0,.1,0,.19,0,.3l.13,0c1.12.16,2.64-2.17,4-1.91a.91.91,0,0,1,.49.33,2.6,2.6,0,0,1-.2,1c-.65,1.35-3,1.59-3.05,2.79l0,0c.58.35,1.09-.12,1.55.39-.47.24-1.7.43-1.94,1.14-.08.34-.14.67-.22,1a2.36,2.36,0,0,0-1.25.89c-.11.25-.2.49-.3.74l-2.06,2-1.47,2.13-.72.5a2.41,2.41,0,0,0-1.05-.56l-.8.77.34.62c-.77,1.54-3,3.52-4.2,2.27.44-.71,2.4-2.85,2.18-3.49-2.3.15-3.08,2.08-5,3.71-1.09-.84-1.28-1.14-.94-2.29a.94.94,0,0,0-.4-.23l-1.06.43c-3-1.84-2.73-8.81.73-11.05,0,.09.05.19.08.28-.13.68.52,4,1,4.5.23.12.47.22.71.32l1.42-.45c.89,2.23,2.93.67,4.3.54l.13.2c-.08.41-.16.82-.23,1.22l.45.3,1.47-1.72c-.34-.47-.42-1.24-1.24-1.41-.64-.11-.91.46-1.47.64l-1.29.09a2.26,2.26,0,0,1-.26-1.37,4.16,4.16,0,0,0,1-1.33h-.17l-1.09.39c-.15.18-.28.37-.43.54l-.89.33a2.53,2.53,0,0,1-1.11-.93c0-.27,0-.55,0-.81a9.89,9.89,0,0,0,1.47-2H196c-.63.31-1.27.64-1.9.94a1.8,1.8,0,0,0-.08-.21c.2-1.32.91-5.51,2.86-6.3l1.89-.12c.53,0,1.06-.1,1.59-.16.5.18,1,2,1.33,2.39l1.15.79a1.55,1.55,0,0,0,.25-2.51,2.34,2.34,0,0,1,1.25-1.34l1.12.61.7-.52c0-.07,0-.13,0-.19l-1.37-.73c-1.62-2.22.77-3.37,2.13-4.85.44-.48.45-1.19,1.08-1.41.4-.13.95.06,1.38-.09a6.45,6.45,0,0,1,1.5-.5l.26.18a3.4,3.4,0,0,0,.12,2.38l.6-.07q.17-.15.33-.33a2.31,2.31,0,0,1,.3-2.1,18,18,0,0,1,2.3.1v-.17a9.35,9.35,0,0,1-.6-2.16,11.17,11.17,0,0,1,2.42-1.59l0,0c.19.66.38,1.31.56,2,.52-.89.48-1.49,1-2.35l1,.56.89-.26c.66-1.29.42-2.89,2.33-3,.58.85-.39,1.84-.12,2.72.07.11.13.24.19.35l.57-.1a6.42,6.42,0,0,0,.34-1.3c.17-.33.34-.65.52-1,0-.26-.17-.61-.14-.93a2.81,2.81,0,0,1,2.65-.59,8.84,8.84,0,0,0-1.15,2.07l.24.22c.72.14,1.44-1.18,2.07-1.55a2.14,2.14,0,0,1,1.12-.21l.06.09a7.9,7.9,0,0,1-1.1,1.51c-.33.3-1.17.48-1.39,1.13.05.13.07.27.11.41l0,0,1.38-.38.18.29c-.22.42-.46.86-.67,1.29,1.31.19,2.38-1.43,3.59-1.87.4-.13,1.1.31,1.51.28.18-1.32.69-1.05,1.49-1.84.46-.45,0-1.05.67-1.45a4.6,4.6,0,0,1,2.69-.47l-.06.07c-.15.43-.31.84-.47,1.27l.55.38c.73-1.05,1.09-2.05,1.76-2.87.19.26.38.5.59.75.7-.68,1-1.09.91-2,.71-.26,1.42-.54,2.13-.79A.94.94,0,0,0,242.64,473.38Zm-22.93,23c.18-.43.35-.87.52-1.3a3.35,3.35,0,0,1,1.66-.89l1.5,1.1c.56.74-.15,3.33-1.45,3.78S219.64,497.27,219.71,496.36Zm-3.57-45.85c-.22.28-.53.62-.84.53a1.55,1.55,0,0,1-.26-.84.21.21,0,0,0,0-.07A1.11,1.11,0,0,1,216.14,450.51ZM230.23,456a1.4,1.4,0,0,1,.07-.68,1.14,1.14,0,0,0,.37-.65h-.09a1.75,1.75,0,0,1-.32.48l-.15,0,0,0a4.11,4.11,0,0,0-.21.42l-.71.61-.44.45a.1.1,0,0,1-.16,0,2.44,2.44,0,0,1,.47-.87,6,6,0,0,0-1,.34c-.13-.13-.13-.26-.12-.47s.2-.26.31-.4c-.34-.09-.5.33-.77.25a2.53,2.53,0,0,1-.07-1.25,3.05,3.05,0,0,1,2.06-1.93,2.59,2.59,0,0,0,1.16-.44c.38-.32,1.38-1.16,1.68-.5a3.22,3.22,0,0,1,0,2c-.12.4-.39.59-.5,1s-.16.64-.23,1S230.42,456.24,230.23,456ZM396.3,560.8c.23.86-.63,2.7-1.43,3.41a3.77,3.77,0,0,1-2.49-1.82c.58-.87,2.18-3.12,2.73-3.24C395.34,559.58,396.16,560.29,396.3,560.8Zm-95.12-67.75-.91.76-.69-.37c0,.24.05.48.08.71l-.26.27-.32-.17a1.5,1.5,0,0,0-.6-1c-.24,0-.49,0-.74,0a1.53,1.53,0,0,1-.21.14c.42.87.22,2.29.45,3.28a2,2,0,0,1-.66.7c-.19-.07-.15,0-.25-.17.37-1.06-.17-1.72,0-2.64l-.08-.05c-.27.31-.54.61-.8.92a.6.6,0,0,1,.2.59c0,.08-.07.16-.11.25h-.17l-.56-.38-.33.65c.4.42,0,1.22-.51,1.77l-1.78,1.94-1,1.85c-.28-.09-.67-.11-.77-.33-.45-.82.13-1.93,0-2.82l-.81.7-.1-.17c-.72-1,.17-1.19,0-2.05l-1.05.1a12.42,12.42,0,0,1-2.2-5.92c.19-.55.38-1.09.58-1.63l.22-.18.24.06a.53.53,0,0,1,.12.14c-.06.29-.19.68-.29,1,1.61.22,1.08,2.88,2.56,3.86.3-.76-.41-1.14-.08-1.87.27-.19.55-.4.83-.58.08.35.14.71.2,1.07l0,0,.08.06a3.15,3.15,0,0,0,2.14-1.51l-.27-.51a3.65,3.65,0,0,1,1.83-1.6c0,.13.07.27.11.4l.12,1.36a1.21,1.21,0,0,1,.18-.05,1.73,1.73,0,0,0,.95-.18,2.26,2.26,0,0,0,.3-1l.28-.2.19.13c.14.94,0,.79-.19,1.73l0,0a4.84,4.84,0,0,0,1.27.22.36.36,0,0,0,0-.1,1,1,0,0,1-.19-.62,4,4,0,0,0,.37-.29h.11c.43.5.67.58,1.11-.17C300.48,491.64,300.75,492.5,301.18,493.05ZM268.61,457.1h0c-.21-.26.07-.81-.08-1a.45.45,0,0,1,.14-.21c.11,0,.17,0,.25.05A2.13,2.13,0,0,1,268.61,457.1Zm-12.46-44.46a6.44,6.44,0,0,0-.5.77c-.36.52-1,1.07-1.51,1,0,0,0,0,0,0s.07.2.1.31c.3,0,1.09-.9,1.39-.54.07.08,0,.19,0,.33a0,0,0,0,1,0,0c.16-.17.28-.45.45-.53.53-.25.54.76.65,1l.26.23c.17.33-.12.92,0,1.15s.53.2.71.45,0,.52.15.71a1,1,0,0,0,.82.34l.34-.11c.2.24.13.61.28.86,0-.06,0-.05.06-.07a.72.72,0,0,1,.65.23c.1.19.21.4.32.59.23.43.55.77.77,1.19a.77.77,0,0,1,0,.88,1.66,1.66,0,0,1-.54.22c-.16.28-1,1.35-.83,1.55.32.25.74-.57,1-.36s.11.42.19.59.36.27.54.41c.21.43-.53,1-.77,1.22h0l.15-.05a2.07,2.07,0,0,1,.32,1.24l-.05.07c-.17.23-.47.07-.68.12v0a1.08,1.08,0,0,1,.09,1.22c.32-.08.52.16.75.27v0c-.14.22-.28.53-.47.59s-.31-.41-.54-.44h-.3c-.2-.14-.21-.57-.33-.8s-.49-.63-.65-1a2.86,2.86,0,0,1-.85,1.35c.28,0,.65,0,.58.42l.05,0a.83.83,0,0,0,.11-.15,4.12,4.12,0,0,1,.2,1.14c0,.15-.08.49,0,.56.29.24,1.43-1.28,1.52-.1a.22.22,0,0,0-.15.22c0,.31.24.4.26.67a1.51,1.51,0,0,1-.56,1l-.27.05-.16.16a1.77,1.77,0,0,0-.53.27.06.06,0,0,0,0,0c.27,0,.56.09.83.13v0c0,.07,0,.07-.07.13-.2.26-.42.24-.67.32l0,.05s0,.07,0,.11c.41.47.54.44,0,1.42h0l0,0c.31-.28.6-.77.94-.94.53-.25,1,.54,1,.89a2.5,2.5,0,0,1-.15.78c-.64.82-.92.34-1.3,1.87l.32-.21c.64.42.79-.39,1.39-.74a3,3,0,0,0,.36-.16l.43,0c.11,0,.11-.18.26-.15s.35.19.27.47c.22,0,.44-.3.65-.19,0,.39-.34.46-.48.94s-.08.75-.17,1.16-.13.52-.19.78c.29-.24.59-.47.87-.71.13-.13.26-.42.39-.48l.37-.07.51-.23c.21-.1.7-.31.81,0,.05.13-.16.52-.26.69l-.52.78c-.19.23-.41.4-.6.67a.94.94,0,0,0,.44-.18c.08-.11.15-.23.23-.35.25-.31.7-.58.77-1.13.17.09.37.12.44.3s-.25.46-.25.61.19.26.18.43-.26.44-.34.68l0,0c.24-.06.43-.27.67-.32s.11.16.07.33a7.17,7.17,0,0,1-.59.63s0,0,0,0c.17.17.69-.19.93-.31.06,0,0,.07.07.14s0,0,.05,0a3.45,3.45,0,0,1-1.08,1h0c.13.45.67.16,1,.13l.31.07.25,0a5.16,5.16,0,0,1-.24,1c0,.39,0,.79,0,1.18.21-.05.49.14.73.09s.57-.5.83-.67h.06a.09.09,0,0,0,0,.05c-.09.48-1,.94-1.29,1.49a4.45,4.45,0,0,0,1.74-1.28c.44.27.91,0,1.34,0a1.63,1.63,0,0,1,.07,1.5.2.2,0,0,1,.11,0c.19-.15.29-.54.42-.8l.06.3c.11.25.31.31.28.68.23-.05.66.39.67.56a.37.37,0,0,1-.07.24c-.33.17-.84.73-.66,1.15a.25.25,0,0,0,.19.21c.39,0,.69-.86,1.06-1l.05,0c-.14.79.26.34.46.79a6.44,6.44,0,0,1-.23.71l.07,0a1.62,1.62,0,0,1,.48-.41c-.19.36-.37.78-.56,1.21a1.14,1.14,0,0,0,1-.54,2.71,2.71,0,0,0,.2-.75l.25-.38c.39.26-.14,2.13-.55,3a.78.78,0,0,0,.85-.66,4.9,4.9,0,0,1,.11-.69c.22.37.63-.46,1,.09a.43.43,0,0,1,.13.27c0,.29-.32.48-.44.65s-.29.47-.45.7-.79.67-1,1.22.44.76.39,1.21l-.06.12c-.21.16-.49.09-.69.34s-.24.91-.49,1.19c-.67.06-.27-1.34-.76-1.2a.24.24,0,0,1-.05.1l-.48-.86a1.4,1.4,0,0,0,0,.54c.07.2.38.72.13,1-.51,0-.41-.53-.66-.71s-.48.18-.55.48.58.5.38,1l0,0a1.07,1.07,0,0,0-.47.09c-.11.19-.12.38-.25.57,0-.3,0-.61,0-.9s-.19-.27-.19-.43.14-.68-.06-.81-.32.12-.45.15a.9.9,0,0,1-.46,0c0,.2,0,.42,0,.64s-.17.31-.22.48a1.48,1.48,0,0,0,0,.67,3.76,3.76,0,0,1-.32-1.29c-.1,0-.15.07-.24.09s-.38-.05-.6.11c-.14.53-.2,1.05.39.63.27.06.17.55-.09.91.31.22-.09.36-.17.69s-.05.51-.07.76-.32.39-.44.6v0h0v0a0,0,0,0,1,0,0c-.09.2,0,.27,0,.41s-.11.35-.17.53h0c0,.12.11.15.18.19a3.7,3.7,0,0,1-1.12,1.63c.17-.4.3-.93.12-1.07s-.44-.06-.65-.15-.08.07-.13.11a1.46,1.46,0,0,0,0,.84.68.68,0,0,1-.09.14c-.41.14-.27-.62-.63-.56s-1,1.15-1.43,1.38c.18-.43.33-.84.2-1.05h0c-.51.47-.21.53-.28.87,0,.15-.16.13-.2.3a1.62,1.62,0,0,1,0,.21,1.13,1.13,0,0,1-.9,1c0-.26,0-.48.11-.77-.17,0-.28.17-.46.15-.23-.38.1-1.15-.41-1.29-.23.6,0,1-.39,1.75-.28-.24-.21-.52-.13-1a.79.79,0,0,0,0-.33l-.1,0a6.87,6.87,0,0,1-.24.88c-.12.09-.22.17-.35.15s0-.09-.09-.13a1.53,1.53,0,0,0,.12-.65,1.18,1.18,0,0,0-.49-.08l-.7.83-.6.88c-.38.35-.85.33-1-.05s-.42-1-.64-1.52c-.07-.19-.11-.5-.27-.6l-.15.12c-.06.63.27,1,0,1.76h0c-.22,0-.27-.41-.37-.56a.08.08,0,0,0,0,0c-.2.28-.18.56-.44.8-.62.07-.19-.72-.45-1s-.76-.12-1,.3-.21.84-.49,1.16h-.06c-.05-.64-.11-1.28-.17-1.92a6.29,6.29,0,0,0-.35.9c-.09.44,0,.92-.39,1.31-.46-.16-.53-.37-1-.09,0,0,0,0,0-.06.11-.28.27-.55.2-.72h0a.91.91,0,0,0-.11.16c-.26-.11-.5.11-.78,0a1.92,1.92,0,0,0,.35-.92c.13-.61.41-1.26.61-1.91.08-.25.22-.49.27-.66-.24,0-.47.23-.75.19,0,.11,0,.24.05.37-.13.66-.27,1.32-.41,2s-.56,1-.85,1c0-.14.15-.55.19-.76a11.22,11.22,0,0,0,.16-1.53c0-.19.12-.51,0-.63s-.47.07-.6.15,0,0,0,0a1.68,1.68,0,0,1,.28-1.24c.22-.19.57,0,.82,0a3.21,3.21,0,0,0,1.48-1.15h0a1.91,1.91,0,0,0-.7.18c-.17.14-.34.26-.51.39A2.53,2.53,0,0,1,250,458a2.52,2.52,0,0,1-.37.87.65.65,0,0,1-.77,0c-.07-.05-.1-.21-.24-.2l-.51.24s0,0,0,0a3,3,0,0,0,.54.6c.28.18.57.34.85.51l.15.4,0,0a1.18,1.18,0,0,0-.76.13.36.36,0,0,1,0,.11.79.79,0,0,0,.21.55,1.51,1.51,0,0,0,.28.15,3.82,3.82,0,0,1,.31,1.29c0,.16.12.54,0,.74a.17.17,0,0,1-.13.1c-.24.05-.54-.45-.62-.58-.31-.57-1.46-.65-.93-1.83-.19,0-.46-.11-.63,0s-.32.85-.7.82l.06-.17c-.07-.19-.13-.38-.21-.57a.47.47,0,0,0-.33,0,1.46,1.46,0,0,1-.14.64.85.85,0,0,1-.58.3c-.18-.47.17-1.33,0-1.85h0l0,0a.79.79,0,0,0,0,.09,7.51,7.51,0,0,1-.31,1.39l-.13,0c-.08-.28-.77-1-1.13-.26.18.41-.2.92-.57,1.12a.18.18,0,0,1-.07-.08,1.48,1.48,0,0,0-.06-1.28c-.24.63-.19,1-.74,1.18-.09,0-.27.09-.31,0s.08-.72.08-1a13.15,13.15,0,0,1,.26-3.08l-.19-.06a1.07,1.07,0,0,0,.08-.89c0-.07-.12-.07-.13-.16,0-.4.22-1,.07-1.32a12.59,12.59,0,0,0,1.06-2,2.33,2.33,0,0,0-.12-.69,3.19,3.19,0,0,1-.4.33,1.69,1.69,0,0,0-.19.56c-.12.27-.23.55-.35.84a7.07,7.07,0,0,0-.21.82,5.5,5.5,0,0,0-.23,1.29c.05.38.11.76.16,1.15,0,.2-.07.4-.11.61a14.78,14.78,0,0,0,0,1.89,4.89,4.89,0,0,1-.12,1.22c-.06.26-.3.46-.44.31s.06-.42,0-.47-.27.24-.35.28c-.43.19-.57-.35-.52-.69s.27-.41.42-.66c0,0,.37-1.1.36-1.14a5.73,5.73,0,0,1-1.06,1.08s0,0,0,0c.07-.66.84-1.66.85-2.26,0-.38-.47-.44-.69,0,0,.16,0,.24,0,.42a11.68,11.68,0,0,1-1,1.12,5,5,0,0,1-.55,0c-.26.12-.41.53-.69.62.1-.3.2-.62.3-.93a10.9,10.9,0,0,1,2.14-3.72l.7-.75c-.39.07-.84,0-1.16.43-.1.17-.2.34-.3.49a3.7,3.7,0,0,1-.41.37c-.09.2-.18.41-.28.6-.53.95-1.07,2.71-1.68,3.13l-.09-.74c.06-.22.11-.45.17-.68,0-.42.11-.85.15-1.27a2.79,2.79,0,0,1,.18-1,5,5,0,0,1,.72-.8c.43-.55.85-1.24,1.26-1.88-.19-.07-.33.11-.5.21-.24-.16-.13-.64-.18-.93l0,0a2.92,2.92,0,0,0-.67,1h0c.34-.08.26.41.27.66l-.22.34c-.26.42-.3.73-.63.8-.1-.07-.08-.18-.16-.27a4.78,4.78,0,0,0-.36,1.61c-.06.21-.13.41-.19.62s.34,1.12-.21,1.66c-.07,0-.12,0-.16,0-.09-.3-.2-.61-.3-.91s-.59-.63-.3-1.39c.19-.52.92-.91,1-1.22s-.12-.09-.2,0c-.16.24-1,1-1.09.93a.83.83,0,0,1-.07-.13.11.11,0,0,1,0-.06l1-1a8.11,8.11,0,0,0,.78-.85c.18-.34.37-.67.55-1a6.09,6.09,0,0,1,1-1.15c-.07,0-.08,0,0-.14-.35,0-1.11,1-1.46.75s0-.65-.25-.78a.8.8,0,0,0-.41.8h0a.19.19,0,0,1,.27-.07s0,0,0,0c-.09.4-.27.58-.19.89a10.74,10.74,0,0,1-.7.91l-.36.36-.31.81c-.11.18-.37.53-.52.72.29-.93-.11-1.55.15-2.39a5.86,5.86,0,0,1,.66-1,12.17,12.17,0,0,0,.46-1.29c.1-.21.31-.41.35-.65s-.18-.81-.55-.54c-.22.49-.06.68-.27,1.18-.1-.23-.2-.47-.31-.71s-.06-.22-.1-.34l-.16-.05a7,7,0,0,1-.19-.69c.1-.39.67-1,.49-1.3l0,0h0l-.21.18c-.19.08-.26-.07-.43.15-.17.47,0,.49-.24,1h0c-.08-.15,0-.42-.06-.56s-.37-.13-.46-.21a2.09,2.09,0,0,1,.05-.42l-.06,0a.64.64,0,0,1-.21.22c-.18,0-.21-.18-.33-.26a1.65,1.65,0,0,0,.08-.46c-.1-.13-.3.07-.46.05s0-.28-.05-.37-.23-.25-.31-.43,0-.43-.12-.61c-.07.23-.26.3-.34.6s0,.59-.29,1.08h-.12a2.09,2.09,0,0,0,0-.25h-.1a.81.81,0,0,0-.11.77c-.09.15-.19.17-.3.29a4,4,0,0,1-1.08,1c-.53.29-1.25.39-1.71.91l-.21.33a.19.19,0,0,1,0,.13,2.72,2.72,0,0,1-1.4,1c-.16,0-.19-.19-.37-.14s-.41.37-.64.33c0-.31-.25-.9.13-1.38.22-.21.46-.4.69-.6s.34-.88.57-1.12A8.69,8.69,0,0,1,229,449.5a3.88,3.88,0,0,0,1.05-.54,7.17,7.17,0,0,0,1-1.27.57.57,0,0,0-.22-.58l-.09.09a1.65,1.65,0,0,0-.16.36,1,1,0,0,1-.66.68l-.05,0a.41.41,0,0,0,0-.1c.08-.28.31-.44.4-.73l0,0c-.28-.33-.73.79-1.08.51.15-.42.46-.63.37-1-.55-.13-1.51,1.62-1.95,1.28l.06-.09,0,0c.21-.23,1.22-.81.92-1.27-.25,0-.58.26-.79.52-.07.08-.12.19-.19.23-.4.19-.36-.31-.55-.29s-.13,1.49-.6,1.78c0-.17-.08-.36-.11-.54s0-.32,0-.48c0-.42.13-.82.18-1.3h0a2.73,2.73,0,0,0-.42.72c-.08.33.13.91-.4,1.16l-.4,0h0a12.05,12.05,0,0,0,.59-1.89l-.15-.27a5.2,5.2,0,0,1-.58,1.62c-.12.14-.25.27-.38.41s-.31.39-.54.33a1.15,1.15,0,0,0-.43-1.09.93.93,0,0,0,0,1.07.38.38,0,0,1-.06.13h0c-.12,0-.18-.19-.29-.09l0,.08c.25.23,0,.61,0,1a1.26,1.26,0,0,1,.78,1.29c-.1.72-1,1.5-1.41,1.83-.15.14-.33.39-.5.42s-.27-.16-.36-.23-.33.17-.44,0c0-.32.3-.85.37-1.23a4.46,4.46,0,0,0,0-1c0-.26.1-.57-.11-.68,0,0-.11,0-.14.15s0,.28,0,.43a2,2,0,0,1-.85,1.23c-.24-.34,0-1.33-.12-1.8a.37.37,0,0,0-.5-.29c-.41.19-.66.95-1.12,1.07,0,0,0,0,0,0,.19-.5.5-.63.75-.95l.4-.61c.11-.14.35-.51.3-.64l-.26-.18c-.41-.25-.81-.2-1.14.36-.4-.11-.32-.48-.67-.63,0,.06,0,0-.08.06s-.08.2-.13.3l-.48.38c-.1.09-.26.37-.37.41-.16-.26-.08-.63-.12-1,0-.15-.13-.25-.2-.37s-.05-.49-.24-.31l-.52.31-.6.13-.27.11c-.26.07-.34-.24-.25-.47s.18-.21.27-.33l0-.08c-.15,0-.29.11-.43.14-.38.11-1.28.33-1.44-.08a10.63,10.63,0,0,1-.71,1.51l0,0c.13-.6.1-1.18.18-1.75l-.2,0c0-.17.13-.52.07-.67-.16-.32-1.08.4-1.31.53a1.73,1.73,0,0,0-1.53-.13c-.25.11-.55.42-.79.46l-.43-.06a3.57,3.57,0,0,1-1.68-.15,3.67,3.67,0,0,0-1-.53l-.33.58c-.15.13-.36,0-.52.08s-.55.53-.88.57-.5-.18-.75-.11-.7.71-1.06.91c-.13.08-.31.11-.41.29a1.73,1.73,0,0,0-.16.78l-.07,0a.56.56,0,0,0-.94.1c-.07.41.18,1.12,0,1.44a1.62,1.62,0,0,1-.64-.07s0,.08,0,.13a1.05,1.05,0,0,1,0,.92c-.17.28-.4.24-.51.66,0,.11.21.29.14.49-.57.26-.38-.6-.86-.63a.89.89,0,0,0-.13,1.24,0,0,0,0,0,0,0l-.11,0-.18.15c-.21.09-.39,0-.58.13a.35.35,0,0,0,0,.11c-.07.54.33.21.46.41a2.58,2.58,0,0,1-2.48,1.61l-.7,0c-.09-.14,0-.45.18-.76a.45.45,0,0,0,.11,0,3.26,3.26,0,0,0,.15-.7c.09-.31.19-.63.29-.94,0,0-.05,0-.07,0a4.82,4.82,0,0,1-1.51,1.25c-.37.2-.57-.07-.51-.46H194c-.14.29,0,.38-.13.65s-.74.64-.88.27,0-.46,0-.69a1.07,1.07,0,0,1,.08-.72c.18-.19.35-.4.53-.58.49-.53.94-1.07,1.42-1.57a3.25,3.25,0,0,0,.79-.88h0a1.17,1.17,0,0,0-.62.27c-.28.29-.61,1-.95.91a.17.17,0,0,1,0-.17c0-.68,1.25-1.77,1.54-2,.14-.12.4-.2.48-.41-.77-.08-.14-.43-.24-1a1.22,1.22,0,0,0-1,.26c-.06.17,0,.24,0,.36s-.1.42-.16.63a6.2,6.2,0,0,1-.85,1.26c-.14.23-.31.75-.35.79l-.22.1a189.74,189.74,0,0,1,23.77-47.62c2.19-3.19,4.48-6.29,6.83-9.3a2.32,2.32,0,0,1-.2.83h.08c.15-.08.28-.17.41-.25h0c.28,0,.27.52.4.68s.21.15.27.26c-.13.44-.65.59-.9.89v.15l0,.07c.32-.13.78.06,1-.1s.36-.64.58-.75a.1.1,0,0,0,.12,0c.24-.49.55-.44.89-.47l0,0c.09-.31-.07-.46,0-.72s.32-.53.44-.78a2.47,2.47,0,0,0,.11-.61,1.14,1.14,0,0,1,.61-.59c.2-.07.3.13.31.28,0,.33-.15.79-.17,1.15a3,3,0,0,1,0,1.13h0a5.22,5.22,0,0,0,.29-.94,2.18,2.18,0,0,1,.17-.74l.32-.4c.27-.45.46-1,.77-1.18s.31.14.5.07c.46-.17.91-.59,1.43-.58a.54.54,0,0,1,.44.84c-.17.14-.38.11-.55.25-.33.26-.22.69-.24,1a3,3,0,0,1-.87.84,5.74,5.74,0,0,0-.93,1.24l0,0c.16-.14.45-.5.63-.47a.71.71,0,0,1-.07.6c.36-.23.58-.81.9-1.27a7.06,7.06,0,0,1,.55-.64,2,2,0,0,1,.29-.33h0a2.47,2.47,0,0,0,.19.89c0,.09.11.18.16.28l0,.08c-.2.25-.85.82-.78,1.19.32-.57.94-.77,1.17-1.49-.11-.51-.6-.4-.18-1.35a5,5,0,0,0,1-.06c.22,0,.46.31.61.43,0-.22,0-.39,0-.59.1-.57.21-1.15.31-1.73s.81-.91,1-.79c.43.2.49.7.41,1.29,0,.11,0,.22-.07.33-.17.32-.47.35-.66.67-.38.62-.11,1.11-.41,1.61s-.47.49-.68.76h0c.32,0,1-.5,1.18-.17,0,.16-.09.35,0,.41s.22-.4.31-.45c.32-.1.45.36.67.47v0l.65-1h0c-.12,0-.2.09-.32.05-.31-.46.63-1.37.9-1.71a5.08,5.08,0,0,1,.45-.61c.2-.18,1.66-.37,1.68,0a3.76,3.76,0,0,1-.31,1.1,1.35,1.35,0,0,0-.18.29,3.66,3.66,0,0,1,.71,1.42l-.38.56a12.46,12.46,0,0,1-.83,1.34,3.67,3.67,0,0,1-.92.52l-.05,0c-.1-.35.61-1.25.75-1.49s0-.48-.16-.58a1.29,1.29,0,0,1,0,.33,1.15,1.15,0,0,1-.22.38c-.07.13-.12.26-.19.38-.36.61-.8,1.75-.34,1.91a.51.51,0,0,1,.32,0,10.79,10.79,0,0,1-.79,1.08,1.68,1.68,0,0,0,.82-.62s0,0,0,0a3.54,3.54,0,0,0-.06,1.15l.2.17a1.33,1.33,0,0,1,.28,1.08c-.32.11-.58.83-.73,1.29h0l0,0c.13-.1.4-.49.57-.35s-.46,1.62.52,1.24a.83.83,0,0,0,.3-.23c-.47-.26-.42-.6-.4-1.21,0-.19,0-.37,0-.56s.19-.37.17-.66a16.32,16.32,0,0,1,1.22-1.26c0,.05,0,.09,0,.14,0,.53.37,1,.33,1.46,0,.29-.45.69-.37,1h0a.86.86,0,0,1,1-.62.5.5,0,0,1,.05-.13,2.34,2.34,0,0,1-.39-.64c0-.17,0-.33-.07-.5a.66.66,0,0,1,0-.63c.18-.3.49-.33.71-.52s.47-.57.71-.54.39.73.38.9-.11.34-.06.45c.21.24.83-.09,1-.19v-.07c-.08-.22-.17-.43-.25-.65a4.83,4.83,0,0,0-.44-.64,7.12,7.12,0,0,1,1.07-1.5c.78-.06.68-.29,1.25-1.2a4.34,4.34,0,0,0,.5-.74s0,0,.09,0a.56.56,0,0,1,.08-.2.6.6,0,0,0,.08-.08c.14.06.18.17.34.18.29-.43.33-.55.67-.32l.15-.15c0-.28-.23-.52-.09-.87a1.84,1.84,0,0,0,.92.31,1.33,1.33,0,0,1,.55.25l.13-.07s0,0,0,0a6.56,6.56,0,0,1-.73-.83l0,0c.83-.73,1.05-.43,1.86-.15l0,0c0-.1.09-.19.14-.3a1.13,1.13,0,0,1,.25.29c.23-.78.48-.25.73-.1a1,1,0,0,1,.18-.31c.13,0,.25,0,.37-.12l.06.14c.35-.07.9-.64,1.11-.18a.72.72,0,0,1,.08.4,1,1,0,0,1-.31.54,4.58,4.58,0,0,1-1.76.7v0c.44.37,1.17-.24,1.41.05.08.08.06.21.06.36a2.57,2.57,0,0,1-.84,1.77,3.08,3.08,0,0,1-1.21.89h-.57c-.14,0-.15.13-.26.24l-.52.05-.43.31a5.18,5.18,0,0,0-1,.63c-.08.26.06.31,0,.58a10.15,10.15,0,0,0-1.3,1.38c-.43.73-.31,1.29-.57,2a24.13,24.13,0,0,0-2.22,1.69,5.12,5.12,0,0,1-.65,1,1.6,1.6,0,0,0-.37.4,1.37,1.37,0,0,0,1.11-.6c.06-.19.13-.37.18-.55.19-.34,1-1.12,1.22-.91s0,.78.12,1h0a2,2,0,0,1,.21-.91c.19-.24.46-.29.63-.57-.28-.45.18-.78.4-1.42s-.06-.8.52-1.37a1.11,1.11,0,0,1,.4-.3,1,1,0,0,1,.59,0,4.66,4.66,0,0,1,.54,1.75,5.44,5.44,0,0,1-.23,1,.18.18,0,0,1,.06.19l-.8,2.13c.28-.16.5-.48.79-.56,1-.22.57,2.12,1.18,2.16l0,0,.06-.12a2.06,2.06,0,0,1,0-1.28c.11-.1.23,0,.36-.09a6.07,6.07,0,0,0,.49-2.19c.1-.28.18-.55.27-.82s-.06-.22.05-.49c.11-.1.4-.22.49,0a7.45,7.45,0,0,1-.2,1.25c0,.42.51.6.45,1.13a1.64,1.64,0,0,1-.23.5,1.22,1.22,0,0,0-.19.91c0,.1.06.19.18.15.19-.35.14-.87.46-1.06l0,0a11.16,11.16,0,0,0,.57-1.15c.08-.45-.2-.67-.23-1a5.77,5.77,0,0,0-.26-1.07,7.73,7.73,0,0,1-.28-1.92h0l.43,0a6.09,6.09,0,0,0,.76-1.81,5.7,5.7,0,0,1,.64-1,6.63,6.63,0,0,0,.58-1.51,5.7,5.7,0,0,0,.1-1.28c0-.21-.15-.29-.09-.58l.81.34-.25.23c0,.36,0,1,.26,1.1.14-.09.35-.24.48-.15a.16.16,0,0,1,0,.12,2.47,2.47,0,0,1-.35.61h0l0,0a.28.28,0,0,0,.22-.19c.13.49-.51,2.2.33,2l.75-.34h0a1.31,1.31,0,0,0-.23,1c.23.06.4-.12.62-.18.22.27-.2.8-.14,1.17a.46.46,0,0,1,.58-.16c.05.29-.16.76,0,.94a.79.79,0,0,1,.75.13c0,.13-.07.22,0,.29l.21.06a1.08,1.08,0,0,0-.1.79.49.49,0,0,0,.24,0c.33,0,0,.37,0,.6,0,.06.07.09.06.16a1.14,1.14,0,0,1-.15.23c.27.15.27,1.13.22,1.54,0,.22.11.31.09.52s-.1.49-.16.73c-.05.41,0,.76,0,1.15s-.21.65-.31,1,.51.33.34.86a1,1,0,0,1-.9.65.76.76,0,0,1,0,.15c.29.27.74,0,1.05.21a1.05,1.05,0,0,1-.27.82c-.62.06-.33.15-.73.67.29-.06.68-.51.95-.35a2.75,2.75,0,0,1-.5,1.3C256.68,412.35,256.39,412.4,256.15,412.64Zm-23.87,36.67c.53-.14.84.65.85,1l-.12.13C232.06,450.63,232.41,449.91,232.28,449.31Zm-7.21,1.91a1.23,1.23,0,0,1-.17-.58l0-.08c.35,0,1,0,1.06.4C225.56,451.4,225.32,451.74,225.07,451.22Zm-1-1.78h.05c.28-.37,1-.7.72.06A.44.44,0,0,1,224.1,449.44Zm12.09-56c0,.19.09.37.12.58a2.77,2.77,0,0,1,0,.64,1.74,1.74,0,0,1-1.12,1.18c-.38-.19-.27-.82-.23-1.34C235.3,393.74,235.77,393.81,236.19,393.46Zm13.24,7.08c-.06.43.21.58.17,1a.52.52,0,0,1-.3.33s0,.07,0,.1c0,.28.06.53.1.79s-.13.42-.19.63a3.06,3.06,0,0,0,.05.32,2.87,2.87,0,0,1-.07.85,3.39,3.39,0,0,1-.42,1c-.09,0-.38-.61-.46-.74s-.58-.5-.6-.84.14-.81.22-1.22-.15-1.11-.22-1.67l.05-.1C248.08,400.9,249.2,400.24,249.43,400.54Zm29.64,12.4a7,7,0,0,1-1.71,1.53l-1.18.44c-.95.66-1.77,3.24-2.91,3.33-.2-.95.2-1.63-.2-2.66a2.14,2.14,0,0,1-1.84.93c-.27.59-.67,1.86-1.2,2.21h-.32a.48.48,0,0,0-.09-.11c-.36-.71,1.24-2.84,1.2-3.8a4,4,0,0,1-.26-.35c-.15-.05-.29-.12-.43-.18a7.23,7.23,0,0,0-1.42,1.12c-.87.91-.47,2.68-1.87,2.61a.56.56,0,0,1-.43-.25,9.42,9.42,0,0,1,.76-1.73l-.19,0-.91,0c-.71-1.21,1.28-.74,1.28-1.93l0,0a1.89,1.89,0,0,0-1.16.08.27.27,0,0,0,0-.12c0-.16-.08-.31-.11-.46.87-.72,2-1.92,3.09-1.46.53.23.47,1,.81,1.05h1.27c-.05-.29-.1-.6-.14-.91,0-.48.35-.86.24-1.32-.5-.32-1.13-.57-1.31-1,0-.14,0-.28,0-.42l0,0a3.24,3.24,0,0,0,1.95-.2c0-.12.07-.24.1-.37l0,0-.72-.23c0-.6.11-1.25.64-1.41a1.57,1.57,0,0,0,1.49-.64,2,2,0,0,0-1-.32c.82-.94,1.81-1.82,1.8-2.95l-.93-.64a2.25,2.25,0,0,1,.87-.87c1.05.19,1.36-.58,2.27-1.14l.36,0a1.51,1.51,0,0,0,.73.61l.63-.29c.42-.3.69-1.1,1.13-1.15.75,0,1.64.94,1.91,1.47l-.5,1.26c.14.13.29.23.43.35a1.23,1.23,0,0,1-.39,2,10.41,10.41,0,0,1-.14,3.09c-.33.65-.67,1.29-1,1.95C279.37,410.9,280.41,411.56,279.07,412.94Zm153.12,36.62a2.07,2.07,0,0,0-.24.17l-.33-.23c.09-.33-.19-.67-.28-1a.66.66,0,0,1,.61-.24C431.9,448.79,432.46,449,432.19,449.56Zm82-49a3.18,3.18,0,0,1-1.44,0,.3.3,0,0,0,0,.13,2.35,2.35,0,0,0,0,.26,3.27,3.27,0,0,0,2,.58c.55.57.46,1.36.91,1.89s1.23.76,1.68,1.32c2.23,2.84,4.47,5.69,6.71,8.52.81,1,3,3.15,2.91,4.25-.23.45-.48.9-.7,1.34-.3.8.06,1.34-.45,2.17-1.06,0-1.59,1.16-2.62,1.17-.3,0-.45-.29-.83-.4s-1,.32-1.67-.44l-.7-.81-2.36-.25a3.73,3.73,0,0,1-1.46-1.78c0-.19.1-.37.15-.56-.09-.48-1.61-3.23-2.41-3.52-.35,0-.7.07-1.06.09-.12-.22-.26-.42-.37-.65a4.64,4.64,0,0,1-2.77-.86c-.57-.87-.42-1.49-1.68-2.36.17-.26.35-.53.51-.8,0-.23,0-.46,0-.68s.47-.27.51-.59-.08-.35-.13-.53c.11-.69.74-.69.92-1.18l-.5-.23c0-.39,0-.78.05-1.17.21-.18.33-.13.37-.3s0-.21,0-.33a1.28,1.28,0,0,1-.57-.06l-.09-.89,0,0c.21,0,.25,0,.42-.16-.05-.24-.12-.48-.16-.71-.32-.07-.51,0-.77-.16l-.06-.08a.93.93,0,0,0,.19-.59c0-.06-.1-.13-.14-.2a2.48,2.48,0,0,1-1.12-.44,2.61,2.61,0,0,1,.27-.31c.28.05.43.08.65-.1-.26-.37-.14-.61-.18-1-.06-.7-.84-1.26-1.46-1.61-.05-.61-.15-.62.43-.8.56.1.86-.3,1.35-.28.93,0,2.72,1.29,3.75,1.58l1.26.17C514,399.41,514.2,400.25,514.23,400.57Zm-44.79-33.26c.34.22.26.73.45,1l1.44,1.16c.35.71.7,1.44,1.06,2.15l.18,1.24c.17.09.35.19.52.3.39.9.79,1.83,1.19,2.73.24.27.48.53.73.78,1.1,1.71,1.31,4,1.9,5.88.26.92.52,1.83.8,2.74.14,2.1-.19,4.33,0,6.43.53,2.16,1.07,4.34,1.62,6.5a.59.59,0,0,1,.54.43c-.11.5-.05.89-.49,1.32.88.63.51,1.17.43,1.94,1.27,1,.79,1.77,1.42,2.57.29.37.66.27.87.83.09.24-.12.48-.06.72a5.79,5.79,0,0,0,2.23,2.41c.69.17,1.42-.23,2.07-.28a5.42,5.42,0,0,1,.91,1.41c.22,0,.35-.16.59-.15a5.25,5.25,0,0,0,3.53,1.82c1,0,1.56-.67,2.64-.48l.62,1.18a8.74,8.74,0,0,1,2.54,1.26c.23.24.27.55.46.7.88-.1,1.77.79,2.81,1.33.16-.08.31-.18.47-.28l.21.1a4,4,0,0,1,.43,1.12,1.18,1.18,0,0,1,.5.17,14.61,14.61,0,0,1,1,3.53c0,1.65-.79,3.26-.87,5-.09,1.4.64,2.64.77,4,0,1,.05,2.09.09,3.14l1.19.82a1.29,1.29,0,0,1,1.28-.11,4.4,4.4,0,0,0,2.39,1.26,1.31,1.31,0,0,0,.19-.53,10.6,10.6,0,0,1,2.2,1.68l.41.61.08.12c.24.06.27-.29.67-.1,1.11,1.73-.1,3.32-.3,5.3a6.27,6.27,0,0,0,.4,2.36l.21,0a1.14,1.14,0,0,0,.82-.25,6.34,6.34,0,0,1,2.56,2.52c.07.27-.19.52,0,.79s.72.15.94.48c.46.68.15,2.1.52,3a32.73,32.73,0,0,1,2.57,10.58c.09.76.17,1.54.27,2.32s-1.28,2.14-1.22,2.63c.1.17.29.33.33.49-.32.29-.61.58-.93.85a2.12,2.12,0,0,1,.22,1c-.5.38-1.6.59-1.89,1.45,0,.28,0,.55-.07.83-.47.68-1.14.78-1.34,1.94,0,.31.11.61.15.93-.13.81-1.15,1.29-1.4,2.11-.19.58.1,1.09.13,1.63a2.37,2.37,0,0,1-1.19.62,2.69,2.69,0,0,0-.71-.17,5.71,5.71,0,0,0-.37.63,3.81,3.81,0,0,0-.57-.06.49.49,0,0,0-.12.34c0,.1.11.2.17.3l-.11.08a1.55,1.55,0,0,0-.31.07c-.22-.3-.43-.6-.66-.89-.47,0-2.23,0-2.31-.23s.14-.43.23-.66c-1.45-1.58-3.22-1.32-4.67-1.45-1.64-.16-3.23-.9-4.83-1-1.24.16-2.49.3-3.73.45-.75-.21-1.49-.44-2.23-.64-.19-.12-.19-.42-.52-.53s-1.09,0-1.6-.32-.53-.77-1.09-1l-1.25-.27-2.82-1.17c-.31-1.66-3-1-4.18-1.12l-5.12-.72a9.21,9.21,0,0,1-2.77,0,19.66,19.66,0,0,1-3.86-2.55c-.07-1.61-2.32-2.7-3.25-4.16-.06-.29-.12-.6-.19-.91s-.33-.52-.5-.78c.05-.22.11-.44.17-.65,0-.67-.82-1.66-1.39-2.22l-1.85-1.06c-.94-.27-3.58.41-3.23-1.45-1.06-1-1.83-.55-2.84-.74-.42-.19-.83-.36-1.24-.53h-1.65c-.82-.06-1.18-.72-1.69-.82a11.89,11.89,0,0,0-2-.22l-3.18.72a4.94,4.94,0,0,0-2.06.34,3.84,3.84,0,0,0-.14-.36c-.38,0-.32.25-.7.45h-1.59l0-.09c0-.18,0-.37,0-.55-.49,0-.51.31-.87.39a4.66,4.66,0,0,1-1.13-.12,2.54,2.54,0,0,0-.95-2.3c.19-.2.36-.41.53-.62l0,0-1.33.34c.15-.45-.15-.8-.66-1.12l-.39.4a1.25,1.25,0,0,1-.08-.12,3.83,3.83,0,0,0-.92-1.94c-.22-.08-.43-.16-.66-.23-.21-.25-.42-.47-.62-.71a13.59,13.59,0,0,0-1.83-.38c0-.18,0-.34,0-.51l-.13,0H432c-.89,1.35-.88.73-1.87.64a1.61,1.61,0,0,0-1,.83.71.71,0,0,1,.42.18,4.42,4.42,0,0,1-1.35,2,2.41,2.41,0,0,1-3.3,2.34l-.42-.61-.22,0c-.09.12-.21.25-.32.38l-.62-.05a7.22,7.22,0,0,0-2.53,1.11c-.09.32.07.49,0,.73l-2.25,4c-.16.52.25.81.27,1.29-.32.53-.61,1.08-.92,1.62-.29,1.58-.56,3.17-.85,4.75a11.24,11.24,0,0,0-2.12,1c0,.11.06.23.1.34-.13.48-.81.83-1.07,1.08a7.5,7.5,0,0,0-1.5,2.49l-.77,2.22c-.09.81-.19,1.63-.29,2.45-.18.53-2.14,1.33-2.58,1.57a26.25,26.25,0,0,1-4.05,1.33l-1.72.91a8,8,0,0,0-2.61,1c-.26-.23-.31-.3-.59-.34a2.55,2.55,0,0,1-2.25.7l.05-.07c0-.22,0-.43-.06-.64l-.17-.07a.57.57,0,0,1-.41.27l-.55-.38c-.55-.18-1,.23-1.5.17l-.64-.27a4.57,4.57,0,0,1-2.05.9.93.93,0,0,0-.55-.38,1.12,1.12,0,0,1-.67.57c-.16-.13-.19-.19-.37-.19s-.47.34-.68.42c-.57-.25-.53-.69-.65-1.12-.55.07-.68.75-.86,1.17l-1,.44-.31-.1c-.8.31-.06.48-1.17.41-.41-.47-1.19-.68-1.4-1.24l.16-.39a1,1,0,0,0-.5-.23c-.59.33-1.73-.46-2.9.3l-.06-.09a4,4,0,0,0-1-3.06l-1.09-1c-1.09-1.36-2.7-3.66-4.73-3-.42-1.12-2.36-2.36-3.26-1.26,0,.16.08.32.11.47a4.61,4.61,0,0,1-2-1.94l-.33-1.43c-.61-1-1.2-1.93-1.79-2.9-.25-.7,0-1.72-.42-2.37l-.75-.57a6.43,6.43,0,0,1-1.32-2c-.23-.64.21-1.45,0-2.09-.25-.81-1.53-1.88-1.41-2.74s.65-1.42.79-2.1a13.15,13.15,0,0,0-.5-5.34c-.74-1.91-2.27-1-3.16-2.22-.34-.52-.32-1.24-.6-1.75s-.8-.51-1-.88a8,8,0,0,1-.42-2.44c0-1.36.79-2.64.35-3.93-.3-.89-2.1-3-2.13-3.62,0-.23.08-.49.12-.73.89-.16,1.75,0,2.55-.66s1.51-3,1.55-3.06c.65.15,1.51-.59,1.81-1.51s-.23-1.11-.25-1.81a10.73,10.73,0,0,1,.47-1.77.86.86,0,0,0,.57-.37,7.64,7.64,0,0,1-.18-2.44c.19-.91,1.08-1.75,1.48-2.72.07-.35.13-.71.2-1.08s.61-.31.75-.85c0-.31.07-.62.09-.94.5-1.37,1.93-1.51,2.41-2.69a5.12,5.12,0,0,0,.25-2.12c.4-.3.83-.32,1.2-.72.05-.4-.11-.68.1-1.09.47-.35,1-.31,1.12-.43,1-.79.6-2.51.78-3.21.09-.18.19-.37.28-.57l1-.57a2.09,2.09,0,0,0,.89.3l.17-.17.09-1.58c1.25.84.32,3.2,2.82,2l.87.33c.5.32.71,2.78.85,3.39a2.55,2.55,0,0,0,2-.34c.14-.35.07-.47.35-.82l.69.27,2.54-1.61,1.05-1.76,1-1,.78-.17c.32-.18.4-.54.77-.79.64-.46,2.14.42,3,0s2-2.13,2.85-2.7,2.29-.58,3-1.41c.28-.31.19-.8.22-1.11.27-2.53-1.71-1.25-2.51-3-.59-1.29.23-4.39,1.93-5.44.67-.4,1,.16,1.55-.08a17.61,17.61,0,0,0,1.72-1.62l.59-.87c.38-.28.9.2,1.3,0l1.28-1.86c.78-.75,1.57-1.49,2.36-2.23l.45,0c.29-.34.58-.66.85-1s1-.44,1.22-1L407.5,379a6,6,0,0,1,1.81-4c.49.16.66,0,1.08-.07.38-.81,1-.81.95-1.78,1.24-.63.85-1.27,1.25-2.05l4.25,1c.14,1.2,1.64,2,2.24,3.15-.07.19-.18.37-.38.39a10.76,10.76,0,0,1-5.38-.24,1.29,1.29,0,0,0,.13.91c1.54.7,2.89.22,4.27.36l3.2.77c1.73.07,3.61.51,5.4.53l1.52-.28.09.68a7.12,7.12,0,0,0,1.73.53c.45,0,.81-.39,1.24-.53a6.75,6.75,0,0,1,3.52.22c1.44.55,3.33,2.45,4.61,2.41.81,0,2.11-1.26,3-1.1,1.86.36,4.8,2,6.42,1.56a.3.3,0,0,1,0-.1c-.13-.14-.5-.34-.56-.55a4,4,0,0,1,1.55-.09A1.93,1.93,0,0,1,450,380l2.8-.39c.23-.12.34-.48.58-.53.53-.13,1.31.29,1.47.25.95-.2,2.11-1.36,3.13-.72a7.62,7.62,0,0,1-.19,2.13l.07.05.09-.05c.31-.33.54-.81.84-1.06a11.32,11.32,0,0,0,3.08-.24l.73-1.06.39-2.09c.33-.74,1-.53,1.2-1.26l.06-1.83.05-.07c.27-.34.55-.65.83-1s-.06-1,.37-1.44a2.92,2.92,0,0,0,.93-1,7.16,7.16,0,0,0,.34-3.12l1-.64.14,0,.49.78C468.66,367.1,469.17,367.15,469.44,367.31Z"/><path class="cls-2" d="M840.76,509.22V509a519.68,519.68,0,0,0-14.44-118.33C802.11,288.5,747.75,206.85,656.26,152.45c-64.87-38.58-136.09-55.74-211-57.6-52.32-1.29-104.69-.29-157-.66-9-.07-11.89,3.3-11.84,12.06.3,45.2.15,90.39.18,135.59,0,12.09,1,13,13.66,13.08,44.55.15,89.1-.12,133.64.53,100.63,1.44,173.45,51.15,207.16,142.13,13.54,36.53,19.31,73.79,18.87,111.46v.18c0,.92,0,1.85,0,2.78s0,1.85-.08,2.78h15c0-.9.07-1.79.09-2.69v-.18c0-1,0-1.91,0-2.87a309.48,309.48,0,0,0-31.6-141.27C593,285,523.91,244.32,432.78,241.23c-42.86-1.45-85.81-.29-128.71-.31H291.16V109.11c2.55-.21,5.32-.61,8.09-.61,45.52,0,91-.82,136.53.27,69.93,1.66,137.37,14.78,199.65,48.46,84.22,45.54,139.75,115,168,205.84,15.14,48.63,23,97.38,23,146v.18c0,.9,0,1.79,0,2.69v.18c0,.89,0,1.79,0,2.69h14.29C840.77,512.91,840.77,511.08,840.76,509.22Z"/><path class="cls-2" d="M840.76,509.22H826.47c0,.9,0,1.8,0,2.69v.18c0,.89,0,1.79,0,2.69V515c0,48.58-7.89,97.33-23,146-28.29,90.85-83.82,160.31-168,205.84-62.28,33.68-129.72,46.8-199.65,48.46-45.49,1.09-91,.28-136.53.28-2.77,0-5.54-.41-8.09-.62V783.08h12.91c42.9,0,85.85,1.14,128.71-.3C523.91,779.68,593,739,633.34,656.24A309.51,309.51,0,0,0,664.94,515q0-1.44,0-2.88v-.18c0-.9,0-1.79-.09-2.69h-15c0,.93.06,1.85.08,2.78s0,1.86,0,2.78V515c.44,37.66-5.33,74.93-18.87,111.45-33.71,91-106.53,140.69-207.16,142.13-44.54.65-89.09.38-133.64.53-12.67,0-13.66,1-13.66,13.08,0,45.2.12,90.4-.18,135.59-.05,8.76,2.82,12.13,11.84,12.06,52.34-.37,104.71.63,157-.66,74.87-1.86,146.09-19,211-57.6,91.49-54.4,145.85-136,170.06-238.26A519.66,519.66,0,0,0,840.76,515v-.19C840.77,512.91,840.77,511.08,840.76,509.22Z"/><path class="cls-1" d="M840.76,514.78V515a519.66,519.66,0,0,1-14.44,118.32C802.11,735.5,747.75,817.15,656.26,871.55c-64.87,38.58-136.09,55.74-211,57.6-52.32,1.29-104.69.29-157,.66-9,.07-11.89-3.3-11.84-12.06.3-45.19.15-90.39.18-135.59,0-12.09,1-13,13.66-13.08,44.55-.15,89.1.12,133.64-.53,100.63-1.44,173.45-51.14,207.16-142.13,13.54-36.52,19.31-73.79,18.87-111.45v-.19h-.11c0-.93.06-1.85.08-2.78s0-1.85-.08-2.78h.11V509c.44-37.67-5.33-74.93-18.87-111.46-33.71-91-106.53-140.69-207.16-142.13-44.54-.65-89.09-.38-133.64-.53-12.67,0-13.66-1-13.66-13.08,0-45.2.12-90.39-.18-135.59-.05-8.76,2.82-12.13,11.84-12.06,52.34.37,104.71-.63,157,.66,74.87,1.86,146.09,19,211,57.6,91.49,54.4,145.85,136.05,170.06,238.26A519.68,519.68,0,0,1,840.76,509v.18C840.77,511.08,840.77,512.91,840.76,514.78Z"/></svg>