<svg id="Layer_1" data-name="Layer 1" xmlns="http://www.w3.org/2000/svg" viewBox="0 0 1024 1024"><defs><style>.cls-1{fill:#fff;}</style></defs><path class="cls-1" d="M461.12,344.45c.56.43,1.19.85,1.63,1.2-.62,1-1,1.93-.48,2.7.18.27.46.43.48.72.07.81-.68,1.07-.8,1.81s.66,1,1,1.64c0,.2,0,.41-.06.63-.32.37-.65.75-1,1.12-.25.88-.49,1.75-.75,2.62a3.16,3.16,0,0,0,.16,1.93c.3.47.65.57.62,1.08-.08,1.87-1.34,3.67-1.54,5.6-.05.52.39,1,.31,1.53s-.64.86-.8,1.43c-.25.83-.1,1.8-.38,2.7-.19.59-.93,1.14-1.14,1.8.05.54.08,1.06.13,1.59,0,1.42-1,3.27-2.57,3l-1.26-.87a22,22,0,0,1-3.59-1c-.38-.18-.41-.5-.61-.71l-1.33-.63a6.57,6.57,0,0,0-3,0l-.86.28-4.29-.64c-.82.08-1.56.91-2.4.93l-1.88,0c-1.06-.28-1.88-1.43-2.89-1.55l-2.89-.29c-1,.21-1.73.88-2.77.9-.93-1-2.05-.7-3.08-.68-1.37,0-2.6-.11-4-.18l-1.61.1-.48.6c-.67-.54-1.28-1.51-2-2.19-.22.08-.24.16-.39.16l-4.18-.95a4.74,4.74,0,0,0-1.29-2.37l-.64-.66c-.61-1.27-1.91-2.69-2.16-4.14-1-.21-1.22-.93-2.24-.87a4.05,4.05,0,0,0-.64-1l-.74-.06c-.12-.41-.07-.8-.15-1.22a1.36,1.36,0,0,1-.25-.11,3.46,3.46,0,0,1-.45,0l-.11.15a7.48,7.48,0,0,1,.19,1.17c-.53.59-1,.6-1.57,1.4.15.58,0,1,.33,1.6a5.45,5.45,0,0,1-1.28,2.42c-.55.45-1.26.26-1.83.49a4.36,4.36,0,0,0-2.06,2l1.1,1.12c0,.09-.08.16-.12.26-.54.23-.73,1.21-1.32,1.67l-1.35-.27c0,.26.11.49-.09.6-.4.25-.57.15-.88.66,0,.2.07.42.12.62l-.1.05c-.12,0-.22,0-.34-.06-.16-.17-.12-.22-.16-.4h-.11c-.32.38-.61.74-.93,1.11l-.3,0c.05-.2.09-.41.15-.61l-.18-.06c-.26.11-.52.23-.78.33s-.63-.4-1-.63a9.64,9.64,0,0,0-1.31,1l-.26-.18-.28-.47a1.92,1.92,0,0,0,.62-.34c0-.39.11-.39-.29-.38a.53.53,0,0,1-.6-.07,1.19,1.19,0,0,0,.09-.71h-.22l-.23.34c-.24-.21-.13-.32-.32-.33a.52.52,0,0,0-.52.19c-.05-.15-.08-.31-.12-.47a.78.78,0,0,0-.08-.54l0,0c-.27.57-.54,1.13-.82,1.69-.33-.28-.62-.62-1-.95.25-.47,0-.31-.09-.68a3.22,3.22,0,0,1,.47-1.87c.39.11.76-.28.9-.76l-.11-.07-.27.14s0-.06,0-.09a.79.79,0,0,1,.39-.48,3.18,3.18,0,0,1,.09.33,12.35,12.35,0,0,1,1.4-2l-.06-.21-.16.06c-.13.13-.28.25-.42.37-.15-.1-.13-.16-.2-.35a6.87,6.87,0,0,0,.95-1.78l0,0-.61,1c-.32-.11-.56.08-.85.13-.1-.19-.2-.36-.29-.54.42-.5.85-1,1.27-1.54a3,3,0,0,0,.12-.4c.59-.61,1.25-.71,1.37-1.82l-.33-.16c.37-1.26.22-2.61.74-4s1.95-1.83,2-3.3c.53,0,.89.29,1.35-.11s.38-1,.61-1.06c.59,0,.82.19,1.37-.12.24-1,1-.75,1.62-1.42a8.72,8.72,0,0,0,1.75-2.07c.13-.38.24-.76.35-1.14.35-.75,1.2-.95,1.55-1.85.62-1.61.71-3-1.3-3.7l-1.12-.38c-.92,0-1.91,1.09-2.76,1.39l-.29-.31c-.23.39-1.09.39-1.51.51a10.92,10.92,0,0,0-2.36.79l-.75.64c-.31.1-.61,0-1,.16a.87.87,0,0,1-.25.62,12,12,0,0,1-1.8.12,7,7,0,0,0,.55-1.43c-.55-.44-.61-1-1-1.45a1.55,1.55,0,0,0,.38-.94,4.62,4.62,0,0,0-1.85.42,1.62,1.62,0,0,0-.08-.27,5.24,5.24,0,0,0,.78-3L386,340c-.28.61-.56,1.24-.83,1.84.11.14.07.06.09.18l-.75,1.42c0,.24.11.47.16.71-.36.83-.73,1.66-1.1,2.48-.08.31.08.5,0,.85-.05.19,0,.2-.18.27l-.39.1a.52.52,0,0,0,0,.11,1.93,1.93,0,0,1,.41,1,8.74,8.74,0,0,0-1.12,1.87h.1a3.68,3.68,0,0,1,3.11-.78c.53-.44.49-1.07.73-1.53s.61-.68.92-1a2.6,2.6,0,0,1,.42.83l-.36.75c-.23.23-.54.25-.68.68,0,.31.05.62.07.93l-.54.94c-.35,1.31.62.89-.84,2.34L385,354c-1.1-1.74-1.57-.61-2.6.42a.68.68,0,0,0-.19,0c-.14-.8.41-2,.24-2.69a5.78,5.78,0,0,0-.6-.08c-.8,1.11-1.19,2.29-2.37,2.32l-.07,0c0-.23-.06-.46-.09-.67l-.08-.05-.71.05a1,1,0,0,1,0,.17l.16.33c-1.68,2.33-.11,2.59-.22,4.24,0,.5-.58,1.21.16,1.44a3.61,3.61,0,0,1,.59-.05c.18.34.37.67.57,1-.85,1.37.09,2.24,1.12,3.25l.65.57c.07.16-.23.66-.27.86.37.35.68.75,1.11,1.2a1.7,1.7,0,0,0,0,.9l.3.2c.26-.58,2.19,0,2.83-.35s.83-.86,1.37-.88a2.46,2.46,0,0,1,.3.76c-.68.94-.95.53-1.18,1.55-.09.4-.48.66-.5,1l.34.62c-.09.48-.18.94-.26,1.42s.28.83.14,1.3l-.46-.54c0-.25,0-.52.06-.79h-.11a4.53,4.53,0,0,1-.85.68c0,.09,0,.17.05.26-.84-.46-1.09,1.36-1.86,1.18a1.88,1.88,0,0,1-.32,1.11c-.22-.07-.2-.09-.37.12.12,1-.05.63-.44,1.52l0,0c.77.17,1.22-.27,1.94-.32l0,0a.92.92,0,0,0,0,.16l-.46.12c-.24,0-.41.12-.6.3,0,.11,0,.2,0,.29.34.05.52-.14.85-.11a.55.55,0,0,1,.1.11l-.15.28a1.22,1.22,0,0,0-1.19.45l0,0c.42,0,.68-.17,1.07-.21l-.05.08c-.15.18-.31.34-.46.51-.7-.42-1,.2-1.67.11a2.46,2.46,0,0,1,0-.26l-.18-.07a.86.86,0,0,1-.14.13c.14.23.08.41,0,.68l.35,0a.81.81,0,0,0,.37.59,10.29,10.29,0,0,0,2.72-.05l.09.28c0,.05,0,.1,0,.14l0,0a.77.77,0,0,0-.47-.21c-.22.21-.29.26-.29.51l0,0,.68.14a2.41,2.41,0,0,1-.16.78l0,0c.39-.4,2.76-1.67,3.14-1.46,0,.06,0,.12-.05.18l.85.25c0,.13,0,.24,0,.36l-.14.06a1.45,1.45,0,0,0-1.21.22c-.1.34-.19.67-.29,1a2.08,2.08,0,0,1,.86.11c.06-.15.13-.29.18-.43.25.19.21.13.48.11-.22.31-.2.41-.07.66l-.32.22-.15-.26,0,.07-.6.47.19.13a5.12,5.12,0,0,1,2.11.62c-.37.19-.66.28-.73.72l.21.42-.08,0c-.36-.16-1.21-.29-1.27.06,0,.17,0,.35,0,.51a5.36,5.36,0,0,1-.54.14c-.28-.17-.49-.56-.8-.67l-1.28.12c-.14-.29-.28-.56-.41-.85.32-.43.26-.85.45-1.05.58-.64,1.91-.62,1.53-1.75l0,0c-.46.56-1,.56-1.42.94a6.55,6.55,0,0,0-1.26,2.15l-1.41,0,0,0c.12-.29.3-.49.21-.79l-.07-.05-.25.05a1.93,1.93,0,0,1-2.14.95l-.61-.25c-.54,0-1.14.63-1.7.47l.17-.15a1,1,0,0,0-.75-.19l-.35-.68c0-.06-1.21-.67-1.44-.88.1-.27.06-.31-.26-.51-.28.17-.59.33-.88.49l-1,.08c-1.08.42-2,1-3.1,1.4-.41.15-.94.13-1.34.27-.1,0-1,.66-1.08.69-.27.24-.11.65-.36.68-.92.08-1.71.49-2.65.49l0,0c.12-.21.26-.43.39-.66-1.5,1.19-2-.64-3.66.44.2.3.41.59.62.87a2.63,2.63,0,0,1,0,.74,10.64,10.64,0,0,1-1.9-.43.59.59,0,0,0,.09-.6l-.43,0a7.37,7.37,0,0,1-.64.93l.27.25a4.51,4.51,0,0,0-.59,1.74l.27.4c.07-.08.14-.15.21-.24.43.3.53.14.88.11a2.64,2.64,0,0,1,.16.78,3.18,3.18,0,0,0,3.13-.22c.33-.16.63-.45,1-.47s1,.37,1.48.47a8.64,8.64,0,0,0,2.82-.25c.86-.15,1.49-2.15,2.11-2.12l.22.08a2,2,0,0,0,0,.85l.36,0a11.68,11.68,0,0,1,5.57-2.59l.61.8-.85.36c-.29,0-.29-.25-.53-.16-.53.18-.94,1.16-1.47.76-.55.58.13,1.76.77,2.23.44-.23.88-.45,1.34-.67a1,1,0,0,0,.8.5l.11.35a1.17,1.17,0,0,0-.28,1.18c.3.16.51.21.64.44a2.13,2.13,0,0,0,.38,1.52l-.33.49-.31.12-.45-.31a.72.72,0,0,0-.57-.94c0-.1,0-.21-.05-.31l.32-.39-.07-.05a12.07,12.07,0,0,0-3.35-.82c0,.25,0,.4-.18.5l-1,.44a.9.9,0,0,0-.51-.46l-.6.14c-.09.26-.17.54-.27.8l-.1-.17.06-.24-.42,0,0,0c-.07.22-.14.43-.22.63-1.34-.6-1.63.51-2.73,1.1s-2.84.79-4.27,1.4c-1.61.71-3.72-.85-5.26,0a2.56,2.56,0,0,0-1.62,2.58l.18.78c-.12.32-.22.64-.34,1,0,1.39.53,2.36-.18,3.95-.37.82-1.19.64-1.65.95s-.32.62-.47.83c-.58.84-1.39.51-1.37,1.91,0,2.21,1.72,1.42,2.58,2.67.21.67-.35,1.49-.26,2.18.08.15.14.29.21.42,0,1.11-1.18,1.85-.66,3,.21.06.22,0,.4,0l0,.09a5.7,5.7,0,0,0,1.14,3.87l1.21.23.69-.36.11.08a3.63,3.63,0,0,0,.7,3.06c.17.16.27.05.39.22-.33.79-.86,1.51-.55,2.15s.57.72.58,1.4l-.33.09a3.08,3.08,0,0,0-.2.85L356.43,430c0,.3.07.6.1.89-.22.8-.51.95.07,1.59l0,0-.22-.1,0,0c.14.12.13.11.17.24a1.37,1.37,0,0,1-2,.62c-.11.06-.2.15-.32.22a1.61,1.61,0,0,0-2.27.91c-.06.34-.11.69-.17,1s-.39.35-.56.5a2.11,2.11,0,0,0-.65,1.4l-.07,0c-.37-.1-.53-.65-.75-.9a1.56,1.56,0,0,0-1-.47l-.05-.1c-.26-.23-.58-.57-.84-.85l-.12,0a2,2,0,0,1-.38.77l-.35-.12,0,0a.81.81,0,0,0,.18-.82l-.41-.05a1,1,0,0,1,0,.17.91.91,0,0,1,.08.76c-.19.14-.2.17-.44.14a2.7,2.7,0,0,0-1-1c.14-1.31-2.74-3.92-4.29-4.17a7.43,7.43,0,0,0-1.1-1.41,1.44,1.44,0,0,0-1.57.34l-.43-.24a1.4,1.4,0,0,1,.19-1.56l.34-.49c-.15-.2-.3-.42-.45-.63.25-1,1.07-1.27,1.76-2s.46-1.33.67-1.85c0-.12,1.55-1.36,1.92-1.76.82-.86,2.14-2.32,1.9-3.15.73-.62,1.46-.84,2-1.89a14.67,14.67,0,0,0-2-2.43c0-.15,0-.27,0-.41l-.29,0c0,.1,0,.2,0,.29a5,5,0,0,1-1.59-1.53l0,0,1.16-.08a3.39,3.39,0,0,0-1.73,0,2.57,2.57,0,0,1-.55-.82c-1.18-.19-.68-.05-1.63.46l-1.36.12-.27-.46a6.1,6.1,0,0,1-1.31.53c-.08-.15-.15-.3-.24-.45l-.24.12c-.06.19-.12.38-.18.59a4.32,4.32,0,0,0-2.55,2.1l-.21-.1c-.27,0-.41.32-.7.3l.36-.77,0,0-.17-.06c-.11.1-.32.37-.39.23a.4.4,0,0,0,0-.51,2.34,2.34,0,0,0-.42.86l-.46-.37c.36-.54.24-1.09.52-1.57l.13,0a2.11,2.11,0,0,0,.4-.66l-.19-.29c.16-.27.32-.55.47-.83l1-.06a5,5,0,0,0,.77-1.83l.27.19a1.32,1.32,0,0,0,.28-.75c-.46,0-.77-.3-1.26-.64a1.83,1.83,0,0,1-1.55-.14,4.61,4.61,0,0,0,.82-1.19,1.46,1.46,0,0,0,.92.41c.17-1.12,1.67-1.49,1.46-2.68l-.36.31-.2-.2c-.27-.9.49-1.69.52-2.66s-1-1.13-1.55-1.84l.15-1.11.4-.65c0-.47,0-.94,0-1.41s.89-.8.72-1.37a.89.89,0,0,0-.68.13c-.08-.69-.16-1.39-.23-2.09l-1.22-1.82.24-.66a1.39,1.39,0,0,1,.73-.11l.15.27c-.07.18,0,.14-.15.29a1.46,1.46,0,0,1,.59.51c.35-.4.73-.49.74-.92-.15-.35,0-.52-.33-.88a.79.79,0,0,1-.46.34.74.74,0,0,1-.3-.43c-.12.16-.25.31-.38.47a3.43,3.43,0,0,1-.79-.68c.19-.68.38-2.24,1.17-2.75a2.54,2.54,0,0,0,.76-.14l.1-.15-.09-.12c-.26.05-.31.21-.63.06l-.29-.3a5.18,5.18,0,0,1,.91-1.8,4,4,0,0,1,.73.28l.15-.06s0-.09.05-.13l-.08-.23-.43-.07.57-.43c-.46-.06-.48-.22-.76-.58.25-.3.6-.56.64-.93l-.47.28a1.33,1.33,0,0,0-.21-.09c0-.1,0-.19,0-.29l-.44.08a.66.66,0,0,0-.06-.31c-.19.32-.23.56-.53.45a1.22,1.22,0,0,0,.13-.83c-.42-.15-.87.08-1.24,0s-1.05-.74-1.45-.93c-.24.3-.35.2-.62.27,0,.09.06.19.08.28l-.36.2a3.45,3.45,0,0,1-.4-.94c-.64-.38-1.41-.19-1.75-1,.12-.21.69-.38.72-.66s-.36-.65-.32-1.05l.68.14a.39.39,0,0,0,.07-.33c-.28-.26-.57-.51-.86-.76a4.25,4.25,0,0,1,1.13-1.42c.32.2.79.55,1,.44l.66-.87c.29-.07.7.71.78.86l-.12.41-.46,0-.06.5c.72.16.47.68.85,1.14-.09.17-.2.34-.29.52h.26a2.87,2.87,0,0,0,1,1.45c.44-.31,1.46-.67,1.78.07.19-.31.17-.31.48-.23.06-.43.32-.32.64-.6s.33-.61.51-.9l.3,0a2.55,2.55,0,0,1,.19,1h.16a.71.71,0,0,0,.31-.61l0,0,.27.07.28-.41c-.33-.5.44-3.16.7-3.48,1,.27,1-.52,1.6-.82l.69.36c.45-.3.85-.54,1.33-.89-.35-.24-.49-.27-.91-.53,1.29-2.16,1.13-4.07,1.76-6.15.16-.47.72-2,1.21-1.59a1.9,1.9,0,0,1,.92.2c1.1-.79.88-1.67,1-2.67a5.6,5.6,0,0,1-.87-.81c.5-.65,1.38-1.49,1.43-2.15a1,1,0,0,0-.57-.29c0-.07.06-.13.09-.22-.2,0-.09.13-.2,0-.57-.14-3.09-1-3.65-2,0-.29,0-.57-.07-.87l-.75-.57c-.11-.37-.23-.74-.34-1.1.45-.68.31-1.12.74-1.8l.26.17,1.18-.41.88.23a1.54,1.54,0,0,0,.86-2.21c-1.28-.44-1.64-1.28-2.5-2.06l-.3.14c0,.24.06.48.1.72a5.84,5.84,0,0,0-.78.5l-1-.73a.79.79,0,0,1-.08.45c-.49-.15-.7-.3-1.15-.41.06-.28,0-.3-.32-.43a3.83,3.83,0,0,0,.54-2.06c.24-.18.23-.34.45-.56l-.21-.26.77-.74c0-.15,0-.32-.05-.47.33-.1.46-.77.86-1.17a29.41,29.41,0,0,0,2.23-2.36c.22-.28-.05-.83.07-.9a1.69,1.69,0,0,0,.24-.05c-.32-.24-.54-.08-.88-.06l-.22-.25c0-.09.08-.17.13-.26.26,0,.5-.05.45-.34-.21-.07-.13,0-.23-.21.13-.34.27-.24.55-.5-.07-.4-.34-.78-.06-1.26.49-.38.91-.48,1.31-1,0-.13,0-.25,0-.39-2.17-.24-1.46,1.95-3.32,2-.17-.21-.49-.76-.6-.58.05.11.11.21.17.33a4.06,4.06,0,0,0-.58,2.18,5.11,5.11,0,0,1-.48.22.8.8,0,0,0,0,.69c-.23.16-.45.33-.66.49l-.34-.23a.81.81,0,0,1,.37.65c.05.47-.54.78-.12,1.22l0,0c-.23.08-.45.16-.66.25.23.37-.07.94-.12,1.35l-.2,0a1.89,1.89,0,0,0-.05,1.28c-.37.2-.36.35-.54.79l-.15-.11c0,.34-.15,1.35-.73,1.53a1.06,1.06,0,0,1-.85.13c-.1-.15-.19-.31-.29-.47a3,3,0,0,0-.46,1.16c-.15-.11-.29-.24-.43-.34-.15.56-.4.48-.81.7-1,.51-1.79.18-2.75-.79l-.61-.64-1.34,0a7.41,7.41,0,0,0-1.14-1.06c-.23.07-.49.19-.73.26a2.79,2.79,0,0,1-.66-1.77l-.54-.25a1.5,1.5,0,0,1,.72-.9c.15-1.12-.82-1.15-1-2.05l.08.05h.49l.13-.19c-.3-.79-1.21-5.26-1-5.95.17-.22.34-.45.53-.68-.22-.17-.32-.27-.48-.27s-.36.05-.55.06a2.11,2.11,0,0,0-.86-.74l-.46-.06a2.37,2.37,0,0,1-1.71,1.07c-.35.49-.88,1.85-1.05,1.93l-1.21.48c-.15.9.57,1.42.6,2.23s-.48.6-.19,1.47c.27,0,.67-.13.79.15a2.4,2.4,0,0,1,.16,1.43.53.53,0,0,0,.18,0c.43.07.84-.18,1.28-.16,0,.05,0,.1,0,.16-.12.83.5,1.31.72,2.08,0,.86,0,1.72,0,2.57l-.54.23c-.07.5.26.74.29,1.19a4.86,4.86,0,0,0,.22,2.07l-.51.75c.27.12.63.19.72.38s.15.48.23.72l-.69.51c1,.5,1.38.3,2.17,1.33-.06.16-.12.32-.17.49.49.57,2.4,1,2.44,1.46l.11,0c.3-.42.56-.44.8-.61l.27-.47a2.23,2.23,0,0,0,2.19-.63c.56.19.77-.07,1.33.3l-.23.34c.1.28.23,2.14-.36,2.44s-2.06,1.46-2,1.83c.05.11.11.22.17.33l0,0c.3-1,1.2-.8,1.76-1.37s.22-1.39.87-1.82l-.19-.13.13-.19a.18.18,0,0,0,.1,0,1.31,1.31,0,0,0,.21.1c-.09.16-.18.34-.29.51l.43.18a.91.91,0,0,0,.17,1.11c-.07.11-.13.24-.19.36h-.06l-.57-.39c-.16.64,1.09.89.2,1.8l.2.19c-.23.35-.45.71-.69,1.06.43.19,2.12,0,2.15.88l-.26.37.46.32a1.47,1.47,0,0,1,.28-.18c.19.26.49.24.58.44a3.9,3.9,0,0,0,.55.87l.67.52c.41.79.8,1.58,1.2,2.36l-.13,0-.52.19a6.8,6.8,0,0,1-.88,1.59,3.33,3.33,0,0,1,.25.28c-.17.11-.18.05-.19.2-.09.45.13.72.4,1.09.32,0,.56-.09.59.26a1.89,1.89,0,0,1,.09.34c-.66.61-.73,1.49-1.53,2.23-.3-.31-.29-.49-.58-.83a4.37,4.37,0,0,1-1.94,0c0-.17,0-.34.07-.5l-.33-.16.27-.32-.26-.28a5.18,5.18,0,0,1-2.87.11c-.07.09-.16.18-.24.27a1.71,1.71,0,0,0-1.5-.37c-.2-.3-.47-.78-.79-.93-.25.19-.24.19-.36.52l-.32-.17a3.24,3.24,0,0,0-.2.36c-.43-.29-1.32-.86-1.68-.65-.25-.28-.22-.48-.55-.65l-.09,0c-.17.84-.58.58-1.23.59-.09-.27-.14-.31-.46-.43v.4a2,2,0,0,1,1,1.37c0,.45-.46.57-.49.88s.11.57.17.94c.15,1.09,0,2.14.2,3.22a5.74,5.74,0,0,1-1.16,2.23c-.25-.1-.31,0-.53.07a3.37,3.37,0,0,0,.1.34l-.31.12c0-.13,0-.25-.07-.38-.63.56-1.2.75-1.9,1.34l-.9-.14c-.16-.3-.23-.49-.58-.6.08-.1.17-.19.25-.28l.36.2v-.17c-.12-.29.19-.33.47-.45a1.66,1.66,0,0,0-.22,0,.44.44,0,0,1,0-.5l0,0c-.25.44-.11.41-.48.54-.24-.06-.17,0-.29-.14s.06-.62.1-.92l-.05,0a.7.7,0,0,1-.47.44,2.85,2.85,0,0,0-.21-.71c0,.28.06.53.1.8l0,0a.53.53,0,0,0-.57-.06l.47.27a1.45,1.45,0,0,1-.23.67l-.27,0,.17.16-.25.11c-.2-.08-.42-.14-.62-.21l-.22-.8s.08,0,.11,0l.35.13,0,0-.23-.16c.23-.11.37-.18.4-.43-.13,0-.08,0-.16-.06a1,1,0,0,0,.17-1,2,2,0,0,1-.33.87l-.4.11c0-.09-.05-.18-.08-.28.1-.35-.06-.58-.36-.84-.51.6-.49,1.13-1.16,1.13-.07-.39-.12-.84-.16-1.22l-.35,0a.77.77,0,0,1-.56.67l-.24-.06c-.39-.46-.31-.73-.36-1.23l-.1,0c-.37.25-.63.14-1,.16-.2-.46-.74-.62-1.08-1.07l.72-1.21-.14-.1a2.6,2.6,0,0,1-.85.35l-.27-.25c.22-.74-.09-1.33.54-1.75.15-.57,0-.63-.46-1.09.49-.61,1.23-.92,1-1.6a1.19,1.19,0,0,1-1.31.47,1.42,1.42,0,0,1-.06-.31,6.79,6.79,0,0,1,1.54-1.85c-.62-.4-1.15-2-.51-2.28l.45-.18a1,1,0,0,0,0-.17c-.34-.52-.1-1.1-.32-1.59l-.53-.53a6.3,6.3,0,0,1-.38-3c.38-.36.66-.38.64-.93l0,0-.41-.12c-.09-.77-.42-1.4-.56-2.15a2.7,2.7,0,0,0,.52-.68l-.81-.5c-.12.1-.25.19-.36.29-.41-.81-1.19-1.39-.31-2.18l-.67-.64c.13-.28.26-.54.4-.82l0,0a5.35,5.35,0,0,0-1.29.2c-.12-.26-.23-.52-.34-.78a12.05,12.05,0,0,0,.68-1.07l0,0-.89-.07a.86.86,0,0,1,0-.16c.07-.59.61-1.65.31-2.15a.5.5,0,0,1-.6.09c.15-.45-.05-.71-.08-1.1a6.15,6.15,0,0,1,.71-.62,1,1,0,0,1,0-.88l-.23-.16c-.25.1-.5.12-.62,0,.12-.46-.29-.79-.06-1.2l0,0a1.25,1.25,0,0,0,.88-.17v-.16c-.09-.22-.17-.45-.26-.67-.31-.12-.63-.26-.94-.37.34-.34.62-.75.47-1.17l0,0-.68.2-.15-.59c.24-.82-.28-.9-.3-1.48,0-1.1.88-.73-.32-2.09l.68-.19c.26-1,.78-.88,1.39-1.62-.11-.27-.33-.62-.53-1a189.34,189.34,0,0,1,116.64-5.13c-75.92-21.32-160.12,6.34-207.23,74.77A188.9,188.9,0,0,0,194.15,574.8a190.53,190.53,0,0,1-6.18-22,.2.2,0,0,0,0-.07c-.57-2.59-1.07-5.2-1.53-7.81a5,5,0,0,0,1.85-2,5.34,5.34,0,0,0,3.78-2.95c.14-.34.07-.63.33-1,1.09-1.66,2.28-3.21,2.56-4.61.83-.28,1.71-.26,2.31-1.18-.18-.26-.59-.94-1.07-.85-.82.17-1.21,1-2,1.68l-.53-.43a5.19,5.19,0,0,1,2.27-2.28c.5-.34.71-.71,1.13-.92.57.31.85.87,1.28,1.26,1,.89,2.14-.28,2.83-.75-1.11-.74-2.81-.75-3-2,.23-.3.78-1,.75-1.24-.16-.53-.3-1.05-.46-1.58,0-.64.61-.82.4-1.54-.44-.12-1.12-.46-1.47,0a2.79,2.79,0,0,1-.74,1.46l0,0-.42-.84c.36-.66.15-1,.58-1.64a3.12,3.12,0,0,0,1.42-.39l-1.64-1.13,0,0c-.46,1.55-1.48,1.43-2.17,2l-.32.72c-.86.91-2.86,2.35-4,1.52a3.11,3.11,0,0,0-.19-1.39,5.45,5.45,0,0,0-1.75.61,5.58,5.58,0,0,1-.92-2c.36-.61.78-.56,1.21-1q-.26-.21-.51-.45a1.68,1.68,0,0,1-1.34,0c.14-.41-.22-.66-.12-1a4.71,4.71,0,0,1,4.16-2.91c.67.1,1,.75,1.52,1a16,16,0,0,1,3.73-1l.29.54a1.87,1.87,0,0,0-.42,1.41l.61.86c.38-.49.84-.55,1.21-.87s.35-.68.45-1c.21-.7,1.23-1.16,1.64-1.29a4.26,4.26,0,0,1,.32,1.21c.49.15.81-.15,1.25-.13a4.7,4.7,0,0,1,2.11,1c.71-1.64-1.24-2.52-1.33-4a3.28,3.28,0,0,1,4.36-.19l-.65.87c.15.2.43.72.8.83a18.44,18.44,0,0,0,3.68-.39,6.18,6.18,0,0,0,.44-1.83c-1.15-.86-.59-1.67-1.09-2.57s-1.54-1.3-1.69-2.11c.35-.43.83-.88.89-1.37l-.58-.5-2,.84-1.15-1c0-.21-.06-.43-.09-.66a9.86,9.86,0,0,1,2.64-2.7l1-.84,1.64-.36c.27-.43.34-.88.67-.92.5-.26,1.77.57,1.9.93,0,.27,0,.52-.05.79a2.51,2.51,0,0,1-1.27.17,2.52,2.52,0,0,0-.26,1.09c1.95,1,3.53.14,5.26,0,.86.59,1.35,2.73,1.24,3.44s-.38,1.16-.24,1.88c-1.09,1-2.87.17-3.83,1.42,0,.22,0,.46,0,.68l.1,0a6.69,6.69,0,0,1,3.19-.89c-.28.54-.62.75-.9,1.31-.54,1-.92,1.19-1.92.87a6.71,6.71,0,0,0-1.41,2.6,2.18,2.18,0,0,0,.15.27l0-.07c.63-.11,1.16-.65,1.79-.85.31.58.92,4.05.1,4.73-.58.48-1.22.39-1.81.63l-1.07.81-1.14.64c-.66.6-.73,1.42-1.06,2l.09,0,1.9-1.49,1.85-.6a7.93,7.93,0,0,0,2.85-2.55l0,0,1,1.35c.28.69.52,3.16-.31,4a7.48,7.48,0,0,1-1.62,1.08c.65.49,1.35.6,1.78,1a8.2,8.2,0,0,1-2.64,2.47c-.82.88-1.65,1.76-2.48,2.63l0,0,.05-.07,2.11-.91c1.19-1,1.73-1.92,3-2.19l.34.24a3.35,3.35,0,0,1-.23,1.6c-.34.8-1.22,1.27-1.23,1.79l.09.18,0,0,1.16-.58a.5.5,0,0,1,0,.13c.45.75-.17,2.79.19,3.87.31.16.81.29.91.52.24.44-.22.77-.14,1.22.27,1.46,3.42,5.7,5.67,5.66,1.13-.64,1-1.18,1.84-2.09a10,10,0,0,1,4,.69l1.15.9c.76-1.16.5-2.27,1.53-3.35a14.63,14.63,0,0,1,5.35-3.4l1.63,0,2.47-2.15a17,17,0,0,1,1.69-.87c1.3-.82,2.79-4.22,4.29-4.47.46.51.92,1,1.39,1.5.38.07.76.14,1.14.19,1,.45,1.3,1.3,2,1.78,1-.21,1.42-.71,2.62.27a3.18,3.18,0,0,1,3.56-1c.62-.92,1.48-.63,2.21-1a5.18,5.18,0,0,0-1.2-.17,1.66,1.66,0,0,1-.37-1.07c.48-.35,1-.06,1.51-.18a5.56,5.56,0,0,0-1.4-1c-.09-1.47-1.76-1.34-2.8-1.76l-.7-.49-1.29-.44.25-.37c-.93-.64-.92.11-1.66.16A3.54,3.54,0,0,1,252,526c1.37-2.95.93-9.71-4-9.72-1.23,0-3.56,1.51-4.57,1.14a4.25,4.25,0,0,0-.77-2.24l-.44-.63c-.09-.44.32-.53.09-1.09l-1.07-.46-.85-.1c-.35-.17-.35-.5-.74-.78-.33.41-.65.85-1,1.26l0,0c-.4-.85-.42-1.9-1.2-2.64a3.13,3.13,0,0,1-1.46.37,1.69,1.69,0,0,1-.89-2.55c1-1.06,2.08-1.55,3.08-2.55s1.12-3.29,1.88-3.77a27.41,27.41,0,0,1,4.1-1.4c.29.57.28.53.88.48.77-.74,1.89-1.24,2.78-2,.49-.44.27-1,.49-1.2l.42,0a1.35,1.35,0,0,1,.52.47c-.29,1.73,3.68,1.67,4.2,3l-.47.6c.5.46.64.6,1.14.57l0,0c.42-1.51.32-2.67,2.21-2.65a.7.7,0,0,1,.34.4h.48c.1-.65.89-1.74.86-2.43-.22-.45-.43-.88-.63-1.32.41-.54,1-.16,1.54-.26l0,0c-1.33-.95-1.19-1.59-1.52-2.65-1.87.07-.94-.4-.92-1.62l-.49-.89.13,0c1-.58,4.42-.3,5.74-.44.27.3.21.49.67.72l.28-.5c1.83.94,1.79-.72,3.14-.1a1.34,1.34,0,0,0-.1.8,7.07,7.07,0,0,0,2-.7,1.5,1.5,0,0,1,.55.49c-.17.53-1,1.08-1.05,1.53,0,0,0,.06,0,.1.45,0,1.69.27,2.08,0l.39-.57c.45-.33,2.44-.94,3-.62.21.34.43.67.64,1,.43-.55.34-1.14.84-1.68a9.23,9.23,0,0,1,2.2-1.29c.61-.54,1.22-1.06,1.82-1.6.34.69-.11,1.4-.44,2.23s.1,1.55-.16,2.31c-.18.32-.38.65-.56,1,0,.43.54,1,.9,1.33a16.27,16.27,0,0,0,.66-2.18c.16-1.55-.8-3.61,1.69-4.13a1.56,1.56,0,0,0,.35.69h.49c0-.31,0-.93.25-1.15.46-.46,1.54-1,2.15-.65.27.45.62.95.85,1.41l1.48-.09.08.06a14.38,14.38,0,0,1,.06,3.27l-1.62,2.91c.2.85.4,1.7.61,2.55,0,1.3-.94,2.75-1.62,4.18-.7.92-1.42,1.84-2.12,2.77s-1.17,2.11-2.05,3.05a8,8,0,0,0-1.74,2.59c-.39,1.44.9,2,.91,2.93,0,.66-.69,1.44-.73,2.1a16.48,16.48,0,0,0,2.13,8.17c-.11-1.65-.78-3.29-.84-4.93-.08-2,.73-4.16,1.22-6.24s1.77-3.81,3.62-3.35a6.15,6.15,0,0,1-.26,3.07c-.21.15-.44.28-.67.43a2.58,2.58,0,0,0-.54,1.27l0,0a2.16,2.16,0,0,1,1.93-.88c.08-.42.15-.84.22-1.27l.18.12.09-.43.36-.14c.05.22.08.42.12.64.65.7.35.62.52,1.5.23-.39.47-.79.77-.83a1.1,1.1,0,0,0,.67.57c.07-.19,0-.17.29-.19.81.86,1.49-.4,2.2-.8,0,0,0,.07,0,.1-.05.19-.11.37-.16.55l.05,0,0,0,0,0c.22-.22.46-.14.66-.26s.2-.35.3-.52l.45-.17c.32-.19.18-.73.63-1h.11l.05-.07c0,.09.09.17.14.27,0-.17.26-.38.31-.62s-.08-.63.13-1.06c.72.31.45-.21.91-.53l.64-.11c0,.07.05.14.07.21a1.59,1.59,0,0,1-.06.3,1.08,1.08,0,0,0,.18,0c.24-.4.41-.63.73-.64a3.43,3.43,0,0,0-.11.46c-.21.08-.23,0-.26.21v.17h.17l-.42.53.17.07a10.22,10.22,0,0,0-.8,3c-.17,0-.18,0-.36.13,0,0,0,.09,0,.14l.21.25-.24.11c.23.22.12.28.26.51l-.51.58-.25-.22a.17.17,0,0,1,0,.1.74.74,0,0,1,.12.47l0,0-.28,0-.15.22c.34.22.45.09.68.36-.45.68.23,1.39.2,1.89l-.16.06.26.18a1.22,1.22,0,0,0-.36.69l.31.44c-.31.05-.29,0-.41.36l-.8,0c0,.16,0,.13,0,.23-.59-.24-1.33-.31-1.5-1.09,0-.22.12-.18,0-.42,0,.26,0,.5,0,.76-.05,0-.1,0-.16.06a.39.39,0,0,0,0-.09c0-.33.05-.66.07-1,.17-.06.15,0,.23-.18l0,0-.24.12.06-.08a8.09,8.09,0,0,1,.36-3.33l.39.33c.12-.14.11-.11.33-.16l-.27-.19a6.74,6.74,0,0,1,.63-1.55h-.16a6.24,6.24,0,0,0-1.6,2.65.69.69,0,0,1-.25-.29,2.1,2.1,0,0,0-.17-1.6l0,0c0,.15,0,.31-.05.47a.66.66,0,0,0-.62,0l.41.12c.08.17.17.34.26.51-.58.89-.07,1.71-.54,2.6-.15.09-.33.16-.5.25a1.65,1.65,0,0,0,.3,0c0,.28-.05.56-.07.84-.37.12-.86.59-.8,1l-.27.1.53.09a3.17,3.17,0,0,1,.13.36l.21-.3c.09.08.07.07.14.21-.08.44,0,.69-.4,1,.2.17.17.13.19.3l-.37.14c0,.32.17.6.18.94l-.41-.12c-.13.31-.07.6-.31.84l.39.15c-.16.13-.32.26-.49.38a.14.14,0,0,1-.09,0l-.28-.41a.19.19,0,0,1-.09.05l0,0a4,4,0,0,1,.75,1.72l-.31.12.27.41a3.22,3.22,0,0,1-.28.24l-.21-.25c0,.1,0,.19,0,.28.31.16.24.15.34.47l0,0-.26.15-.17-.16c-.05.2-.1.4-.14.61l.41.28c-.2.62.57,1.6.83,2.17.4,0,.36,0,.66-.26l.08.12c-.13.42-.28.8.09,1.15A1.39,1.39,0,0,1,291,530a3.46,3.46,0,0,1,.31-.22c0-.23.09-.46.14-.67l-.19-.13-.13.18h-.48l0,0,.27-.25a1.54,1.54,0,0,1,.94.32c-.2.49-.38,1-.57,1.47a.8.8,0,0,0-.46-.21l0,0a1,1,0,0,1,0,1.08l-.1,0c-.25-.15-.39-.34-.52-.41a2.26,2.26,0,0,1-.19.42c.22.22.43.44.64.67a8.49,8.49,0,0,0-1.69,5.26l-.64-.83.69,1c-.17.14-.12.21-.11.47l.15,0a.71.71,0,0,0,.65-.32,12.37,12.37,0,0,1,1.4,1.8,1.18,1.18,0,0,0-.21.18c.52.36.61,1.27.63,1.76l-.08,0,0,0c-.18-.19-.2-.28-.43-.41-.44.71-.92.51-1.57.51a3.73,3.73,0,0,0-.17-.61h-.07a3.06,3.06,0,0,0,.12.63c.57.26,1.83.62,2.33.29l.76.41c.32.36.21.74.41,1.17l.69,1.07c0,.15,0,.09-.09.22.16.25.3.5.47.76,0,0-.05.12-.08.17l-.26-.08a6.43,6.43,0,0,1-.9-1.6c-.15.07-.15.11-.2.3l0,0,0,0-.15-.27-.33.16c-.14-.27,0-.2-.31-.43l0,.52-.39.17h-.4a.41.41,0,0,0-.05-.09c.07-.21.12-.44.18-.65h-.16c-.35.22-.4.09-.43.47l0,0-.17-.22a.31.31,0,0,1,0-.1c.09-.06.18-.1.26-.16l-.14-.1h-.1c-.16.16-.23.21-.38.23l-.07-.15c.2-.29.16-.37,0-.59l-.2.3,0,0c-.05-.13-.11-.26-.17-.4l.2-.52-.27.14c-.07-.1-.15-.2-.22-.31,0,.13,0,.26,0,.39s.13.11.14.37l-.21-.1c.16.13.17.14.2.26l0,0c-.18,0-.08,0-.22,0l.31.27c-.09.09-.17.19-.25.28,1.17.12.47.44,1.19.76l.81.16,0,0a.27.27,0,0,1-.12,0,.62.62,0,0,1-.57.1l0,0c.51.21.77-.17,1.36.11a5.89,5.89,0,0,1-1.25.46,1.42,1.42,0,0,1,.25.12c-.35.21-.52.15-.78.56l-.26-.18c0-.15,0-.32-.05-.47,0,.11-.1.22-.14.34a1.33,1.33,0,0,0,.56.39,8.4,8.4,0,0,1,2.2-1.19.88.88,0,0,1,.25.67l-.19,0-.93.23a1.93,1.93,0,0,0,1.43-.38,1.25,1.25,0,0,0,0,.19c.21-.15.26-.13.52,0l0,0-.31.23.24.11-.1.15-.54.16a2.58,2.58,0,0,0,1-.34l.39.22c-.19.29-.15.24-.39.33a1.23,1.23,0,0,0-.91.21,2.11,2.11,0,0,0,0,.25.21.21,0,0,0,.11,0,.93.93,0,0,1,1.15-.24c.27-.66.46-1.15,1.27-.72a.93.93,0,0,0,.13,0l.14,0,0,0-.11-.07,0,0-.11-.07,0,0-.17-.06a1,1,0,0,0,.09.18c.16,0,.11,0,.3,0l-.15.23a2.51,2.51,0,0,1,1.06.13l-.07.11a2.33,2.33,0,0,1-.31-.11c0,.25-.27.31-.5.43h.37a.21.21,0,0,1,.06.08l0,.2-.44.25c.15,0,.17,0,.27.07s-.09.3-.14.46l-.29,0c-.2-.06-.26-.22-.39-.22l.06,0c.13.28.45.24.64.44a6.89,6.89,0,0,0,.66-1.19l.12,0c.2.21.29.46.57.45l-.07-.05c-.11-.2-.32-.35-.31-.6,0-.09,0,0,.05-.07a.63.63,0,0,1,.64.11,1.34,1.34,0,0,0,.12.24c-.14.17-.22.11-.15.23s.13.53.2.8c-.36.42-.61.36-.93.57l0,0h.27l-.81.6.26,0a1.49,1.49,0,0,1,.91-.59l.08.05c-.05.34.15.42.11.86a1.23,1.23,0,0,1-.56.2.56.56,0,0,0,.42,0l.33-.14a6.73,6.73,0,0,0,.09-.77c.2,0,.22,0,.4-.11a.36.36,0,0,0,.05.09c0,.24,0,.47.07.71-.23.44-.45.9-.67,1.36.21.69.43,1.39.65,2.08,0,.54-.64,1.34-.69,2s.36.94.64,1.54a3.77,3.77,0,0,1-.33,3,8.94,8.94,0,0,1,.87,2l1.36,1.76c1.29,1.31,3.88.9,5.19,1.25l1.61.79c.66.23,1.39.22,2,.41,1.45.49,2.5,2.25,3.14,3.11l-.05.07-.32-.33a5.1,5.1,0,0,0-.53,1.17c-.45,0-1.37-.31-1.85-.33-.66.85-.72.21-1.55.08l-.45.19-.64-.28-.23.33-1.7-.17a1.1,1.1,0,0,0,0-.74,3.2,3.2,0,0,0-.37-.19c-.06.28.12.53-.17.65l-.14.11-1.75-1.76c-.5-.23-.7.19-1.13.39-.67.28-2.62-.22-3,.83a3.33,3.33,0,0,0,0,1.18c-.15.39-.3.79-.43,1.19a7.14,7.14,0,0,1-1.29-.13,2.62,2.62,0,0,1-1.47.93,5.77,5.77,0,0,1-1.16,1.78l.26.18c-.11.23-.22.47-.32.71l-1.06-.07,0,0,.46.54a6.38,6.38,0,0,0-1.4,1.89c-.09.29,0,.63-.08,1s-1,.21-1.09.86l.22.41c.59.05.57-.63.78-1a1.74,1.74,0,0,1,1-.33c0,.23-.07.47-.1.7.7.34,1.21-.39,1.89-.34a6.05,6.05,0,0,1-.55.88,1.93,1.93,0,0,0-1.62.59,2.59,2.59,0,0,0,.17.33h.15a3.3,3.3,0,0,0,.38-.12l0,0c0,.13,0,.25,0,.36l0,0h-.48c-.07.33-.13.65-.19,1l-.82.49-.65,0-1.18.52c-.07.16-.15.33-.24.49l.11,0,.55-.17,0,.07c0,.33-.38.81-.73,1.15a6.06,6.06,0,0,0-2,2.38c-.14.52,0,.73-.53,1.34a4.75,4.75,0,0,0-.49-.17c0,.13,0,.25,0,.38.36.09.74,0,.92.26-.16.89.26,1.71-.09,2.69-.21.62-1,1-.88,1.37l.61-.08c.38.79-.34,1.52-.2,2.34l.05-.07.7-.14a.7.7,0,0,0,0,.14l.3,1c.82,1,2.18.72,2.93,1.51.28.6.57,1.18.87,1.76.4.39.79.77,1.2,1.15,1.51,1.54,4.53,3.31,6.06,3.41,1.05.07,2.24-.09,3.3-.09s1.9.23,2.84.19a3.7,3.7,0,0,1,1.1-1.27c.49-.25,1.05-.06,1.53-.55.83-.85,1.29-3.46,1.89-4.58l.4.28c.23-.21.54-.39.55-.63s0-.38-.05-.57c-.28-.07-.38.07-.63.11l.05-.07c-.09-.54.28-1.39,0-1.88l-.69-.53c0-.19,0-.4-.08-.6l-1.07-.68-.67-.85c.56-2.09,1.66-5.91,3.76-6.59a1.18,1.18,0,0,1,.57.45c.32.55.2,1.23.4,1.81,0,.13.94,1.38,1,1.47a.5.5,0,0,0,.13,0,2.64,2.64,0,0,0,.1-.3l1.9,1.8-.11,0-1.14-.14c0,.08,0,.17,0,.26V591a1.69,1.69,0,0,1,.65.66c.07-.19.14-.37.2-.57l.42.29c.72,1,1.88,1.38,2.58,2.48.35.55-.1,1.16.46,1.66l.57-.28s0-.07,0-.1l-.35-.29c.36-.15.64-.16.94-.56.18-1.22,1.43-1.78,2-3.21.06-.3.12-.59.17-.89l.53-.29c.37-.62.75-1.25,1.11-1.87l.8-.5c.47.36.33.39.78.38.34-.29.65-.58,1-.88a3.11,3.11,0,0,1,2.16,1.34c.08.27.18.52.28.8.47.66,1.56,1.16,2.12,1.79a5.39,5.39,0,0,0,1.88,1.56c1.25.42,3.64-.27,4.85-.57l1,.25c.76-.16.24-1,1.08-1,.83-.81.54-1.44.78-2.32.07-.28.24-.45.26-.7s0-.8,0-1.2.7-.67.86-.78c.45-.29.6-.85,1-1.1,1.12-.74,2.5-.5,3.79-.3a6.53,6.53,0,0,1,.22,1.2l0,0a.33.33,0,0,0-.42,0c.37.12.34.33.47.59.1-.28.18-.58.27-.86.06-.64-1-1.68,0-2.35a1.13,1.13,0,0,1,1.17-.18c0,.11.07.22.1.33a2.18,2.18,0,0,0-.45,1.78,7.64,7.64,0,0,1,1.85.51,4,4,0,0,0,1,1.73,8.45,8.45,0,0,0,1.94.07,1.74,1.74,0,0,0,.13-1.23c-.38-.65-2.57-.9-2.93-.7-.05-.2,0-.26-.18-.45l-.15.07c.17-.66,1.15-3.53.84-3.88-.12,0-.22.07-.34.09l-.29.52-.63-.05a.67.67,0,0,1,.09-.92,5.63,5.63,0,0,0,1.51.26c.7-1,1.51-1.77,2.45-1.55.48.1.59.3,1,.07.81-.46,1.21-2.17,1.8-2.93.7-.91,2.22-.51,2.94-2.27.24-.63-.11-1.23,0-1.83a8.29,8.29,0,0,1,2.07-3.24h.1c0,.06.06.13.1.18s0,.18,0,.27c-.26.33-.5.66-.75,1l.27.18a1.72,1.72,0,0,1,1.85-.32.58.58,0,0,1,0-.1.67.67,0,0,1-.27-.57c.29-.13.6-.67.95-.81h.49c.45-.18.79-.55,1.21-.71l0,.08c-.21,1,.62,1.17.21,2.5l0,0c.29-.36.58-.72.86-1.1a4.26,4.26,0,0,1,.87-1.49,6.42,6.42,0,0,1,3.78-1.48c.57.29,1.15.59,1.75.88l-.08,0c-.09-.15-.16-.29-.24-.44.58-1.11,2.32-1.22,3.28-1.1,0-.15,0-.29-.08-.45l0,0,1.53-1.42c-.18-.13-.25-.19-.26-.35.24-1.1,1.71-2.27,2.28-2.67s1.31-1,2-1.5c.58-.31,3.63-.83,3.72-.9s0-.4.15-.57c.41-.22.84.1,1.31.27,1.58.49,3.52,1.71,4.79.31.43.11.82.21,1,.63-.16.79.48,1.47.69,2.18s-.14,1.76.21,2.57,1,1.36,1.08,2.12l.15-.06c.74-.5.37-1.74.58-2.36l1.73.37a8.19,8.19,0,0,0,1.44-2.42,2.22,2.22,0,0,0,.72.77l0-.09c-.51-.8,0-1.83-.33-2.64-.19-.49-.76-1-.63-1.48a12.19,12.19,0,0,1,.69-1.4,5.88,5.88,0,0,0,1.23-.52c1-.74,1.63-1.82,2.86-1.44l.11-.16a3.86,3.86,0,0,1-.09-.49,1.8,1.8,0,0,1,1.94-.27c.61.6-.13.71,1.23,1.24a6.71,6.71,0,0,1,.37-3.16c.35-.67,1.37-.78,1.86-1.19l1.46-1.57c.85-.85.77-1.91,1.9-2.61,2-1.2,4.27-1.16,6.28-2,.93-.39,1.31-1.66,2.25-2.4.46-.36,4.5,1,5.32,1.79a9.05,9.05,0,0,1,2.87,6.59c-.05.36-.12.72-.18,1.08.1.51.45.56.8,1.06a8.05,8.05,0,0,1,1.43,3.51l-.07.11-.8-.11-.22.24a21.51,21.51,0,0,1,2.34,2.43c1,.57,2.07,1.14,3.12,1.7.81.4,1.3,1.39,1.85,1.94a5.86,5.86,0,0,0,1.38.79,2,2,0,0,0,1.2,2.41l1.15.63c.3.35.16.89.3,1.26l.82,1.44c.31.68.37,1.6,1,2.19l1,.47c-.55,1-.77,2,.31,2.74a12.7,12.7,0,0,1-1.8,2.94,7.77,7.77,0,0,0-1.17,1.62c.62.6.28.88.24,1.58.08.32.17.65.26,1-.21.17-.55.28-.69.62a22.12,22.12,0,0,0-.14,5c.09.73.55,1.15-.12,1.95l.22.15c.75-.46,1.29.67,1.41,1.14a6.25,6.25,0,0,1,1.24.36c3.6,1.73,2.49,3.61,3.41,5.76.5.78,1,1.56,1.51,2.35a9.57,9.57,0,0,1,.85,3.17c-.94-1-.66-2.7-1.83-3.41l0,0a1.59,1.59,0,0,1-.8.93l.07.05c.39.44.76.87,1.15,1.29.3.58,0,1.39.36,2l1.69,1.77c.75,1.1.66,2.38,1,3.52s1,2.11.62,3.35c-.25.77-.94.81-1.23,1.28-.39.65-.3,1.21-.67,1.81-1.37,0-1.87.65-2.54,2-.43.13-1,.07-1.35.38l.24.67.18.06c1.27,0,2.1-1,3.23-1,.41.32.33.48.53.75.7,1,1.57.22,2.18,0,.3.15.8.26.9.5a8.13,8.13,0,0,1,.79,2.14c.14.41.53.71.69,1.14.46,1.19-.85,3.56-1.47,5a10.24,10.24,0,0,1-1.92,3c-.25.25-.88.76-.85.92.3.74,1.22.53,1.62.44a8.67,8.67,0,0,0,.92,1.62c.44.46,1,.06,1.36.5.18.33,0,.58-.05,1a4.12,4.12,0,0,1-1.09,2.22c-.59.51-1.66.85-2.05,1.62,0,.11.09.23.13.36.65.36,1.11.26,1.66.54s.55.64,1,.88c.33-.18,1.38-.2,1.35-1a.85.85,0,0,1,.06-.17h-.56c.14-.37.26-.74.39-1.11a.07.07,0,0,0,.06,0c.46.21.93.43,1.38.62,0,.08.06.16.08.23-.07.25-.15.63-.38.72s-.38,0-.59,0a2.24,2.24,0,0,0-.64,1.65l.21,0c.36-.32.72-.64,1.09-1a.25.25,0,0,1,0,.09,4.1,4.1,0,0,0,0,2.43c1.23.8,1.59.74,1.74,2,.36.16.61,0,.85.15-.32.59-.6,1.2-.92,1.8-.27,1.26.19,3.54,2.07,3.77a4.18,4.18,0,0,0,2.5-.74c.36-.29.62-.8,1-.91,2.59,1,1.06,3.58,1.58,5.21.16.37.3.73.46,1.09.56.62,1.29.59,1.52,1.38s-.56,1.8-.3,2.59c.75,2.35,3.77,1.87,5.13,2.21a1.88,1.88,0,0,1-1.3,1.27c0,.08-.05.17-.08.26-.06.48.26.85.11,1.35-.18.69-.75,1.1-.55,1.7l0,0c.38.9,1.64,1.24,2.08,2.08-.14.31-.28.62-.41.93l-.95.4a15.55,15.55,0,0,1-.73-2.38l-.1-.07-.64.28c-.31.8-.22,1.86-.92,2.78a1.61,1.61,0,0,1-.61-.31c.38-.82.48-1.48.81-2.3-.44.11-.88.84-1.24,1.4-.48-.33-.43-.55-.78-.87a.81.81,0,0,1-1,.22l0,.83-.52.36c-.26-.27-.23-.45-.59-.74l0,0c-.06.23-.12.47-.2.69a1.45,1.45,0,0,0-.77.07,2.76,2.76,0,0,0-.08-.27c0-.19,0-.23-.1-.41l-.38-.08c-.41.1-.73.46-1.24.51a1.81,1.81,0,0,0-.35-2.06c-.22.39-.26.91-.6,1l-.84-.3c0-.21,0-.42,0-.63a1.87,1.87,0,0,1-1.19-.12c0-.27,0-.55,0-.83-.16-.08-.31-.14-.46-.2,0,.28,0,.57,0,.85-.54-.33-1.09-.67-1.64-1-.09-.2-.19-.42-.29-.62l-1.15-.64c.44-.65.75-.52,1.22-1.14a2.56,2.56,0,0,0-.11-.24l-.18-.12c-.27.11-.55.2-.83.32l-.93,1.44-.27-.19c-.14-.36-.46-.63-.61-1,.19-.21.28-.33.21-.51l-.29-.37c-1,.15-1,.74-1.85,1.31l-.4-.28c-.17.28-.32.56-.47.84-.14-.1-.12-.11-.18-.29a3.67,3.67,0,0,0-.35-2.39c.27-.43.37-.6.72-.71l.4.22a1.27,1.27,0,0,0,0,1l.56.23.09-.05c0-.33-.27-.53-.23-.88a1.49,1.49,0,0,0,.14-.12,1.71,1.71,0,0,0,.83.47.44.44,0,0,0,0-.1c-.16-.41-.32-.81-.49-1.21-1-1.32-1.22-.45-1.27-2.15-.27.23-.64.49-.87.06-.09-.27.07-.52.07-.83a2.93,2.93,0,0,0-.33-1.32l-.32-.12-1.05.48a2.62,2.62,0,0,1-.79-.76c-.79-.81-1.3-.5-.93-1.67-.43-.17-1.17-.08-1.54-.64a.69.69,0,0,1,0-.68l-.27-.25c-.35-.05-.52.11-.83.16l-.5-.63a1.83,1.83,0,0,0-.53.52c.24.57.17,1.13-.46,1.33-.55-.26-1-.13-1.46-.29-1.87-.62-1.63-2.43-2.38-3.34l-.11-.08a7.11,7.11,0,0,0-2-.77l-1.57-1.08-1.36-.26a.51.51,0,0,0,0-.13,3.61,3.61,0,0,0,.4-1c-1.81-2-2.75-3.91-4.32-6-.39-.5-.4-1.19-.91-1.62-.3-.06-.83-.14-1-.36s-.27-.74-.41-1.09l-.76-.33a18,18,0,0,1-3.67-2c-.33-.45-.29-1.12-.71-1.59-.68-.76-1.34-.26-1.88-.8l-1.52-1.77c-.11-.27-.22-.55-.32-.82a10.9,10.9,0,0,0-3.26-2.79l-.57-1.17c-.3-.12-.59-.25-.89-.39a5.87,5.87,0,0,1-2-1.73,5.82,5.82,0,0,0-.6.14l-.56-.38c0-.24,0-.46,0-.7-1.56-1.46-6.85-5.54-8.75-5.58-.67,0-1.21.78-1.84.93l-1.31-.18-2,1.18c-2.31,1.26-4.73,2.74-7.22,3l-1.56,0-1.2-.82a5.77,5.77,0,0,0-1.76,0c-1.34-.07-2.55-.62-3.79-.09-1.56-1.27-6.39-1.17-8.17-1.22l-2.53-.09c-.9.23-1.66,1-2.57,1.25a.53.53,0,0,0-.06-.14,1.94,1.94,0,0,1,.35-.76c-.87-.83-1.87,0-2.94-.59-.85-1.56,0-3.65-1-4.95-.27-.32-.79-.41-1.1-.65.1,1.19.7,2-1.1,2.16a1.56,1.56,0,0,1-.06-.15.62.62,0,0,0-.09-.51,8.55,8.55,0,0,0-2.18-.9c0-.5.09-1,.14-1.49h-.55c-.36-.42-.12-.93-.38-1.3s-1.18-.52-1.27-.93c.28-1.11.69-1.65.36-2.61a1.24,1.24,0,0,0-.64-.11,2.56,2.56,0,0,0-.11-.24,3,3,0,0,1,.52-.75c-.32-.38-.59-.22-1.09-.57.06-.44.69-1.28.64-1.72-.44-.86-.87-1.73-1.3-2.59-.33,0-.66.09-1,.15-.3-.36-.61-.72-.92-1.07-.56-.28-1.18-.21-1.66-.6.11-.27.18-.43.06-.67-.4,0-.64.26-1.06,0a1.71,1.71,0,0,0-.42-.68,7.58,7.58,0,0,0-1.73.19c-.42-.44-.36-.81-.84-1a1.5,1.5,0,0,1,.52-.09c0-.36-.27-.78-.19-1.11-.58-.24-1.09,0-1.6-.22l0,0c.66-.34,1.25-.1,2-.2,0,0,0-.09,0-.13s0-.19-.09-.34l-.82-.18-.64-2.25.39-.89c-.83-1.14-2-1.27-1.8-2.88,0-.24,0-.56.16-.72s.42-.22.77-.08c0-.13,0-.27-.05-.42-.49-.3-.61-.53-.62-.91a2.39,2.39,0,0,0,1.06-2.2c-.46-.06-1.43,0-1.78-.44s0-.51.3-.84l-.1,0c-.23.13-.36.1-.64-.1a1,1,0,0,1-.21.78c-1.16-.3-1.91.22-2.34,1.63a1.2,1.2,0,0,0,.5.4,3,3,0,0,0-.14,1.72c.64.11,1-.36,1.73,0-.35.66-.08,1.1-.66,1.68l-.2.05c-.3-.34-.88-.27-1.25-.33l0,0,.44.41a1.27,1.27,0,0,1-1.45.26c-.58.77-1.26.95-1.59,1.82.07.19.16.38.23.56a1.51,1.51,0,0,0-1.66-.22.57.57,0,0,0,0,.14c.21,0,.45,0,.67,0l.05.09a1,1,0,0,1-.92.46c-.63-1.39-1.59-.12-2.47.4-.28.15-.78-.18-1.08-.2l-1.07.52,0,0,.54.16c.25-.2.35-.3.63-.28.05.22.11.44.16.65l-.09.06c-.84-.19-.88.73-2.18.36-.16-.28-.12-.58-.32-.81a.88.88,0,0,0-.2-.09,4,4,0,0,0-.51.25l.16-.33a1.31,1.31,0,0,0-.21-.08c-.34.38-1.26.27-1.7.3-1.3.1-2.54.67-3.82.84l-.18-.12.31-.45c-.46-.1-.83-.2-1.21.15a1.83,1.83,0,0,1,.33.56c-1.28,1.85-3.13,2.52-4.51,3.67-.67.55-.76,1.26-1.41,1.5-1.89.68-5.41.93-7,2.16s-.8,2.61-1.46,4a17.19,17.19,0,0,1-2.57,2.47l-2.52,1.24c-.39.4-.8.8-1.2,1.2l-2.23,1.32c-.83.39-2,.41-2.51,1.25-.66.56-1.32,1.14-2,1.7l-2.17.28-1.53.87a5.47,5.47,0,0,1-1.81.06l-.65.06c-.28-.16,0-.79-.08-1.06-.26,0-.34.09-.54,0-.25-1.16-1.33-1-2.17-1l-.4-.55c-1.92.22-3.85.44-5.77.64-.47.18-.94.36-1.41.52-.3-.09-.61-.22-.94-.31l-1,.61h-.94c-.2.1-.25.51-.25.6l-.33.1a1.19,1.19,0,0,1-.94-1c-.79-.21-1.17,0-1.38.65-1.44-.43-1.46.48-2.51.36-.32-.31-.44-.47-.78-.48l-1.17.85c-1.34.5-6.34.26-7.87-.86a12,12,0,0,0-1.1.79,1,1,0,0,0-.63-.21c-.12.1-.24.2-.37.29.06.13.12.26.17.39-.39.51-1,.62-1.42.95.35.31.65.92,1.11,1l.8-.06c.5.32,1,.63,1.51.93.85.15,1.54-.62,2.36-.63.64,0,1.5.44,2.14.32l.91-.53a4.65,4.65,0,0,0,1.6.56c.19-.18.38-.36.59-.54,1.18.23,1.65,1,2.28-.19.57.15,1.28.54,1.95.69l2.39.27c1,.33.77.73,1.69.5,0-.27,0-.53.05-.79l1.67.11c.36-.12.43-.35.83-.32a2.11,2.11,0,0,1,.51,1.51l-.3.19a9.6,9.6,0,0,0-1.1-.32c-.5,0-.87.32-1.34.51a12.79,12.79,0,0,1-3.58.89c-.51,0-.79-.78-1.31-.9a3.7,3.7,0,0,0-1.76-.17c-.3.13-.48.41-.78.51l-1,.15c-.24,1.1-3.14,1.77-4,1.69.49-.43,1.09-1,.82-1.59-.25-1.17-1.84-.83-2.46-.64a16.16,16.16,0,0,1-2.41.87l-1.25-.36c-.29,0-.46.31-.8.21-.51-.14-.75-.42-1.18-.43-.79,0-1.6.3-2.09-.56l-.94.23-.74-.51c-.92-.24-3.83-.9-3.85.48-.08.05-.17.08-.25.12-.2-.24-.29-.2-.58-.19-.76,1.15-1.21.7-1.94,1.21l-1.18,1.55c-.36-.05-.42.21-.67-.14-.39-.1-.57-.37-.84-.53-.2.18-.28.28-.54.3-.44-.52-2.75.71-3.88,0,.19-.42-.21-.52-.53-.6a2.32,2.32,0,0,1-1.32.64c-.26-.41-.69-.11-1-.59l-.11-.18.12-.08c.4.13.68.16,1-.15l-.14,0a2.83,2.83,0,0,1-1.56-.14l0,0,.54.42c-.18,0-.29,0-.35.19l-3.36.4-.07-.05c-.17-.11-.71-.19-.91-.36l-.35-.46c-.71-.29-1.58.2-2.26-.07-1-.39-1-1.53-2.11-2-.79-.36-3.23-.64-3.71-1.47-.14-.24,0-.51,0-.74l-.47-.76-.73-.06c-.71-.23-1.31-1.25-1.7-1.67a10,10,0,0,0-3-2.25l.31-.45c-.2.18-.4.35-.59.54l-1.3-.9c0-.16.07-.32.11-.48-.16.1-.31.19-.47.27.14.16.09.09.11.25l0,0c-1.3-.89-2.4-.41-3.45-1.21.22-.68,1-.93,1.49-1.35.71-.7.87-2,2-1.18.1.36.22.74.33,1.1l0,0c.32-.32.65-.21.87-.45-.64-.59-.6-1.61-1.72-2.06l-1.49-.47c-.79,0-1.78.78-2.44-.15a2.17,2.17,0,0,1-.42,1c-.33-.06-.67-.12-1-.21.29.48.58,1,.88,1.45a1.9,1.9,0,0,1,2.26-.11c.07.15.14.28.22.43a5.11,5.11,0,0,1-1.46,1.37,189.51,189.51,0,0,0,52.88,54.92c86.32,59.43,204.35,37.79,263.64-48.34S566.51,415.38,480.19,356A192.25,192.25,0,0,0,461.12,344.45ZM333.92,374l.09-.05a1.13,1.13,0,0,0,1.11-.16c-.18-.23-.7-.7-.76-1l.39-.5a1.56,1.56,0,0,1,1.08,1.4h.09l.51-.25c0,.1,0,0,0,.12a2,2,0,0,1,.14,1.25l-.7-.1c-.17.3-.41.78-.71.78C333.75,375.43,334.19,374.85,333.92,374Zm-6.58,3.11.77-1.45c.14-.55-.37-1.06-.4-1.58l.42-1.15a1.89,1.89,0,0,1-.11-.25l.19-.13c.28.61.43.59,1.14,1,0,.35.07.45.3.75-.57,1-1.25,1.69-1.63,2.46.45.5.36.81.51,1.34l-.82.15A1.83,1.83,0,0,1,327.34,377.1ZM187.16,539.5a8.93,8.93,0,0,1-1.28,2.14c-.16-1-.29-1.95-.42-2.92a2.3,2.3,0,0,1,.54-1.07c.52.08.76-.27,1.36.12C187.19,538.4,187.43,538.85,187.16,539.5Zm-.33-4.24a4.09,4.09,0,0,1-1.65,1.42c-.07-.63-.16-1.26-.23-1.89a2.37,2.37,0,0,1,1.86.35A.43.43,0,0,1,186.83,535.26Zm-2.93-12.54c.73.75,1.75,1.52.67,2.57a1.28,1.28,0,0,1-.49.3C184,524.63,184,523.67,183.9,522.72Zm.22,3.46.19,0c.05.35.1.7.16,1.05-.08.12-.17.2-.25.31C184.19,527.07,184.15,526.63,184.12,526.18Zm9.42,1.65c1.3.26,1.13-.05,2.19-.14a.73.73,0,0,1,.05.09l0,1.73c-.52,1.43-2.86,2.57-3.74,3.26-.52.41-.79.94-1.32,1.2a1.62,1.62,0,0,0,0-.2c-.38-.64.09-1.31.08-2,0-.53-.89-1.21-1.1-1.69.11-.22.2-.43.28-.63A20,20,0,0,1,193.54,527.83Zm-7.71-19.77c.17,1.72,1.38,3.27,1.5,5-.73,1.07-2.44,2.74-2.65,3.79a4.81,4.81,0,0,1,.53-.07l1.19-.28c.77,1.06.33,2.24-.88,3a3.13,3.13,0,0,0-1.8-.43c-.1-3-.14-5.92-.1-8.89.53-1,.61-2.1,2.06-2.23Zm109.94,38.62,0,0-.29-.14,0,0-.11-.08.14.05.32.1,1.17.2-.15.07A3.23,3.23,0,0,1,295.77,546.68ZM329,571.51c-.25.38-.47.34-.74.59-.47.4-.13.75-.24,1.06s-1.91,1.2-2.14,1.21c0-.21,0-.42,0-.63.7-1.1,2-2.41,3-2.39A1.25,1.25,0,0,1,329,571.51Zm-2.42-4.24c-.44.53-.91,1.05-1.37,1.58-.62.68-.76,1.66-1.36,2.47l0,0-.15-.6a1.07,1.07,0,0,0-.33-1.11c-.76.27-1.56,1.42-2.31,1.76-.38-.22-1.05-.48-1.37-.33s-.79,1.12-1.16,1.45c-.71.62-1.56.86-2.22,1.39-.93.74-1.25,1.83-2.18,2.12l.34-1,0,0h-.27c-1.65,1.47-1,1.94-1.19,3.24-.06.39-.5.8-.54,1.12a1.11,1.11,0,0,1-.23,1.67,1.09,1.09,0,0,0,0-.25c0-.21-.05-.41-.07-.61a1.17,1.17,0,0,1-.75-.68,22.69,22.69,0,0,1,.61-2.87l.85-1.57a15.42,15.42,0,0,1,2.67-3l.33-.49c.57-.16,1.14-.31,1.71-.48,1.06-.63,1.73-1.8,2.79-2.2l1.27-.17c.79-.52,2-2.14,2.77-2.27.11.18.21.36.34.55l.17,0a4,4,0,0,1,2.61-1.93l0,.08C327.08,565.86,327,566.58,326.62,567.27ZM337.51,558c-.48.23-1.32.12-1.48,1.12a1,1,0,0,0-.5.49c-.17.45.23,1-.27,1.35l-.67.08a2.79,2.79,0,0,0,.64,2.2c-.4.33-1.25.26-1.74.36l-.83,1.45-1.11,1.22c-.14.32.06.48-.08.82-.47.14-.81.48-1.32.41l-.06-.08c0-.14-.06-.27-.1-.41.95-.75,2.35-2.23,2.38-3.31h-.15c-1.08.74-1-.24-1.62-.28s-1,.71-1.48,1l-.15-.1a2,2,0,0,1-.07-.23c.07-.17.16-.35.25-.54a12.34,12.34,0,0,1,1.65-1.66c.33-.37.18-.64.29-.9l.56-.66a1.74,1.74,0,0,1,.17-.65c.73.07,1.06-.72,1.54-1.19,1.31.37,2.54-1.42,3.84-1.44A2.85,2.85,0,0,1,337.51,558Zm23.34,9.64c.19.47.74.61,1.14,1.06a15.45,15.45,0,0,1-.9,1.47l0,0A.78.78,0,0,1,361,570c0-.26.09-.52.14-.78a.7.7,0,0,1-.48-.34c-.22,0-.26,0-.45.25l-.06-.15a2.88,2.88,0,0,0,.51-1.14l.15-.22Zm-20.48-13.22c-.35.52-.23.85-.71,1.26a3.85,3.85,0,0,0-.84-.46,3.06,3.06,0,0,0-.05-.32c.47-.67,1.24-1.93,1.91-2.14C341.37,553.4,340.82,553.71,340.37,554.41Zm-47.46-46c-1-.38-1.15-2.27-1.56-2.95l1-.37c.16.41.71.94.82,1.39s-.32,1,.31,1.37l.39-.16c.27-.86-1-2.09.82-2.15C295.43,506.52,294.33,509,292.91,508.42ZM440.7,655.21l.27-.54c.11-.16.1-.15.22-.17a.68.68,0,0,1,.71.1c.05.35.11.69.16,1l1,.11,1.1,1.14a.15.15,0,0,0,0,.1c-.42.32-.64.58-1.14.52C442.5,656.72,441.22,656,440.7,655.21Zm25.13,14.93a.48.48,0,0,1-.11.09l-.3.12-.86-.59,0,0a1.09,1.09,0,0,1-.39.56c-.35-.06-.42-.3-.62-.53.35-.42.65-.69.61-1.13a1.33,1.33,0,0,1,.24-.11A3.9,3.9,0,0,1,465.83,670.14Zm13.48-10.46.13.31c-.47.69-.75,2-1.21,2.46l-1,.6-1.46,1.8c-.31.6-.61,1.2-.91,1.8-.35.35-.93.19-1.21.87s-.26,1.09-.56,1.71l0,0a10.15,10.15,0,0,0-.87-1c.43-.84.91-1.86,1.74-1.88l.26-.54a3.06,3.06,0,0,0-1.32.08c-.89.46-.69.67-1.73.51l-.09-.11.27-1.58-.34-.24-.15.07c-.36.65-.5,1.47-1.06,1.69l0,0c-.79-.91-.41-2.06-.64-3.06.66-.29,1.3-1.2,1.95-1.42l.2.14c.18.52.06,1.08.61,1.08.68-1.1,1.64-.69,2.64-.87,1.75-.32,3.1-.5,4.55-2.6ZM403.29,368a.43.43,0,0,0-.38-.26l.84-1,.57-2.19c.16.58,0,1.21.2,1.79l.51,0c-.44.76,0,1.26-.58,2.12.18.15.16.08.15.27a5.14,5.14,0,0,0-1,.73,3.89,3.89,0,0,1-.85-.21A9.77,9.77,0,0,0,403.29,368Zm-11.56,15.52.13-.2c-.14-.11-.14-.11-.18-.22l.08.05a.94.94,0,0,0,.52-.29c0-.13,0-.24.05-.36a.75.75,0,0,1,.15,0c0,.07,0,.14.07.22.19-.2.2-.14.39-.18.25-.43.5-.87.74-1.31a2.22,2.22,0,0,0,1-1.1h.07a2.16,2.16,0,0,0,.25.27l.17-.09c0-.41.21-.74.22-1.11a2,2,0,0,1,.47.59l-1.57,2.6-.27-.18c-.6.41-1.26,1.47-1.85,1.81Zm-17.3,13.93c1.24-.51,1.56-1,2.11-2.5a2.67,2.67,0,0,1,.54-1.11l0,0c.27.45.6,1.6,1.3,1.77.31.05.59-.11.75.13a6.19,6.19,0,0,0,.17.94,26.75,26.75,0,0,1-3.68,2.15c-.59.34-.69.79-1.36.71C373.62,398.68,374.54,398.29,374.43,397.42Zm-14.12,2.38a8.12,8.12,0,0,1,.18-1.7l-.48-.43s0-.06,0-.1l.22-.07c1.1.74,2.75,1.62,3,2.71l-.2.2-.18-.13-.27.31-.28.08c0-.11-.08-.24-.13-.36l-.41.27s0-.06,0-.09,0-.21,0-.31l0,0c-.17.26-.11.3-.35.26,0-.1,0-.2,0-.29-.24,0-.3.11-.6,0a.81.81,0,0,0,0-.22A.37.37,0,0,1,360.31,399.8Zm2.82,2.77a3.7,3.7,0,0,0,.59-2.3c.34-.23,1.71-.4,2.14.17a6.73,6.73,0,0,0,.38.65l.9.45c.54.28.67.78.93,1.13-.26.23-.6.39-.66.81l.21.64c-1.15,1.11-1.67-.64-2.92-1.2-.61-.25-1,0-1.55-.23A.6.6,0,0,0,363.13,402.57Zm-53-1.28c-.07-.2.11-.43,0-.66l-.9.1a.77.77,0,0,1-.12-.69,2.13,2.13,0,0,0,.62-.68l-1.2-.16c.09-.29.18-.58.26-.87l-.75,0c-.07-.21-.14-.42-.22-.64.29-.14.58-.26.88-.39.67-.57.55-2,1.38-2.57.3,0,.39-.09.43.25.51,1-.57,2.27.52,3.16h.23c.66-.95,1.84-3.26,2.67-3.56.23.05.25-.05.34.14.62.88,1.94,2.48,1.17,3.66a.18.18,0,0,1,.1,0l.74-.37a.34.34,0,0,1,0,.1c.18.59-.3,1.43-.81,2.14l.1,0c1.07-.7.7-1,1.2-1.82a4.78,4.78,0,0,1,2.59-1c.76.18,1.36.72,2.13.65.42,0,.51-.49.92-.7l1.72-.08c.42,0,1.27.68,1.29.67,1.36-.19,1.54-.77,2.16.84l.53-.52c-.42-1.13.93-1.8,1.68-2l1,.57c.44.56.39,2.8.14,3.55l0,0c.28-.34,1.3-1.58,1.39-1.62l.06-.08.52.36c-.12.33-.35.88,0,1.15-.47.57-.23,1-.46,1.45-.29.32-.58.65-.89,1-.09.29-.22.58-.32.87s-.42.12-.57.43l-.81,1.65.32.11a11.14,11.14,0,0,0-1.86,2.51c1.15.85.47,1.2-.32,1.6a.59.59,0,0,1-.3.61,3.17,3.17,0,0,0,0,1.88l-.43.08-.55.46,0-.09c.26-.83.3-2.71-.45-3.34.37-.39.07-.46,0-.83.14-.88,1-1.15,1.35-2.05-.41-.31-.41-.8-.64-1.21a3.84,3.84,0,0,1-.39,1.5l0,0,0,0c-.42.25-.84.48-1.27.72-.34.49-.7,1-1.06,1.48l-.67.18a2.84,2.84,0,0,1-.06-.31c-.22-.43.5-1.56.16-2.47-.32-.24-.66-.6-1-.61l-.07,0-.54.78,0,0c-.57-1,.11-2.29,1-3.57l0,0c-1-.14-1.14-.86-2-1.52l0,0-.32.71a3.27,3.27,0,0,1-1,.09,3.1,3.1,0,0,1-.56-1.44c-1,.89-.37.86-.89,1.7l-.65.55a.49.49,0,0,1,.22.48l-.83.74c-.52-.48-.66-1.78-1.16-1.83a.82.82,0,0,1-.95-.23,1,1,0,0,0,0-.67l-.56-.22-.1.15a12.1,12.1,0,0,1-.06,2l-.07-.05c-.75-.11-1.05-1.2-1.43-1.75l-.62.24a.55.55,0,0,0,.06.08,2.66,2.66,0,0,1,.17.79l-.44.24-.73-1.49Zm4.85,3a1.21,1.21,0,0,1-.16.16,1.82,1.82,0,0,1-.71-.49c0-.11.09-.22.12-.34l.66.34Zm1.56,13.4c.23-.31.68-.85.67-1.14s-.35-.44-.42-.67c.21-.44.52-.87.2-1.24-.16.3-.31.59-.46.9a.68.68,0,0,0,0-.14,4.69,4.69,0,0,1-.18-.45c-.22,0-.17.06-.28-.08-.33-.53,0-.72.11-1.35l-.37-.1c0,.42-1.26,1.67-1.61,1.87l-.15-.43-.25,0,.25-.6c-.45-.19-.35-.24-.44-.63l-.05.07c-.37.1-.45.3-.6.7l-.22-.15a1.58,1.58,0,0,1-.44-1,11.84,11.84,0,0,0,1.81-2,1.38,1.38,0,0,1-.46-.15,1.18,1.18,0,0,0-.09-1.22L312.8,411c0-.07,0-.14-.07-.22s.14-.34.2-.52a1.58,1.58,0,0,1-.27-2.16.65.65,0,0,0,.86-.29,3.5,3.5,0,0,1,1.54-2.41,14.66,14.66,0,0,1,2.32.72,2.12,2.12,0,0,1,0,2,5,5,0,0,1,3.07,1.05c.34.45.37,1,.93,1.53-.19.29-.37.59-.55.89,0,.1.08.2.12.3-.27.46-.53.91-.79,1.38,0,.66,0,1.35,0,2-.13.21-.26.41-.38.62a7.47,7.47,0,0,1-.69,1.89,2.5,2.5,0,0,0-.91-.52l-.36.69c-.24-.11-.41-.12-.57-.28a4.37,4.37,0,0,1,.12-.52l0,0-.61.8C316.7,417.83,316.64,417.76,316.55,417.69Zm-73.37-22.54h.16a0,0,0,0,1,0,0l-.3,1.1c.5-.16,1-.86,1.42-1.25v0a1.54,1.54,0,0,1-.09.83c-.11.09-.23.07-.34.13a1.81,1.81,0,0,0-.51.49,22.58,22.58,0,0,1-2,2.65c-.2.2-.83.7-1,.33s.4-1.45.47-1.87c.56-1.24,1.41-1.3,2-2.17Zm-3.3,3.9c0-.53.08-1.06.13-1.61a19.61,19.61,0,0,0,1-1.91l.11.16c-.1.38-.22.79-.33,1.18s-.07.57-.09.85l-.39.94a4.21,4.21,0,0,1-.35,1l-.08.05C239.75,399.58,239.87,399.26,239.88,399.05Zm-1.55,1.36a1.85,1.85,0,0,0-.27-.8c.13-.31.28-.6.41-.9s.61-.84.84-.69A7.64,7.64,0,0,1,238.33,400.41Zm-7.06-9.2c.38-.13,1.07,0,1.34-.54,0-.16-.1-.62.17-.7s.24.13.27.25a7.65,7.65,0,0,1-.22,1.94.87.87,0,0,1-.32.18c-.07,0-1.12,0-1.12,0C231.27,392.2,231.42,391.51,231.27,391.21Zm2.39,2.6c-.19.43-1.19.71-1.25.19l.08,0,.46-.4C233.41,393.25,233.6,393.24,233.66,393.81Zm-7.11-.6,1.58-.6c.19-.07.5-.26.68-.15a.19.19,0,0,0,0,.08.08.08,0,0,0-.05,0l-.71.25-.61.45-.39.11c-.25.14-.42.42-.71.47s-.54-.21-.78-.31C225.88,393.25,226.19,393.29,226.55,393.21Zm-38.92,80.25a.38.38,0,0,1,.28.11,7.64,7.64,0,0,1-.57,1.29C187.43,474.39,187.53,473.93,187.63,473.46Zm-.84,4.29a1.18,1.18,0,0,1,.44.38c.47.88-.19,1.86-1,2.73C186.41,479.81,186.59,478.78,186.79,477.75Zm-1,5.68c.83-.91,1.64-1.9,2.32-2.59.51-.54.79-1.37,1.33-1.62l.7-.07.64.44c.06.36.13.71.2,1.07-.45,1-.89,2-1.34,3a7.49,7.49,0,0,1-.69,2.21c-.14,0-2.16-.05-2.16-.05l-.54,1-1,.6C185.41,486.12,185.6,484.77,185.81,483.43Zm-.61,4.29,0,0,1,.33a7.18,7.18,0,0,1-1.3,1.53C185.05,489,185.11,488.35,185.2,487.72ZM184.14,498a2.59,2.59,0,0,0,1.38-1c-.1-.37-.2-.76-.31-1.13.08-1.33,2.34-6.23,4-7.68l2.08-.87c1.14-.81,1.34-1.58,2.59-1.53l.06.16c-.11.48-.55,2.39,0,2.66l1.17.31a23.07,23.07,0,0,1-2.16,3.68l-1.06.59c-.33-.17-1-.52-1.32-.41l-.7.46c0,.08,0,.17,0,.26l1.18.76a8.52,8.52,0,0,1-1.61,2.91c-.6.53-1.32.69-1.9,1.32l.57.61a12.32,12.32,0,0,1-2,3.28,2.2,2.2,0,0,1-1.67-.54c-.24.51-.56,1.16-.38,1.59.11.22.22.42.34.62a1.85,1.85,0,0,1-.63,1.45C183.81,503.06,184,500.53,184.14,498Zm44.16,13.43a2.76,2.76,0,0,0,.07,1.25c-.77.66-1.44,1.88-2.3,2.22-1.12.42-1.68-.39-2.79,1.16a4.11,4.11,0,0,1,.21.42l.85.36a1.18,1.18,0,0,1,0,.2c-1,1.63.3,2.69-.86,4.35a3.89,3.89,0,0,0-1.58-.81c-.44,1-.88,2-1.31,2.94l-.14-.1c-.65-.82-.41-1.8-.25-2.75-2.12-.36-3.14-2.76-4.24-4.18l1.37-.38c.17.22.35.45.52.69.45-.18.78-.17,1.18-.68-.1-.23-.22-.48-.34-.71a16.81,16.81,0,0,1,3-1.24c1.73-.85,1.69-2.2,3.86-.43.55-.64,1-1.53,1.62-1.95.36-.16.72-.32,1.09-.46A.34.34,0,0,0,228.3,511.46Zm14.34-38.08c.05.3.37.8.38,1-.21,1.08-1.26.64-1.31,1.9h.1a1.93,1.93,0,0,1,1.75-.22,1.82,1.82,0,0,0,0,1.92,2.31,2.31,0,0,1-1.46.38.25.25,0,0,0,0,.09l1.21,1.12c.44.16.86.34,1.3.51l0,.06a3,3,0,0,1-1.6,1.05c-.41,0-.6-.25-.95-.21-.07.32-.12.65-.18,1-.46,0-.83.16-1.34-.14l-.47-.67c-.43.19-.66.74-1.15,1-1.13.67-2.28.24-3.37,1.46.11.4-.26,1,.13,1.31.59-.08,1.18-.16,1.76-.22,0,.07.05.14.07.21-.13.25-.28.51-.41.77a2.87,2.87,0,0,0-1.89.5,15.07,15.07,0,0,0,2.42.4l.79-.83a31.28,31.28,0,0,0,3.12.34c0-.08,0-.17-.06-.26s0-.34,0-.51c.46-.38,1.15-.27,1.67-.51l1.26-.72-.05.08c-.06.18-.13.35-.19.52s.1.18.14.27c1.57.09,2.17-1.36,4,.2a.9.9,0,0,1-.21.08,4.84,4.84,0,0,0-2.45.19c1,.87,2.06.14,3.16.85l0,0-.64.61,1.84.27a4.11,4.11,0,0,1-2.56.62c-1.17,2-2.87,1.59-4.49,2.12l1,.44c-.78.55-1.39.42-2.14,1.5,1.41.73,3-.65,4.25-1.14a6.49,6.49,0,0,1,4.4-.27c-1.23.91-2.48,1.81-3.72,2.71-.71.62-1,1.36-1.71,1.69l-1.31.15-.71.77-.62.28c-.25.16-.45.53-.49.54-.87.25-1.3,1.13-2.27.92a2.89,2.89,0,0,0-.27-1.22l-1.31.63c-.25.27-.51.53-.76.79a2.64,2.64,0,0,1-2.88-.05c-.74,1.12-1.4,1.13-2.18,2l.15.11c.29.08.84.24.93.48s0,.07,0,.24l-1.56,1.29c.09.44.16.88.24,1.33a11.37,11.37,0,0,1-3.14,3.22c-1-.65-1.26-1.28-.73-2.32-.15-.18-.76-.55-.82-.73a9.45,9.45,0,0,1,2.35-2.29l1.21-.15,0-.05c-.45-.29-.71-.33-1-.66a13.1,13.1,0,0,0,1-2.46c.27-.35.55-.68.83-1l-.08-.06-.21-.24a12,12,0,0,1-2.81.25c-.21-.4.25-2.39.19-3l-.57-.94c-.13-.56-.27-1.11-.4-1.66-.81-.42-3.48-.89-4-.56a7,7,0,0,1-2.46,1.34l-1.63-.2c0,.36,0,.72,0,1.08l-.51.74c-.16.56-.53,1.31-.69,1.89l0,0-1.1-.49c.35-.65.7-1.29,1.07-1.95l-.38-.32-3.21,1.15c-.2.24-.39.5-.59.75l-.63.28c-1.34-.74-1.76.16-2.86.56l-1.18.29c-.07.26-.15.52-.21.78-.4.38-1.85.89-1.9,1.4,0,.1,0,.19,0,.3l.13,0c1.12.16,2.64-2.17,4-1.91a.91.91,0,0,1,.49.33,2.64,2.64,0,0,1-.2,1c-.65,1.35-3,1.59-3.05,2.79l0,0c.58.36,1.09-.11,1.55.4-.47.24-1.7.43-1.94,1.13-.08.35-.14.68-.22,1a2.36,2.36,0,0,0-1.25.89c-.11.25-.2.49-.3.74l-2.06,2-1.47,2.13-.72.5a2.41,2.41,0,0,0-1.05-.56l-.8.77c.12.2.23.41.34.62-.77,1.54-3,3.52-4.2,2.27.44-.72,2.4-2.85,2.18-3.49-2.3.15-3.08,2.08-5,3.71-1.09-.85-1.28-1.14-.94-2.29a.94.94,0,0,0-.4-.23l-1.06.43c-3-1.85-2.73-8.81.73-11.05,0,.09.05.19.08.28-.13.68.52,4,1,4.5.23.12.47.22.71.32l1.42-.45c.89,2.23,2.93.67,4.3.54l.13.2c-.08.41-.16.81-.23,1.21l.45.31,1.47-1.72c-.34-.47-.42-1.24-1.24-1.41-.64-.11-.91.46-1.47.63l-1.29.1a2.26,2.26,0,0,1-.26-1.37,4.1,4.1,0,0,0,1-1.34h-.17l-1.09.39c-.15.18-.28.37-.43.54l-.89.33a2.6,2.6,0,0,1-1.11-.93c0-.27,0-.55,0-.81a9.89,9.89,0,0,0,1.47-2H196c-.63.31-1.27.64-1.9.94a1.31,1.31,0,0,0-.08-.21c.2-1.32.91-5.51,2.86-6.3l1.89-.12c.53,0,1.06-.1,1.59-.16.5.18,1,2,1.33,2.39l1.15.79a1.55,1.55,0,0,0,.25-2.51,2.28,2.28,0,0,1,1.25-1.34l1.12.61.7-.52c0-.07,0-.13,0-.19l-1.37-.73c-1.62-2.22.77-3.37,2.13-4.85.44-.48.45-1.19,1.08-1.41.4-.13.95.05,1.38-.09a6.45,6.45,0,0,1,1.5-.5l.26.18a3.4,3.4,0,0,0,.12,2.38l.6-.07q.17-.15.33-.33a2.31,2.31,0,0,1,.3-2.1,18,18,0,0,1,2.3.09v-.16a9.35,9.35,0,0,1-.6-2.16,11.17,11.17,0,0,1,2.42-1.59l0,0c.19.66.38,1.31.56,2,.52-.89.48-1.5,1-2.36l1,.57.89-.26c.66-1.29.42-2.89,2.33-3,.58.84-.39,1.84-.12,2.72a3.9,3.9,0,0,1,.19.35l.57-.1a6.42,6.42,0,0,0,.34-1.3c.17-.33.34-.65.52-1,0-.27-.17-.61-.14-.93a2.81,2.81,0,0,1,2.65-.59,8.65,8.65,0,0,0-1.15,2.07l.24.22c.72.13,1.44-1.18,2.07-1.55a2,2,0,0,1,1.12-.21l.06.09a7.9,7.9,0,0,1-1.1,1.51c-.33.3-1.17.48-1.39,1.13.05.13.07.27.11.41l0,0,1.38-.39.18.3c-.22.42-.46.86-.67,1.29,1.31.19,2.38-1.43,3.59-1.87.4-.14,1.1.31,1.51.28.18-1.32.69-1.06,1.49-1.84.46-.45,0-1.05.67-1.46a4.76,4.76,0,0,1,2.69-.47l-.06.08c-.15.42-.31.84-.47,1.26l.55.39c.73-1.05,1.09-2.05,1.76-2.87.19.26.38.49.59.75.7-.68,1-1.09.91-2,.71-.27,1.42-.54,2.13-.79C242.57,473.29,242.61,473.33,242.64,473.38Zm-22.93,23c.18-.43.35-.87.52-1.3a3.27,3.27,0,0,1,1.66-.89l1.5,1.09c.56.75-.15,3.34-1.45,3.78S219.64,497.27,219.71,496.36Zm-3.57-45.85c-.22.28-.53.62-.84.53a1.61,1.61,0,0,1-.26-.84.21.21,0,0,0,0-.07A1.09,1.09,0,0,1,216.14,450.51Zm14.09,5.5a1.42,1.42,0,0,1,.07-.68,1.09,1.09,0,0,0,.37-.64h-.09a1.55,1.55,0,0,1-.32.47l-.15,0,0,.05a4.11,4.11,0,0,0-.21.42l-.71.61-.44.45c-.07,0-.11,0-.16,0a2.49,2.49,0,0,1,.47-.86,6,6,0,0,0-1,.34c-.13-.13-.13-.26-.12-.47s.2-.26.31-.4c-.34-.09-.5.32-.77.25a2.54,2.54,0,0,1-.07-1.25,3.09,3.09,0,0,1,2.06-1.94,2.46,2.46,0,0,0,1.16-.43c.38-.32,1.38-1.17,1.68-.5a3.19,3.19,0,0,1,0,2c-.12.41-.39.6-.5,1s-.16.64-.23,1S230.42,456.24,230.23,456ZM396.3,560.79c.23.87-.63,2.71-1.43,3.42a3.77,3.77,0,0,1-2.49-1.82c.58-.87,2.18-3.12,2.73-3.24C395.34,559.58,396.16,560.29,396.3,560.79Zm-95.12-67.74-.91.76-.69-.37c0,.23.05.48.08.71l-.26.27-.32-.17a1.54,1.54,0,0,0-.6-1l-.74,0a1.53,1.53,0,0,1-.21.14c.42.87.22,2.29.45,3.27a2,2,0,0,1-.66.71c-.19-.07-.15,0-.25-.18.37-1.05-.17-1.71,0-2.64l-.08,0c-.27.31-.54.61-.8.92a.59.59,0,0,1,.2.59c0,.08-.07.16-.11.25h-.17l-.56-.38c-.11.21-.22.42-.33.65.4.42,0,1.22-.51,1.77l-1.78,1.94-1,1.85c-.28-.09-.67-.11-.77-.33-.45-.82.13-1.93,0-2.83l-.81.71-.1-.18c-.72-1,.17-1.18,0-2l-1.05.09a12.35,12.35,0,0,1-2.2-5.91c.19-.55.38-1.1.58-1.64l.22-.17.24.05a.79.79,0,0,1,.12.15c-.06.28-.19.67-.29,1,1.61.22,1.08,2.87,2.56,3.86.3-.76-.41-1.14-.08-1.88.27-.19.55-.39.83-.57.08.34.14.71.2,1.07l0,0,.08.06a3.18,3.18,0,0,0,2.14-1.51l-.27-.51a3.65,3.65,0,0,1,1.83-1.6c0,.13.07.27.11.4,0,.45.08.89.12,1.36a1.21,1.21,0,0,1,.18-.05,1.82,1.82,0,0,0,.95-.18,2.3,2.3,0,0,0,.3-1l.28-.19.19.13c.14.94,0,.79-.19,1.73l0,0a4.84,4.84,0,0,0,1.27.22.36.36,0,0,0,0-.1,1,1,0,0,1-.19-.62l.37-.29a.2.2,0,0,1,.11,0c.43.5.67.58,1.11-.17C300.48,491.63,300.75,492.49,301.18,493.05Zm-32.57-36h0c-.21-.26.07-.82-.08-1a.45.45,0,0,1,.14-.21c.11,0,.17,0,.25.05A2.1,2.1,0,0,1,268.61,457.09Zm-12.46-44.45a6.44,6.44,0,0,0-.5.77c-.36.52-1,1.07-1.51,1,0,0,0,0,0,0s.07.2.1.31c.3,0,1.09-.9,1.39-.54.07.08,0,.19,0,.33a0,0,0,0,1,0,0c.16-.17.28-.45.45-.53.53-.26.54.76.65,1l.26.23c.17.33-.12.92,0,1.15s.53.2.71.45,0,.52.15.71a1.05,1.05,0,0,0,.82.34l.34-.11c.2.23.13.6.28.86,0-.06,0-.05.06-.07a.69.69,0,0,1,.65.23c.1.19.21.4.32.59.23.43.55.77.77,1.19a.76.76,0,0,1,0,.87,2,2,0,0,1-.54.23c-.16.28-1,1.35-.83,1.55.32.25.74-.57,1-.36s.11.42.19.59.36.27.54.41c.21.43-.53,1-.77,1.21v0l.15-.05a2.05,2.05,0,0,1,.32,1.24l-.05.06c-.17.24-.47.08-.68.13v0a1.08,1.08,0,0,1,.09,1.22c.32-.09.52.15.75.27v0c-.14.22-.28.53-.47.59s-.31-.41-.54-.44h-.3c-.2-.14-.21-.57-.33-.8a11,11,0,0,1-.65-1,2.85,2.85,0,0,1-.85,1.36c.28,0,.65,0,.58.41l.05,0a.83.83,0,0,0,.11-.15,4.12,4.12,0,0,1,.2,1.14c0,.14-.08.49,0,.56.29.24,1.43-1.28,1.52-.1a.22.22,0,0,0-.15.22c0,.3.24.39.26.67a1.56,1.56,0,0,1-.56,1l-.27.05-.16.16a1.77,1.77,0,0,0-.53.27.06.06,0,0,0,0,0c.27,0,.56.09.83.13v0c0,.07,0,.06-.07.12-.2.27-.42.25-.67.33l0,0s0,.08,0,.11c.41.47.54.45,0,1.43h0l0,0c.31-.27.6-.76.94-.93.53-.25,1,.54,1,.89a2.5,2.5,0,0,1-.15.78c-.64.82-.92.34-1.3,1.87l.32-.21c.64.42.79-.4,1.39-.75a1.94,1.94,0,0,0,.36-.15l.43,0c.11,0,.11-.18.26-.15s.35.19.27.47c.22,0,.44-.31.65-.19,0,.38-.34.46-.48.94s-.08.75-.17,1.16-.13.51-.19.77l.87-.7c.13-.13.26-.42.39-.48l.37-.07.51-.23c.21-.11.7-.31.81,0,.05.12-.16.52-.26.69l-.52.78c-.19.23-.41.4-.6.67a1.05,1.05,0,0,0,.44-.18l.23-.35c.25-.31.7-.58.77-1.13.17.09.37.12.44.3s-.25.46-.25.61.19.26.18.43-.26.44-.34.68l0,0c.24-.06.43-.27.67-.32s.11.16.07.33c-.19.29-.39.37-.59.63,0,0,0,0,0,0,.17.17.69-.19.93-.31.06,0,0,.07.07.14s0,0,.05,0a3.45,3.45,0,0,1-1.08,1h0c.13.45.67.16,1,.13l.31.07.25,0a5.24,5.24,0,0,1-.24,1c0,.39,0,.79,0,1.18.21-.05.49.14.73.08s.57-.49.83-.66h.06a.09.09,0,0,0,0,.05c-.09.48-1,.94-1.29,1.49a4.45,4.45,0,0,0,1.74-1.28c.44.26.91,0,1.34,0a1.63,1.63,0,0,1,.07,1.5h.11c.19-.15.29-.53.42-.79l.06.3c.11.25.31.31.28.67.23,0,.66.4.67.57a.37.37,0,0,1-.07.24c-.33.17-.84.73-.66,1.15a.25.25,0,0,0,.19.21c.39,0,.69-.86,1.06-1l.05,0c-.14.79.26.34.46.78a6,6,0,0,1-.23.72l.07,0a1.37,1.37,0,0,1,.48-.41c-.19.35-.37.78-.56,1.21a1.14,1.14,0,0,0,1-.54,2.68,2.68,0,0,0,.2-.76l.25-.37c.39.26-.14,2.13-.55,3a.78.78,0,0,0,.85-.66,4.9,4.9,0,0,1,.11-.69c.22.37.63-.47,1,.09a.43.43,0,0,1,.13.26c0,.29-.32.48-.44.66s-.29.47-.45.7-.79.67-1,1.22.44.76.39,1.21l-.06.11c-.21.17-.49.09-.69.35s-.24.91-.49,1.19c-.67.06-.27-1.34-.76-1.21a.22.22,0,0,1-.05.11l-.48-.86a1.4,1.4,0,0,0,0,.54c.07.2.38.72.13,1-.51,0-.41-.53-.66-.71s-.48.18-.55.48.58.5.38,1l0,0a.94.94,0,0,0-.47.09c-.11.19-.12.38-.25.57,0-.3,0-.61,0-.91s-.19-.26-.19-.42.14-.68-.06-.81-.32.12-.45.15a.9.9,0,0,1-.46,0c0,.2,0,.42,0,.64s-.17.31-.22.47a1.52,1.52,0,0,0,0,.68,3.82,3.82,0,0,1-.32-1.3c-.1,0-.15.08-.24.1s-.38-.05-.6.1c-.14.53-.2,1.06.39.64.27.06.17.55-.09.91.31.22-.09.36-.17.69s-.05.5-.07.75-.32.4-.44.61h0v0s0,0,0,0c-.09.2,0,.27,0,.4s-.11.35-.17.53h0c0,.11.11.15.18.19a3.7,3.7,0,0,1-1.12,1.63c.17-.4.3-.94.12-1.07s-.44-.06-.65-.15-.08.07-.13.11a1.46,1.46,0,0,0,0,.84.68.68,0,0,1-.09.14c-.41.13-.27-.62-.63-.56s-1,1.15-1.43,1.37c.18-.42.33-.83.2-1h0c-.51.46-.21.53-.28.87,0,.15-.16.12-.2.29a1.48,1.48,0,0,1,0,.21,1.16,1.16,0,0,1-.9,1c0-.26,0-.48.11-.77-.17,0-.28.17-.46.15-.23-.38.1-1.15-.41-1.3-.23.61,0,1-.39,1.76-.28-.24-.21-.52-.13-1a.83.83,0,0,0,0-.34h-.1a7.35,7.35,0,0,1-.24.88c-.12.09-.22.17-.35.15s0-.1-.09-.13a1.57,1.57,0,0,0,.12-.66,1.35,1.35,0,0,0-.49-.07l-.7.83-.6.88c-.38.35-.85.33-1-.05s-.42-1-.64-1.52c-.07-.19-.11-.5-.27-.6l-.15.12c-.06.63.27,1,0,1.76h0c-.22,0-.27-.42-.37-.56a.08.08,0,0,0,0,0c-.2.28-.18.56-.44.8-.62.07-.19-.73-.45-1s-.76-.11-1,.31-.21.84-.49,1.16h-.06c-.05-.64-.11-1.28-.17-1.92a5.87,5.87,0,0,0-.35.9c-.09.43,0,.92-.39,1.31-.46-.16-.53-.38-1-.1l0-.05c.11-.28.27-.55.2-.72h0a1,1,0,0,0-.11.17c-.26-.12-.5.11-.78,0a2,2,0,0,0,.35-.92c.13-.61.41-1.27.61-1.91.08-.25.22-.49.27-.67-.24,0-.47.24-.75.2,0,.11,0,.24.05.37-.13.66-.27,1.31-.41,2s-.56,1-.85,1c0-.14.15-.55.19-.76a11.22,11.22,0,0,0,.16-1.53c0-.19.12-.51,0-.63s-.47.06-.6.15a0,0,0,0,1,0,0,1.67,1.67,0,0,1,.28-1.23c.22-.2.57,0,.82,0a3.21,3.21,0,0,0,1.48-1.15h0a1.91,1.91,0,0,0-.7.18l-.51.39A2.54,2.54,0,0,1,250,458a2.49,2.49,0,0,1-.37.88.65.65,0,0,1-.77,0c-.07-.05-.1-.21-.24-.2l-.51.24s0,0,0,0a3,3,0,0,0,.54.6l.85.51.15.4,0,0a1.18,1.18,0,0,0-.76.13.49.49,0,0,1,0,.11.79.79,0,0,0,.21.55,1.51,1.51,0,0,0,.28.15,3.82,3.82,0,0,1,.31,1.29c0,.16.12.54,0,.74a.18.18,0,0,1-.13.09c-.24.06-.54-.44-.62-.57-.31-.57-1.46-.65-.93-1.83-.19,0-.46-.11-.63,0-.31.3-.32.86-.7.83l.06-.17c-.07-.2-.13-.38-.21-.57a.47.47,0,0,0-.33,0,1.46,1.46,0,0,1-.14.64c-.18.15-.37.32-.58.3-.18-.47.17-1.33,0-1.85h0l0,0,0,.08a7.43,7.43,0,0,1-.31,1.4l-.13,0c-.08-.28-.77-1-1.13-.26.18.41-.2.92-.57,1.12a.18.18,0,0,1-.07-.08,1.48,1.48,0,0,0-.06-1.28c-.24.63-.19,1-.74,1.18-.09,0-.27.09-.31,0s.08-.72.08-1a13.07,13.07,0,0,1,.26-3.07l-.19-.06a1.07,1.07,0,0,0,.08-.89c0-.08-.12-.08-.13-.16,0-.4.22-1,.07-1.32a12.59,12.59,0,0,0,1.06-2,2.27,2.27,0,0,0-.12-.69,3.19,3.19,0,0,1-.4.33,1.62,1.62,0,0,0-.19.56c-.12.27-.23.55-.35.84a7.07,7.07,0,0,0-.21.82,5.5,5.5,0,0,0-.23,1.29c.05.38.11.76.16,1.15,0,.2-.07.4-.11.6a14.91,14.91,0,0,0,0,1.9,4.89,4.89,0,0,1-.12,1.22c-.06.26-.3.46-.44.31s.06-.42,0-.47-.27.24-.35.28c-.43.18-.57-.35-.52-.69s.27-.41.42-.66c0,0,.37-1.1.36-1.14a5.73,5.73,0,0,1-1.06,1.08s0,0,0,0c.07-.66.84-1.66.85-2.26,0-.38-.47-.44-.69,0,0,.16,0,.23,0,.42a13,13,0,0,1-1,1.12h-.55c-.26.12-.41.53-.69.61l.3-.93a11,11,0,0,1,2.14-3.71c.23-.25.47-.5.7-.76-.39.08-.84.05-1.16.44l-.3.49a3.7,3.7,0,0,1-.41.37c-.09.2-.18.41-.28.6-.53.95-1.07,2.71-1.68,3.12,0-.24-.06-.48-.09-.74s.11-.44.17-.67c0-.42.11-.85.15-1.27a2.84,2.84,0,0,1,.18-1c.17-.32.5-.52.72-.8.43-.54.85-1.23,1.26-1.87-.19-.07-.33.11-.5.2-.24-.15-.13-.63-.18-.92l0,0a2.92,2.92,0,0,0-.67,1h0c.34-.08.26.41.27.66s-.15.22-.22.34c-.26.42-.3.73-.63.8-.1-.07-.08-.19-.16-.27a4.78,4.78,0,0,0-.36,1.61l-.19.61c0,.35.34,1.13-.21,1.67-.07,0-.12,0-.16,0-.09-.3-.2-.61-.3-.91s-.59-.63-.3-1.39c.19-.52.92-.92,1-1.23s-.12-.08-.2,0c-.16.23-1,1-1.09.93a.83.83,0,0,1-.07-.13.11.11,0,0,1,0-.06l1-1a7.35,7.35,0,0,0,.78-.86c.18-.33.37-.67.55-1a6.09,6.09,0,0,1,1-1.15c-.07,0-.08,0,0-.14-.35,0-1.11,1-1.46.75s0-.65-.25-.78a.8.8,0,0,0-.41.8h0a.19.19,0,0,1,.27-.07s0,0,0,0c-.09.4-.27.58-.19.89a10.74,10.74,0,0,1-.7.91l-.36.36-.31.81a8,8,0,0,1-.52.71c.29-.92-.11-1.55.15-2.38a6.36,6.36,0,0,1,.66-1,11.33,11.33,0,0,0,.46-1.28c.1-.21.31-.41.35-.65s-.18-.82-.55-.55c-.22.5-.06.69-.27,1.18l-.31-.7c0-.11-.06-.22-.1-.34l-.16-.05a6.46,6.46,0,0,1-.19-.7c.1-.38.67-1,.49-1.3l0,0s0,0,0,0l-.21.18c-.19.08-.26-.07-.43.15-.17.47,0,.49-.24,1h0c-.08-.16,0-.42-.06-.56s-.37-.13-.46-.21a2.09,2.09,0,0,1,.05-.42l-.06,0a.64.64,0,0,1-.21.22c-.18,0-.21-.18-.33-.26a1.65,1.65,0,0,0,.08-.46c-.1-.14-.3.07-.46.05s0-.28-.05-.37-.23-.25-.31-.43,0-.44-.12-.61c-.07.23-.26.29-.34.59s0,.6-.29,1.09h-.12a1.93,1.93,0,0,0,0-.24h0l-.06,0a.81.81,0,0,0-.11.77c-.09.15-.19.17-.3.29a4,4,0,0,1-1.08,1c-.53.3-1.25.4-1.71.92l-.21.33a.19.19,0,0,1,0,.13,2.72,2.72,0,0,1-1.4,1c-.16,0-.19-.19-.37-.14s-.41.37-.64.33c0-.31-.25-.9.13-1.38.22-.21.46-.4.69-.6s.34-.88.57-1.12A8.69,8.69,0,0,1,229,449.5a3.88,3.88,0,0,0,1.05-.54,7.54,7.54,0,0,0,1-1.27.57.57,0,0,0-.22-.58l-.09.09a1.46,1.46,0,0,0-.16.36,1,1,0,0,1-.66.68l-.05,0a.38.38,0,0,0,0-.1c.08-.28.31-.44.4-.73l0,0c-.28-.32-.73.79-1.08.52.15-.42.46-.64.37-1-.55-.13-1.51,1.62-1.95,1.28l.06-.09,0,0c.21-.23,1.22-.81.92-1.27-.25,0-.58.26-.79.52-.07.08-.12.19-.19.23-.4.19-.36-.31-.55-.29s-.13,1.49-.6,1.78c0-.17-.08-.36-.11-.54s0-.32,0-.48c0-.42.13-.83.18-1.3h0a2.73,2.73,0,0,0-.42.72c-.08.33.13.91-.4,1.15h-.41a12.39,12.39,0,0,0,.59-1.89l-.15-.27a5.29,5.29,0,0,1-.58,1.62c-.12.14-.25.27-.38.41s-.31.39-.54.32a1.14,1.14,0,0,0-.43-1.08.93.93,0,0,0,0,1.07.49.49,0,0,1-.06.13h0c-.12,0-.18-.19-.29-.09l0,.08c.25.23,0,.61,0,1a1.26,1.26,0,0,1,.78,1.29c-.1.72-1,1.5-1.41,1.83-.15.13-.33.39-.5.42s-.27-.16-.36-.23-.33.17-.44,0c0-.33.3-.85.37-1.23a4.46,4.46,0,0,0,0-1c0-.26.1-.57-.11-.68,0,0-.11,0-.14.15s0,.28,0,.43a2.06,2.06,0,0,1-.85,1.23c-.24-.35,0-1.33-.12-1.8a.38.38,0,0,0-.5-.3c-.41.2-.66.95-1.12,1.08,0,0,0,0,0,0,.19-.5.5-.63.75-.95l.4-.61c.11-.14.35-.51.3-.64l-.26-.18c-.41-.25-.81-.21-1.14.36-.4-.11-.32-.49-.67-.63,0,.06,0,0-.08.05s-.08.2-.13.31l-.48.38c-.1.09-.26.37-.37.41-.16-.26-.08-.63-.12-1,0-.16-.13-.25-.2-.37s-.05-.49-.24-.31l-.52.31-.6.13-.27.11c-.26.07-.34-.25-.25-.48l.27-.32,0-.08c-.15,0-.29.1-.43.14-.38.11-1.28.33-1.44-.09a10.28,10.28,0,0,1-.71,1.52l0,0c.13-.6.1-1.18.18-1.75l-.2,0c0-.17.13-.52.07-.67-.16-.32-1.08.4-1.31.53a1.73,1.73,0,0,0-1.53-.13c-.25.1-.55.42-.79.45l-.43-.05a3.45,3.45,0,0,1-1.68-.16,4,4,0,0,0-1-.52l-.33.57c-.15.14-.36,0-.52.09s-.55.53-.88.57-.5-.18-.75-.12-.7.72-1.06.92c-.13.08-.31.11-.41.29a1.71,1.71,0,0,0-.16.77l-.07,0a.56.56,0,0,0-.94.1c-.07.41.18,1.12,0,1.44a1.47,1.47,0,0,1-.64-.08s0,.09,0,.13a1.08,1.08,0,0,1,0,.93c-.17.28-.4.24-.51.66,0,.11.21.28.14.48-.57.26-.38-.6-.86-.62a.89.89,0,0,0-.13,1.24,0,0,0,0,0,0,0l-.11,0-.18.16c-.21.09-.39,0-.58.13a.35.35,0,0,0,0,.11c-.07.53.33.21.46.41a2.6,2.6,0,0,1-2.48,1.61l-.7,0c-.09-.14,0-.46.18-.76a.45.45,0,0,0,.11,0,3.26,3.26,0,0,0,.15-.7c.09-.31.19-.63.29-.95,0,0-.05,0-.07.05a4.82,4.82,0,0,1-1.51,1.25c-.37.2-.57-.08-.51-.46H194c-.14.29,0,.38-.13.65s-.74.63-.88.27,0-.46,0-.69a1.07,1.07,0,0,1,.08-.72c.18-.19.35-.4.53-.59.49-.52.94-1.06,1.42-1.56a3.25,3.25,0,0,0,.79-.88h0a1.17,1.17,0,0,0-.62.27c-.28.29-.61,1-.95.91a.17.17,0,0,1,0-.17c0-.68,1.25-1.78,1.54-2,.14-.13.4-.2.48-.41-.77-.08-.14-.43-.24-1a1.22,1.22,0,0,0-1,.26c-.06.17,0,.24,0,.36s-.1.41-.16.63c-.14.46-.6.84-.85,1.26-.14.23-.31.75-.35.79l-.22.1a189.74,189.74,0,0,1,23.77-47.62c2.19-3.19,4.48-6.29,6.83-9.3a2.33,2.33,0,0,1-.2.82h.08a4.1,4.1,0,0,0,.41-.26h0c.28,0,.27.51.4.68s.21.14.27.26c-.13.44-.65.59-.9.89v.15l0,.07c.32-.13.78.06,1-.1s.36-.64.58-.75a.11.11,0,0,0,.12,0c.24-.49.55-.44.89-.47l0,0c.09-.31-.07-.46,0-.72s.32-.53.44-.78a2.47,2.47,0,0,0,.11-.61,1.14,1.14,0,0,1,.61-.59c.2-.07.3.13.31.28,0,.33-.15.78-.17,1.15a3,3,0,0,1,0,1.13h0a5.07,5.07,0,0,0,.29-.95,2.18,2.18,0,0,1,.17-.73l.32-.41c.27-.44.46-1,.77-1.17s.31.14.5.07c.46-.17.91-.59,1.43-.58a.54.54,0,0,1,.44.83c-.17.15-.38.12-.55.26-.33.26-.22.69-.24,1a3,3,0,0,1-.87.84,5.5,5.5,0,0,0-.93,1.24h0c.16-.13.45-.49.63-.46a.69.69,0,0,1-.07.59c.36-.22.58-.8.9-1.26a7.06,7.06,0,0,1,.55-.64,2,2,0,0,1,.29-.33h0a2.47,2.47,0,0,0,.19.89c0,.09.11.18.16.28l0,.08c-.2.25-.85.82-.78,1.19.32-.57.94-.77,1.17-1.49-.11-.51-.6-.4-.18-1.35a5,5,0,0,0,1-.06c.22,0,.46.31.61.43,0-.22,0-.39,0-.59.1-.57.21-1.15.31-1.73s.81-.91,1-.79c.43.2.49.7.41,1.29,0,.11,0,.22-.07.33-.17.32-.47.35-.66.67-.38.62-.11,1.11-.41,1.61s-.47.49-.68.76h0c.32,0,1-.51,1.18-.17,0,.16-.09.35,0,.41s.22-.4.31-.45c.32-.1.45.36.67.47v0l.65-1h0c-.12,0-.2.09-.32.05-.31-.46.63-1.37.9-1.71a5.08,5.08,0,0,1,.45-.61c.2-.18,1.66-.37,1.68,0a3.76,3.76,0,0,1-.31,1.1,1.61,1.61,0,0,0-.18.28,3.7,3.7,0,0,1,.71,1.43l-.38.55a11.54,11.54,0,0,1-.83,1.34,3.43,3.43,0,0,1-.92.53.05.05,0,0,1-.05,0c-.1-.35.61-1.24.75-1.48s0-.49-.16-.58a1.29,1.29,0,0,1,0,.33,1,1,0,0,1-.22.37c-.07.14-.12.27-.19.39-.36.61-.8,1.75-.34,1.9a.59.59,0,0,1,.32-.05,11,11,0,0,1-.79,1.09,1.68,1.68,0,0,0,.82-.62l0,0a3.53,3.53,0,0,0-.06,1.15l.2.17a1.33,1.33,0,0,1,.28,1.08c-.32.11-.58.83-.73,1.29h0l0,0c.13-.1.4-.49.57-.36s-.46,1.63.52,1.24a.71.71,0,0,0,.3-.22c-.47-.27-.42-.6-.4-1.21,0-.19,0-.37,0-.56s.19-.38.17-.66a16.32,16.32,0,0,1,1.22-1.26s0,.09,0,.14c0,.53.37,1,.33,1.46,0,.29-.45.69-.37,1h0c.22-.53.65-.74,1-.62a.5.5,0,0,1,.05-.13,2.34,2.34,0,0,1-.39-.64c0-.17,0-.33-.07-.5a.66.66,0,0,1,0-.63c.18-.3.49-.33.71-.52s.47-.57.71-.54.39.72.38.89-.11.35-.06.46c.21.24.83-.09,1-.19v-.07c-.08-.22-.17-.43-.25-.65a4.83,4.83,0,0,0-.44-.64,7.12,7.12,0,0,1,1.07-1.5c.78-.06.68-.3,1.25-1.2a4.34,4.34,0,0,0,.5-.74s0,0,.09,0a.5.5,0,0,1,.08-.2s.06,0,.08-.08.18.17.34.18c.29-.43.33-.55.67-.32l.15-.15c0-.28-.23-.52-.09-.88a1.75,1.75,0,0,0,.92.32,1.33,1.33,0,0,1,.55.25l.13-.07s0,0,0,0a6.56,6.56,0,0,1-.73-.83l0,0c.83-.73,1.05-.43,1.86-.15l0,0c0-.1.09-.2.14-.3a1.13,1.13,0,0,1,.25.29c.23-.78.48-.25.73-.1a1,1,0,0,1,.18-.31c.13,0,.25,0,.37-.12l.06.14c.35-.07.9-.64,1.11-.18a.72.72,0,0,1,.08.4,1,1,0,0,1-.31.54,4.58,4.58,0,0,1-1.76.7v0c.44.36,1.17-.25,1.41,0,.08.09.06.22.06.37a2.57,2.57,0,0,1-.84,1.77,3.18,3.18,0,0,1-1.21.89h-.57c-.14,0-.15.13-.26.23s-.35,0-.52.06-.28.2-.43.31a5.18,5.18,0,0,0-1,.63c-.08.25.06.31,0,.58a10.67,10.67,0,0,0-1.3,1.37,9.86,9.86,0,0,0-.57,2,24.13,24.13,0,0,0-2.22,1.69,5.12,5.12,0,0,1-.65,1,1.6,1.6,0,0,0-.37.4,1.4,1.4,0,0,0,1.11-.6c.06-.19.13-.37.18-.55.19-.34,1-1.12,1.22-.91s0,.78.12,1h0a2,2,0,0,1,.21-.91c.19-.24.46-.29.63-.57-.28-.45.18-.78.4-1.43s-.06-.79.52-1.36a1.11,1.11,0,0,1,.4-.3c.14,0,.51-.05.59,0a4.66,4.66,0,0,1,.54,1.75,5.62,5.62,0,0,1-.23,1c.06,0,.07.1.06.19l-.8,2.13c.28-.16.5-.49.79-.56,1-.22.57,2.12,1.18,2.16l0,0,.06-.12a2.09,2.09,0,0,1,0-1.29c.11-.09.23,0,.36-.08a6.12,6.12,0,0,0,.49-2.2c.1-.27.18-.54.27-.82s-.06-.21.05-.48c.11-.1.4-.22.49,0a7.71,7.71,0,0,1-.2,1.26c0,.42.51.6.45,1.13a1.75,1.75,0,0,1-.23.5,1.22,1.22,0,0,0-.19.91c0,.1.06.18.18.15.19-.35.14-.88.46-1.06l0,0a12.41,12.41,0,0,0,.57-1.16c.08-.44-.2-.66-.23-1a5.77,5.77,0,0,0-.26-1.07,7.73,7.73,0,0,1-.28-1.92h0a3.13,3.13,0,0,1,.43,0,6.09,6.09,0,0,0,.76-1.81,5.7,5.7,0,0,1,.64-1,6.63,6.63,0,0,0,.58-1.51,5.7,5.7,0,0,0,.1-1.28c0-.21-.15-.29-.09-.58l.81.34-.25.23c0,.36,0,1,.26,1.1.14-.1.35-.24.48-.15a.16.16,0,0,1,0,.12,2.67,2.67,0,0,1-.35.61h0l0,0a.28.28,0,0,0,.22-.19c.13.49-.51,2.19.33,2l.75-.34h0a1.29,1.29,0,0,0-.23,1c.23.07.4-.11.62-.17.22.27-.2.8-.14,1.17a.46.46,0,0,1,.58-.16c.05.29-.16.76,0,.94a.76.76,0,0,1,.75.13c0,.13-.07.22,0,.29l.21.06a1.08,1.08,0,0,0-.1.79.64.64,0,0,0,.24,0c.33,0,0,.37,0,.59,0,.07.07.1.06.17a1.14,1.14,0,0,1-.15.23c.27.15.27,1.13.22,1.54,0,.22.11.31.09.52s-.1.49-.16.73c-.05.4,0,.76,0,1.15s-.21.65-.31,1,.51.33.34.86-.63.57-.9.65a.71.71,0,0,1,0,.15c.29.27.74,0,1.05.21a1.05,1.05,0,0,1-.27.82c-.62.06-.33.15-.73.66.29-.05.68-.51.95-.34a2.79,2.79,0,0,1-.5,1.3C256.68,412.35,256.39,412.4,256.15,412.64ZM232.28,449.3c.53-.13.84.66.85,1l-.12.12C232.06,450.63,232.41,449.91,232.28,449.3Zm-7.21,1.92a1.23,1.23,0,0,1-.17-.58l0-.08c.35,0,1,0,1.06.4C225.56,451.4,225.32,451.74,225.07,451.22Zm-1-1.79.05,0c.28-.37,1-.7.72.05A.43.43,0,0,1,224.1,449.43Zm12.09-56c0,.19.09.37.12.58a2.77,2.77,0,0,1,0,.64,1.74,1.74,0,0,1-1.12,1.18c-.38-.19-.27-.82-.23-1.34C235.3,393.74,235.77,393.8,236.19,393.46Zm13.24,7.08c-.06.43.21.58.17,1a.54.54,0,0,1-.3.34s0,.07,0,.1c0,.28.06.53.1.79s-.13.42-.19.63,0,.21.05.32a2.87,2.87,0,0,1-.07.85,3.39,3.39,0,0,1-.42,1c-.09,0-.38-.62-.46-.74s-.58-.5-.6-.84.14-.81.22-1.22-.15-1.11-.22-1.67l.05-.1C248.08,400.89,249.2,400.24,249.43,400.54Zm29.64,12.4a7.19,7.19,0,0,1-1.71,1.53l-1.18.44c-.95.65-1.77,3.24-2.91,3.33-.2-.95.2-1.63-.2-2.66a2.1,2.1,0,0,1-1.84.92c-.27.6-.67,1.87-1.2,2.22h-.32l-.09-.12c-.36-.7,1.24-2.83,1.2-3.79a4,4,0,0,1-.26-.35l-.43-.18a6.88,6.88,0,0,0-1.42,1.12c-.87.91-.47,2.68-1.87,2.61a.56.56,0,0,1-.43-.25,9.42,9.42,0,0,1,.76-1.73l-.19,0-.91,0c-.71-1.2,1.28-.73,1.28-1.93l0,0a1.82,1.82,0,0,0-1.16.08.35.35,0,0,0,0-.13c0-.15-.08-.3-.11-.45.87-.72,2-1.92,3.09-1.47.53.24.47,1,.81,1.06h1.27c-.05-.3-.1-.6-.14-.91,0-.49.35-.86.24-1.32-.5-.32-1.13-.57-1.31-1,0-.14,0-.28,0-.43l0,0a3.24,3.24,0,0,0,1.95-.2c0-.12.07-.24.1-.37l0,0-.72-.23c0-.6.11-1.25.64-1.41a1.57,1.57,0,0,0,1.49-.64,2,2,0,0,0-1-.32c.82-.94,1.81-1.82,1.8-2.95l-.93-.64a2.25,2.25,0,0,1,.87-.87c1.05.19,1.36-.58,2.27-1.14.12,0,.24,0,.36,0a1.48,1.48,0,0,0,.73.62l.63-.29c.42-.3.69-1.11,1.13-1.15.75,0,1.64.94,1.91,1.47l-.5,1.26c.14.13.29.23.43.35a1.23,1.23,0,0,1-.39,2,10.43,10.43,0,0,1-.14,3.09c-.33.65-.67,1.29-1,1.95S280.41,411.55,279.07,412.94Zm153.12,36.62a2.07,2.07,0,0,0-.24.17l-.33-.24c.09-.32-.19-.66-.28-.95a.69.69,0,0,1,.61-.25C431.9,448.79,432.46,449,432.19,449.56Zm82-49a3.18,3.18,0,0,1-1.44,0,.3.3,0,0,0,0,.13,2.35,2.35,0,0,0,0,.26,3.27,3.27,0,0,0,2,.58c.55.57.46,1.36.91,1.89s1.23.76,1.68,1.32l6.71,8.52c.81,1,3,3.15,2.91,4.25-.23.45-.48.9-.7,1.34-.3.8.06,1.34-.45,2.17-1.06,0-1.59,1.16-2.62,1.16-.3,0-.45-.28-.83-.39s-1,.32-1.67-.44l-.7-.82-2.36-.25a3.71,3.71,0,0,1-1.46-1.77c0-.19.1-.37.15-.56-.09-.48-1.61-3.24-2.41-3.52-.35,0-.7.07-1.06.09-.12-.22-.26-.43-.37-.65a4.64,4.64,0,0,1-2.77-.86c-.57-.87-.42-1.49-1.68-2.36.17-.26.35-.53.51-.8,0-.23,0-.46,0-.68s.47-.27.51-.59-.08-.35-.13-.53c.11-.69.74-.69.92-1.18l-.5-.23c0-.39,0-.78.05-1.17.21-.18.33-.13.37-.3s0-.21,0-.33a1.28,1.28,0,0,1-.57-.06l-.09-.89,0,0c.21,0,.25.06.42-.15-.05-.24-.12-.48-.16-.72-.32-.06-.51,0-.77-.15l-.06-.08a1,1,0,0,0,.19-.59c0-.06-.1-.13-.14-.2a2.5,2.5,0,0,1-1.12-.45,3.65,3.65,0,0,1,.27-.3c.28.05.43.08.65-.1-.26-.37-.14-.61-.18-1-.06-.7-.84-1.26-1.46-1.61-.05-.62-.15-.62.43-.8.56.1.86-.3,1.35-.28.93,0,2.72,1.29,3.75,1.58l1.26.17C514,399.41,514.2,400.25,514.23,400.57Zm-44.79-33.26c.34.22.26.72.45,1l1.44,1.16c.35.71.7,1.44,1.06,2.15l.18,1.24c.17.09.35.19.52.3.39.9.79,1.83,1.19,2.73.24.27.48.52.73.78,1.1,1.7,1.31,4,1.9,5.87.26.93.52,1.84.8,2.75.14,2.09-.19,4.33,0,6.42.53,2.17,1.07,4.35,1.62,6.51a.58.58,0,0,1,.54.43c-.11.5-.05.89-.49,1.32.88.63.51,1.17.43,1.94,1.27,1,.79,1.77,1.42,2.57.29.36.66.27.87.82.09.25-.12.49-.06.73a5.79,5.79,0,0,0,2.23,2.41c.69.17,1.42-.23,2.07-.28a5.53,5.53,0,0,1,.91,1.4c.22,0,.35-.15.59-.14a5.25,5.25,0,0,0,3.53,1.82c1,0,1.56-.67,2.64-.48l.62,1.18a8.49,8.49,0,0,1,2.54,1.26c.23.24.27.55.46.7.88-.1,1.77.79,2.81,1.33l.47-.28.21.1a4,4,0,0,1,.43,1.12,1.18,1.18,0,0,1,.5.17,14.49,14.49,0,0,1,1,3.53c0,1.65-.79,3.26-.87,5-.09,1.4.64,2.64.77,4,0,1,.05,2.09.09,3.14l1.19.82a1.29,1.29,0,0,1,1.28-.11,4.33,4.33,0,0,0,2.39,1.25,1.28,1.28,0,0,0,.19-.52,10.26,10.26,0,0,1,2.2,1.68l.41.61.08.11c.24.07.27-.28.67-.09,1.11,1.73-.1,3.32-.3,5.3a6.3,6.3,0,0,0,.4,2.36l.21,0a1.15,1.15,0,0,0,.82-.26,6.42,6.42,0,0,1,2.56,2.53c.07.27-.19.52,0,.78s.72.16.94.49c.46.67.15,2.1.52,3a32.67,32.67,0,0,1,2.57,10.58c.09.76.17,1.54.27,2.31s-1.28,2.15-1.22,2.64c.1.16.29.33.33.48-.32.3-.61.58-.93.86a2.12,2.12,0,0,1,.22,1c-.5.38-1.6.59-1.89,1.45,0,.28,0,.55-.07.83-.47.67-1.14.78-1.34,1.94,0,.31.11.61.15.93-.13.81-1.15,1.29-1.4,2.11-.19.57.1,1.09.13,1.63a2.27,2.27,0,0,1-1.19.61,3.08,3.08,0,0,0-.71-.16,5.71,5.71,0,0,0-.37.63,3.81,3.81,0,0,0-.57-.06.49.49,0,0,0-.12.34c0,.1.11.19.17.3l-.11.08a1.55,1.55,0,0,0-.31.07c-.22-.31-.43-.6-.66-.9-.47,0-2.23.05-2.31-.23s.14-.42.23-.66c-1.45-1.57-3.22-1.31-4.67-1.45-1.64-.15-3.23-.89-4.83-1-1.24.16-2.49.3-3.73.45-.75-.21-1.49-.44-2.23-.64-.19-.12-.19-.43-.52-.53s-1.09,0-1.6-.33-.53-.76-1.09-1l-1.25-.26-2.82-1.17c-.31-1.66-3-1-4.18-1.12l-5.12-.72a9.21,9.21,0,0,1-2.77,0c-1.25-.43-2.68-1.74-3.86-2.55-.07-1.61-2.32-2.71-3.25-4.16-.06-.3-.12-.6-.19-.91s-.33-.52-.5-.78c.05-.22.11-.44.17-.65,0-.67-.82-1.66-1.39-2.22l-1.85-1.06c-.94-.27-3.58.41-3.23-1.45-1.06-1-1.83-.55-2.84-.75l-1.24-.52h-1.65c-.82-.06-1.18-.72-1.69-.82a11.89,11.89,0,0,0-2-.22l-3.18.71a5,5,0,0,0-2.06.35c0-.12-.09-.25-.14-.37-.38,0-.32.26-.7.46h-1.59l0-.09c0-.18,0-.37,0-.55-.49,0-.51.31-.87.39a4.66,4.66,0,0,1-1.13-.12,2.54,2.54,0,0,0-.95-2.3c.19-.2.36-.41.53-.62l0,0-1.33.34c.15-.45-.15-.8-.66-1.12l-.39.39a.52.52,0,0,1-.08-.11,3.83,3.83,0,0,0-.92-1.94l-.66-.24c-.21-.24-.42-.46-.62-.7a13.59,13.59,0,0,0-1.83-.38c0-.18,0-.34,0-.51l-.13,0H432c-.89,1.36-.88.74-1.87.65a1.61,1.61,0,0,0-1,.83.71.71,0,0,1,.42.18,4.42,4.42,0,0,1-1.35,2,2.41,2.41,0,0,1-3.3,2.34l-.42-.61-.22,0c-.09.12-.21.25-.32.38l-.62-.05a7.22,7.22,0,0,0-2.53,1.11c-.09.32.07.49,0,.73l-2.25,4c-.16.52.25.81.27,1.28-.32.54-.61,1.09-.92,1.63-.29,1.58-.56,3.17-.85,4.75a11.24,11.24,0,0,0-2.12,1c0,.11.06.23.1.34-.13.47-.81.83-1.07,1.08a7.4,7.4,0,0,0-1.5,2.49l-.77,2.22c-.09.81-.19,1.63-.29,2.44-.18.53-2.14,1.34-2.58,1.58a26.25,26.25,0,0,1-4.05,1.33c-.58.31-1.14.61-1.72.9a8.31,8.31,0,0,0-2.61,1c-.26-.23-.31-.31-.59-.34a2.58,2.58,0,0,1-2.25.7l.05-.07c0-.22,0-.43-.06-.64l-.17-.07a.6.6,0,0,1-.41.27l-.55-.38c-.55-.19-1,.23-1.5.17l-.64-.27a4.55,4.55,0,0,1-2.05.89.91.91,0,0,0-.55-.37,1.12,1.12,0,0,1-.67.57c-.16-.13-.19-.2-.37-.19s-.47.34-.68.42c-.57-.25-.53-.69-.65-1.12-.55.07-.68.75-.86,1.17l-1,.44-.31-.1c-.8.31-.06.47-1.17.41-.41-.48-1.19-.68-1.4-1.24l.16-.39a.91.91,0,0,0-.5-.23c-.59.33-1.73-.46-2.9.3l-.06-.09a4,4,0,0,0-1-3.06l-1.09-1c-1.09-1.36-2.7-3.66-4.73-3-.42-1.12-2.36-2.36-3.26-1.26,0,.16.08.32.11.47a4.61,4.61,0,0,1-2-1.94l-.33-1.44c-.61-.95-1.2-1.93-1.79-2.89-.25-.7,0-1.72-.42-2.37l-.75-.57a6.67,6.67,0,0,1-1.32-2c-.23-.64.21-1.45,0-2.1-.25-.8-1.53-1.87-1.41-2.73s.65-1.42.79-2.1a13.15,13.15,0,0,0-.5-5.34c-.74-1.91-2.27-1-3.16-2.22-.34-.52-.32-1.25-.6-1.75s-.8-.51-1-.88a8,8,0,0,1-.42-2.44c0-1.36.79-2.64.35-3.93-.3-.89-2.1-3-2.13-3.62,0-.24.08-.49.12-.73.89-.16,1.75,0,2.55-.67s1.51-3,1.55-3.05c.65.15,1.51-.59,1.81-1.51s-.23-1.11-.25-1.81a11.12,11.12,0,0,1,.47-1.78.8.8,0,0,0,.57-.37,7.55,7.55,0,0,1-.18-2.43c.19-.91,1.08-1.75,1.48-2.72.07-.35.13-.71.2-1.08s.61-.31.75-.85c0-.31.07-.62.09-.94.5-1.37,1.93-1.51,2.41-2.69a5.14,5.14,0,0,0,.25-2.12c.4-.3.83-.32,1.2-.72.05-.4-.11-.68.1-1.09.47-.35,1-.31,1.12-.43,1-.79.6-2.51.78-3.21.09-.18.19-.37.28-.57l1-.57a2.07,2.07,0,0,0,.89.29c.05-.06.11-.1.17-.16l.09-1.58c1.25.84.32,3.2,2.82,2l.87.33c.5.32.71,2.78.85,3.39a2.51,2.51,0,0,0,2-.35c.14-.35.07-.47.35-.81l.69.26c.86-.53,1.7-1.07,2.54-1.6l1.05-1.76,1-1,.78-.17c.32-.19.4-.54.77-.79.64-.46,2.14.42,3,0s2-2.13,2.85-2.7,2.29-.58,3-1.41c.28-.31.19-.81.22-1.12.27-2.52-1.71-1.24-2.51-3-.59-1.28.23-4.38,1.93-5.43.67-.4,1,.16,1.55-.09a15.48,15.48,0,0,0,1.72-1.62l.59-.86c.38-.28.9.2,1.3,0l1.28-1.86L405,382h.45c.29-.34.58-.67.85-1s1-.44,1.22-1L407.5,379a6,6,0,0,1,1.81-4c.49.16.66,0,1.08-.07.38-.81,1-.81.95-1.78,1.24-.63.85-1.27,1.25-2.05l4.25,1c.14,1.2,1.64,2,2.24,3.15-.07.19-.18.36-.38.39a10.65,10.65,0,0,1-5.38-.25,1.31,1.31,0,0,0,.13.92c1.54.7,2.89.22,4.27.36l3.2.77c1.73.07,3.61.51,5.4.53l1.52-.28.09.67a6.7,6.7,0,0,0,1.73.53c.45,0,.81-.38,1.24-.52a6.75,6.75,0,0,1,3.52.22c1.44.55,3.33,2.45,4.61,2.41.81,0,2.11-1.26,3-1.1,1.86.36,4.8,2,6.42,1.56a.3.3,0,0,1,0-.1c-.13-.15-.5-.34-.56-.56a4.22,4.22,0,0,1,1.55-.08A2,2,0,0,1,450,380c.93-.11,1.86-.25,2.8-.38.23-.12.34-.48.58-.53.53-.13,1.31.29,1.47.25.95-.2,2.11-1.36,3.13-.72a7.62,7.62,0,0,1-.19,2.13l.07.05.09-.05c.31-.33.54-.81.84-1.06a11.32,11.32,0,0,0,3.08-.24l.73-1.06.39-2.09c.33-.74,1-.53,1.2-1.26l.06-1.83.05-.08c.27-.33.55-.64.83-1s-.06-1,.37-1.43a2.92,2.92,0,0,0,.93-1,7.19,7.19,0,0,0,.34-3.13l1-.63.14,0,.49.78C468.66,367.1,469.17,367.15,469.44,367.31Z"/><path class="cls-1" d="M840.76,509v.19c0,1.86,0,3.7,0,5.56V515a519.68,519.68,0,0,1-14.44,118.33C802.11,735.5,747.75,817.15,656.26,871.55c-64.87,38.58-136.09,55.74-211,57.6-52.32,1.29-104.69.29-157,.66-9,.07-11.89-3.3-11.84-12.06.3-45.2.15-90.39.18-135.59,0-12.09,1-13,13.66-13.08,44.55-.15,89.1.12,133.64-.53,100.63-1.44,173.45-51.15,207.16-142.13,13.54-36.53,19.31-73.79,18.87-111.46v-.18h-.11c0-.93.06-1.85.08-2.78s0-1.85-.08-2.78h.11V509c.44-37.66-5.33-74.93-18.87-111.45-33.71-91-106.53-140.69-207.16-142.13-44.54-.65-89.09-.38-133.64-.53-12.67,0-13.66-1-13.66-13.08,0-45.2.12-90.4-.18-135.59-.05-8.76,2.82-12.13,11.84-12.06,52.34.37,104.71-.63,157,.66,74.87,1.86,146.09,19,211,57.6,91.49,54.4,145.85,136.05,170.06,238.26A519.66,519.66,0,0,1,840.76,509Z"/></svg>