<svg id="Layer_1" data-name="Layer 1" xmlns="http://www.w3.org/2000/svg" viewBox="0 0 256 256"><defs><style>.cls-1{fill:none;}.cls-2{fill:#101728;}</style></defs><path class="cls-1" d="M221.67,91.86c-7.21-30.47-23.41-54.8-50.68-71C151.66,9.35,130.43,4.23,108.13,3.68c-15.6-.39-31.21-.09-46.81-.2-2.68,0-3.55,1-3.52,3.6.08,13.47,0,26.94,0,40.4,0,3.61.3,3.89,4.08,3.9,13.27,0,26.56,0,39.83.16,30,.44,51.69,15.25,61.74,42.36a91.8,91.8,0,0,1,5.62,33.22v.06a7.77,7.77,0,0,1,0,.83,7.3,7.3,0,0,1,0,.81h4.47a7.3,7.3,0,0,0,0-.81c0-.3,0-.6,0-.89A92.12,92.12,0,0,0,164.16,85c-12-24.68-32.61-36.79-59.77-37.72-12.77-.42-25.58-.08-38.36-.09H62.18V7.93c.76-.06,1.59-.18,2.41-.18,13.57,0,27.14-.25,40.69.07,20.85.5,40.94,4.42,59.5,14.45,25.1,13.58,41.65,34.27,50.08,61.35a146.31,146.31,0,0,1,6.87,43.5v.06c0,.27,0,.55,0,.83s0,.54,0,.81H226c0-.54,0-1.1,0-1.64v-.06A154.58,154.58,0,0,0,221.67,91.86Z"/><path class="cls-1" d="M221.71,127.18c0,.27,0,.55,0,.83s0,.54,0,.81v.06a146.31,146.31,0,0,1-6.87,43.5c-8.43,27.08-25,47.77-50.08,61.35-18.56,10-38.65,14-59.5,14.45-13.55.32-27.12.07-40.69.07-.82,0-1.65-.12-2.41-.18V208.79H66c12.78,0,25.59.33,38.36-.09,27.16-.93,47.76-13,59.77-37.72a92.12,92.12,0,0,0,9.42-42.1,8.43,8.43,0,0,0,0-.87,7.63,7.63,0,0,0,0-.83h-4.47a7.63,7.63,0,0,1,0,.83,7.31,7.31,0,0,1,0,.81v.06a91.8,91.8,0,0,1-5.62,33.22c-10.05,27.11-31.75,41.92-61.74,42.36-13.27.19-26.56.11-39.83.16-3.78,0-4.08.29-4.08,3.9,0,13.46,0,26.93,0,40.4,0,2.61.84,3.62,3.52,3.6,15.6-.11,31.21.19,46.81-.2,22.3-.55,43.53-5.67,62.86-17.17,27.27-16.21,43.47-40.54,50.68-71a154.58,154.58,0,0,0,4.3-35.26v-.06c0-.54,0-1.1,0-1.64Z"/><path class="cls-2" d="M226,127.12v.06c0,.54,0,1.1,0,1.64v.06a154.58,154.58,0,0,1-4.3,35.26c-7.21,30.47-23.41,54.8-50.68,71-19.33,11.5-40.56,16.62-62.86,17.17-15.6.39-31.21.09-46.81.2-2.68,0-3.55-1-3.52-3.6.08-13.47,0-26.94,0-40.4,0-3.61.3-3.89,4.08-3.9,13.27-.05,26.56,0,39.83-.16,30-.44,51.69-15.25,61.74-42.36a91.8,91.8,0,0,0,5.62-33.22v-.06h0a7.3,7.3,0,0,0,0-.81,7.63,7.63,0,0,0,0-.83h0v-.06a91.8,91.8,0,0,0-5.62-33.22C153.44,66.79,131.74,52,101.75,51.54c-13.27-.19-26.56-.11-39.83-.16-3.78,0-4.08-.29-4.08-3.9,0-13.46,0-26.93,0-40.4,0-2.61.84-3.62,3.52-3.6,15.6.11,31.21-.19,46.81.2,22.3.55,43.53,5.67,62.86,17.16,27.27,16.22,43.47,40.55,50.68,71A154.58,154.58,0,0,1,226,127.12Z"/><path class="cls-2" d="M112.84,78.09l.48.36c-.18.29-.3.58-.14.81,0,.08.14.12.14.21s-.2.32-.24.54.2.3.31.49,0,.12,0,.19l-.3.33c-.07.26-.14.52-.22.78a1,1,0,0,0,.05.58c.09.14.19.17.18.32,0,.55-.4,1.09-.46,1.67,0,.15.12.29.1.45s-.2.26-.24.43,0,.53-.12.8-.27.34-.34.54,0,.32,0,.47c0,.43-.29,1-.76.9l-.38-.26a6.71,6.71,0,0,1-1.07-.31c-.11,0-.12-.15-.18-.21l-.4-.19a2.17,2.17,0,0,0-.88,0l-.26.09-1.27-.19c-.25,0-.47.27-.72.27h-.56c-.32-.08-.56-.42-.86-.46l-.86-.09c-.29.06-.52.27-.83.27-.27-.3-.61-.21-.92-.2s-.77,0-1.19-.06l-.48,0c0,.06-.09.13-.14.18-.2-.16-.38-.45-.6-.65-.06,0-.07,0-.11,0L98.34,86a1.39,1.39,0,0,0-.38-.7l-.19-.2a5.37,5.37,0,0,1-.65-1.23c-.3-.06-.36-.28-.67-.26a1.08,1.08,0,0,0-.19-.3l-.22,0c0-.12,0-.24,0-.36l-.08,0h-.13l0,.05a2.27,2.27,0,0,1,0,.35c-.16.17-.3.17-.47.41,0,.18,0,.31.1.48a1.53,1.53,0,0,1-.38.72c-.16.13-.37.08-.55.15a1.26,1.26,0,0,0-.61.58l.33.34a.43.43,0,0,0,0,.07c-.16.07-.21.36-.39.5l-.4-.08c0,.08,0,.15,0,.18s-.17,0-.26.19a1.06,1.06,0,0,0,0,.19s0,0,0,0L93,87s0-.07,0-.12h0l-.27.33-.09,0a1.49,1.49,0,0,1,0-.18l0,0-.24.1c-.1,0-.18-.12-.29-.18-.15.13-.24.13-.39.3l-.08,0L91.47,87c.08,0,.15,0,.19-.1s0-.12-.09-.12-.14,0-.17,0a.38.38,0,0,0,0-.21h-.06l-.07.1c-.07-.06,0-.09-.1-.09a.15.15,0,0,0-.15,0,.57.57,0,0,1,0-.14.3.3,0,0,0,0-.16h0c-.08.17-.16.34-.25.51-.1-.08-.18-.19-.29-.29.07-.14,0-.09,0-.2a1,1,0,0,1,.14-.56c.12,0,.23-.08.27-.22l0,0-.08,0s0,0,0,0a.27.27,0,0,1,.12-.14l0,.1a3.63,3.63,0,0,1,.41-.59.14.14,0,0,0,0-.06l0,0-.13.11s0,0-.06-.1a2.35,2.35,0,0,0,.29-.53h0l-.18.29c-.09,0-.16,0-.25,0l-.09-.16c.13-.15.26-.3.38-.46a.42.42,0,0,0,0-.12c.17-.18.37-.21.4-.54l-.09-.05a11,11,0,0,1,.22-1.18c.17-.44.58-.54.59-1,.16,0,.27.09.4,0s.12-.29.19-.32.24.06.4,0c.07-.31.29-.23.49-.43a2.77,2.77,0,0,0,.52-.62c0-.11.07-.22.1-.33s.36-.29.46-.55c.19-.48.22-.9-.38-1.11l-.34-.11c-.27,0-.57.32-.82.41L93.21,78c-.07.12-.32.12-.45.15a2.9,2.9,0,0,0-.7.24l-.22.19a2.93,2.93,0,0,0-.29,0,.27.27,0,0,1-.07.18,4.9,4.9,0,0,1-.54,0,2.56,2.56,0,0,0,.17-.43c-.17-.13-.19-.28-.3-.43a.48.48,0,0,0,.12-.28,1.47,1.47,0,0,0-.55.12l0-.08a1.48,1.48,0,0,0,.23-.9l-.15,0-.24.55s0,0,0,0L90,77.8A1.6,1.6,0,0,1,90,78l-.33.74c0,.09,0,.15,0,.26s0,0,0,.08l-.12,0v0a.58.58,0,0,1,.13.3,2.64,2.64,0,0,0-.34.55h0a1.06,1.06,0,0,1,.93-.23c.16-.14.14-.32.22-.46l.27-.3a.68.68,0,0,1,.12.24c0,.08-.07.16-.1.23s-.16.07-.2.2a2.64,2.64,0,0,0,0,.28c-.06.09-.11.19-.16.28-.11.39.18.26-.26.7l0,0c-.32-.51-.46-.18-.77.13h-.06c0-.24.12-.6.07-.8l-.18,0c-.24.33-.35.68-.7.69l0,0,0-.2h0l-.21,0v0l0,.09c-.5.7,0,.78-.06,1.27,0,.15-.18.36,0,.43.07,0,.1,0,.18,0s.11.2.17.3c-.25.41,0,.67.33,1l.2.17s-.07.19-.08.26.2.22.33.35a.49.49,0,0,0,0,.27l.09.06c.08-.17.65,0,.84-.1s.25-.26.41-.27a.73.73,0,0,1,.09.23c-.2.28-.28.16-.35.46,0,.12-.14.2-.15.3l.1.18c0,.14,0,.28-.08.42s.09.25,0,.39a1.83,1.83,0,0,0-.13-.16c0-.08,0-.16,0-.24h0a1.16,1.16,0,0,1-.25.2.22.22,0,0,1,0,.08c-.24-.14-.32.4-.55.35a.5.5,0,0,1-.1.33c-.06,0,0,0-.1,0,0,.29,0,.19-.14.45h0c.23.05.36-.08.57-.09h0v0l-.14,0c-.07,0-.12,0-.18.08v.09c.1,0,.15,0,.25,0l0,0,0,.08a.39.39,0,0,0-.36.14h0a2.84,2.84,0,0,0,.31-.06v0l-.14.15c-.21-.13-.31.06-.5,0,0,0,0,0,0-.08h0l0,0c0,.07,0,.12,0,.21l.11,0a.22.22,0,0,0,.11.18,3.13,3.13,0,0,0,.81,0l0,.08s0,0,0,0h0a.18.18,0,0,0-.14-.06c-.07.06-.09.07-.09.15h0l.21,0a1.06,1.06,0,0,1-.05.23h0c.12-.12.82-.5.94-.44s0,0,0,.06l.26.07a.41.41,0,0,0,0,.11l0,0a.42.42,0,0,0-.36.06c0,.1,0,.2-.09.3a.8.8,0,0,1,.26,0l.06-.13c.07.06.06,0,.14,0-.07.09-.06.12,0,.19l-.1.07,0-.08,0,0-.18.14.06,0a1.5,1.5,0,0,1,.63.19c-.11,0-.2.08-.22.21l.06.13h0c-.11,0-.36-.08-.38,0s0,.1,0,.15l-.16,0c-.08,0-.14-.17-.24-.2L90,90l-.12-.25c.1-.13.08-.26.13-.32s.58-.18.46-.52h0c-.14.17-.29.17-.42.28a2.16,2.16,0,0,0-.38.64h-.43c0-.09.09-.15.06-.24h-.09a.58.58,0,0,1-.64.29l-.18-.08c-.16,0-.34.19-.51.14l.05,0a.29.29,0,0,0-.22-.06c0-.07-.07-.14-.11-.2s-.36-.2-.42-.26,0-.1-.08-.16l-.26.15-.3,0c-.33.13-.6.3-.93.42-.12,0-.28,0-.4.08l-.32.21c-.08.07,0,.19-.11.2-.27,0-.51.14-.78.15h0a2,2,0,0,1,.11-.2c-.44.36-.6-.19-1.09.13a2.48,2.48,0,0,0,.19.26,1.7,1.7,0,0,1,0,.22,3.3,3.3,0,0,1-.57-.13.18.18,0,0,0,0-.17h-.13c-.08.13-.09.14-.19.28l.08.07a1.34,1.34,0,0,0-.18.52.83.83,0,0,1,.08.12.46.46,0,0,1,.07-.07c.12.09.15,0,.26,0a1,1,0,0,1,0,.23.93.93,0,0,0,.93-.06c.1-.05.19-.14.29-.14s.29.11.44.14a2.61,2.61,0,0,0,.84-.08c.26,0,.45-.64.63-.63l.07,0a.52.52,0,0,0,0,.25H86a3.61,3.61,0,0,1,1.66-.78l.18.24-.25.11c-.08,0-.09-.07-.16,0s-.28.35-.44.23c-.16.17,0,.52.23.66l.4-.2a.29.29,0,0,0,.24.15l0,.11a.35.35,0,0,0-.08.35c.09,0,.15.06.19.13a.61.61,0,0,0,.12.45l-.1.15-.1,0-.13-.1a.22.22,0,0,0-.17-.28s0-.06,0-.09l.09-.12h0a3.58,3.58,0,0,0-1-.25c0,.08,0,.12,0,.15l-.3.14a.25.25,0,0,0-.16-.14l-.17,0c0,.08,0,.16-.08.24l0,0v-.07h-.13l-.06.18c-.4-.17-.49.16-.82.33s-.84.24-1.27.42-1.11-.25-1.57,0a.76.76,0,0,0-.48.77,1.89,1.89,0,0,1,0,.23c0,.1-.06.19-.1.29,0,.41.16.7-.05,1.18-.11.24-.36.19-.49.28s-.1.18-.14.25c-.18.25-.42.15-.41.57,0,.66.51.42.77.79.06.2-.11.45-.08.65l.06.13c0,.33-.35.55-.19.88.06,0,.06,0,.12,0v0a1.72,1.72,0,0,0,.34,1.16l.36.06.2-.1,0,0a1.1,1.1,0,0,0,.2.91s.09,0,.12.07c-.1.23-.25.45-.16.64s.17.22.17.42l-.1,0a1.16,1.16,0,0,0-.06.26l-.62.87a1.22,1.22,0,0,1,0,.26c-.06.24-.15.28,0,.48h0l-.07,0h0c.05,0,.05,0,.06.07a.42.42,0,0,1-.59.19l-.1.06a.48.48,0,0,0-.67.27c0,.1,0,.21,0,.31s-.12.11-.17.15a.59.59,0,0,0-.19.42h0c-.12,0-.16-.19-.23-.27a.51.51,0,0,0-.3-.14s0,0,0,0a3,3,0,0,1-.25-.25h0a.61.61,0,0,1-.11.23l-.1,0h0a.26.26,0,0,0,.06-.24l-.12,0s0,0,0,0a.3.3,0,0,1,0,.23c-.06,0-.06,0-.13,0a.84.84,0,0,0-.31-.31c0-.39-.82-1.17-1.28-1.24a2.12,2.12,0,0,0-.33-.42.42.42,0,0,0-.46.1l-.13-.07a.42.42,0,0,1,.06-.47l.1-.14-.14-.19c.08-.31.32-.38.52-.59s.14-.4.2-.55.47-.41.58-.53.64-.69.56-.93c.22-.19.44-.25.59-.57a5.32,5.32,0,0,0-.6-.72.43.43,0,0,1,0-.12h-.09v.09a1.59,1.59,0,0,1-.47-.46h0l.34,0a1,1,0,0,0-.51,0,.63.63,0,0,1-.16-.25c-.36,0-.21,0-.49.14l-.4,0L76.16,98a1.68,1.68,0,0,1-.39.16A.91.91,0,0,0,75.7,98l-.07,0a1.09,1.09,0,0,0,0,.17,1.31,1.31,0,0,0-.76.63l-.07,0c-.08,0-.12.1-.2.09s.07-.15.1-.23h0l0,0s-.1.11-.12.07,0-.09,0-.16a.74.74,0,0,0-.12.26l-.14-.11c.11-.16.07-.33.16-.47h0a.79.79,0,0,0,.12-.2l-.06-.09.14-.25h.28a1.57,1.57,0,0,0,.24-.55l.07.06a.4.4,0,0,0,.09-.23c-.14,0-.23-.08-.38-.19a.51.51,0,0,1-.46,0,1.61,1.61,0,0,0,.25-.35.39.39,0,0,0,.27.12c.05-.33.5-.44.43-.8l-.1.09-.06-.06c-.08-.27.14-.5.15-.79s-.3-.34-.46-.55c0-.11,0-.22,0-.33l.12-.19c0-.14,0-.28,0-.42s.26-.24.21-.41a.28.28,0,0,0-.2,0c0-.21,0-.42-.07-.62l-.36-.55a1.46,1.46,0,0,1,.07-.19.37.37,0,0,1,.21,0,.22.22,0,0,1,.05.08.2.2,0,0,1,0,.08c.1.07.13.08.17.15.11-.11.22-.14.22-.27s0-.16-.1-.26a.24.24,0,0,1-.13.1.19.19,0,0,1-.09-.13l-.12.14a1.18,1.18,0,0,1-.23-.2c.06-.21.11-.67.35-.82a.78.78,0,0,0,.22,0l0-.05,0,0c-.08,0-.1.06-.19,0L75,90.35a1.66,1.66,0,0,1,.27-.53.93.93,0,0,1,.22.08l0,0s0,0,0,0a.14.14,0,0,1,0-.06l-.13,0,.17-.12c-.14,0-.14-.07-.23-.18.08-.09.18-.16.19-.27l-.14.08-.06,0s0,0,0-.08l-.13,0a.28.28,0,0,0,0-.09c-.06.09-.07.16-.16.13a.38.38,0,0,0,0-.25c-.13,0-.26,0-.37,0s-.32-.22-.44-.28c-.07.09-.1.07-.18.09a.19.19,0,0,1,0,.08l-.1.06a.85.85,0,0,1-.12-.28c-.19-.11-.42-.06-.52-.31,0-.06.2-.11.21-.2s-.11-.19-.09-.31l.2,0a.12.12,0,0,0,0-.1l-.26-.22a1.27,1.27,0,0,1,.34-.43c.09.06.24.17.31.13l.19-.26c.09,0,.21.22.23.26l0,.12h-.14a.77.77,0,0,1,0,.15c.22,0,.14.2.26.34l-.09.15h.08a.89.89,0,0,0,.29.43c.13-.09.43-.2.53,0,.06-.09,0-.09.14-.07s.1-.09.19-.18.1-.18.16-.27H76a.79.79,0,0,1,0,.3h0a.2.2,0,0,0,.09-.18h0l.08,0,.09-.12a2.09,2.09,0,0,1,.2-1c.3.07.31-.16.48-.25l.21.11c.13-.09.25-.16.39-.27a2.18,2.18,0,0,0-.27-.15,7,7,0,0,0,.53-1.84c0-.14.21-.59.36-.47a.55.55,0,0,1,.27.06c.33-.24.26-.5.3-.8a1.48,1.48,0,0,1-.26-.24c.15-.19.41-.44.43-.64a.47.47,0,0,0-.17-.09.14.14,0,0,1,0-.06c-.06,0,0,0-.06,0s-.92-.29-1.08-.58a2.46,2.46,0,0,1,0-.26l-.23-.17c0-.12-.07-.23-.1-.33.14-.2.09-.34.22-.54l.08,0,.35-.12.26.07a.46.46,0,0,0,.26-.66c-.38-.13-.49-.38-.75-.61l-.09,0,0,.21a1.76,1.76,0,0,0-.23.15l-.29-.22a.21.21,0,0,1,0,.14c-.14,0-.2-.09-.34-.13,0-.08,0-.08-.09-.12a1.19,1.19,0,0,0,.16-.62c.07,0,.07-.1.13-.16l-.06-.08a2.39,2.39,0,0,1,.23-.22.59.59,0,0,0,0-.14c.1,0,.14-.23.26-.35a6.37,6.37,0,0,0,.66-.71c.07-.08,0-.24,0-.26l.07,0c-.1-.07-.16,0-.26,0l-.07-.08a.3.3,0,0,1,0-.08c.08,0,.15,0,.13-.1s0,0-.07-.06.08-.07.17-.15-.1-.23,0-.37.27-.15.39-.31v-.12c-.65-.07-.44.59-1,.59,0-.07-.15-.23-.18-.17l0,.09a1.27,1.27,0,0,0-.17.65l-.15.07a.31.31,0,0,0,0,.21l-.19.14-.1-.07a.24.24,0,0,1,.11.2c0,.14-.16.23,0,.36h0l-.2.08c.07.11,0,.28,0,.4H76.5a.55.55,0,0,0,0,.38c-.12.06-.11.11-.17.24l0,0c0,.1,0,.4-.22.45a.28.28,0,0,1-.25,0l-.09-.14a1.22,1.22,0,0,0-.14.35l-.12-.1c0,.16-.12.14-.24.2-.3.16-.54.06-.82-.23l-.19-.19h-.39a2.1,2.1,0,0,0-.34-.32l-.22.08a.82.82,0,0,1-.2-.53L72.9,78a.45.45,0,0,1,.21-.26c0-.34-.24-.34-.29-.61H73l0-.05a6.67,6.67,0,0,1-.29-1.77l.15-.21c-.06-.05-.09-.08-.14-.08l-.16,0a.62.62,0,0,0-.26-.22l-.13,0a.71.71,0,0,1-.52.32c-.1.15-.26.55-.31.57l-.36.15c0,.27.17.42.18.66s-.14.18-.06.44c.08,0,.2,0,.24.05a.74.74,0,0,1,0,.42h0c.13,0,.25,0,.38,0l0,0c0,.25.15.39.21.62v.77l-.16.07c0,.14.07.21.08.35a1.47,1.47,0,0,0,.07.62l-.16.22c.09,0,.19.06.22.11a1.87,1.87,0,0,0,.07.22l-.21.15c.29.15.41.09.65.39a.88.88,0,0,0,0,.15c.14.17.71.31.73.44h0c.09-.12.17-.13.23-.18l.09-.14a.66.66,0,0,0,.65-.19c.17.06.23,0,.4.09l-.07.1c0,.09.06.64-.11.73s-.61.44-.59.55a.93.93,0,0,0,0,.1v0c.09-.28.35-.23.52-.4s.07-.42.26-.54l-.06,0,0-.06s0,0,0,0,0,0,.07,0l-.09.15.13.06a.26.26,0,0,0,0,.33l-.06.11h0l-.17-.12c0,.19.33.27.06.54l.06.06-.2.31c.12.06.63,0,.64.26l-.08.11.14.1.08-.06c.06.08.14.08.17.14a1.15,1.15,0,0,0,.17.26L76,84l.35.71h0l-.16.06a1.86,1.86,0,0,1-.26.47l.07.09s0,0,0,.06,0,.21.11.32.17,0,.18.08l0,.1c-.2.18-.22.44-.46.67-.09-.1-.08-.15-.17-.25a1.41,1.41,0,0,1-.58,0s0-.1,0-.15l-.1,0L75,86l-.07-.09a1.46,1.46,0,0,1-.86,0L74,86a.54.54,0,0,0-.45-.11c-.06-.09-.14-.23-.23-.27s-.08.06-.11.15l-.1,0a.54.54,0,0,0,0,.11c-.13-.09-.4-.26-.51-.2s-.06-.14-.16-.19h0c0,.25-.17.17-.36.18,0-.08,0-.1-.14-.13v.12a.57.57,0,0,1,.29.4c0,.14-.14.18-.15.27s0,.17.06.28c0,.32,0,.64.06,1a1.9,1.9,0,0,1-.35.66c-.07,0-.09,0-.16,0l0,.11a.32.32,0,0,0-.09,0s0-.07,0-.11c-.19.17-.36.22-.57.39l-.27,0c0-.09-.06-.14-.17-.17l.08-.09.1.06v-.05c0-.09.06-.1.14-.13h-.06c0-.06,0-.07,0-.14h0c-.08.13,0,.12-.15.16s0,0-.08,0,0-.19,0-.28h0a.24.24,0,0,1-.14.14.9.9,0,0,0-.06-.22l0,.24h0a.17.17,0,0,0-.17,0l.14.08a.53.53,0,0,1-.07.2h-.08l0,0-.07,0L70,88.35a2.17,2.17,0,0,1-.07-.24h0l.11,0h0l-.06,0c.07,0,.11,0,.12-.13h0a.34.34,0,0,0,0-.3.56.56,0,0,1-.1.26l-.12,0s0-.06,0-.09,0-.17-.11-.25c-.15.18-.15.34-.34.34a2.39,2.39,0,0,1,0-.36h-.11a.22.22,0,0,1-.17.2H69a.51.51,0,0,1-.1-.37h0c-.11.07-.19,0-.31,0s-.22-.18-.32-.32l.21-.36,0,0a.85.85,0,0,1-.26.11.6.6,0,0,0-.08-.08c.07-.22,0-.4.17-.52s0-.19-.14-.33c.14-.18.36-.27.31-.47-.11.11-.24.2-.39.14s0-.06,0-.09a1.9,1.9,0,0,1,.46-.55c-.18-.12-.34-.61-.15-.69l.13-.05s0,0,0,0,0-.33-.1-.47-.11-.11-.16-.16a1.86,1.86,0,0,1-.11-.88c.11-.11.19-.12.19-.28h0l-.12,0c0-.23-.13-.42-.17-.64a1.28,1.28,0,0,0,.16-.21l-.25-.14-.1.08c-.13-.24-.36-.41-.1-.65l-.2-.19.12-.24h0c-.15,0-.25,0-.38.06s-.07-.16-.1-.23a3.45,3.45,0,0,0,.2-.32h0l-.27,0v0c0-.17.19-.49.1-.63a.15.15,0,0,1-.18,0c0-.13,0-.21,0-.33s.15-.12.22-.18a.27.27,0,0,1,0-.26l-.07,0a.18.18,0,0,1-.19,0c0-.14-.08-.24,0-.36h0a.34.34,0,0,0,.26,0v-.05c0-.06-.05-.13-.08-.2l-.28-.11a.36.36,0,0,0,.14-.35h0l-.21.06c0-.07,0-.12,0-.18.07-.25-.09-.27-.09-.44,0-.33.26-.22-.1-.63l.21,0c.07-.3.23-.26.41-.49a3.08,3.08,0,0,0-.16-.29,56.74,56.74,0,0,1,27.68-3,56,56,0,0,1,7.08,1.47,56.35,56.35,0,0,0-68.43,73.1,57.2,57.2,0,0,1-1.84-6.54v0c-.17-.78-.32-1.55-.46-2.33a1.52,1.52,0,0,0,.55-.61,1.58,1.58,0,0,0,1.13-.88c0-.1,0-.19.1-.31a4.65,4.65,0,0,0,.76-1.37c.25-.08.51-.08.69-.35-.06-.08-.18-.28-.32-.26s-.36.31-.59.5l-.16-.12a1.53,1.53,0,0,1,.68-.68c.15-.1.21-.21.34-.28.17.1.25.26.38.38.29.26.64-.08.84-.22-.33-.23-.83-.23-.89-.61.07-.09.23-.28.22-.37l-.14-.47c0-.19.19-.24.12-.46-.13,0-.33-.13-.44,0a.72.72,0,0,1-.22.43h0l-.12-.25c.11-.2,0-.3.17-.49a.85.85,0,0,0,.43-.12L34,131h0c-.14.46-.44.42-.65.6l-.09.22c-.26.27-.85.7-1.2.45a1,1,0,0,0-.06-.42,1.72,1.72,0,0,0-.52.19,1.77,1.77,0,0,1-.27-.6c.11-.18.23-.17.36-.31l-.15-.14a.51.51,0,0,1-.4,0c0-.12-.07-.19,0-.3a1.41,1.41,0,0,1,1.24-.87c.2,0,.29.22.45.3a4.61,4.61,0,0,1,1.12-.29.8.8,0,0,0,.08.16.58.58,0,0,0-.12.42l.18.26c.11-.15.25-.16.36-.26s.1-.2.13-.29.37-.34.49-.38a1.21,1.21,0,0,1,.1.36c.15,0,.24,0,.37,0a1.47,1.47,0,0,1,.63.31c.21-.49-.37-.75-.4-1.19a1,1,0,0,1,1.3-.06l-.19.26c0,.06.13.21.24.25A5.27,5.27,0,0,0,38,129.5a1.88,1.88,0,0,0,.14-.54c-.35-.26-.18-.5-.33-.77s-.46-.39-.5-.63.24-.26.26-.41l-.17-.15-.59.26-.34-.29,0-.2a3,3,0,0,1,.79-.8l.3-.25.49-.11c.07-.13.1-.26.2-.27s.52.16.56.27,0,.16,0,.24a.72.72,0,0,1-.38.05c-.08.12,0,.21-.08.32.58.31,1,0,1.57,0a1.51,1.51,0,0,1,.37,1c0,.24-.12.35-.07.56-.33.3-.86.05-1.15.43a1.27,1.27,0,0,1,0,.2h0a2,2,0,0,1,1-.26c-.08.16-.18.22-.26.39s-.28.35-.58.26a2.18,2.18,0,0,0-.42.77.56.56,0,0,0,.05.08v0c.19,0,.35-.19.54-.25.09.17.27,1.21,0,1.41s-.37.11-.54.19l-.32.24-.34.19c-.2.18-.22.42-.32.6l0,0,.57-.44.55-.18a2.39,2.39,0,0,0,.85-.76h0l.3.4c.08.21.15.95-.1,1.2a1.75,1.75,0,0,1-.48.32c.2.15.4.18.53.31a2.41,2.41,0,0,1-.78.73l-.74.79h0l0,0,.62-.27c.36-.29.52-.57.9-.65l.1.07a1,1,0,0,1-.07.48c-.1.24-.37.38-.37.53l0,.06h0l.35-.18a.06.06,0,0,0,0,0c.13.23,0,.83.05,1.16.09,0,.24.08.27.15s-.06.23,0,.36c.08.44,1,1.7,1.69,1.69.34-.19.29-.35.55-.62a2.89,2.89,0,0,1,1.2.2l.34.27c.23-.34.15-.68.46-1a4.36,4.36,0,0,1,1.59-1h.49l.74-.64a4,4,0,0,1,.5-.26c.39-.25.83-1.26,1.28-1.33.13.15.27.3.41.44l.34.06c.31.13.39.39.59.53.3-.06.42-.21.78.08a.94.94,0,0,1,1.06-.3c.18-.28.44-.19.66-.32a1.63,1.63,0,0,0-.36-.05.43.43,0,0,1-.11-.32c.14-.1.3,0,.45-.05a1.48,1.48,0,0,0-.42-.3c0-.44-.52-.4-.83-.53l-.21-.14-.39-.14.08-.11c-.28-.19-.28,0-.5.05a1.06,1.06,0,0,1-.43-.13c.41-.88.28-2.89-1.19-2.9-.36,0-1.06.45-1.36.34a1.2,1.2,0,0,0-.23-.66,1.27,1.27,0,0,0-.13-.19c0-.13.1-.16,0-.33l-.32-.13-.25,0c-.11-.05-.11-.15-.22-.24l-.29.38h0c-.12-.25-.12-.56-.36-.79a.81.81,0,0,1-.43.11.5.5,0,0,1-.27-.75c.29-.32.62-.47.92-.76s.34-1,.56-1.13a10.92,10.92,0,0,1,1.22-.42c.09.17.09.16.27.15.23-.22.56-.37.82-.61s.09-.3.15-.36h.13a.41.41,0,0,1,.15.14c-.08.51,1.1.49,1.25.89l-.14.18c.15.14.19.18.34.17h0c.13-.45.1-.8.66-.79.07,0,.08.06.1.12a.75.75,0,0,1,.15,0c0-.2.26-.52.25-.73l-.19-.39c.13-.16.31,0,.46-.08h0c-.4-.28-.36-.47-.46-.79-.55,0-.27-.11-.27-.48l-.15-.26h0a7.2,7.2,0,0,1,1.72-.13c.07.09.06.15.19.21l.09-.15c.54.29.53-.21.93,0a.47.47,0,0,0,0,.23,1.87,1.87,0,0,0,.6-.21.52.52,0,0,1,.17.15c0,.16-.3.32-.32.45v0c.14,0,.51.09.62,0l.12-.17a1.39,1.39,0,0,1,.89-.18l.19.29c.13-.17.1-.34.25-.5a3,3,0,0,1,.66-.39l.54-.47c.1.2,0,.42-.13.66s0,.46,0,.69a2.75,2.75,0,0,1-.17.29.8.8,0,0,0,.27.4,4.12,4.12,0,0,0,.2-.65c.05-.46-.24-1.07.5-1.23a.47.47,0,0,0,.11.21h.14c0-.1,0-.28.08-.35s.46-.3.64-.19.18.28.25.42l.44,0h0a4,4,0,0,1,0,1l-.48.86.18.76a3.15,3.15,0,0,1-.48,1.25l-.63.83c-.23.26-.35.62-.61.91a2.23,2.23,0,0,0-.52.77c-.12.43.27.59.27.87s-.2.43-.22.62a4.84,4.84,0,0,0,.64,2.44c0-.49-.24-1-.25-1.47a7,7,0,0,1,.36-1.86c.14-.58.53-1.13,1.08-1a1.83,1.83,0,0,1-.08.92l-.2.12a.86.86,0,0,0-.16.38h0a.66.66,0,0,1,.58-.26l.06-.38.06,0c0-.05,0-.09,0-.13l.11,0a1.16,1.16,0,0,0,0,.18c.19.22.1.19.15.45.07-.11.14-.23.23-.24a.33.33,0,0,0,.2.16c0-.05,0-.05.09-.05.24.25.44-.12.65-.24v0l-.05.16h0c.06-.06.14,0,.19-.08l.09-.15.14-.05c.09-.06,0-.22.18-.3h0v0l0,.08a1.45,1.45,0,0,0,.1-.18c0-.1,0-.19,0-.32.22.09.14-.06.28-.15l.19,0a.14.14,0,0,0,0,.06s0,.06,0,.09h.05c.07-.11.13-.18.22-.19l0,.14c-.06,0-.07,0-.08.06v.05h0l-.12.16,0,0a2.87,2.87,0,0,0-.24.89c-.05,0-.05,0-.11,0v0l.06.08-.07,0c.07.06,0,.08.08.15l-.15.17-.08-.06v0a.18.18,0,0,1,0,.14h-.09l0,.07c.1.06.14,0,.21.11-.14.2.07.41,0,.56l0,0,.08,0a.33.33,0,0,0-.11.21l.09.13c-.09,0-.08,0-.12.11l-.24,0c0,.05,0,0,0,.07-.18-.07-.4-.09-.45-.33,0-.06,0-.05,0-.12a1.77,1.77,0,0,1,0,.23h0a0,0,0,0,0,0,0c0-.1,0-.2,0-.3s0,0,.06,0h0l-.07,0,0,0a2.35,2.35,0,0,1,.11-1l.11.1s0,0,.1,0l-.08-.05a1.86,1.86,0,0,1,.19-.47h-.05a1.94,1.94,0,0,0-.48.79.23.23,0,0,1-.07-.08.66.66,0,0,0,0-.48h0s0,.09,0,.14a.21.21,0,0,0-.19,0l.13,0,.07.15c-.17.27,0,.51-.16.78a.69.69,0,0,1-.15.07l.09,0a2.29,2.29,0,0,1,0,.25.34.34,0,0,0-.24.29l-.08,0,.16,0s0,.08,0,.11l.06-.09s0,0,0,.06,0,.21-.12.32c.06,0,0,0,.06.08l-.11,0c0,.1.05.18.05.29l-.12,0c0,.09,0,.18-.09.25l.12.05-.15.11h0l-.08-.12h0a1.34,1.34,0,0,1,.22.51l-.09,0,.08.12-.09.07-.06-.07a.22.22,0,0,1,0,.08c.09,0,.07,0,.1.14h0l-.07,0-.05,0c0,.06,0,.12,0,.18l.13.08c-.06.19.17.48.24.65.12,0,.11,0,.2-.08a.08.08,0,0,1,0,0c0,.12-.08.24,0,.34a.42.42,0,0,1,.54-.06l.09-.07a1.77,1.77,0,0,1,0-.2l-.06,0,0,0H62l.08-.07a.48.48,0,0,1,.28.09c-.06.15-.12.29-.17.44a.27.27,0,0,0-.14-.06h0a.28.28,0,0,1,0,.32h0a1.62,1.62,0,0,1-.16-.12.3.3,0,0,1-.06.12l.2.2a2.55,2.55,0,0,0-.51,1.57,2.35,2.35,0,0,1-.19-.25l.2.3s0,.06,0,.14h.05a.22.22,0,0,0,.19-.1,3.43,3.43,0,0,1,.42.54l-.06.05a.7.7,0,0,1,.18.53h0c-.06-.05-.06-.08-.13-.12-.13.21-.27.15-.47.15a1.67,1.67,0,0,0,0-.18h0a.9.9,0,0,0,0,.19c.17.08.54.19.69.09l.23.12c.09.11.06.22.12.35a3.45,3.45,0,0,1,.2.32s0,0,0,.06l.14.23,0,.05-.08,0a1.94,1.94,0,0,1-.27-.48s0,0-.06.09h0l0-.09-.1.05c0-.08,0-.06-.09-.13s0,.11,0,.16l-.12,0h-.11l0,0,.05-.2h0c-.11.07-.12,0-.13.14h0l0-.06a0,0,0,0,1,0,0l.08-.05-.05,0h0a.19.19,0,0,1-.11.07l0,0c.06-.09,0-.11,0-.17l-.07.09h0a.61.61,0,0,0-.05-.12l.06-.16-.08,0-.06-.1v.12s0,0,0,.11l-.06,0s0,0,.06.08h0s0,0-.07,0l.1.08-.08.08c.35,0,.14.13.36.23l.24.05h0a.17.17,0,0,1-.17,0h0c.15.06.22,0,.4,0a1.4,1.4,0,0,1-.37.14l.07,0c-.1.06-.15,0-.23.16l-.08,0c0-.05,0-.1,0-.14a.42.42,0,0,0,0,.1.36.36,0,0,0,.16.12,2.55,2.55,0,0,1,.66-.36c0,.08.08.11.07.2h-.05l-.28.07a.54.54,0,0,0,.42-.11v.06c.06,0,.07,0,.15,0v0l-.09.07.07,0,0,0-.16.05a.82.82,0,0,0,.3-.1l.12.07c-.06.08,0,.07-.12.09a.34.34,0,0,0-.27.07.17.17,0,0,1,0,.07s0,0,0,0a.27.27,0,0,1,.34-.07c.08-.19.14-.34.38-.21h.07l0,0h0l0,0h0l0,0,0,.05a.15.15,0,0,1,.09,0l0,.07a.76.76,0,0,1,.32,0l0,0-.09,0c0,.07-.08.09-.15.13a.2.2,0,0,1,.11,0l0,0v.06l-.13.07.08,0,0,.13h-.09c-.06,0-.07-.07-.11-.07h0c0,.09.13.08.18.13a1.41,1.41,0,0,0,.2-.35h0c.06.06.09.14.17.14l0,0c0-.06-.1-.1-.09-.18s0,0,0,0a.19.19,0,0,1,.19,0s0,.05,0,.08-.07,0-.05.06l.06.24c-.11.13-.18.11-.28.17h.09l-.24.17h.08a.5.5,0,0,1,.27-.18l0,0c0,.1.05.12,0,.25a.41.41,0,0,1-.17.07.17.17,0,0,0,.12,0l.1,0a1.81,1.81,0,0,0,0-.23c.06,0,.07,0,.12,0v0a1.49,1.49,0,0,1,0,.21c-.06.13-.13.27-.19.41s.13.41.19.62-.19.4-.2.58.1.28.18.46a1.12,1.12,0,0,1-.09.88,3,3,0,0,1,.26.61l.4.52c.38.39,1.16.27,1.55.37l.48.24c.19.07.41.07.58.12.44.15.75.67.94.93l0,0-.09-.1a1.76,1.76,0,0,0-.16.35c-.13,0-.41-.09-.55-.1-.2.25-.22.06-.46,0l-.14.06-.19-.08-.07.1-.5,0a.32.32,0,0,0,0-.22l-.1-.06c0,.08,0,.16-.06.19s0,0,0,0l-.52-.53c-.15-.07-.21.06-.34.12s-.78-.07-.89.24c0,.12,0,.25,0,.36s-.09.23-.13.35a2.45,2.45,0,0,1-.38,0,.8.8,0,0,1-.44.28,1.79,1.79,0,0,1-.34.53l.07,0-.09.22-.32,0h0l.14.16a2.11,2.11,0,0,0-.42.57c0,.08,0,.18,0,.29s-.3.06-.33.26l.07.12c.17,0,.17-.19.23-.31a.52.52,0,0,1,.31-.1l0,.21c.21.1.36-.12.57-.1a2.85,2.85,0,0,1-.17.26.59.59,0,0,0-.48.17.31.31,0,0,0,0,.1h0l.12,0h0a.41.41,0,0,0,0,.11h-.15l-.06.29-.24.14h-.2l-.35.15a1,1,0,0,1-.07.15h0l.16-.05v0c0,.09-.11.24-.22.34a1.83,1.83,0,0,0-.59.71c0,.15,0,.22-.16.4l-.14-.05v.11c.11,0,.22,0,.28.08-.05.26.07.51,0,.8s-.3.29-.26.41l.18,0c.11.24-.1.46-.06.7v0l.21,0a.06.06,0,0,1,0,0L61,153c.25.31.65.22.87.45l.26.53.36.34a3.73,3.73,0,0,0,1.81,1c.31,0,.66,0,1,0s.57.07.85.06a1,1,0,0,1,.32-.38c.15-.08.32,0,.46-.17s.39-1,.56-1.36l.12.08c.07-.06.16-.12.17-.19s0-.11,0-.17-.11,0-.19,0l0,0c0-.17.08-.42,0-.56l-.21-.16c0-.06,0-.12,0-.18l-.32-.2c-.07-.09-.14-.17-.2-.26.16-.62.49-1.76,1.12-2,.07,0,.14.07.17.13a3.49,3.49,0,0,1,.12.54s.28.41.3.44h0l0-.09.57.54h0l-.34,0s0,.05,0,.08,0,0,0,0a.58.58,0,0,1,.19.2l.06-.17.12.09c.22.3.56.41.77.74.11.16,0,.34.14.49l.17-.08a0,0,0,0,1,0,0l-.11-.09a.47.47,0,0,0,.28-.17c.06-.36.43-.53.61-.95,0-.09,0-.18,0-.27l.16-.08.33-.56.24-.15c.14.11.09.12.23.11l.29-.26a.93.93,0,0,1,.65.4,2.25,2.25,0,0,0,.08.24c.14.2.47.34.63.53a1.73,1.73,0,0,0,.56.47,3.41,3.41,0,0,0,1.45-.17l.29.07c.23,0,.08-.29.33-.3.24-.24.16-.43.23-.69,0-.09.07-.14.08-.21v-.36c0-.08.21-.2.25-.23s.19-.25.3-.33a1.54,1.54,0,0,1,1.12-.09,1.91,1.91,0,0,1,.07.36h0a.1.1,0,0,0-.12,0c.11,0,.1.1.13.18a2.67,2.67,0,0,0,.09-.26c0-.19-.29-.5,0-.7a.34.34,0,0,1,.35-.05l0,.1a.65.65,0,0,0-.13.53,2.38,2.38,0,0,1,.55.15,1.08,1.08,0,0,0,.3.51,1.83,1.83,0,0,0,.57,0,.46.46,0,0,0,0-.36c-.11-.19-.76-.27-.87-.21a.2.2,0,0,0,0-.14l0,0c0-.2.34-1.06.25-1.16l-.1,0-.09.15H79.1a.2.2,0,0,1,0-.28,1.42,1.42,0,0,0,.45.08c.21-.3.45-.53.73-.46s.18.09.3,0,.36-.65.54-.87.66-.16.87-.68c.08-.19,0-.37,0-.54a2.34,2.34,0,0,1,.62-1h0s0,0,0,.05v.09c-.08.09-.15.19-.23.3l.08.05a.5.5,0,0,1,.56-.09v0a.21.21,0,0,1-.08-.17c.09,0,.18-.2.28-.25h.15c.14-.05.24-.16.36-.21a0,0,0,0,1,0,0c-.06.3.19.34.07.74h0c.08-.11.17-.21.25-.33a1.34,1.34,0,0,1,.26-.44,1.9,1.9,0,0,1,1.13-.44l.52.26,0,0a.54.54,0,0,1-.07-.13c.17-.33.69-.36,1-.32l0-.14h0l.45-.42c-.05,0-.07-.06-.07-.1a1.75,1.75,0,0,1,.67-.8l.59-.45c.17-.09,1.08-.24,1.11-.27s0-.12,0-.16.25,0,.39.07c.47.15,1.05.51,1.43.1.13,0,.24.06.3.19s.14.43.2.64,0,.53.07.77.31.41.32.63l0,0c.22-.14.11-.51.18-.7l.51.11a2.37,2.37,0,0,0,.43-.72.64.64,0,0,0,.21.23v0c-.15-.24,0-.54-.1-.79s-.22-.28-.18-.43a4.18,4.18,0,0,1,.2-.42,2,2,0,0,0,.37-.16c.31-.22.49-.54.85-.43l0,0a.77.77,0,0,1,0-.15c.09-.12.45-.2.57-.08s0,.21.37.37a1.93,1.93,0,0,1,.11-.94c.11-.2.41-.23.56-.36l.43-.47c.25-.25.23-.56.57-.77a11.62,11.62,0,0,1,1.87-.6c.28-.12.39-.49.67-.72a3.3,3.3,0,0,1,1.59.54,2.68,2.68,0,0,1,.85,2c0,.11,0,.22-.05.33s.13.16.24.31a2.5,2.5,0,0,1,.42,1l0,0-.24,0-.06.07a6.69,6.69,0,0,1,.69.72l.93.51c.25.12.39.41.56.58a1.33,1.33,0,0,0,.41.23.6.6,0,0,0,.35.72l.35.19c.09.1,0,.26.09.37l.24.43c.09.21.11.48.31.66l.29.13c-.16.29-.23.62.09.82a3.33,3.33,0,0,1-.53.88,2.05,2.05,0,0,0-.35.48c.18.18.08.26.07.47s0,.2.08.29-.16.08-.21.18a7.35,7.35,0,0,0,0,1.49c0,.21.17.34,0,.57l.06,0c.23-.14.39.2.42.34a1.92,1.92,0,0,1,.37.11c1.08.51.74,1.07,1,1.71l.45.71a2.79,2.79,0,0,1,.25.94c-.28-.31-.2-.81-.55-1h0a.49.49,0,0,1-.24.28l0,0,.34.38c.09.17,0,.42.11.58l.5.53a3.41,3.41,0,0,1,.31,1.05c.11.33.31.63.19,1s-.28.24-.37.38-.09.36-.2.54c-.41,0-.55.19-.76.59-.12,0-.29,0-.4.12a1.46,1.46,0,0,1,.07.19l.06,0c.38,0,.62-.29,1-.3.12.09.1.14.16.22.21.29.46.07.65,0s.24.08.27.15a2.45,2.45,0,0,1,.23.64c0,.12.16.21.21.34.13.35-.26,1.06-.44,1.5a3.21,3.21,0,0,1-.57.9c-.08.07-.26.22-.26.27.09.22.37.16.48.13a3.72,3.72,0,0,0,.28.49c.13.13.3,0,.4.15s0,.17,0,.28a1.27,1.27,0,0,1-.32.66c-.18.15-.5.26-.61.48a.36.36,0,0,0,0,.11c.19.11.33.08.49.16s.16.19.31.27.41-.06.4-.3c0,0,0,0,0,0h-.17c0-.11.08-.22.12-.33h0l.41.19a.14.14,0,0,1,0,.06c0,.08,0,.19-.11.22s-.11,0-.17,0a.68.68,0,0,0-.2.49h.07l.32-.28s0,0,0,0a1.21,1.21,0,0,0,0,.73c.37.24.47.22.52.6.11.05.18,0,.25,0l-.27.54c-.08.38.06,1.06.62,1.13a1.27,1.27,0,0,0,.74-.23c.11-.08.19-.23.3-.26.78.3.32,1.06.47,1.55l.14.32c.17.19.39.18.46.41s-.17.54-.1.78c.23.69,1.13.55,1.53.65a.56.56,0,0,1-.38.38l0,.08c0,.14.08.25,0,.4s-.23.33-.17.51h0c.12.27.49.37.62.62l-.12.28-.28.12a4.83,4.83,0,0,1-.22-.71l0,0-.19.08a2.47,2.47,0,0,1-.28.83.44.44,0,0,1-.18-.09c.12-.25.14-.44.25-.69-.14,0-.27.25-.37.42-.15-.1-.13-.17-.24-.26a.24.24,0,0,1-.29.06,2.09,2.09,0,0,1,0,.25l-.15.11c-.08-.08-.07-.14-.18-.22h0a1.66,1.66,0,0,1-.06.21.37.37,0,0,0-.23,0,.19.19,0,0,0,0-.08c0-.06,0-.07,0-.13l-.12,0c-.12,0-.21.14-.36.15a.55.55,0,0,0-.11-.61c-.06.11-.08.27-.18.29l-.25-.09c0-.07,0-.13,0-.19a.58.58,0,0,1-.36,0,2.18,2.18,0,0,0,0-.25l-.13-.06c0,.09,0,.17,0,.26l-.49-.31c0-.06-.05-.12-.08-.19l-.35-.18c.14-.2.23-.16.37-.34l0-.08,0,0-.24.09-.28.43-.08-.05c0-.11-.14-.19-.18-.29s.08-.1.06-.16l-.09-.11c-.28.05-.3.23-.55.39l-.12-.08-.14.25s0,0,0-.09a1.1,1.1,0,0,0-.11-.71c.08-.13.11-.17.22-.21l.11.07a.44.44,0,0,0,0,.3l.17.07,0,0c0-.1-.08-.16-.07-.26l0,0a.49.49,0,0,0,.25.14v0c0-.12-.09-.24-.14-.36-.3-.39-.37-.13-.38-.64-.08.07-.19.15-.26,0s0-.15,0-.25a.78.78,0,0,0-.1-.39l-.09,0-.31.14a.76.76,0,0,1-.24-.23c-.24-.24-.39-.15-.28-.5-.13,0-.35,0-.46-.19s0-.12,0-.2l-.08-.07c-.1,0-.15,0-.24,0s-.1-.12-.15-.18a.44.44,0,0,0-.16.15c.07.17.05.34-.14.4s-.3,0-.43-.09c-.56-.19-.49-.72-.71-1l0,0c-.17-.15-.41-.15-.59-.23l-.47-.32-.4-.08a.06.06,0,0,0,0,0c0-.1.12-.19.12-.29-.54-.58-.82-1.17-1.29-1.77-.11-.15-.12-.36-.27-.49s-.25,0-.3-.11l-.12-.32-.23-.1a5.44,5.44,0,0,1-1.09-.6c-.1-.13-.09-.34-.21-.47s-.4-.08-.56-.24l-.46-.53-.09-.25a3.35,3.35,0,0,0-1-.83c-.06-.11-.12-.23-.17-.34l-.27-.12a1.82,1.82,0,0,1-.61-.52l-.18,0-.16-.11c0-.07,0-.14,0-.21a7.78,7.78,0,0,0-2.61-1.66c-.2,0-.36.23-.55.28l-.39-.06-.6.36a6.34,6.34,0,0,1-2.15.89h-.47l-.36-.25a1.81,1.81,0,0,0-.52,0c-.4,0-.76-.18-1.13,0a5.56,5.56,0,0,0-2.43-.37l-.76,0c-.27.06-.49.29-.76.37l0,0a.5.5,0,0,1,.1-.23c-.26-.24-.56,0-.88-.18-.25-.46,0-1.08-.31-1.47-.07-.1-.23-.12-.32-.19,0,.35.21.6-.33.64,0,0,0,0,0,0s0-.09,0-.15a2.38,2.38,0,0,0-.66-.26c0-.15,0-.3,0-.45H81.9c-.1-.12,0-.28-.11-.38s-.35-.16-.38-.28c.08-.34.21-.49.11-.78a.33.33,0,0,0-.19,0l0-.08a1.77,1.77,0,0,1,.16-.22c-.1-.11-.18-.07-.33-.17,0-.13.21-.38.2-.51l-.39-.77-.29,0-.28-.32c-.16-.08-.35-.06-.49-.18a.24.24,0,0,0,0-.2c-.12,0-.19.08-.32,0a.71.71,0,0,0-.12-.2,2.18,2.18,0,0,0-.52.06c-.13-.13-.11-.24-.25-.3a.27.27,0,0,1,.15,0c0-.11-.08-.23,0-.33-.18-.07-.33,0-.48-.07h0c.2-.1.37,0,.58-.06a.08.08,0,0,0,0,0s0,0,0-.1l-.24-.05-.19-.67.12-.27c-.25-.34-.6-.38-.54-.86,0-.07,0-.16,0-.21s.12-.07.23,0,0-.09,0-.13-.18-.16-.18-.27a.71.71,0,0,0,.31-.66c-.13,0-.42,0-.53-.13s0-.15.09-.25h0c-.07,0-.1,0-.19,0a.34.34,0,0,1-.06.24c-.35-.09-.57.06-.7.48a.36.36,0,0,0,.15.12.86.86,0,0,0,0,.52c.19,0,.31-.11.51,0-.1.19,0,.33-.19.5h-.06c-.09-.1-.26-.08-.38-.09h0l.13.12a.38.38,0,0,1-.44.08c-.17.23-.37.28-.47.54,0,.06,0,.11.07.17a.45.45,0,0,0-.5-.07s0,0,0,0h.2l0,0a.32.32,0,0,1-.28.14c-.18-.42-.47,0-.73.11-.08.05-.24,0-.32,0l-.32.15h0l.16.05c.07-.06.1-.09.19-.08s0,.13,0,.19l0,0c-.25-.06-.26.21-.65.1-.05-.08,0-.17-.1-.24l-.06,0-.15.08,0-.1-.06,0c-.1.11-.38.08-.51.09-.39,0-.76.2-1.14.25l0,0,.09-.13c-.14,0-.25-.06-.36,0a1.06,1.06,0,0,1,.1.17,5.49,5.49,0,0,1-1.34,1.09c-.21.17-.23.38-.43.45a8.41,8.41,0,0,0-2.08.65c-.45.35-.24.77-.43,1.17a6,6,0,0,1-.77.74l-.75.37-.36.35-.66.4c-.25.11-.61.12-.75.37l-.59.51-.65.08-.46.26a1.61,1.61,0,0,1-.54,0l-.19,0c-.08-.05,0-.24,0-.32s-.1,0-.15,0c-.08-.35-.4-.3-.65-.3l-.12-.16-1.72.19-.42.16-.28-.1-.3.18h-.29s-.07.15-.07.17a.19.19,0,0,1-.1,0,.35.35,0,0,1-.28-.3c-.23-.07-.35,0-.41.19-.43-.13-.43.14-.75.11-.09-.1-.13-.14-.23-.15l-.35.26a4,4,0,0,1-2.35-.26,3,3,0,0,0-.32.24.28.28,0,0,0-.19-.07l-.11.09.05.12c-.12.15-.29.18-.42.28.1.09.19.27.33.31l.24,0,.45.28c.25,0,.46-.19.7-.19s.45.13.64.1l.27-.16a1.36,1.36,0,0,0,.48.16l.17-.16c.35.07.49.3.68,0,.17,0,.38.16.58.2l.71.08c.3.1.23.22.51.15,0-.08,0-.16,0-.23l.5,0c.11,0,.13-.1.25-.09a.62.62,0,0,1,.15.44l-.09.06a2.62,2.62,0,0,0-.33-.09c-.15,0-.26.09-.4.15a3.66,3.66,0,0,1-1.06.26c-.16,0-.24-.23-.39-.27a1.21,1.21,0,0,0-.53-.05c-.09,0-.14.13-.23.15l-.31.05c-.07.33-.94.53-1.2.5.14-.12.32-.3.24-.47-.07-.35-.54-.25-.73-.19a3.94,3.94,0,0,1-.72.26l-.37-.11c-.09,0-.14.09-.24.06s-.22-.12-.35-.12-.48.09-.62-.17l-.29.07-.22-.15c-.27-.07-1.14-.27-1.14.14l-.08,0c-.06-.07-.08-.06-.17-.05-.23.34-.36.21-.58.36l-.35.46c-.11,0-.12.06-.2,0a.89.89,0,0,1-.25-.16c-.06.05-.08.09-.16.09-.13-.15-.82.21-1.16,0,.06-.13-.06-.15-.16-.18a.65.65,0,0,1-.39.19c-.07-.12-.2,0-.3-.17l0-.06,0,0a.25.25,0,0,0,.3,0l0,0a.85.85,0,0,1-.47,0h0l.16.13s-.08,0-.1.06l-1,.11h0a1.92,1.92,0,0,1-.27-.11l-.11-.13c-.21-.09-.47,0-.67,0s-.28-.46-.63-.62-1-.19-1.11-.43c0-.07,0-.15,0-.22a1.76,1.76,0,0,0-.14-.23l-.21,0c-.22-.07-.4-.37-.51-.49a3.23,3.23,0,0,0-.9-.68l.09-.13-.18.16L40,158.6a.57.57,0,0,0,0-.14l-.14.08c0,.05,0,0,0,.08h0c-.39-.27-.71-.12-1-.36.07-.2.31-.28.45-.41s.25-.58.58-.35c0,.11.07.22.1.33h0c.1-.09.2-.06.26-.14-.19-.17-.18-.47-.51-.61l-.45-.14c-.23,0-.53.23-.72,0a.61.61,0,0,1-.13.3,1.59,1.59,0,0,1-.3-.06c.08.15.17.29.26.43a.58.58,0,0,1,.67,0l.07.13a1.55,1.55,0,0,1-.44.41,56.46,56.46,0,1,0,79.75-76.58A59.51,59.51,0,0,0,112.84,78.09ZM74.93,86.9s0,0,0,0a.35.35,0,0,0,.34,0,1,1,0,0,1-.23-.28,1,1,0,0,1,.12-.15.47.47,0,0,1,.32.41h0l.16-.08s0,0,0,0a.53.53,0,0,1,0,.37l-.21,0c-.05.09-.12.23-.21.23C74.88,87.33,75,87.15,74.93,86.9Zm-2,.92.23-.43c0-.16-.12-.31-.12-.47l.12-.34,0-.08.06,0c.08.19.12.18.33.3,0,.11,0,.14.09.23-.16.3-.37.5-.48.73.13.15.11.24.15.4l-.24,0A.48.48,0,0,1,73,87.82Zm-41.78,48.4a2.77,2.77,0,0,1-.38.64c0-.29-.09-.58-.13-.87a.85.85,0,0,1,.16-.32c.16,0,.23-.08.41,0C31.2,135.89,31.27,136,31.19,136.22Zm-.1-1.26a1.26,1.26,0,0,1-.49.42c0-.18-.05-.37-.07-.56a.74.74,0,0,1,.56.1Zm-.87-3.74c.22.22.52.45.2.77l-.15.09C30.25,131.79,30.23,131.5,30.22,131.22Zm.06,1h.06c0,.11,0,.21.05.32l-.08.09Zm2.81.5c.39.07.34,0,.65-.05l0,0c0,.17,0,.34,0,.51-.15.43-.85.77-1.12,1s-.23.28-.39.35a.09.09,0,0,0,0,0c-.11-.2,0-.4,0-.61s-.27-.36-.33-.5.06-.13.08-.19A5.9,5.9,0,0,1,33.09,132.75Zm-2.3-5.9c.05.51.41,1,.45,1.49-.22.32-.73.82-.79,1.13l.16,0,.35-.09c.23.32.1.67-.26.91a.83.83,0,0,0-.53-.13c0-.89-.05-1.77,0-2.65.16-.29.19-.63.62-.67Zm32.77,11.51v0l-.09,0h0l0,0h0l.1,0,.35.06,0,0A.9.9,0,0,1,63.56,138.36Zm9.91,7.4c-.07.12-.14.1-.22.18s0,.22-.07.31-.57.36-.64.36v-.18c.21-.33.6-.72.88-.72Zm-.72-1.26c-.13.16-.27.31-.41.47s-.22.49-.4.74h0c0-.06,0-.12-.05-.18a.31.31,0,0,0-.1-.33c-.23.08-.46.42-.69.52-.11-.06-.31-.14-.4-.09s-.24.33-.35.43-.46.25-.66.41-.38.55-.65.64l.1-.3H69c-.49.44-.29.58-.35,1,0,.11-.15.24-.17.33a.33.33,0,0,1-.06.5s0-.05,0-.07l0-.19a.34.34,0,0,1-.22-.2,7.34,7.34,0,0,1,.18-.86l.26-.46a4.74,4.74,0,0,1,.79-.89l.1-.15.51-.14c.31-.19.52-.54.83-.66l.38-.05c.24-.15.59-.64.83-.67l.09.16h.06a1.18,1.18,0,0,1,.77-.58l0,0C72.89,144.08,72.85,144.29,72.75,144.5ZM76,141.73c-.15.07-.4,0-.44.34,0,0-.12.05-.15.14s.06.31-.08.4l-.2,0a.82.82,0,0,0,.19.65c-.12.1-.38.08-.52.11s-.16.29-.25.43l-.33.37c0,.09,0,.14,0,.24s-.24.14-.4.12v0l0-.12c.28-.23.7-.67.71-1h0c-.32.22-.29-.07-.48-.08s-.31.21-.45.28l0,0s0,0,0-.06a.8.8,0,0,1,.08-.16,2.91,2.91,0,0,1,.49-.5c.1-.11,0-.19.08-.27l.17-.19c0-.06,0-.11,0-.2.22,0,.32-.21.46-.35.39.11.76-.43,1.14-.43A.84.84,0,0,1,76,141.73Zm7,2.87c.06.15.22.19.34.32a3.58,3.58,0,0,1-.26.44h0v0a2,2,0,0,1,0-.24.23.23,0,0,1-.15-.1c-.06,0-.07,0-.13.08l0-.05a.81.81,0,0,0,.16-.34l0-.06Zm-6.1-3.93c-.1.15-.07.25-.21.37a1,1,0,0,0-.25-.13s0-.07,0-.1c.14-.2.37-.58.57-.64C77.15,140.36,77,140.46,76.85,140.67ZM62.7,127c-.29-.11-.34-.68-.46-.88l.29-.11c0,.12.21.28.24.41s-.09.31.1.41l.11-.05c.08-.25-.28-.62.25-.63C63.46,126.39,63.13,127.12,62.7,127Zm44.05,43.75c0-.06,0-.11.08-.16s0-.05.07-.06a.24.24,0,0,1,.21,0c0,.11,0,.21,0,.32l.28,0,.33.34a0,0,0,0,0,0,0c-.12.09-.19.17-.34.16C107.28,171.16,106.9,170.94,106.75,170.71Zm7.49,4.45,0,0-.08,0-.26-.18h0a.28.28,0,0,1-.11.17c-.11,0-.13-.09-.19-.16.11-.12.2-.2.18-.33l.08,0A1.18,1.18,0,0,1,114.24,175.16Zm4-3.12,0,.09c-.14.21-.22.61-.36.73l-.28.18-.44.54-.27.54c-.1.1-.27,0-.36.26a5,5,0,0,1-.17.5h0a1.87,1.87,0,0,0-.26-.3c.13-.25.27-.55.52-.56l.08-.16c-.12,0-.3,0-.39,0-.27.13-.21.19-.52.15l0,0c0-.15.06-.31.08-.47l-.1-.07,0,0c-.11.2-.15.44-.32.51h0c-.23-.27-.12-.62-.19-.91.2-.09.39-.36.58-.43l.06,0c.06.16,0,.33.19.33.2-.33.48-.21.78-.26a1.71,1.71,0,0,0,1.36-.78A.46.46,0,0,0,118.26,172ZM95.6,85.1a.12.12,0,0,0-.11-.07,3.47,3.47,0,0,1,.25-.29c.05-.22.11-.44.17-.66a5,5,0,0,0,.06.54h.15c-.13.22,0,.37-.17.63,0,.05,0,0,0,.08s-.2.16-.28.22a1.14,1.14,0,0,1-.25-.06S95.6,85.12,95.6,85.1Zm-3.45,4.63,0-.06s0,0,0-.07l0,0a.29.29,0,0,0,.16-.09.41.41,0,0,0,0-.11h0l0,.07c.06-.06.06,0,.12,0s.14-.26.22-.39a.7.7,0,0,0,.3-.33s0,0,0,0l.08.09,0,0c0-.12.06-.22.07-.33a.48.48,0,0,1,.13.17l-.46.78-.08-.06c-.18.13-.38.44-.55.54ZM87,93.88c.37-.15.46-.31.63-.74a.89.89,0,0,1,.16-.34h0c.08.14.18.48.39.53s.17,0,.22,0,0,.18,0,.28a8,8,0,0,1-1.09.64c-.18.1-.21.24-.41.21C86.76,94.25,87,94.14,87,93.88Zm-4.21.71a4.13,4.13,0,0,1,0-.51L82.7,94a.1.1,0,0,0,0,0l.06,0c.33.22.82.49.89.81l-.06.06-.06,0a.86.86,0,0,0-.07.1l-.09,0a.49.49,0,0,0,0-.11l-.12.08v0s0-.06,0-.09h0c-.05.08,0,.09-.1.08s0-.06,0-.09-.09,0-.18,0,0,0,0-.07S82.84,94.62,82.79,94.59Zm.84.82a1.09,1.09,0,0,0,.18-.68c.1-.07.51-.12.64,0a.93.93,0,0,0,.11.19l.27.14c.16.08.2.23.27.33s-.17.12-.19.25l.06.19c-.34.33-.5-.19-.87-.36-.18-.08-.3,0-.46-.07C83.64,95.44,83.63,95.43,83.63,95.41ZM67.84,95c0-.06,0-.13,0-.19a2.06,2.06,0,0,0-.26,0,.23.23,0,0,1,0-.21.58.58,0,0,0,.18-.2l-.35,0c0-.09,0-.17.07-.26h-.22c0-.06,0-.12-.07-.19l.27-.11c.2-.17.16-.61.41-.77.09,0,.11,0,.13.08.15.29-.17.67.15.94h.07c.2-.28.55-1,.79-1.06.07,0,.08,0,.11,0,.18.27.58.75.34,1.1h0l.23-.11s0,0,0,0c.06.17-.09.42-.24.64h0c.32-.21.21-.3.36-.54a1.41,1.41,0,0,1,.77-.29c.23,0,.41.22.64.2s.15-.15.27-.21l.51,0c.13,0,.38.21.39.2.4,0,.46-.23.64.25l.16-.15c-.13-.34.27-.54.5-.61l.31.17a1.81,1.81,0,0,1,0,1.06h0c.08-.1.39-.47.41-.48l0,0,.16.11c0,.09-.11.26,0,.34-.14.17-.06.28-.13.43l-.27.29-.09.26c-.06,0-.13,0-.18.13s-.16.33-.23.49l.09,0a3.54,3.54,0,0,0-.55.75c.34.25.14.36-.1.48a.18.18,0,0,1-.09.18.89.89,0,0,0,0,.56l-.14,0-.16.13s0,0,0,0a1.17,1.17,0,0,0-.13-1c.11-.12,0-.14,0-.25s.3-.34.4-.61c-.12-.09-.12-.24-.19-.36a1.12,1.12,0,0,1-.12.45h0l-.38.21c-.1.15-.21.3-.32.44l-.2.06s0-.06,0-.1.14-.46,0-.73c-.09-.07-.19-.18-.28-.18l0,0-.17.24h0c-.17-.31,0-.69.29-1.06h0c-.29,0-.34-.26-.61-.45h0a2,2,0,0,0-.1.21,1.39,1.39,0,0,1-.3,0,.91.91,0,0,1-.16-.43c-.3.26-.11.25-.27.5l-.19.17a.14.14,0,0,1,.06.14l-.25.22c-.15-.14-.19-.53-.34-.55a.24.24,0,0,1-.28-.06.34.34,0,0,0,0-.2L69,95.07l0,.05a2.94,2.94,0,0,1,0,.59l0,0c-.22,0-.31-.35-.42-.52l-.19.07,0,0a1,1,0,0,1,.05.23l-.13.07-.22-.44Zm1.45.9-.05,0a.64.64,0,0,1-.22-.14.42.42,0,0,0,0-.1l.2.1Zm.46,4c.07-.09.2-.25.2-.34s-.1-.13-.12-.2.15-.26,0-.37l-.13.27s0,0,0,0,0-.09,0-.13,0,0-.09,0,0-.21,0-.4l-.11,0a1.71,1.71,0,0,1-.48.56s0-.09,0-.13h-.07l.07-.18c-.13-.06-.1-.07-.13-.19v0c-.11,0-.14.09-.18.21l-.07,0a.5.5,0,0,1-.13-.31A3.11,3.11,0,0,0,69,98a.46.46,0,0,1-.14-.05.33.33,0,0,0,0-.36l-.22.32a.14.14,0,0,0,0-.06l.06-.16a.47.47,0,0,1-.08-.64.2.2,0,0,0,.26-.09,1,1,0,0,1,.46-.72,4.21,4.21,0,0,1,.69.22.64.64,0,0,1,0,.59,1.47,1.47,0,0,1,.91.31c.1.14.11.3.28.46l-.16.26a.32.32,0,0,0,0,.09l-.24.41c0,.2,0,.41,0,.6l-.11.19a2.47,2.47,0,0,1-.21.56.56.56,0,0,0-.27-.15l-.11.2c-.07,0-.12,0-.17-.08l0-.16h0l-.18.23ZM47.88,93.2h0l-.09.33c.15-.05.29-.26.42-.37h0a.44.44,0,0,1,0,.25s-.07,0-.11,0a.71.71,0,0,0-.15.15,7.38,7.38,0,0,1-.59.79c-.06.06-.25.21-.29.1s.11-.44.14-.56c.16-.37.41-.39.6-.65Zm-1,1.17c0-.16,0-.32,0-.48a5.14,5.14,0,0,0,.3-.58l0,0c0,.12-.07.24-.1.36l0,.25c0,.09-.07.19-.11.28a.86.86,0,0,1-.11.28,0,0,0,0,1,0,0S46.9,94.43,46.9,94.37Zm-.46.4c0-.08-.06-.18-.08-.24l.12-.27c.05-.08.18-.25.25-.2A2.09,2.09,0,0,1,46.44,94.77ZM44.33,92c.12,0,.32,0,.41-.16s0-.19,0-.21.08,0,.09.07a2.87,2.87,0,0,1-.07.58.27.27,0,0,1-.1.06h-.33C44.33,92.32,44.38,92.12,44.33,92Zm.72.77c-.06.13-.36.21-.37.06h0l.14-.12C45,92.64,45,92.63,45.05,92.8Zm-2.12-.18.47-.17c.06,0,.15-.08.2,0v0l0,0-.21.07-.18.14-.12,0c-.07,0-.12.13-.21.14s-.16-.06-.23-.09C42.73,92.64,42.82,92.65,42.93,92.62Zm-11.6,23.92s.07,0,.08,0a1.59,1.59,0,0,1-.17.39Zm-.25,1.28a.47.47,0,0,1,.13.11c.14.26-.06.56-.29.81C31,118.43,31,118.13,31.08,117.82Zm-.29,1.69c.24-.27.49-.56.69-.77s.23-.41.39-.48l.21,0,.19.13.06.32-.39.9a2.5,2.5,0,0,1-.21.66s-.64,0-.64,0l-.17.3-.3.18C30.67,120.31,30.73,119.91,30.79,119.51Zm-.18,1.28h0l.31.1a2.36,2.36,0,0,1-.39.45C30.56,121.17,30.58,121,30.61,120.79Zm-.32,3.07a.74.74,0,0,0,.41-.28l-.09-.34A5.58,5.58,0,0,1,31.79,121l.62-.26c.34-.24.4-.47.77-.45,0,0,0,0,0,0s-.17.72,0,.8l.35.09a8.43,8.43,0,0,1-.64,1.1l-.32.17c-.1,0-.31-.15-.4-.12l-.2.14v.07l.36.23a2.74,2.74,0,0,1-.48.87c-.18.16-.4.21-.57.39l.17.18a3.57,3.57,0,0,1-.61,1,.67.67,0,0,1-.5-.16c-.07.15-.16.34-.11.47s.07.13.1.19a.54.54,0,0,1-.18.43C30.19,125.36,30.24,124.61,30.29,123.86Zm13.16,4a.92.92,0,0,0,0,.37c-.23.2-.43.56-.68.66s-.51-.12-.83.35l.06.12.25.11s0,0,0,.06c-.29.48.09.8-.25,1.29a1.31,1.31,0,0,0-.47-.24c-.14.29-.27.59-.39.88l-.05,0a1,1,0,0,1-.07-.82c-.63-.11-.94-.82-1.27-1.25l.41-.11.16.21c.13-.06.23-.06.35-.21l-.1-.21a5.1,5.1,0,0,1,.89-.37c.52-.25.51-.65,1.15-.13.17-.19.29-.45.49-.58l.32-.13Zm4.27-11.35c0,.09.11.24.12.3-.06.33-.38.19-.39.57h0a.56.56,0,0,1,.52-.06.53.53,0,0,0,0,.57.64.64,0,0,1-.44.11v0l.36.33.39.16,0,0c0,.1-.39.31-.47.31s-.18-.08-.29-.07,0,.2-.05.29-.25,0-.4,0l-.14-.2c-.13.06-.2.22-.34.31-.34.2-.68.07-1,.44,0,.12-.07.29,0,.39l.52-.07,0,.06-.13.23a.88.88,0,0,0-.56.15,3.73,3.73,0,0,0,.72.12l.24-.25a7.54,7.54,0,0,0,.93.1s0,0,0-.07a.76.76,0,0,0,0-.15c.14-.12.35-.08.5-.16a3.59,3.59,0,0,0,.38-.21l0,0a1.42,1.42,0,0,0-.05.16.3.3,0,0,0,0,.08c.47,0,.64-.41,1.18.06l-.06,0a1.39,1.39,0,0,0-.73.06c.3.26.61,0,.94.25h0c-.07.06-.13.13-.19.19l.55.08a1.24,1.24,0,0,1-.77.18c-.35.6-.85.48-1.34.63l.29.13c-.23.17-.41.13-.64.45.42.22.9-.19,1.27-.34a2,2,0,0,1,1.31-.08l-1.11.81c-.21.18-.29.4-.51.5L48,123l-.21.23-.18.08c-.08,0-.14.16-.15.16-.26.08-.39.34-.67.28a1.17,1.17,0,0,0-.08-.37l-.4.19-.22.24a.79.79,0,0,1-.86,0c-.22.33-.42.34-.65.59l0,0c.09,0,.25.07.28.14s0,0,0,.07l-.47.39c0,.13,0,.26.08.39a3.32,3.32,0,0,1-.94,1c-.31-.19-.38-.38-.22-.69,0,0-.22-.16-.24-.22a2.82,2.82,0,0,1,.7-.68l.36-.05h0c-.13-.09-.21-.1-.29-.2a3.45,3.45,0,0,0,.29-.73l.24-.31h0l-.06-.08a3.25,3.25,0,0,1-.84.08,5.78,5.78,0,0,1,.06-.89l-.17-.28-.12-.5a2.38,2.38,0,0,0-1.2-.16,2.2,2.2,0,0,1-.73.4l-.48-.06v.32l-.15.22c0,.17-.16.39-.2.56h0l-.33-.14.32-.58-.11-.1-1,.34-.17.23-.19.08c-.4-.22-.53,0-.85.17l-.36.08-.06.24c-.12.11-.55.26-.56.41s0,.06,0,.09h0c.34.05.79-.64,1.2-.57a.26.26,0,0,1,.14.1.84.84,0,0,1-.06.3c-.19.4-.9.47-.91.83h0c.18.11.33,0,.46.12-.13.07-.5.13-.57.34s0,.2-.07.3a.73.73,0,0,0-.37.27l-.09.22-.62.6-.43.64-.22.15a.74.74,0,0,0-.31-.17l-.24.23a1.62,1.62,0,0,1,.1.18c-.23.46-.88,1-1.25.68.13-.21.72-.85.65-1-.69,0-.92.62-1.48,1.11-.33-.26-.39-.34-.28-.69l-.12-.06-.32.12c-.89-.55-.81-2.62.22-3.29a.31.31,0,0,1,0,.08,3.21,3.21,0,0,0,.31,1.34l.21.1.43-.13c.26.66.87.2,1.28.16l0,.06-.06.36.13.09.44-.51c-.1-.14-.13-.37-.37-.42s-.27.13-.44.19l-.38,0a.67.67,0,0,1-.08-.41,1.38,1.38,0,0,0,.31-.4h0l-.33.11a1,1,0,0,1-.13.16l-.26.1a.71.71,0,0,1-.33-.28v-.24a2.75,2.75,0,0,0,.44-.59h0l-.57.28s0,0,0-.06c.06-.39.28-1.64.86-1.88l.56,0,.48,0c.14,0,.29.59.39.71l.34.23a.45.45,0,0,0,.08-.74.64.64,0,0,1,.37-.4l.34.18.2-.16s0,0,0,0l-.41-.22c-.48-.66.23-1,.64-1.44.13-.15.13-.36.32-.42s.28,0,.41,0a2,2,0,0,1,.45-.15l.08.05a1,1,0,0,0,0,.71l.18,0a.94.94,0,0,0,.1-.1.67.67,0,0,1,.09-.62,3.91,3.91,0,0,1,.68,0v-.05a3,3,0,0,1-.18-.65,3.15,3.15,0,0,1,.72-.47h0c0,.19.11.39.16.59.16-.27.14-.45.29-.71l.29.17.27-.08c.2-.38.12-.86.69-.88.17.25-.12.55,0,.81l0,.11.17,0a1.6,1.6,0,0,0,.1-.39l.16-.29c0-.08,0-.18,0-.28a.84.84,0,0,1,.79-.17,2.36,2.36,0,0,0-.34.61.23.23,0,0,0,.07.07c.21,0,.43-.35.61-.46a.65.65,0,0,1,.34-.07s0,0,0,0a2.14,2.14,0,0,1-.32.45c-.1.09-.35.15-.42.34,0,0,0,.08,0,.12h0l.4-.12.06.09-.2.38c.39.06.71-.42,1.07-.55.12,0,.33.09.45.08,0-.39.21-.31.44-.55s0-.31.2-.43a1.38,1.38,0,0,1,.8-.14v0c0,.13-.1.25-.14.38l.16.11c.22-.31.32-.61.52-.85l.18.22c.21-.2.31-.32.27-.58l.64-.24S47.72,116.5,47.72,116.52Zm-6.83,6.85L41,123a1.07,1.07,0,0,1,.5-.27L42,123a1,1,0,0,1-.43,1.13C41.14,124.31,40.87,123.64,40.89,123.37ZM39.83,109.7c-.07.08-.16.19-.25.16a.39.39,0,0,1-.08-.25s0,0,0,0A.32.32,0,0,1,39.83,109.7Zm4.2,1.64s0-.15,0-.2a.32.32,0,0,0,.1-.19h0a.5.5,0,0,1-.1.14h0v0l-.06.12-.21.18-.13.14s0,0,0,0a.62.62,0,0,1,.14-.25,1.18,1.18,0,0,0-.3.1.21.21,0,0,1,0-.14,1.25,1.25,0,0,1,.09-.12c-.1,0-.15.09-.23.07a.75.75,0,0,1,0-.37.91.91,0,0,1,.62-.58.8.8,0,0,0,.34-.13c.11-.09.41-.34.5-.15a1,1,0,0,1,0,.59c0,.12-.12.18-.15.3s-.05.19-.07.29S44.08,111.41,44,111.34Zm49.49,31.23a1.41,1.41,0,0,1-.43,1,1.14,1.14,0,0,1-.74-.55c.17-.25.65-.93.81-1C93.23,142.21,93.48,142.42,93.52,142.57ZM65.17,122.38l-.27.22-.21-.11,0,.22-.08.08-.1-.05a.44.44,0,0,0-.17-.29h-.23l-.06,0a5,5,0,0,1,.14,1,.68.68,0,0,1-.2.21c-.06,0,0,0-.07,0,.11-.32-.06-.52,0-.79l0,0-.24.28a.16.16,0,0,1,.06.17l0,.08h-.05l-.17-.12a1.86,1.86,0,0,1-.1.2c.12.12,0,.36-.15.53l-.53.57-.29.55c-.09,0-.2,0-.23-.09-.14-.25,0-.58,0-.85l-.24.21,0,0c-.21-.29.05-.35,0-.61l-.32,0a3.75,3.75,0,0,1-.65-1.76c0-.17.11-.33.17-.49l.07,0h.07l0,0c0,.08-.06.2-.09.3.48.06.32.85.76,1.15.09-.23-.12-.34,0-.56l.25-.18c0,.11,0,.22,0,.33h0l0,0a1,1,0,0,0,.63-.45,1.09,1.09,0,0,0-.08-.15,1.09,1.09,0,0,1,.55-.48l0,.12c0,.13,0,.27,0,.4h.05a.58.58,0,0,0,.29,0,.67.67,0,0,0,.08-.3l.09-.06,0,0c0,.28,0,.24,0,.52h0a1.26,1.26,0,0,0,.38.06v0a.29.29,0,0,1,0-.18l.11-.09h0c.13.14.2.17.33-.06C65,122,65,122.21,65.17,122.38Zm-9.71-10.72h0c-.06-.08,0-.24,0-.29a.19.19,0,0,1,0-.06.08.08,0,0,1,.08,0A.62.62,0,0,1,55.46,111.66ZM51.75,98.41a2.3,2.3,0,0,0-.15.23c-.11.16-.31.32-.45.31h0l0,.09c.09,0,.32-.27.42-.16a.18.18,0,0,1,0,.1h0s.09-.13.14-.16.16.23.19.29l.08.07c0,.1,0,.27,0,.34s.16.06.21.14,0,.15,0,.21a.31.31,0,0,0,.24.1l.1,0c.06.07,0,.18.08.25l0,0a.22.22,0,0,1,.19.07,1.62,1.62,0,0,1,.1.18c.07.13.16.23.23.35a.24.24,0,0,1,0,.26.56.56,0,0,1-.16.07c0,.08-.29.4-.25.46s.22-.17.3-.1,0,.12.06.17l.16.12c.06.13-.16.3-.23.37h0l0,0a.67.67,0,0,1,.1.38h0c-.05.07-.14,0-.2,0h0a.32.32,0,0,1,0,.36c.09,0,.15,0,.22.08h0c0,.07-.09.16-.14.18S53,103,53,103h-.09c-.06-.05-.07-.18-.1-.24a3.28,3.28,0,0,1-.2-.31.82.82,0,0,1-.25.41c.09,0,.19,0,.17.12h0l0,0a.93.93,0,0,1,.06.34s0,.14,0,.17.43-.39.45,0c0,0,0,0,0,.06s.07.12.08.2a.48.48,0,0,1-.17.31l-.08,0-.05,0a.79.79,0,0,0-.16.08h0l.24,0h0s0,0,0,0-.13.07-.21.1h0a0,0,0,0,0,0,0c.12.14.16.14,0,.43h0c.1-.08.18-.23.29-.28s.29.16.29.27a.7.7,0,0,1,0,.23c-.19.24-.28.1-.39.55l.1-.06c.19.13.23-.12.41-.22l.11,0h.13s0,0,.07,0,.11,0,.08.14.14-.09.2-.06-.1.14-.15.28,0,.23,0,.35l-.06.23.26-.21s.07-.13.11-.15h.11l.15-.07c.07,0,.21-.1.24,0s0,.16-.07.21l-.16.23c0,.07-.12.12-.17.2a.43.43,0,0,0,.13,0l.06-.11c.08-.09.21-.17.23-.33.06,0,.12,0,.13.08s-.07.14-.07.19.06.08,0,.12-.07.14-.1.21h0c.07,0,.13-.08.2-.09s0,0,0,.1-.11.11-.17.18h0c.06,0,.21-.06.28-.09s0,0,0,0h0a.93.93,0,0,1-.33.3h0c0,.14.2,0,.29,0l.1,0h.07a1.74,1.74,0,0,1-.07.29c0,.12,0,.24,0,.36s.14,0,.22,0,.17-.14.24-.2h0c0,.14-.3.28-.39.45a1.35,1.35,0,0,0,.52-.39c.13.08.28,0,.4,0a.49.49,0,0,1,0,.45h0s.08-.16.12-.24,0,.06,0,.09.09.1.08.2.2.12.2.17a.11.11,0,0,1,0,.07c-.1.06-.25.22-.2.35s0,.06.06.06.21-.26.32-.3h0c0,.23.08.1.14.23a1.72,1.72,0,0,1-.07.21h0a.5.5,0,0,1,.14-.12c-.05.11-.11.23-.16.36a.33.33,0,0,0,.28-.16c.06-.08,0-.15.06-.22l.08-.12c.11.08,0,.64-.17.91a.24.24,0,0,0,.26-.2.75.75,0,0,1,0-.2c.07.11.19-.14.29,0s0,0,0,.08-.09.15-.13.2l-.13.21a1.2,1.2,0,0,0-.3.36c-.05.14.13.23.12.36a.05.05,0,0,0,0,0c-.06,0-.15,0-.21.1s-.07.27-.14.35-.08-.4-.23-.36v0l-.15-.26a.85.85,0,0,0,0,.16c0,.06.12.22,0,.3s-.12-.15-.2-.21-.14.06-.16.14.17.15.11.31h0a.19.19,0,0,0-.13,0c0,.06,0,.11-.08.17a2.44,2.44,0,0,0,0-.27s-.05-.08-.05-.13,0-.2,0-.24-.1,0-.13.05a.33.33,0,0,1-.14,0c0,.06,0,.13,0,.19s0,.1-.06.14a.37.37,0,0,0,0,.21,1.18,1.18,0,0,1-.1-.39s0,0-.07,0-.11,0-.18,0-.06.31.12.19,0,.16,0,.27c.09.07,0,.11-.05.2s0,.16,0,.23-.1.12-.13.18h0c0,.06,0,.08,0,.12a1.42,1.42,0,0,1-.05.16h0s0,0,.05.06a1.08,1.08,0,0,1-.33.48c.05-.12.09-.28,0-.32s-.14,0-.2,0l0,0a.43.43,0,0,0,0,.25s0,0,0,0-.08-.18-.19-.16-.3.34-.42.41c.05-.13.1-.25.06-.32h0c-.15.14-.06.16-.08.26s0,0-.06.09V113a.33.33,0,0,1-.27.3c0-.07,0-.14,0-.23s-.08.06-.13,0,0-.34-.13-.39c-.07.18,0,.31-.11.53-.08-.07-.07-.16,0-.3s0-.07,0-.1h0c0,.06,0,.18-.07.26s-.07.05-.11,0,0,0,0,0a.54.54,0,0,0,0-.2.36.36,0,0,0-.15,0l-.2.24-.18.27c-.11.1-.25.1-.31,0l-.19-.45c0-.06,0-.15-.08-.18l0,0c0,.18.08.29,0,.52h0c-.06,0-.08-.13-.11-.17h0c-.06.08-.06.17-.13.24s-.06-.22-.14-.3-.22,0-.3.09-.06.25-.14.35h0c0-.19,0-.38,0-.57a1.4,1.4,0,0,0-.11.27c0,.13,0,.27-.11.39-.14,0-.16-.11-.31,0s0,0,0,0,.08-.16.06-.21h0l0,.05c-.08,0-.15,0-.23,0a.73.73,0,0,0,.1-.28c0-.18.12-.38.18-.57a1,1,0,0,0,.08-.2c-.07,0-.14.07-.22.06s0,.07,0,.11c0,.2-.09.39-.13.59s-.16.31-.25.3a.73.73,0,0,1,.06-.22,2.6,2.6,0,0,0,0-.46c0-.06,0-.15,0-.19s-.14,0-.18,0h0a.48.48,0,0,1,.08-.37c.07-.06.17,0,.25,0a1,1,0,0,0,.43-.34h0a.56.56,0,0,0-.21.06l-.15.11a.71.71,0,0,1-.38,0c0,.08,0,.21-.11.26s-.17,0-.23,0,0-.07-.07-.06l-.15.07h0a.9.9,0,0,0,.16.18l.25.15,0,.12h0a.32.32,0,0,0-.23,0v0a.24.24,0,0,0,.06.16l.09,0a1.33,1.33,0,0,1,.09.38s0,.16,0,.22,0,0,0,0-.16-.13-.18-.17-.44-.19-.28-.55c-.06,0-.14,0-.19,0s-.1.25-.21.24,0,0,0,0l-.06-.17a.17.17,0,0,0-.1,0,.46.46,0,0,1,0,.19.26.26,0,0,1-.17.09c-.06-.14,0-.4,0-.55h0a0,0,0,0,0,0,0,2.53,2.53,0,0,1-.1.42h0c0-.08-.23-.29-.33-.08a.31.31,0,0,1-.17.34l0,0a.41.41,0,0,0,0-.38c-.07.19-.06.3-.22.35s-.08,0-.09,0,0-.21,0-.29a3.74,3.74,0,0,1,.08-.91l-.06,0a.29.29,0,0,0,0-.27s0,0,0,0,.06-.29,0-.39a3.2,3.2,0,0,0,.32-.6.69.69,0,0,0,0-.2l-.12.1a.4.4,0,0,0-.06.16l-.1.25c0,.09,0,.17-.07.25a1.89,1.89,0,0,0-.07.39c0,.11,0,.22,0,.34s0,.11,0,.18a5.23,5.23,0,0,0,0,.56,1.21,1.21,0,0,1,0,.37c0,.07-.09.13-.13.09s0-.13,0-.14-.08.07-.11.08-.17-.1-.15-.2.08-.13.12-.2.11-.33.11-.34a1.61,1.61,0,0,1-.32.32h0c0-.19.25-.49.25-.67s-.14-.13-.21,0a.3.3,0,0,1,0,.13,3.39,3.39,0,0,1-.3.33H46.5c-.07,0-.12.16-.2.18l.09-.28a3.16,3.16,0,0,1,.64-1.1l.2-.23c-.11,0-.25,0-.34.13l-.09.15-.12.11-.09.17c-.15.29-.31.81-.5.94a1.5,1.5,0,0,0,0-.22,1.17,1.17,0,0,1,0-.2c0-.13,0-.26,0-.38a.63.63,0,0,1,.06-.29,1.21,1.21,0,0,1,.21-.24c.13-.16.25-.37.38-.56-.06,0-.1,0-.15.06s0-.19-.06-.28h0a.78.78,0,0,0-.2.28h0c.1,0,.08.13.08.2l-.07.1c-.07.13-.09.22-.18.24s0-.06,0-.08a1.37,1.37,0,0,0-.11.48l-.06.18c0,.11.11.34-.06.5,0,0,0,0,0,0s-.06-.18-.09-.27-.17-.19-.09-.41.28-.28.3-.37,0,0-.06,0-.28.31-.33.28,0,0,0,0,0,0,0,0l.3-.31a3,3,0,0,0,.23-.26l.16-.29a1.69,1.69,0,0,1,.3-.34s0,0,0-.05-.33.3-.43.23,0-.2-.07-.24-.16.17-.13.24h0a.06.06,0,0,1,.08,0v0c0,.12-.08.17-.06.26a3.39,3.39,0,0,1-.2.28l-.11.1-.09.24a1.53,1.53,0,0,1-.16.22c.09-.28,0-.47,0-.71a2.32,2.32,0,0,1,.19-.31,3.06,3.06,0,0,0,.14-.38,1.18,1.18,0,0,0,.11-.19c0-.1-.06-.25-.17-.17s0,.21-.08.35l-.09-.2,0-.11h0a1.29,1.29,0,0,1-.05-.21c0-.11.19-.31.14-.39h0l-.06.05c-.06,0-.08,0-.13,0s0,.14-.07.3h0s0-.13,0-.17-.11,0-.14-.06a.59.59,0,0,1,0-.13h0a.14.14,0,0,1-.06.07c-.06,0-.07-.06-.1-.08a.34.34,0,0,0,0-.14s-.09,0-.13,0,0-.09,0-.11a1,1,0,0,1-.09-.13c0-.05,0-.13,0-.18s-.07.09-.1.18,0,.17-.08.32h0v-.07h0a.25.25,0,0,0,0,.23c0,.05-.06.05-.09.09a1.33,1.33,0,0,1-.32.31,1.79,1.79,0,0,0-.51.27l-.06.1v0c-.1.13-.3.3-.42.3s-.06,0-.11,0-.12.11-.19.1-.08-.27,0-.41l.2-.18c.07-.08.1-.26.17-.33a2.45,2.45,0,0,1,.52-.34,1.53,1.53,0,0,0,.31-.16,2.24,2.24,0,0,0,.31-.38.17.17,0,0,0-.06-.17l0,0s0,.07-.05.1a.27.27,0,0,1-.19.2h0v0c0-.09.09-.13.12-.22h0c-.08-.1-.22.24-.32.15s.13-.18.11-.29c-.17,0-.45.49-.58.39v0h0c.07-.07.36-.24.28-.38s-.18.08-.24.16,0,0-.06.07-.1-.1-.16-.09,0,.44-.18.53l0-.16a.71.71,0,0,1,0-.14c0-.13,0-.25,0-.39h0a.83.83,0,0,0-.12.21c0,.1,0,.27-.12.35h-.13a3,3,0,0,0,.18-.56.56.56,0,0,0,0-.08,1.39,1.39,0,0,1-.17.48l-.11.12c0,.06-.09.12-.16.1a.36.36,0,0,0-.13-.33.3.3,0,0,0,0,.32s0,0,0,0h0s0-.06-.08,0a0,0,0,0,0,0,0c.07.06,0,.18,0,.29a.4.4,0,0,1,.23.39c0,.21-.32.45-.42.54s-.1.12-.15.13-.08,0-.11-.07-.1.05-.13,0,.09-.25.11-.37a1.55,1.55,0,0,0,0-.3c0-.08,0-.17,0-.2s0,0,0,0,0,.08,0,.13a.58.58,0,0,1-.25.37c-.07-.11,0-.4,0-.54a.11.11,0,0,0-.14-.09c-.13.06-.2.29-.34.32h0c0-.15.14-.19.22-.28l.12-.18s.1-.15.09-.19l-.08-.06c-.12-.07-.24-.06-.34.11-.12,0-.1-.14-.2-.19s0,0,0,0a.36.36,0,0,0,0,.09l-.15.11s-.07.12-.1.13a.68.68,0,0,1,0-.29.29.29,0,0,0-.06-.11s0-.15-.07-.1l-.16.1-.18,0-.08,0c-.07,0-.1-.07-.07-.14l.08-.1s0,0,0,0-.09,0-.13,0-.38.1-.43,0a2.72,2.72,0,0,1-.21.45h0c0-.18,0-.35.06-.52h-.06s0-.16,0-.2-.32.12-.39.15a.57.57,0,0,0-.46,0c-.07,0-.16.13-.23.14l-.13,0a1.07,1.07,0,0,1-.5,0,1.15,1.15,0,0,0-.29-.16l-.1.17s-.11,0-.15,0-.17.16-.26.17-.15,0-.23,0-.21.22-.31.28-.1,0-.13.08a.53.53,0,0,0,0,.23h0c-.06-.08-.18-.1-.28,0s.06.33,0,.42a.32.32,0,0,1-.19,0l0,0a.33.33,0,0,1,0,.28c-.05.08-.12.07-.15.19s.06.09,0,.15c-.17.08-.12-.18-.26-.19a.28.28,0,0,0,0,.37h0l0,0c-.07,0-.12,0-.18,0s0,0,0,0c0,.16.1.06.14.12a.76.76,0,0,1-.74.48h-.21a.38.38,0,0,1,0-.23h0a.78.78,0,0,0,0-.21l.09-.28,0,0a1.39,1.39,0,0,1-.45.37c-.11.06-.17,0-.15-.14h0c0,.08,0,.11,0,.19s-.22.19-.26.08a1.48,1.48,0,0,1,0-.21.27.27,0,0,1,0-.21l.16-.18.42-.46c.07-.08.18-.14.24-.26h0a.36.36,0,0,0-.18.08c-.09.09-.19.3-.29.27s0,0,0,0c0-.21.37-.53.46-.61s.12-.06.14-.13c-.23,0,0-.12-.07-.28a.35.35,0,0,0-.29.07c0,.05,0,.07,0,.11s0,.12,0,.19a1.9,1.9,0,0,1-.26.37c0,.07-.09.23-.1.24l-.07,0A56.26,56.26,0,0,1,40.11,96.1c.65-.95,1.33-1.88,2-2.77a.75.75,0,0,1-.06.24h0l.12-.07h0c.09,0,.08.15.12.2s.06,0,.08.08-.19.17-.27.26v0s0,0,0,0,.24,0,.31,0,.11-.19.18-.23,0,0,0,0c.07-.15.17-.14.27-.15h0c0-.1,0-.14,0-.22s.09-.16.13-.23a.67.67,0,0,0,0-.18.34.34,0,0,1,.18-.18c.06,0,.09,0,.1.08s0,.24,0,.35,0,.19,0,.33h0a2.16,2.16,0,0,0,.08-.29.91.91,0,0,1,0-.21l.1-.12c.08-.14.14-.31.23-.35s.09,0,.15,0,.27-.18.42-.18a.16.16,0,0,1,.13.25s-.11,0-.16.08-.06.2-.07.28-.18.18-.26.26a1.5,1.5,0,0,0-.28.36h0s.14-.15.19-.14,0,.09,0,.18c.11-.07.17-.24.27-.38s.11-.13.16-.19a.9.9,0,0,1,.09-.1h0a1.07,1.07,0,0,0,.06.27l.05.08a0,0,0,0,0,0,0c-.06.08-.26.25-.24.36.1-.17.29-.23.35-.45s-.18-.11,0-.4c.1,0,.2,0,.3,0s.14.1.18.13a1,1,0,0,0,0-.17c0-.17.06-.35.1-.52s.23-.27.3-.23.15.2.13.38a.36.36,0,0,0,0,.1c-.06.09-.14.1-.2.2s0,.33-.12.48a1.47,1.47,0,0,1-.21.22h0c.09,0,.29-.15.35-.05s0,.1,0,.12.07-.12.09-.14.14.11.2.15h0l.19-.29h0a.14.14,0,0,1-.09,0c-.1-.14.18-.41.26-.51s.09-.13.14-.18.49-.11.5,0a1.09,1.09,0,0,1-.09.33l-.06.08a1,1,0,0,1,.21.43l-.11.16a2.12,2.12,0,0,1-.25.4.84.84,0,0,1-.27.16h0c0-.1.19-.37.23-.44s0-.14,0-.17a.38.38,0,0,1,0,.1.23.23,0,0,1-.06.11l-.06.11c-.11.18-.24.52-.1.57a.17.17,0,0,1,.1,0,2.67,2.67,0,0,1-.24.32.54.54,0,0,0,.25-.19v0a1.35,1.35,0,0,0,0,.34l.06,0a.39.39,0,0,1,.09.32c-.1,0-.18.25-.22.39h0s.12-.15.17-.11-.14.49.16.37a.24.24,0,0,0,.09-.06c-.14-.08-.13-.18-.12-.36a1,1,0,0,1,0-.17c0-.09.06-.11.05-.2a3.23,3.23,0,0,1,.37-.37s0,0,0,0,.11.29.1.43-.14.21-.11.29h0c.07-.16.2-.22.3-.19l0,0a.76.76,0,0,1-.12-.19.68.68,0,0,0,0-.15.19.19,0,0,1,0-.19c.05-.09.14-.1.21-.16s.14-.17.21-.16.12.22.11.27,0,.1,0,.13.25,0,.31,0v0l-.08-.2a1.07,1.07,0,0,0-.13-.19,2.63,2.63,0,0,1,.32-.44c.23,0,.2-.09.37-.36a.86.86,0,0,0,.15-.22h0a.11.11,0,0,1,0-.06l0,0s.05,0,.1.06.1-.17.2-.1l0,0c0-.09-.06-.16,0-.26a.54.54,0,0,0,.27.09.34.34,0,0,1,.16.07l0,0h0a1.79,1.79,0,0,1-.22-.25h0c.24-.22.31-.13.55,0,0,0,0,0,0,0l0-.09a.34.34,0,0,1,.08.09c.07-.24.14-.08.22,0a.19.19,0,0,1,0-.09.09.09,0,0,0,.11,0s0,0,0,0,.27-.19.33-.06a.27.27,0,0,1,0,.13.42.42,0,0,1-.09.16,1.34,1.34,0,0,1-.52.2h0c.13.11.35-.07.42,0s0,.06,0,.11a.76.76,0,0,1-.25.52.9.9,0,0,1-.36.27H49.6s0,0-.08.06l-.15,0-.13.09a2.4,2.4,0,0,0-.29.19c0,.08,0,.09,0,.17a3.83,3.83,0,0,0-.39.41c-.13.22-.09.39-.17.59a7.17,7.17,0,0,0-.66.5,1.33,1.33,0,0,1-.19.3.43.43,0,0,0-.11.12.4.4,0,0,0,.33-.18s0-.11,0-.16.3-.34.36-.27,0,.23,0,.3h0a.55.55,0,0,1,.06-.27c.06-.07.14-.08.19-.17s0-.23.12-.42,0-.24.15-.41a.31.31,0,0,1,.12-.09.36.36,0,0,1,.18,0,1.67,1.67,0,0,1,.16.52,2,2,0,0,1-.07.31.08.08,0,0,1,0,.05l-.24.64c.08-.05.15-.14.23-.17.3-.06.17.64.36.65v0s0,0,0,0a.7.7,0,0,1,0-.38s.07,0,.11,0a2,2,0,0,0,.15-.65,2.41,2.41,0,0,1,.08-.25s0-.06,0-.14.12-.07.15,0a3.12,3.12,0,0,1-.06.37c0,.13.15.18.13.34a.41.41,0,0,1-.07.15.32.32,0,0,0,0,.27s0,0,0,0,0-.26.14-.31a0,0,0,0,1,0,0c0-.12.14-.23.17-.35s-.06-.2-.07-.3a1.07,1.07,0,0,0-.08-.32,2.53,2.53,0,0,1-.08-.57h0l.13,0a2,2,0,0,0,.22-.54,1.56,1.56,0,0,1,.19-.3,2.11,2.11,0,0,0,.18-.45,2.77,2.77,0,0,0,0-.39c0-.06-.05-.08,0-.17l.24.1L51,93c0,.11,0,.29.07.33s.11-.07.15,0v0c0,.07-.07.12-.1.18h0s0,0,.06-.06c0,.15-.15.66.1.6l.23-.1h0a.42.42,0,0,0-.07.31c.07,0,.12,0,.19-.06s-.06.24,0,.35a.15.15,0,0,1,.17,0c0,.09,0,.23,0,.29a.24.24,0,0,1,.23,0s0,.07,0,.09L52,95a.29.29,0,0,0,0,.23.09.09,0,0,0,.07,0c.09,0,0,.11,0,.18s0,0,0,0l0,.07c.08,0,.08.34.06.46s0,.09,0,.15a1.74,1.74,0,0,1,0,.22c0,.12,0,.23,0,.34L52,97c0,.13.15.1.1.25a.33.33,0,0,1-.27.2v0c.09.08.22,0,.32.06a.32.32,0,0,1-.08.25c-.19,0-.1,0-.22.2.09,0,.2-.15.28-.11a.79.79,0,0,1-.15.39C51.91,98.33,51.82,98.34,51.75,98.41Zm-7.11,10.93c.15,0,.25.2.25.29l0,0C44.57,109.74,44.67,109.52,44.64,109.34Zm-2.15.57a.31.31,0,0,1-.05-.17s0,0,0,0,.29,0,.31.12S42.56,110.07,42.49,109.91Zm-.29-.53a0,0,0,0,1,0,0c.09-.11.32-.21.22,0S42.22,109.46,42.2,109.38ZM45.8,92.7s0,.11,0,.17a1.28,1.28,0,0,1,0,.19.5.5,0,0,1-.33.35c-.11,0-.08-.24-.07-.39S45.68,92.8,45.8,92.7Zm4,2.11c0,.13.06.17,0,.29a.22.22,0,0,1-.09.1v0l0,.23c0,.07,0,.13-.05.19a.28.28,0,0,0,0,.09.78.78,0,0,1,0,.26,1.17,1.17,0,0,1-.12.31s-.12-.19-.14-.22-.17-.15-.18-.25,0-.24.07-.37-.05-.33-.07-.49a0,0,0,0,0,0,0C49.35,94.92,49.68,94.72,49.75,94.81Zm8.83,3.69a2,2,0,0,1-.51.46l-.35.13c-.28.2-.53,1-.87,1-.06-.29.06-.49-.06-.8a.63.63,0,0,1-.55.28,2.08,2.08,0,0,1-.35.66h-.1s0,0,0,0c-.1-.21.37-.85.36-1.13L56,99l-.12,0a2.47,2.47,0,0,0-.43.33c-.26.27-.14.8-.55.78a.17.17,0,0,1-.13-.07,3.23,3.23,0,0,1,.22-.52h-.32c-.22-.35.38-.21.38-.57h0a.56.56,0,0,0-.34,0s0,0,0,0l0-.14c.26-.21.59-.57.92-.43.16.07.14.3.24.31h.38c0-.09,0-.18,0-.27s.1-.26.07-.4-.34-.17-.39-.28v-.13h0a1,1,0,0,0,.58-.06l0-.11h0l-.22-.07c0-.17,0-.37.19-.42a.46.46,0,0,0,.45-.19.59.59,0,0,0-.31-.09c.24-.28.54-.55.53-.88l-.27-.19a.59.59,0,0,1,.26-.26c.31,0,.4-.17.68-.34h.1c.06.07.14.17.22.18L58.3,95c.12-.08.2-.32.33-.34s.49.28.57.44-.09.25-.15.38l.13.1a.36.36,0,0,1-.11.59,3.17,3.17,0,0,1,0,.92c-.09.2-.2.39-.29.58S59,98.09,58.58,98.5Zm45.63,10.92-.07,0-.1-.07c0-.1-.05-.2-.08-.29a.19.19,0,0,1,.18-.07C104.13,109.19,104.29,109.26,104.21,109.42Zm24.45-14.6a.89.89,0,0,1-.43,0,.08.08,0,0,0,0,0s0,0,0,.08a1,1,0,0,0,.59.17c.16.17.13.41.27.56s.36.23.5.4l2,2.54c.24.31.88.93.86,1.26l-.21.4c-.08.24,0,.4-.13.65-.32,0-.47.34-.78.34-.09,0-.13-.08-.25-.11s-.28.09-.49-.14l-.21-.24-.71-.07a1.12,1.12,0,0,1-.43-.53c0-.06,0-.11,0-.17a2.68,2.68,0,0,0-.71-1.05l-.32,0-.11-.19a1.45,1.45,0,0,1-.83-.26c-.17-.26-.12-.44-.5-.7,0-.08.11-.16.15-.24v-.2c0-.06.14-.08.15-.18a.75.75,0,0,1,0-.16c0-.2.22-.2.27-.35l-.15-.07c0-.11,0-.23,0-.35s.1,0,.11-.09v-.09a1.11,1.11,0,0,1-.17,0l0-.27h0c.06,0,.07,0,.12,0s0-.15,0-.22-.15,0-.23,0l0,0a.25.25,0,0,0,.06-.17l0-.06a.78.78,0,0,1-.33-.14l.08-.09c.09,0,.13,0,.2,0-.08-.11,0-.18-.06-.3s-.25-.37-.43-.48c0-.18-.05-.18.13-.24s.25-.08.4-.08.81.39,1.12.47l.37,0C128.59,94.47,128.65,94.72,128.66,94.82Zm-13.34-9.91c.1.06.07.21.13.28l.43.35.31.64.06.37.15.09c.12.27.24.55.36.81.07.09.14.16.21.24a7.17,7.17,0,0,1,.57,1.75l.24.82c0,.62-.06,1.29,0,1.91s.32,1.29.49,1.94a.18.18,0,0,1,.16.13c0,.15,0,.26-.15.39.26.19.15.35.13.58.38.29.23.53.42.77s.2.07.26.24,0,.14,0,.22a1.83,1.83,0,0,0,.67.72,2.1,2.1,0,0,0,.61-.09,1.54,1.54,0,0,1,.28.42c.06,0,.1,0,.17,0a1.59,1.59,0,0,0,1,.54c.3,0,.47-.2.79-.14l.18.35a2.44,2.44,0,0,1,.76.37c.07.08.08.17.14.21.26,0,.53.24.84.4l.14-.08.06,0a1.58,1.58,0,0,1,.13.34c.07,0,.1,0,.15.05a4.44,4.44,0,0,1,.29,1c0,.49-.24,1-.26,1.48a7.14,7.14,0,0,0,.23,1.19c0,.31,0,.62,0,.93l.36.25a.37.37,0,0,1,.38,0,1.38,1.38,0,0,0,.71.37.64.64,0,0,0,.06-.16,3.21,3.21,0,0,1,.65.5l.12.18,0,0c.07,0,.08-.08.2,0,.33.52,0,1-.09,1.58a1.71,1.71,0,0,0,.12.71h.06a.39.39,0,0,0,.25-.08,1.89,1.89,0,0,1,.76.75c0,.08-.06.16,0,.24s.21,0,.28.14,0,.63.15.89a9.7,9.7,0,0,1,.77,3.15c0,.23,0,.46.08.69s-.38.64-.36.79a.8.8,0,0,1,.09.14l-.27.26a.61.61,0,0,1,.06.29c-.15.11-.47.18-.56.43a2,2,0,0,1,0,.25c-.14.2-.34.23-.4.58a2.36,2.36,0,0,1,0,.28c0,.24-.34.38-.41.62s0,.33,0,.49-.25.19-.36.18a.59.59,0,0,0-.21,0,1.46,1.46,0,0,0-.11.18l-.17,0a.37.37,0,0,0,0,.11l.06.09,0,0-.09,0-.2-.27c-.14,0-.66,0-.69-.07s0-.12.07-.19a1.79,1.79,0,0,0-1.39-.43c-.49,0-1-.27-1.44-.29l-1.11.13-.67-.19s0-.13-.15-.16a2.35,2.35,0,0,1-.48-.09c-.11-.07-.15-.23-.32-.29l-.37-.08-.84-.35c-.1-.5-.9-.29-1.25-.33l-1.52-.22a2.57,2.57,0,0,1-.83,0,5.72,5.72,0,0,1-1.15-.76c0-.48-.69-.8-1-1.24l-.06-.27-.15-.23a1.8,1.8,0,0,0,0-.19c0-.2-.24-.5-.41-.67l-.55-.31c-.28-.08-1.07.12-1-.43-.32-.3-.55-.17-.85-.23l-.37-.15h-.49c-.24,0-.35-.21-.5-.24a3.93,3.93,0,0,0-.6-.07c-.32.07-.63.15-1,.21a1.41,1.41,0,0,0-.61.11s0-.08,0-.11-.1.07-.21.13H107a0,0,0,0,1,0,0v-.17c-.15,0-.15.09-.26.12a1.32,1.32,0,0,1-.34,0,.73.73,0,0,0-.28-.68,1.46,1.46,0,0,0,.16-.19h0l-.4.1c.05-.14,0-.24-.2-.33l-.11.11,0,0a1.07,1.07,0,0,0-.27-.58l-.19-.07-.19-.21a3,3,0,0,0-.55-.11v-.16h-.14c-.26.4-.26.22-.55.19-.11,0-.31.18-.31.25a.25.25,0,0,1,.13,0,1.25,1.25,0,0,1-.41.61.72.72,0,0,1-1,.7l-.12-.18h-.07a.52.52,0,0,1-.1.11h-.18a2.23,2.23,0,0,0-.76.33c0,.1,0,.15,0,.22l-.68,1.19c0,.16.08.24.08.38l-.27.49c-.08.47-.17.94-.25,1.41a3.36,3.36,0,0,0-.63.31.54.54,0,0,0,0,.1c0,.14-.25.24-.32.32a2.23,2.23,0,0,0-.45.74l-.23.66-.09.73c0,.16-.64.4-.76.47a10.06,10.06,0,0,1-1.21.4l-.52.27a2.59,2.59,0,0,0-.77.29c-.08-.06-.1-.09-.18-.1a.74.74,0,0,1-.67.21l0,0c0-.06,0-.13,0-.19l0,0a.17.17,0,0,1-.12.08l-.17-.11c-.16-.06-.3.07-.44.05l-.2-.08a1.32,1.32,0,0,1-.61.26.26.26,0,0,0-.16-.11.34.34,0,0,1-.2.17c-.05,0-.06-.06-.11,0s-.14.1-.2.12-.16-.21-.2-.33-.2.22-.25.34l-.29.14-.09,0c-.24.09,0,.14-.35.12-.12-.14-.36-.2-.42-.37l0-.12a.4.4,0,0,0-.15-.07c-.17.1-.52-.13-.86.09a0,0,0,0,1,0,0,1.17,1.17,0,0,0-.31-.92l-.32-.29c-.33-.4-.81-1.09-1.41-.9-.13-.33-.7-.7-1-.37l0,.14a1.4,1.4,0,0,1-.6-.58c0-.15-.06-.29-.1-.43-.18-.29-.35-.58-.53-.86s0-.52-.12-.71l-.23-.17a1.88,1.88,0,0,1-.39-.6c-.07-.19.06-.43,0-.62s-.46-.56-.42-.81.19-.43.23-.63a3.86,3.86,0,0,0-.15-1.59c-.21-.57-.67-.29-.94-.66-.1-.16-.09-.38-.18-.53s-.23-.15-.31-.26a2.37,2.37,0,0,1-.12-.73c0-.4.23-.78.1-1.17s-.62-.88-.63-1.07l0-.22c.27,0,.52,0,.76-.2a3.27,3.27,0,0,0,.47-.91c.19,0,.45-.18.53-.45s-.06-.33-.07-.54a3.18,3.18,0,0,1,.14-.53.22.22,0,0,0,.17-.11,2.21,2.21,0,0,1,0-.73c0-.27.32-.52.44-.81l.06-.32c0-.1.18-.09.22-.25l0-.28c.15-.41.57-.45.72-.8a1.57,1.57,0,0,0,.07-.63c.12-.09.25-.1.36-.22s0-.2,0-.33a1.22,1.22,0,0,1,.33-.12c.29-.24.18-.75.23-1l.09-.17.28-.17a.66.66,0,0,0,.27.09s0,0,0-.05,0-.31,0-.47c.38.25.1,1,.84.59l.26.1c.15.1.21.83.26,1a.77.77,0,0,0,.61-.1c0-.11,0-.14.1-.25l.21.08.75-.48L90.2,96l.3-.3.23-.05c.1-.06.12-.16.23-.24s.64.13.9,0,.61-.64.85-.8.68-.18.9-.43c.08-.09,0-.23.06-.33.08-.75-.51-.37-.74-.89a1.58,1.58,0,0,1,.57-1.62c.2-.12.31,0,.46,0a4.74,4.74,0,0,0,.51-.49l.18-.25c.11-.09.27.06.39,0l.38-.56.7-.67h.14l.25-.3c.1-.08.3-.13.36-.29s0-.22,0-.33a1.77,1.77,0,0,1,.53-1.18c.15,0,.2,0,.33,0,.11-.24.28-.24.28-.53.37-.19.25-.38.37-.61l1.27.3c0,.35.49.6.67.93,0,.06-.06.11-.12.12a3.13,3.13,0,0,1-1.6-.07.36.36,0,0,0,0,.27c.46.21.86.06,1.27.11l1,.23c.51,0,1.07.15,1.6.15l.46-.08a1.36,1.36,0,0,1,0,.2,2.36,2.36,0,0,0,.52.16c.13,0,.24-.11.37-.16a2.11,2.11,0,0,1,1,.07c.43.16,1,.73,1.37.72s.63-.38.88-.33c.56.11,1.43.6,1.91.46a0,0,0,0,0,0,0s-.15-.1-.17-.16a1.41,1.41,0,0,1,.46,0,.62.62,0,0,1,.17-.21l.83-.12c.07,0,.1-.14.18-.15s.39.08.44.07c.28-.06.62-.41.93-.21a2.25,2.25,0,0,1-.06.63h0c.09-.1.16-.24.25-.32a3.15,3.15,0,0,0,.92-.07l.21-.31.12-.63c.1-.22.3-.15.36-.37s0-.37,0-.55l0,0,.25-.29c0-.12,0-.3.11-.43a.89.89,0,0,0,.27-.3,2.2,2.2,0,0,0,.11-.93l.29-.19h0l.15.23C115.08,84.84,115.23,84.86,115.32,84.91Z"/></svg>