<svg id="Layer_1" data-name="Layer 1" xmlns="http://www.w3.org/2000/svg" viewBox="0 0 256 256"><defs><style>.cls-1{fill:none;}.cls-2{fill:#101728;}</style></defs><path class="cls-1" d="M207,97.52c-6.08-25.69-19.74-46.21-42.73-59.88-16.3-9.68-34.2-14-53-14.46-13.15-.33-26.31-.08-39.47-.18-2.26,0-3,.83-3,3,.07,11.35,0,22.71,0,34.06,0,3,.25,3.29,3.44,3.29,11.19,0,22.39,0,33.58.13,25.29.37,43.59,12.87,52.06,35.73a77.29,77.29,0,0,1,4.74,28v.06c0,.23,0,.46,0,.69s0,.46,0,.7h3.77c0-.24,0-.46,0-.7s0-.5,0-.75a77.77,77.77,0,0,0-7.94-35.5C148.36,71,131,60.74,108.09,60c-10.77-.36-21.57-.07-32.35-.09H72.5V26.75c.64,0,1.34-.15,2-.15,11.44,0,22.88-.21,34.31.06,17.58.42,34.52,3.73,50.17,12.19,21.17,11.44,35.12,28.9,42.23,51.73A123.08,123.08,0,0,1,207,127.25v.06c0,.23,0,.46,0,.69s0,.46,0,.7h3.59c0-.46,0-.93,0-1.39v-.06A130.34,130.34,0,0,0,207,97.52Z"/><path class="cls-1" d="M207,127.31c0,.23,0,.46,0,.69s0,.46,0,.7v.05a123.19,123.19,0,0,1-5.79,36.68c-7.11,22.82-21.06,40.28-42.23,51.73-15.65,8.46-32.59,11.75-50.17,12.17-11.43.27-22.87.06-34.31.06-.69,0-1.39-.1-2-.14V196.12h3.24c10.78,0,21.58.29,32.35-.08,22.9-.77,40.27-11,50.4-31.79a77.77,77.77,0,0,0,7.94-35.5c0-.25,0-.5,0-.75s0-.46,0-.69h-3.77c0,.23,0,.46,0,.69s0,.46,0,.7v.05a77.26,77.26,0,0,1-4.74,28c-8.47,22.87-26.77,35.35-52.06,35.73-11.19.16-22.39.08-33.58.12-3.19,0-3.44.25-3.44,3.29,0,11.36,0,22.71,0,34.07,0,2.2.71,3.06,3,3,13.16-.09,26.32.16,39.47-.17,18.81-.46,36.71-4.79,53-14.48,23-13.66,36.65-34.19,42.73-59.87a130.34,130.34,0,0,0,3.63-29.73v-.05c0-.46,0-.93,0-1.39Z"/><path class="cls-2" d="M210.61,127.25v.06c0,.46,0,.93,0,1.39v.05A130.34,130.34,0,0,1,207,158.48c-6.08,25.68-19.74,46.21-42.73,59.87-16.3,9.69-34.2,14-53,14.48-13.15.33-26.31.08-39.47.17-2.26,0-3-.84-3-3,.07-11.36,0-22.71,0-34.07,0-3,.25-3.27,3.44-3.29,11.19,0,22.39,0,33.58-.12,25.29-.38,43.59-12.86,52.06-35.73a77.26,77.26,0,0,0,4.74-28v-.05h0c0-.24,0-.46,0-.7s0-.46,0-.69h0v-.06a77.29,77.29,0,0,0-4.74-28c-8.47-22.86-26.77-35.36-52.06-35.73-11.19-.15-22.39-.08-33.58-.13-3.19,0-3.44-.25-3.44-3.29,0-11.35,0-22.71,0-34.06,0-2.21.71-3.05,3-3,13.16.1,26.32-.15,39.47.18,18.81.46,36.71,4.78,53,14.46,23,13.67,36.65,34.19,42.73,59.88A130.34,130.34,0,0,1,210.61,127.25Z"/><path class="cls-2" d="M115.21,85.92l.41.3c-.15.24-.25.48-.12.68s.12.11.12.18-.17.27-.2.45.17.26.26.42,0,.1,0,.15l-.24.29c-.07.22-.13.43-.19.65a.74.74,0,0,0,0,.49c.07.12.16.14.15.27,0,.47-.33.92-.39,1.41,0,.13.1.24.08.38s-.16.22-.2.36,0,.45-.09.68-.24.29-.29.45l0,.4c0,.36-.24.82-.64.76L113.6,94a5.34,5.34,0,0,1-.9-.26c-.1-.05-.1-.13-.16-.18l-.33-.16a1.84,1.84,0,0,0-.74,0l-.22.07-1.08-.16c-.2,0-.39.23-.6.24h-.47c-.27-.07-.48-.36-.73-.39l-.73-.07c-.24,0-.43.22-.69.23-.23-.25-.52-.18-.78-.17s-.65,0-1,0l-.41,0-.12.16c-.17-.14-.32-.38-.5-.55-.06,0-.06,0-.1,0-.35-.09-.7-.16-1.05-.24a1.26,1.26,0,0,0-.32-.6c-.06,0-.11-.11-.16-.16a4.71,4.71,0,0,1-.55-1c-.25-.06-.3-.24-.56-.22a.82.82,0,0,0-.16-.25l-.19,0c0-.1,0-.2,0-.31l-.06,0h-.11l0,0a1.6,1.6,0,0,1,0,.29c-.13.15-.25.15-.39.35a1.19,1.19,0,0,0,.08.41,1.47,1.47,0,0,1-.32.6c-.14.12-.32.07-.46.13a1.07,1.07,0,0,0-.52.49c.09.09.18.19.28.28a.16.16,0,0,0,0,.07c-.13.06-.18.3-.33.42l-.34-.07c0,.06,0,.12,0,.15s-.14,0-.22.17l0,.15H98.5s0-.06,0-.1h0l-.23.28h-.08a.94.94,0,0,0,0-.16h0l-.2.08c-.09,0-.16-.1-.25-.16a2.5,2.5,0,0,0-.33.26l-.07,0a.47.47,0,0,0-.07-.12.61.61,0,0,0,.16-.09c0-.1,0-.1-.07-.09s-.13,0-.15,0a.39.39,0,0,0,0-.18H97.1l-.06.09c-.06,0,0-.08-.08-.08a.14.14,0,0,0-.13,0l0-.11a.16.16,0,0,0,0-.14h0c-.06.14-.13.28-.2.43-.09-.07-.16-.16-.25-.24.06-.12,0-.08,0-.17a.83.83,0,0,1,.11-.47c.1,0,.2-.07.23-.2h0l-.06,0,0,0a.23.23,0,0,1,.1-.12l0,.08a2.43,2.43,0,0,1,.35-.49l0,0h0l-.1.1a.12.12,0,0,1,0-.09,2.2,2.2,0,0,0,.24-.45h0c0,.09-.11.17-.16.25s-.14,0-.21,0l-.08-.14c.11-.12.22-.25.32-.38a.49.49,0,0,0,0-.11c.14-.15.31-.17.34-.45l-.08,0a9.61,9.61,0,0,1,.18-1c.14-.37.49-.46.5-.83.13,0,.23.08.34,0s.1-.25.16-.27.2.05.34,0c.06-.26.24-.19.41-.36a2.17,2.17,0,0,0,.44-.52c0-.09.06-.19.08-.28s.31-.24.39-.47c.16-.4.18-.75-.32-.93l-.28-.09c-.24,0-.49.27-.7.34a.46.46,0,0,1-.07-.07c-.06.09-.27.09-.38.13a2.39,2.39,0,0,0-.59.19l-.19.16c-.08,0-.16,0-.24,0a.24.24,0,0,1-.06.15,2.32,2.32,0,0,1-.46,0,1.78,1.78,0,0,0,.14-.36c-.14-.11-.15-.24-.24-.36a.42.42,0,0,0,.09-.24,1,1,0,0,0-.46.11.19.19,0,0,1,0-.07,1.32,1.32,0,0,0,.19-.76l-.12,0-.21.46s0,0,0,0l-.19.35a1.16,1.16,0,0,1,0,.18l-.27.62c0,.08,0,.13,0,.22s0,0,0,.07l-.1,0v0a.49.49,0,0,1,.1.25,1.89,1.89,0,0,0-.28.47h0a.94.94,0,0,1,.79-.19c.13-.12.12-.27.18-.39l.23-.25a.62.62,0,0,1,.1.2c0,.07-.06.13-.08.19s-.14.07-.18.18a1.64,1.64,0,0,1,0,.23l-.13.24c-.09.32.15.22-.22.58l0,0c-.28-.43-.4-.15-.66.11h0c0-.2.1-.5.06-.67l-.15,0c-.21.28-.3.57-.6.58h0c0-.06,0-.11,0-.17h-.2v0a.36.36,0,0,1,0,.09c-.42.58,0,.65,0,1.06,0,.13-.15.31,0,.36a.61.61,0,0,1,.14,0l.15.25c-.22.35,0,.57.28.82l.16.14s0,.17-.06.22l.28.3a.45.45,0,0,0,0,.23l.08,0c.06-.15.55,0,.71-.09s.21-.22.34-.22a.46.46,0,0,1,.08.19c-.17.24-.24.13-.3.39,0,.1-.12.17-.12.25a1.09,1.09,0,0,1,.08.15l-.06.36c0,.1.07.21,0,.33a1.34,1.34,0,0,0-.11-.14c0-.06,0-.13,0-.2h0a1.18,1.18,0,0,1-.22.17.13.13,0,0,1,0,.06c-.21-.11-.27.34-.46.3a.46.46,0,0,1-.08.28c-.06,0,0,0-.1,0,0,.24,0,.16-.11.38h0c.2,0,.31-.07.49-.08h0v0l-.12,0c-.06,0-.1,0-.15.07v.07c.08,0,.12,0,.21,0l0,0,0,.07a.31.31,0,0,0-.3.12h0a1.09,1.09,0,0,0,.26,0v0l-.11.13c-.18-.11-.26,0-.42,0V94.3l0,0,0,0c0,.05,0,.1,0,.17h.09a.2.2,0,0,0,.09.15,2.57,2.57,0,0,0,.68,0l0,.07a.06.06,0,0,0,0,0h0a.2.2,0,0,0-.12-.06c-.05.06-.07.07-.07.13h0l.17,0a.51.51,0,0,1,0,.2h0c.1-.1.7-.42.79-.37v0l.21.07a.28.28,0,0,1,0,.09h0a.36.36,0,0,0-.3.06c0,.08,0,.16-.07.25a.53.53,0,0,1,.21,0,1.17,1.17,0,0,1,0-.11c.06,0,0,0,.12,0a.11.11,0,0,0,0,.16l-.08.06a.16.16,0,0,0,0-.07v0l-.15.12,0,0a1.33,1.33,0,0,1,.53.16c-.1,0-.17.07-.18.18l0,.1h0c-.09,0-.31-.07-.32,0s0,.09,0,.13l-.14,0c-.07,0-.12-.14-.2-.16L96,96a2,2,0,0,1-.1-.21c.08-.11.06-.21.11-.26s.48-.16.38-.44h0c-.11.14-.24.14-.35.24a1.51,1.51,0,0,0-.32.54h-.36c0-.07.07-.12.05-.19l0,0h-.06a.48.48,0,0,1-.54.24l-.15-.06c-.14,0-.29.16-.43.12,0,0,0,0,0,0a.22.22,0,0,0-.18,0l-.09-.17a2.69,2.69,0,0,1-.36-.22c0-.07,0-.08-.07-.12l-.22.12-.25,0c-.27.1-.5.25-.78.35-.1,0-.24,0-.34.07l-.27.17c-.06.06,0,.16-.09.17-.23,0-.43.12-.66.12h0l.1-.17c-.38.3-.51-.16-.92.11l.15.22a.61.61,0,0,1,0,.19,2.34,2.34,0,0,1-.48-.11.14.14,0,0,0,0-.15h-.1l-.16.23.06.06a1.11,1.11,0,0,0-.14.44l.06.1.06-.06c.11.07.13,0,.22,0a1.29,1.29,0,0,1,0,.19.8.8,0,0,0,.78-.05c.09,0,.16-.12.25-.12s.25.09.37.12a2.12,2.12,0,0,0,.71-.07c.22,0,.38-.53.53-.53l.06,0a.49.49,0,0,0,0,.21h.09A3,3,0,0,1,94,96.32c0,.07.1.14.15.21a2,2,0,0,0-.22.09c-.07,0-.07-.07-.13-.05s-.24.3-.37.2c-.14.14,0,.44.19.56l.34-.17a.25.25,0,0,0,.2.12l0,.09a.3.3,0,0,0-.07.3c.08,0,.13,0,.16.11a.52.52,0,0,0,.1.38l-.09.12-.07,0-.12-.08A.18.18,0,0,0,94,98s0,0,0-.08l.08-.1h0a3.12,3.12,0,0,0-.84-.2c0,.06,0,.1-.05.12l-.25.11a.24.24,0,0,0-.13-.11l-.15,0a1.18,1.18,0,0,1-.07.2s0,0,0,0v-.06h-.11a.75.75,0,0,0,0,.16c-.34-.15-.41.12-.69.27a11.21,11.21,0,0,1-1.07.35c-.41.18-.94-.21-1.33,0a.65.65,0,0,0-.4.65c0,.07,0,.13,0,.2s0,.16-.08.24c0,.35.13.6,0,1-.09.21-.3.17-.41.24s-.08.16-.12.21c-.15.21-.35.13-.34.48,0,.56.43.36.64.67s-.08.38-.06.55l.05.11c0,.27-.3.46-.16.74.05,0,.05,0,.1,0a0,0,0,0,0,0,0,1.44,1.44,0,0,0,.28,1l.31.06.17-.09,0,0a.89.89,0,0,0,.17.77s.07,0,.1.05c-.08.2-.21.38-.14.54s.15.19.15.36l-.08,0a1.43,1.43,0,0,0-.06.21l-.52.74,0,.22c-.06.2-.13.24,0,.4h0l0,0h0a.11.11,0,0,1,0,.06.33.33,0,0,1-.49.16l-.08.05a.42.42,0,0,0-.57.23,2.51,2.51,0,0,0,0,.27c0,.07-.1.08-.15.12a.53.53,0,0,0-.16.35h0c-.09,0-.13-.16-.19-.22a.34.34,0,0,0-.25-.12s0,0,0,0a2.18,2.18,0,0,1-.21-.22h0a.44.44,0,0,1-.1.19l-.08,0h0a.21.21,0,0,0,0-.21h-.1v0a.25.25,0,0,1,0,.19s0,.05-.11,0a.74.74,0,0,0-.26-.27c0-.33-.69-1-1.08-1a1.55,1.55,0,0,0-.28-.36.36.36,0,0,0-.39.09l-.11-.06a.34.34,0,0,1,0-.39l.08-.13-.11-.16c.06-.26.27-.32.44-.49s.12-.34.17-.47.39-.34.49-.44.53-.58.47-.79c.19-.16.37-.21.49-.48a3.73,3.73,0,0,0-.5-.61s0-.07,0-.1h-.07v.08a1.21,1.21,0,0,1-.39-.39h0l.29,0a1,1,0,0,0-.43,0,.66.66,0,0,1-.14-.2c-.3,0-.17,0-.41.12l-.34,0-.07-.12c-.1,0-.22.13-.33.13l-.06-.11-.06,0s0,.1,0,.15a1,1,0,0,0-.64.53l-.06,0c-.07,0-.1.08-.17.08l.09-.2h0l-.05,0s-.08.09-.09.06a.1.1,0,0,0,0-.13.65.65,0,0,0-.11.22l-.11-.1c.09-.13.06-.27.13-.39h0s.1-.12.1-.17l0-.07.11-.21.24,0a1.34,1.34,0,0,0,.2-.46l.06.05a.31.31,0,0,0,.08-.19c-.12,0-.2-.07-.32-.16a.45.45,0,0,1-.39,0,1.12,1.12,0,0,0,.2-.3.36.36,0,0,0,.24.1c0-.28.42-.37.36-.67l-.09.07,0,0c-.06-.23.13-.43.13-.67s-.25-.29-.39-.47a2.51,2.51,0,0,0,0-.27l.1-.17c0-.12,0-.24,0-.35s.22-.2.18-.35a.25.25,0,0,0-.17,0L83.34,98l-.3-.46.06-.16a.28.28,0,0,1,.18,0l0,.07a.25.25,0,0,1,0,.07.33.33,0,0,1,.15.13c.09-.1.18-.12.18-.23s0-.13-.08-.22a.1.1,0,0,1-.19,0l-.09.12a.58.58,0,0,1-.2-.17c0-.17.09-.56.29-.69a.58.58,0,0,0,.19,0l0,0s0,0,0,0-.08.05-.16,0l-.07-.07a1.2,1.2,0,0,1,.22-.46.84.84,0,0,1,.19.08l0,0,0,0a.14.14,0,0,1,0-.06l-.11,0,.14-.11c-.12,0-.12,0-.19-.14s.15-.14.16-.24l-.12.07,0,0v-.07l-.11,0,0-.08c0,.08-.06.14-.13.11a.32.32,0,0,0,0-.21c-.11,0-.22,0-.31,0s-.27-.19-.37-.24-.08,0-.15.07,0,0,0,.07l-.09,0a.82.82,0,0,1-.1-.24c-.16-.09-.36,0-.44-.26,0,0,.17-.09.18-.16S82,94.2,82,94.1l.17,0a.15.15,0,0,0,0-.09L82,93.86a1.13,1.13,0,0,1,.28-.35c.08,0,.2.13.26.11l.17-.22c.07,0,.17.18.19.22l0,.1h-.11s0,.09,0,.13c.18,0,.12.17.22.29l-.08.13h.07a.64.64,0,0,0,.25.36c.11-.08.36-.17.44,0,0-.08,0-.08.12-.06s.09-.08.16-.15a1.71,1.71,0,0,0,.13-.23h.08a.8.8,0,0,1,0,.26h0a.19.19,0,0,0,.07-.16h.08l.07-.1a1.83,1.83,0,0,1,.17-.87c.26.06.27-.13.41-.21l.17.09.34-.22-.23-.14a5.79,5.79,0,0,0,.44-1.54c0-.12.18-.5.3-.4a.48.48,0,0,1,.23,0c.28-.2.23-.42.26-.67a1.07,1.07,0,0,1-.22-.2c.12-.17.34-.38.36-.55a.3.3,0,0,0-.15-.07l0,0s0,0-.06,0a2,2,0,0,1-.91-.49c0-.08,0-.15,0-.22l-.19-.15c0-.09,0-.18-.08-.27s.08-.28.18-.46l.07.05.29-.1.22,0a.38.38,0,0,0,.22-.55c-.32-.11-.41-.32-.63-.52l-.07,0c0,.06,0,.12,0,.19l-.19.12-.25-.18a.18.18,0,0,1,0,.11l-.29-.1c0-.07,0-.08-.08-.11a1,1,0,0,0,.14-.52c.06,0,.06-.08.11-.14l0-.06c.06-.07.13-.13.19-.19s0-.08,0-.12.11-.19.21-.29a6.4,6.4,0,0,0,.56-.6c.06-.06,0-.2,0-.22H86c-.08-.06-.13,0-.22,0l0-.06,0-.07c.06,0,.12,0,.11-.08s0,0-.06,0,.07-.06.14-.13-.08-.2,0-.32a1.31,1.31,0,0,0,.33-.25.31.31,0,0,0,0-.1c-.54-.06-.36.49-.83.49,0,0-.12-.19-.15-.14l0,.08a.94.94,0,0,0-.14.55l-.12,0a.19.19,0,0,0,0,.18l-.17.12-.08-.06a.19.19,0,0,1,.09.16c0,.12-.14.2,0,.31h0l-.17.06c.06.1,0,.24,0,.34h0a.45.45,0,0,0,0,.32c-.09,0-.09.09-.13.2l0,0c0,.09,0,.34-.18.39a.33.33,0,0,1-.22,0,.75.75,0,0,0-.07-.12.78.78,0,0,0-.12.29l-.1-.09c0,.14-.1.13-.21.18s-.45,0-.69-.2l-.15-.16h-.34a2.62,2.62,0,0,0-.29-.27l-.18.07a.65.65,0,0,1-.16-.44l-.14-.07a.33.33,0,0,1,.18-.22c0-.28-.2-.29-.25-.52h.14l0,0a5.74,5.74,0,0,1-.25-1.5l.13-.17s-.08-.07-.12-.07l-.13,0a.66.66,0,0,0-.22-.19H81a.63.63,0,0,1-.44.27c-.08.12-.22.46-.26.48L80,84c0,.23.14.36.15.56s-.12.15,0,.37c.07,0,.17,0,.2,0a.63.63,0,0,1,0,.36h0c.11,0,.22,0,.33,0a.06.06,0,0,0,0,0c0,.21.12.33.18.52s0,.44,0,.65l-.13.06c0,.12.06.18.07.29a1.21,1.21,0,0,0,.06.53l-.13.18c.07,0,.16,0,.18.1l.06.18-.18.13c.25.12.35.07.55.33a.56.56,0,0,0,0,.12c.12.15.6.27.61.37h0c.07-.11.14-.11.2-.15a.47.47,0,0,1,.07-.12.57.57,0,0,0,.55-.16c.14,0,.19,0,.33.07l-.06.09c0,.07.06.54-.09.61s-.51.37-.5.46l0,.09h0c.08-.25.31-.2.44-.35s.06-.35.22-.45l0,0,0,0h0l.06,0-.08.13.11,0a.24.24,0,0,0,0,.28l0,.09h0l-.14-.1c0,.16.27.22.05.45,0,0,0,0,0,.05s-.12.18-.17.27.53,0,.54.22l-.07.09.12.08.07,0c0,.06.12.06.14.11a1.13,1.13,0,0,0,.14.22l.17.13.3.59h0l-.13,0a2,2,0,0,1-.22.4l.06.07s0,0,0,0a.33.33,0,0,0,.1.28c.08,0,.14,0,.15.06a.29.29,0,0,1,0,.09c-.16.15-.18.37-.38.56-.08-.08-.07-.12-.15-.21a1.15,1.15,0,0,1-.49,0,.59.59,0,0,0,0-.13l-.08,0,.07-.08a.46.46,0,0,1-.07-.07,1.33,1.33,0,0,1-.72,0l-.06.07a.42.42,0,0,0-.38-.1.74.74,0,0,0-.2-.23.21.21,0,0,0-.09.13l-.08,0,0,.09c-.1-.07-.33-.22-.42-.16s-.06-.13-.14-.17h0c0,.21-.15.14-.31.15s0-.08-.12-.11a.34.34,0,0,1,0,.1.52.52,0,0,1,.24.34c0,.12-.11.15-.12.23s0,.14,0,.23c0,.28,0,.54,0,.81a1.36,1.36,0,0,1-.29.56.12.12,0,0,0-.13,0,.29.29,0,0,0,0,.09l-.08,0s0-.07,0-.1c-.16.14-.3.19-.48.34l-.23,0c0-.07,0-.12-.14-.15l.06-.07.09,0v0c0-.08,0-.09.12-.11h-.06a.13.13,0,0,1,0-.12h0c-.06.11,0,.1-.12.14s0,0-.07,0a2,2,0,0,0,0-.23h0c0,.07-.05.08-.12.11a.7.7,0,0,0,0-.18l0,.2h0a.12.12,0,0,0-.14,0l.12.07a.4.4,0,0,1-.06.16h-.07s0,0,0,0l-.06,0-.15-.05L79,94.36h0l.08,0h0l-.06,0c.06,0,.1,0,.11-.11h-.05a.25.25,0,0,0,.05-.25.45.45,0,0,1-.09.22l-.1,0a.14.14,0,0,0,0-.07c0-.09,0-.15-.09-.22-.12.16-.12.29-.29.29s0-.21,0-.31h-.09c0,.1,0,.13-.14.17l-.06,0a.44.44,0,0,1-.09-.31h0c-.09.06-.16,0-.26,0s-.19-.16-.28-.27c.07-.1.13-.2.19-.3l0,0c-.07,0-.14.09-.21.09l-.07-.06c0-.19,0-.34.14-.44s0-.16-.12-.28c.12-.15.31-.23.26-.4a.29.29,0,0,1-.33.12s0,0,0-.08a1.54,1.54,0,0,1,.39-.46c-.16-.11-.29-.51-.13-.58l.11,0v0c-.09-.13,0-.27-.08-.4a.8.8,0,0,1-.13-.13,1.55,1.55,0,0,1-.1-.74c.1-.09.17-.1.16-.23h0l-.1,0a5.36,5.36,0,0,0-.14-.54.76.76,0,0,0,.13-.17l-.2-.13-.09.08c-.11-.21-.3-.35-.08-.55L77,88l.1-.21h0a1.52,1.52,0,0,0-.32.06l-.09-.2a2.46,2.46,0,0,0,.17-.27H76.6v0c0-.15.16-.42.08-.54a.14.14,0,0,1-.15,0c0-.11,0-.18,0-.28a1.19,1.19,0,0,1,.18-.15.24.24,0,0,1,0-.22l-.06,0c-.06,0-.13,0-.16,0s-.07-.2,0-.31h0a.35.35,0,0,0,.22,0v-.05a1.11,1.11,0,0,0-.07-.16l-.23-.1a.29.29,0,0,0,.11-.29h0l-.17,0,0-.15c.06-.2-.08-.22-.08-.37s.22-.18-.08-.52l.17,0c.07-.25.2-.22.35-.41,0-.07-.08-.16-.13-.25a47.72,47.72,0,0,1,29.31-1.29,47.51,47.51,0,0,0-57.7,61.64,48.14,48.14,0,0,1-1.56-5.52h0c-.14-.66-.27-1.31-.38-2a1.3,1.3,0,0,0,.46-.51,1.34,1.34,0,0,0,1-.74c0-.09,0-.16.08-.26a4,4,0,0,0,.65-1.16c.2-.07.42-.06.58-.3,0-.06-.15-.23-.27-.21s-.31.26-.5.42l-.13-.1a1.28,1.28,0,0,1,.57-.58c.13-.08.18-.18.29-.23s.21.22.32.32.53-.07.71-.19c-.28-.19-.71-.19-.76-.51.06-.07.2-.24.19-.31l-.12-.4c0-.16.16-.2.1-.38-.11,0-.28-.12-.37,0a.71.71,0,0,1-.18.37h0l-.1-.2c.09-.17,0-.25.14-.42a.68.68,0,0,0,.36-.1l-.41-.28h0c-.12.39-.37.36-.55.51a1.42,1.42,0,0,1-.08.18c-.21.23-.71.59-1,.38a1,1,0,0,0-.05-.35,1.37,1.37,0,0,0-.44.16,1.28,1.28,0,0,1-.23-.51c.09-.15.19-.14.3-.26l-.13-.12a.42.42,0,0,1-.33,0c0-.1-.06-.17,0-.26a1.16,1.16,0,0,1,1-.73c.17,0,.24.19.38.25a3.82,3.82,0,0,1,.94-.24l.07.13a.49.49,0,0,0-.1.36l.15.22c.1-.13.21-.14.3-.22s.09-.17.12-.25.31-.29.41-.32a1.09,1.09,0,0,1,.08.31c.12,0,.2,0,.31,0a1.14,1.14,0,0,1,.53.26c.18-.42-.31-.64-.33-1a.82.82,0,0,1,1.1-.05l-.17.22c0,.05.11.18.2.2a4.31,4.31,0,0,0,.93-.09,2,2,0,0,0,.11-.46c-.29-.22-.15-.42-.27-.65s-.39-.33-.43-.53.21-.22.22-.34l-.14-.13-.5.21-.29-.24a1.11,1.11,0,0,0,0-.17,2.48,2.48,0,0,1,.66-.67l.26-.22.41-.09c.07-.1.08-.22.17-.23s.44.15.48.24,0,.13,0,.2a.69.69,0,0,1-.32,0,.7.7,0,0,0-.06.27c.49.26.89,0,1.32,0a1.25,1.25,0,0,1,.31.87c0,.2-.09.29-.06.47-.27.25-.72,0-1,.36v.17h0a1.75,1.75,0,0,1,.8-.22c-.07.13-.15.19-.22.33s-.24.3-.49.22a1.67,1.67,0,0,0-.35.65.25.25,0,0,0,0,.07v0c.16,0,.29-.16.45-.21.08.14.23,1,0,1.19s-.3.09-.45.15l-.27.21-.29.16a1.45,1.45,0,0,0-.26.51l0,0,.48-.37.46-.15a2,2,0,0,0,.72-.64h0c.08.12.17.23.25.34s.13.8-.08,1a1.45,1.45,0,0,1-.41.27c.17.13.34.16.45.26a2,2,0,0,1-.66.62l-.62.66h0v0l.53-.23c.3-.24.44-.48.75-.55l.09.06a.87.87,0,0,1-.06.41c-.09.2-.31.32-.31.45l0,0h0l.3-.15v0c.12.18,0,.7.05,1,.08,0,.2.07.23.13s0,.19,0,.31c.06.36.85,1.43,1.42,1.42.28-.16.24-.3.46-.53a2.46,2.46,0,0,1,1,.18l.29.22c.19-.29.13-.57.39-.84a3.61,3.61,0,0,1,1.34-.85h.41c.21-.18.42-.36.62-.55s.3-.13.43-.21c.32-.21.7-1.06,1.08-1.13l.34.38.29,0c.26.11.33.32.49.45.26-.06.36-.18.66.06a.79.79,0,0,1,.9-.25c.15-.23.37-.16.55-.27a1.54,1.54,0,0,0-.3,0,.4.4,0,0,1-.09-.27c.12-.09.25,0,.38,0a1.42,1.42,0,0,0-.36-.26c0-.37-.44-.34-.7-.44l-.18-.12-.32-.12.07-.09c-.24-.16-.24,0-.42,0a.92.92,0,0,1-.37-.11c.35-.74.24-2.44-1-2.44-.31,0-.89.38-1.15.28a1,1,0,0,0-.19-.56l-.11-.16c0-.11.08-.13,0-.27l-.27-.12-.21,0c-.09,0-.09-.13-.19-.2l-.24.32h0c-.1-.21-.11-.47-.3-.66a.81.81,0,0,1-.37.09.43.43,0,0,1-.23-.64c.25-.26.53-.39.78-.64s.28-.83.47-1a6.56,6.56,0,0,1,1-.35c.07.14.07.13.22.12.2-.19.48-.31.7-.51s.07-.26.12-.3h.11a.38.38,0,0,1,.13.12c-.07.44.93.42,1.06.75l-.12.16c.13.11.16.15.29.14h0c.11-.38.08-.67.56-.67a.18.18,0,0,1,.08.1H64c0-.16.23-.44.22-.61l-.16-.33c.11-.14.26,0,.39-.06h0c-.33-.24-.3-.4-.38-.67-.47,0-.23-.1-.23-.41l-.12-.22h0a5.55,5.55,0,0,1,1.44-.11c.07.07.06.12.17.18s0-.09.07-.13c.46.24.45-.18.79,0a.28.28,0,0,0,0,.2,1.88,1.88,0,0,0,.5-.18.43.43,0,0,1,.14.12c0,.14-.25.28-.26.39v0c.12,0,.43.07.53,0l.09-.14a1.27,1.27,0,0,1,.76-.15c0,.08.11.16.16.25.11-.14.08-.29.21-.43a2.38,2.38,0,0,1,.55-.32l.46-.4c.09.17,0,.35-.11.56s0,.39,0,.58a2,2,0,0,0-.14.25c0,.1.13.24.22.33a3,3,0,0,0,.17-.55c0-.39-.2-.9.43-1a.42.42,0,0,0,.08.18H70c0-.08,0-.24.06-.29s.39-.26.54-.16a3.24,3.24,0,0,1,.21.35l.37,0h0a3.79,3.79,0,0,1,0,.82l-.41.74.15.64a2.6,2.6,0,0,1-.4,1.05l-.53.69c-.2.22-.3.53-.52.77a2,2,0,0,0-.44.65c-.09.36.23.5.23.74s-.17.36-.18.52a4.19,4.19,0,0,0,.53,2.06c0-.42-.19-.83-.21-1.24a6.42,6.42,0,0,1,.31-1.57c.11-.49.45-1,.91-.84a1.47,1.47,0,0,1-.07.77l-.16.11c-.11.09-.11.23-.14.32h0a.55.55,0,0,1,.48-.22l.06-.32,0,0,0-.11.09,0,0,.16c.16.18.08.16.13.38,0-.1.11-.2.19-.21a.3.3,0,0,0,.17.14c0-.05,0,0,.07-.05.21.22.38-.1.55-.2v0l0,.14h0c.06-.06.12,0,.17-.07l.07-.13.12,0c.08,0,0-.19.16-.25h0l0,0,0,.07s.07-.1.08-.16,0-.16,0-.26c.18.07.12-.06.23-.14l.16,0s0,0,0,0,0,0,0,.07,0,0,0,0,.1-.15.18-.16a.5.5,0,0,0,0,.12c-.06,0-.06,0-.07,0v0h0l-.1.14,0,0a2.47,2.47,0,0,0-.2.74s-.05,0-.09,0v0l0,.06-.06,0c.06.06,0,.07.07.13l-.13.15-.06-.06a0,0,0,0,1,0,0,.25.25,0,0,1,0,.12h-.08l0,.06c.09.05.12,0,.17.09-.11.17.06.34,0,.47l0,0,.07,0a.35.35,0,0,0-.09.17.44.44,0,0,0,.08.11c-.08,0-.08,0-.11.1l-.2,0s0,0,0,.06-.33-.08-.37-.27,0,0,0-.11v.19l0,0s0,0,0,0a1.94,1.94,0,0,1,0-.24s0,0,0-.05h0l0,0h0a2,2,0,0,1,.09-.84l.1.08s0,0,.08,0l-.07-.05a2.47,2.47,0,0,1,.16-.39h0a1.56,1.56,0,0,0-.4.67s-.05,0-.06-.07a.55.55,0,0,0,0-.4h0s0,.08,0,.12a.18.18,0,0,0-.16,0l.1,0,.07.13c-.15.22,0,.43-.14.65l-.12.07H72c0,.07,0,.13,0,.21s-.22.14-.21.24l-.06,0,.13,0,0,.09.06-.08s0,0,0,.06,0,.17-.1.26,0,0,0,.07l-.1,0c0,.08,0,.15,0,.24l-.1,0c0,.07,0,.15-.08.21l.1,0-.13.1h0a.86.86,0,0,0-.07-.1h0a1,1,0,0,1,.19.43l-.08,0,.07.1-.07.06,0-.06v.07c.08,0,.06,0,.09.12h0l-.06,0a.08.08,0,0,1,0,0,.75.75,0,0,0,0,.16l.1.07c0,.15.15.4.21.54s.09,0,.17-.06l0,0c0,.1-.07.2,0,.29a.34.34,0,0,1,.45,0l.08-.06,0-.17,0,0,0,0h-.13l.07-.06a.35.35,0,0,1,.24.07l-.15.37a.21.21,0,0,0-.11-.05h0a.26.26,0,0,1,0,.27h0c-.07,0-.1-.09-.14-.1a.37.37,0,0,1,0,.1l.16.17a2.19,2.19,0,0,0-.43,1.32l-.16-.21.17.25s0,.05,0,.12h0a.18.18,0,0,0,.17-.08,3.43,3.43,0,0,1,.35.45l0,.05c.13.09.15.32.16.44h0s0-.07-.11-.1c-.11.18-.23.13-.4.13a.53.53,0,0,0,0-.16h0c0,.06,0,.1,0,.16.15.06.46.15.59.07l.19.1c.08.09,0,.19.1.3l.18.27s0,0,0,.05l.12.19,0,0-.06,0a1.48,1.48,0,0,1-.23-.4s0,0-.05.08h0a.16.16,0,0,1,0-.07l-.08,0c0-.06,0,0-.08-.1s0,.09,0,.13l-.1,0h-.1v0c0-.05,0-.11,0-.16h0c-.09,0-.1,0-.11.11h0l0-.06s0,0,0,0l.06,0,0,0h0a.2.2,0,0,1-.09.06l0,0a.11.11,0,0,0,0-.15l-.06.08h0a.42.42,0,0,0,0-.1s0-.08,0-.13l-.07,0a.22.22,0,0,0-.05-.08v.1s0,0,0,.09l0,0a.1.1,0,0,1,0,.07h0s0,0-.06,0L72,136l-.06.07c.29,0,.11.11.29.19l.21,0h0a.14.14,0,0,1-.14,0h0c.13,0,.19,0,.34,0a1.92,1.92,0,0,1-.31.11l.06,0c-.09.06-.13,0-.2.14l-.06,0a.49.49,0,0,1,0-.12l0,.09a.37.37,0,0,0,.14.09,2.45,2.45,0,0,1,.55-.29.21.21,0,0,1,.07.16h0l-.23.06a.45.45,0,0,0,.35-.09v0s.06,0,.13,0h0l-.08.06.06,0,0,0-.14.05a.67.67,0,0,0,.26-.09l.09.06c0,.07,0,.06-.09.08a.27.27,0,0,0-.23,0s0,0,0,.06h0a.22.22,0,0,1,.29-.06c.07-.17.11-.29.32-.19h.06l0,0h0l0,0h0a.08.08,0,0,0,0,0s0,0,.08,0l0,.06a.52.52,0,0,1,.27,0l0,0-.08,0c0,.06-.07.08-.13.11h.1V137l-.11.06s0,0,.07,0l0,.11h-.08s-.06-.05-.09-.06h0c0,.08.11.07.16.11a2.38,2.38,0,0,0,.17-.29h0c0,.05.07.11.14.11h0c0-.05-.08-.09-.08-.15s0,0,0,0a.14.14,0,0,1,.16,0l0,.06s-.06,0,0,.06,0,.13.05.2-.15.09-.23.14h.07l-.2.15h.07a.34.34,0,0,1,.22-.15h0c0,.09,0,.11,0,.22s-.09,0-.14,0,.07,0,.1,0l.09,0s0-.13,0-.19.06,0,.1,0v0c0,.06,0,.11,0,.17L74,138c.06.17.11.35.17.52s-.16.34-.18.49.09.24.16.39a.94.94,0,0,1-.08.74,2.25,2.25,0,0,1,.22.51l.34.45c.33.32,1,.22,1.31.31l.4.2c.17.05.35.05.49.1.37.12.63.57.79.78v0l-.08-.08a1,1,0,0,0-.13.29c-.12,0-.35-.08-.47-.08-.16.21-.18.05-.39,0l-.11,0-.16-.07-.06.08-.43,0a.25.25,0,0,0,0-.19l-.09,0c0,.07,0,.13,0,.16l0,0-.44-.44c-.12-.06-.17,0-.28.1s-.66-.06-.76.21a.93.93,0,0,0,0,.29c0,.1-.08.2-.11.3a1.93,1.93,0,0,1-.33,0,.59.59,0,0,1-.36.23,1.61,1.61,0,0,1-.3.45l.07.05a.89.89,0,0,0-.08.17h-.27l.11.13a1.45,1.45,0,0,0-.35.48c0,.07,0,.15,0,.24s-.26.06-.28.22l.06.1c.15,0,.14-.15.19-.26a.45.45,0,0,1,.27-.08l0,.17c.18.09.31-.1.48-.08,0,.08-.08.14-.14.22a.5.5,0,0,0-.41.15.59.59,0,0,1,0,.08h0l.1,0h0v.09H72.7c0,.08,0,.17,0,.25l-.2.12h-.17l-.3.13a.5.5,0,0,1,0,.13h0l.14,0v0c0,.08-.1.2-.19.29a1.49,1.49,0,0,0-.49.6c0,.12,0,.18-.14.33l-.12,0v.09c.09,0,.19,0,.24.07s.06.43,0,.67-.25.25-.22.35l.15,0c.1.2-.08.38,0,.59l0,0,.17,0a0,0,0,0,1,0,0c0,.08,0,.16.08.25.2.25.54.18.73.38s.15.29.22.44l.3.29a3.26,3.26,0,0,0,1.52.85c.27,0,.57,0,.83,0s.48.06.72.05a1,1,0,0,1,.27-.32c.13-.06.27,0,.39-.14s.32-.87.47-1.15l.1.07c.06,0,.14-.1.14-.16a.71.71,0,0,0,0-.14c-.07,0-.1,0-.16,0v0c0-.14.07-.35,0-.47l-.17-.13c0-.05,0-.11,0-.16l-.27-.17-.17-.21c.14-.53.42-1.49,1-1.66a.32.32,0,0,1,.14.12c.08.13,0,.3.1.45s.24.35.26.37h0a.19.19,0,0,0,0-.07l.48.45h0l-.28,0a.15.15,0,0,0,0,.07v0a.42.42,0,0,1,.16.17s0-.1,0-.15l.11.08c.18.25.47.34.65.62s0,.29.11.41l.14-.06a0,0,0,0,0,0,0l-.09-.07c.09,0,.16,0,.24-.14,0-.31.36-.45.51-.81,0-.07,0-.15,0-.22l.14-.08.28-.47.2-.12c.11.09.08.09.19.09l.25-.22a.76.76,0,0,1,.54.34c0,.07,0,.13.07.2s.4.29.54.45a1.22,1.22,0,0,0,.47.39,2.84,2.84,0,0,0,1.22-.14l.25.06c.19,0,.06-.24.27-.25.21-.21.13-.37.19-.59s.06-.11.07-.17v-.31c0-.06.18-.16.22-.19s.15-.21.24-.28a1.35,1.35,0,0,1,1-.07,1.45,1.45,0,0,1,.06.3h0s-.06,0-.1,0,.08.08.11.15a1.87,1.87,0,0,0,.07-.22c0-.16-.24-.42,0-.59a.3.3,0,0,1,.29-.05l0,.09a.54.54,0,0,0-.12.45,2.17,2.17,0,0,1,.47.12,1,1,0,0,0,.25.44,2.68,2.68,0,0,0,.49,0,.43.43,0,0,0,0-.31c-.1-.17-.65-.23-.74-.18s0-.06,0-.11h0c0-.16.29-.88.21-1l-.08,0-.08.13h-.16a.17.17,0,0,1,0-.23,1.22,1.22,0,0,0,.38.07c.17-.26.38-.45.61-.4s.15.08.25,0,.31-.54.46-.73.55-.13.73-.57c.07-.16,0-.31,0-.46a2.09,2.09,0,0,1,.52-.82h0a.08.08,0,0,0,0,0v.07a2.35,2.35,0,0,0-.19.25l.06,0c.15-.09.29-.18.47-.08v0a.16.16,0,0,1-.06-.14c.07,0,.15-.17.23-.21h.13c.11,0,.2-.13.3-.17v0c0,.25.16.29.06.63h0l.21-.27a1.14,1.14,0,0,1,.22-.38,1.59,1.59,0,0,1,1-.37l.44.22h0l-.06-.11c.14-.28.58-.31.82-.28a.43.43,0,0,0,0-.11h0l.38-.36s-.06,0-.06-.08a1.43,1.43,0,0,1,.57-.67l.49-.38c.15-.08.92-.21.94-.23s0-.1,0-.14.21,0,.33.06c.39.13.88.44,1.2.08a.34.34,0,0,1,.25.16c0,.2.12.37.17.55s0,.44.06.65.26.34.27.53l0,0c.19-.12.1-.43.15-.59l.43.09a2,2,0,0,0,.37-.6.63.63,0,0,0,.18.19v0c-.13-.2,0-.46-.09-.67s-.19-.24-.16-.37a3.76,3.76,0,0,1,.18-.35,2,2,0,0,0,.31-.13c.26-.19.41-.46.72-.36l0,0s0-.09,0-.13.39-.16.49-.06,0,.18.31.31a1.72,1.72,0,0,1,.09-.8c.09-.17.35-.19.47-.3l.36-.39c.22-.21.2-.48.48-.66a10,10,0,0,1,1.58-.5c.24-.1.33-.42.57-.6a2.7,2.7,0,0,1,1.33.45,2.25,2.25,0,0,1,.72,1.65c0,.09,0,.18,0,.28s.11.14.2.26a2.16,2.16,0,0,1,.36.88l0,0-.2,0-.06.06a5.64,5.64,0,0,1,.59.61l.79.43c.2.1.32.35.46.49a1.66,1.66,0,0,0,.35.2.49.49,0,0,0,.3.6l.29.16c.08.09,0,.22.08.32s.13.24.2.36.09.4.26.55l.25.12c-.14.24-.2.51.08.69a3.63,3.63,0,0,1-.46.74,1.88,1.88,0,0,0-.29.4c.15.15.07.22.06.4a2.17,2.17,0,0,0,.07.24c-.06,0-.14.07-.18.16a5.75,5.75,0,0,0,0,1.25c0,.18.14.28,0,.49l0,0c.19-.11.33.17.36.29a1.49,1.49,0,0,1,.31.09c.9.43.62.91.86,1.45l.37.59a2.22,2.22,0,0,1,.22.8c-.24-.26-.17-.68-.46-.86h0a.38.38,0,0,1-.2.23h0l.29.33c.07.14,0,.35.09.49l.42.44a2.92,2.92,0,0,1,.26.89,1.23,1.23,0,0,1,.16.84c-.06.19-.24.2-.31.32s-.08.31-.17.46c-.34,0-.47.16-.64.5-.11,0-.25,0-.34.09l.06.17,0,0c.32,0,.53-.25.81-.26.1.08.08.12.13.19.18.24.4.05.55,0s.2.07.23.13a2.14,2.14,0,0,1,.2.53c0,.11.13.18.17.29.11.3-.21.89-.37,1.27a2.53,2.53,0,0,1-.48.75c-.06.07-.22.19-.22.23.08.19.31.14.41.11a2.6,2.6,0,0,0,.23.41c.11.12.25,0,.34.13s0,.14,0,.24a1.07,1.07,0,0,1-.27.56c-.15.12-.42.21-.52.4l0,.09c.16.1.28.07.41.14s.14.16.27.22.34-.05.34-.25v0h-.14c0-.1.06-.19.1-.28h0l.35.16s0,0,0,.06,0,.16-.1.18-.09,0-.14,0a.54.54,0,0,0-.16.41h0l.27-.24v0a1,1,0,0,0,0,.61c.31.21.4.19.44.51.09,0,.15,0,.21,0l-.23.45c-.07.32,0,.89.52.95a1,1,0,0,0,.63-.19c.09-.07.15-.2.25-.22.65.25.27.89.4,1.3,0,.1.07.19.11.28s.33.15.39.34-.14.46-.08.66c.19.59,1,.46,1.29.55a.48.48,0,0,1-.33.32l0,.07c0,.12.07.21,0,.34s-.19.27-.14.42h0c.09.23.41.31.52.53,0,.07-.07.15-.11.23l-.23.1a4.18,4.18,0,0,1-.19-.6l0,0-.16.07a2.38,2.38,0,0,1-.23.7c-.07,0-.1,0-.16-.08.1-.2.12-.37.21-.57-.12,0-.22.21-.31.35-.13-.08-.11-.14-.2-.22a.2.2,0,0,1-.24.06v.2l-.13.09c-.06-.06-.06-.11-.15-.18h0a1.09,1.09,0,0,0,0,.17.44.44,0,0,0-.2,0,.19.19,0,0,0,0-.07.12.12,0,0,0,0-.1l-.1,0c-.1,0-.18.11-.31.13a.46.46,0,0,0-.09-.52c0,.1-.06.23-.15.24l-.21-.07a.92.92,0,0,1,0-.16.53.53,0,0,1-.3,0,1.48,1.48,0,0,1,0-.21l-.12-.05c0,.07,0,.14,0,.21l-.42-.26-.07-.16-.29-.15c.12-.17.19-.14.31-.29l0-.06,0,0-.21.08-.23.36-.07-.05c0-.09-.12-.15-.16-.24s.07-.08.06-.13l-.08-.09c-.24,0-.25.18-.46.33l-.1-.07-.12.21s0,0,0-.08a.9.9,0,0,0-.08-.6c.06-.1.09-.15.18-.17l.1.05a.34.34,0,0,0,0,.26l.14.05h0c0-.08-.07-.13-.06-.22l0,0a.5.5,0,0,0,.21.12v0l-.12-.3c-.25-.33-.31-.12-.32-.54-.07.06-.16.12-.22,0s0-.13,0-.21a.8.8,0,0,0-.08-.33l-.08,0-.27.12a.61.61,0,0,1-.2-.19c-.19-.2-.32-.12-.23-.42-.11,0-.29,0-.39-.16a.2.2,0,0,1,0-.17l-.07-.06c-.09,0-.13,0-.2,0l-.13-.16a.54.54,0,0,0-.14.13c.07.14,0,.28-.11.33a3,3,0,0,0-.37-.07c-.47-.16-.41-.61-.59-.84l0,0a1.71,1.71,0,0,0-.5-.19l-.4-.27-.34-.07a0,0,0,0,0,0,0,.8.8,0,0,0,.11-.25c-.46-.49-.69-1-1.09-1.49-.1-.13-.1-.3-.23-.41s-.21,0-.25-.09-.07-.19-.1-.28l-.2-.08a4.54,4.54,0,0,1-.92-.51c-.08-.11-.07-.28-.18-.4s-.33-.06-.47-.2l-.38-.44a1.8,1.8,0,0,1-.08-.21,2.75,2.75,0,0,0-.82-.7c0-.1-.1-.19-.14-.29l-.23-.1a1.57,1.57,0,0,1-.51-.44l-.15,0-.14-.1a1,1,0,0,1,0-.17,6.53,6.53,0,0,0-2.2-1.41c-.17,0-.3.2-.46.24l-.33-.05-.51.3a5,5,0,0,1-1.82.75h-.39l-.3-.21a1.62,1.62,0,0,0-.44,0c-.34,0-.64-.15-1,0a4.6,4.6,0,0,0-2-.3l-.63,0c-.23.06-.42.25-.65.32,0,0,0,0,0,0a.48.48,0,0,1,.08-.19c-.21-.21-.47,0-.74-.15-.21-.39,0-.91-.26-1.24-.06-.08-.2-.1-.27-.16,0,.3.17.5-.28.54a.06.06,0,0,1,0,0,.16.16,0,0,0,0-.13,2.26,2.26,0,0,0-.55-.22c0-.13,0-.25,0-.38h-.14c-.09-.1,0-.23-.09-.32s-.3-.14-.32-.24c.07-.28.17-.41.09-.65a.34.34,0,0,0-.16,0l0-.06a.64.64,0,0,1,.13-.19c-.08-.1-.15-.06-.28-.14s.18-.32.17-.44l-.33-.65-.25,0-.23-.27c-.14-.07-.3-.05-.42-.15,0-.07,0-.11,0-.17s-.16.07-.27,0a.5.5,0,0,0-.1-.17,2.12,2.12,0,0,0-.44,0c-.1-.11-.09-.2-.21-.26l.13,0c0-.09-.07-.2,0-.28-.15-.06-.28,0-.41,0h0c.17-.09.32,0,.49,0a.06.06,0,0,0,0,0s0,0,0-.08l-.21-.05-.16-.56a2.29,2.29,0,0,0,.1-.23c-.21-.28-.5-.31-.45-.72,0-.06,0-.14,0-.18s.1,0,.19,0a.45.45,0,0,0,0-.11.26.26,0,0,1-.16-.23.57.57,0,0,0,.27-.55c-.11,0-.36,0-.45-.11s0-.13.08-.21h0s-.09,0-.16,0a.24.24,0,0,1,0,.2c-.29-.08-.48.05-.59.41a.45.45,0,0,0,.13.1.8.8,0,0,0,0,.43c.16,0,.26-.09.44,0-.09.16,0,.28-.17.42h0c-.07-.08-.22-.06-.31-.08h0l.11.1a.31.31,0,0,1-.36.07c-.15.19-.32.24-.4.46a.78.78,0,0,1,0,.14.36.36,0,0,0-.41-.06.06.06,0,0,0,0,0h.17v0a.26.26,0,0,1-.23.12c-.16-.35-.4,0-.62.1-.07,0-.2-.05-.27-.05l-.28.13h0l.13,0c.06-.05.09-.08.16-.07s0,.11,0,.16h0c-.21,0-.22.19-.55.1,0-.08,0-.15-.08-.21l0,0-.13.06,0-.08,0,0c-.09.09-.32.07-.43.08-.33,0-.64.16-1,.21l0,0,.07-.11c-.11,0-.21-.05-.3,0a.5.5,0,0,1,.08.14,4.48,4.48,0,0,1-1.13.92c-.17.14-.19.32-.36.38a7.13,7.13,0,0,0-1.75.54c-.38.3-.2.66-.37,1a5.37,5.37,0,0,1-.64.62l-.64.31-.3.3-.56.33c-.21.1-.51.1-.63.32l-.5.42-.54.07-.39.22a1.41,1.41,0,0,1-.46,0h-.16c-.07,0,0-.2,0-.27s-.08,0-.13,0c-.07-.29-.34-.25-.55-.26a1.47,1.47,0,0,1-.1-.13l-1.45.16-.35.13-.24-.08-.26.15h-.23s-.06.12-.07.15l-.08,0a.31.31,0,0,1-.24-.26c-.19,0-.29,0-.34.16-.36-.1-.37.13-.63.1-.08-.08-.11-.12-.2-.12l-.29.21a3.44,3.44,0,0,1-2-.22l-.28.2a.24.24,0,0,0-.15-.05l-.1.07,0,.1c-.1.13-.25.15-.36.24.09.08.16.23.28.26h.2l.38.23c.21,0,.39-.16.59-.16s.38.11.54.08l.23-.13a1.28,1.28,0,0,0,.4.14l.15-.14c.29.06.41.25.57-.05.14,0,.32.14.49.18l.6.07c.25.08.19.18.43.12,0-.07,0-.13,0-.2l.42,0c.09,0,.11-.09.21-.08a.5.5,0,0,1,.12.38l-.07.05a1.87,1.87,0,0,0-.28-.08c-.12,0-.22.08-.33.12a3,3,0,0,1-.9.23c-.13,0-.2-.2-.33-.23a.85.85,0,0,0-.44,0c-.08,0-.13.1-.2.13l-.26,0c-.06.27-.79.44-1,.42.13-.11.28-.26.21-.4s-.46-.21-.62-.16a4.44,4.44,0,0,1-.6.22l-.32-.09c-.07,0-.11.07-.2.05s-.19-.1-.3-.11-.4.08-.52-.14l-.24.06-.18-.13c-.23-.06-1-.22-1,.12l-.06,0c-.05-.06-.07,0-.15,0-.19.29-.3.18-.48.31l-.3.39c-.09,0-.11.05-.17,0s-.14-.09-.21-.13-.07.07-.14.08-.69.17-1,0c.05-.11-.06-.13-.14-.15a.54.54,0,0,1-.33.16c-.06-.11-.17,0-.25-.15l0,0,0,0a.21.21,0,0,0,.25,0l0,0a.67.67,0,0,1-.39,0h0l.13.11s-.07,0-.09,0l-.84.09h0s-.18-.05-.23-.09l-.09-.11c-.17-.08-.39.05-.56,0s-.24-.39-.53-.52-.82-.16-.94-.36,0-.13,0-.19L55.6,155l-.19,0c-.18-.05-.33-.31-.43-.42a2.32,2.32,0,0,0-.76-.56l.08-.11-.15.13-.32-.22s0-.09,0-.12l-.11.06s0,0,0,.07h0c-.33-.23-.61-.11-.87-.31.06-.17.26-.23.37-.34s.22-.49.5-.29a2.76,2.76,0,0,0,.08.27h0c.08-.08.16,0,.22-.11-.16-.15-.15-.41-.43-.52l-.38-.12c-.2,0-.44.2-.61,0a.54.54,0,0,1-.11.26l-.25,0c.07.12.14.24.22.36a.49.49,0,0,1,.57,0l.05.1a1.23,1.23,0,0,1-.37.35A47.6,47.6,0,1,0,120,88.81,46.14,46.14,0,0,0,115.21,85.92Zm-32,7.42h0a.28.28,0,0,0,.28,0c0-.06-.17-.18-.19-.25l.1-.12a.4.4,0,0,1,.27.35h0l.13-.06s0,0,0,0a.5.5,0,0,1,0,.32l-.18,0c0,.08-.1.2-.17.2C83.21,93.7,83.32,93.56,83.25,93.34Zm-1.66.78.2-.36c0-.14-.1-.27-.1-.4s.07-.19.1-.29,0,0,0-.06l0,0c.07.15.11.15.29.25,0,.09,0,.11.08.19-.15.25-.32.42-.41.61.11.13.09.21.12.34l-.2,0A.53.53,0,0,1,81.59,94.12ZM46.37,134.93a2.08,2.08,0,0,1-.32.54c0-.24-.08-.49-.11-.73a.56.56,0,0,1,.14-.27c.13,0,.19-.07.34,0C46.38,134.66,46.44,134.77,46.37,134.93Zm-.08-1.06a1.16,1.16,0,0,1-.42.36l-.06-.48a.59.59,0,0,1,.47.09Zm-.74-3.15c.18.18.44.38.17.64a.35.35,0,0,1-.13.08C45.58,131.2,45.56,131,45.55,130.72Zm.06.87h0a2.34,2.34,0,0,1,0,.26l-.06.08C45.62,131.81,45.61,131.7,45.61,131.59ZM48,132c.33.07.29,0,.55,0,0,0,0,0,0,0v.43c-.13.36-.72.65-.94.82s-.2.24-.33.3a.07.07,0,0,1,0,0c-.1-.16,0-.33,0-.51s-.23-.3-.28-.42l.07-.16A4.51,4.51,0,0,1,48,132ZM46,127c0,.43.35.83.38,1.26-.18.26-.61.68-.67,1l.14,0,.3-.07c.19.27.08.56-.22.76a.88.88,0,0,0-.46-.11c0-.74,0-1.48,0-2.23.13-.25.15-.53.52-.56Zm27.63,9.71h0l-.07,0h0l0,0h0l.08,0,.3,0a.05.05,0,0,0,0,0A.92.92,0,0,1,73.66,136.74ZM82,143c-.06.09-.12.08-.18.15s0,.18-.06.26-.48.3-.54.3,0-.1,0-.15c.18-.28.51-.61.75-.6Zm-.61-1.07c-.11.13-.22.27-.34.4s-.19.42-.34.62h0s0-.1,0-.15a.26.26,0,0,0-.08-.27c-.19.06-.39.35-.58.44a.54.54,0,0,0-.35-.09c-.11.05-.2.29-.29.37s-.39.21-.56.35-.31.46-.54.53a2.25,2.25,0,0,1,.08-.24h-.07c-.42.37-.25.49-.3.81,0,.1-.13.2-.14.28a.27.27,0,0,1-.06.42.13.13,0,0,0,0-.06.77.77,0,0,0,0-.15.3.3,0,0,1-.18-.17,5,5,0,0,1,.15-.73c.07-.13.14-.26.22-.39a3.56,3.56,0,0,1,.66-.75l.09-.12.43-.13c.26-.15.43-.45.7-.55l.32,0c.2-.13.49-.54.69-.57l.09.14h0a1,1,0,0,1,.66-.49v0C81.53,141.56,81.5,141.74,81.41,141.91Zm2.74-2.33c-.12.06-.33,0-.37.28,0,0-.1,0-.13.12s.06.27-.07.34l-.16,0a.68.68,0,0,0,.16.56c-.1.08-.32.06-.44.09l-.21.36c-.09.1-.18.21-.28.31s0,.12,0,.2-.2.12-.33.11v0l0-.11a1.5,1.5,0,0,0,.6-.83h0c-.27.19-.25-.06-.4-.07s-.26.18-.38.24l0,0s0,0,0-.06l.06-.13a3.29,3.29,0,0,1,.41-.42c.09-.1.05-.16.08-.23l.14-.16a.41.41,0,0,1,0-.17c.18,0,.27-.18.39-.3.33.1.64-.35,1-.36A.57.57,0,0,1,84.15,139.58ZM90,142c0,.12.18.15.28.27s-.14.24-.22.37h0s0,0,0,0,0-.13,0-.19a.19.19,0,0,1-.12-.09c-.06,0-.07,0-.11.06l0,0a.74.74,0,0,0,.13-.29l0-.06Zm-5.15-3.32c-.09.13-.06.21-.18.32a1.13,1.13,0,0,0-.21-.12s0,0,0-.08.31-.48.48-.54C85.12,138.43,85,138.5,84.87,138.68ZM72.94,127.12c-.25-.09-.28-.57-.39-.74l.25-.09c0,.1.17.23.2.35s-.08.26.08.34l.1,0c.06-.21-.24-.52.2-.54C73.58,126.64,73.3,127.26,72.94,127.12ZM110.08,164a.83.83,0,0,0,.07-.13s0,0,.06,0a.16.16,0,0,1,.17,0,2,2,0,0,1,0,.26l.24,0,.28.28v0c-.11.08-.16.15-.29.13C110.53,164.39,110.21,164.21,110.08,164Zm6.32,3.75,0,0-.08,0-.21-.15h0a.31.31,0,0,1-.09.14c-.09,0-.11-.08-.16-.14s.16-.17.15-.28l.06,0A1,1,0,0,1,116.4,167.76Zm3.38-2.63s0,.05,0,.08-.19.52-.31.62l-.24.15-.37.45-.22.46c-.09.08-.24,0-.31.21a2.68,2.68,0,0,1-.14.43h0a2.62,2.62,0,0,0-.22-.25c.11-.21.23-.47.44-.47a.91.91,0,0,1,.07-.14,1,1,0,0,0-.34,0c-.22.12-.17.17-.43.13l0,0,.06-.4-.08,0h0c-.09.17-.12.37-.26.43h0c-.2-.23-.11-.52-.16-.77.16-.07.32-.3.49-.36l0,0c0,.13,0,.27.15.27.17-.28.41-.17.66-.22a1.43,1.43,0,0,0,1.15-.65Zm-19.1-73.3a.11.11,0,0,0-.09-.07l.21-.24c0-.18.09-.37.14-.55,0,.15,0,.3,0,.45h.13c-.11.19,0,.32-.15.53,0,0,0,0,0,.07a1.33,1.33,0,0,0-.24.19,1,1,0,0,1-.21-.06S100.68,91.84,100.68,91.83Zm-2.9,3.9,0,0s0,0,0-.06l0,0a.29.29,0,0,0,.14-.08.28.28,0,0,1,0-.09h0s0,0,0,.06a.12.12,0,0,1,.1,0c.06-.11.12-.22.19-.33a.57.57,0,0,0,.26-.27h0a.23.23,0,0,0,.07.07l0,0c0-.1,0-.19,0-.28a.4.4,0,0,1,.12.15l-.39.65-.07,0c-.15.1-.32.37-.46.45Zm-4.35,3.5c.31-.13.39-.26.53-.63a.62.62,0,0,1,.14-.28h0c.07.11.16.4.33.44s.15,0,.19,0,0,.15,0,.23a6.14,6.14,0,0,1-.92.54c-.15.09-.18.2-.34.18C93.23,99.55,93.46,99.45,93.43,99.23Zm-3.55.6a3.32,3.32,0,0,1,0-.43l-.12-.11v0l.06,0c.27.18.69.41.74.68l0,0,0,0a.27.27,0,0,0-.07.08l-.07,0a.42.42,0,0,0,0-.1l-.1.07v0s0,0,0-.08h0c0,.06,0,.07-.09.06v-.07c-.06,0-.08,0-.15,0v-.06A.09.09,0,0,1,89.88,99.83Zm.71.69a.94.94,0,0,0,.15-.57c.08-.06.43-.11.54,0a1.29,1.29,0,0,0,.09.16l.23.11c.13.07.17.2.23.29s-.15.1-.16.2a1,1,0,0,0,0,.16c-.29.28-.42-.16-.74-.3-.15-.06-.25,0-.39-.06Zm-13.32-.32s0-.11,0-.16l-.22,0a.17.17,0,0,1,0-.17.49.49,0,0,0,.15-.17l-.3,0c0-.08,0-.15.07-.22h-.19l-.06-.16.23-.1c.16-.14.13-.51.34-.64s.1,0,.11.06c.13.25-.14.57.13.8h.06c.17-.24.46-.82.67-.89.06,0,.06,0,.09,0,.15.22.48.63.29.92h0l.19-.09v0a.77.77,0,0,1-.2.53h0c.27-.18.18-.26.3-.46a1.23,1.23,0,0,1,.65-.24c.19,0,.35.18.54.16s.13-.12.23-.17l.43,0c.11,0,.32.17.32.16.35,0,.39-.19.55.22l.13-.13c-.1-.29.23-.46.42-.52l.26.14a1.61,1.61,0,0,1,0,.9h0c.07-.08.32-.39.35-.4v0l.13.09c0,.08-.08.22,0,.29-.12.14-.06.24-.11.36l-.23.25a1.8,1.8,0,0,1-.08.21s-.1,0-.14.11l-.21.42.08,0a3.08,3.08,0,0,0-.46.64c.29.21.12.3-.08.4a.15.15,0,0,1-.08.15.83.83,0,0,0,0,.47l-.11,0-.13.12v0c.06-.21.07-.68-.12-.84.1-.1,0-.12,0-.21s.25-.29.34-.52c-.11-.07-.11-.2-.17-.3a1,1,0,0,1-.09.38h0l-.32.19-.27.37-.17,0a.19.19,0,0,1,0-.08c-.06-.1.12-.39,0-.62-.08-.06-.17-.15-.25-.15h0l-.14.19h0c-.14-.26,0-.58.25-.9h0c-.25,0-.29-.22-.52-.39h0a1.42,1.42,0,0,0-.08.18,1.07,1.07,0,0,1-.25,0,.68.68,0,0,1-.14-.37c-.26.23-.1.22-.23.43l-.16.14a.12.12,0,0,1,0,.12L79,101c-.13-.13-.16-.45-.29-.47a.21.21,0,0,1-.24-.05.25.25,0,0,0,0-.17l-.14-.06,0,0a2.83,2.83,0,0,1,0,.5h0c-.19,0-.27-.3-.36-.44l-.16.06,0,0a.71.71,0,0,1,0,.2l-.11.06-.18-.37Zm1.22.76,0,0a.36.36,0,0,1-.18-.12s0-.05,0-.08l.17.08S78.48,100.93,78.49,101Zm.39,3.36c.06-.08.17-.21.17-.28s-.09-.11-.1-.17.13-.22,0-.31l-.12.22v0a1.17,1.17,0,0,0,0-.11s0,0-.07,0,0-.19,0-.35l-.09,0c0,.11-.32.42-.41.47a.49.49,0,0,0,0-.11h-.06l.06-.15c-.11,0-.09-.06-.11-.16v0c-.09,0-.11.08-.15.18l-.06,0a.46.46,0,0,1-.11-.26,2.81,2.81,0,0,0,.46-.5l-.12,0a.29.29,0,0,0,0-.3l-.19.27a.14.14,0,0,0,0-.06.5.5,0,0,0,0-.13.39.39,0,0,1-.06-.54.16.16,0,0,0,.21-.07.89.89,0,0,1,.39-.61,3.49,3.49,0,0,1,.58.18.52.52,0,0,1,0,.5,1.26,1.26,0,0,1,.77.26c.09.12.1.26.24.39l-.14.22,0,.08-.2.34c0,.17,0,.34,0,.51l-.09.16a2,2,0,0,1-.18.47.51.51,0,0,0-.22-.13,1,1,0,0,0-.09.17.3.3,0,0,1-.15-.07l0-.13h0l-.15.2ZM60.45,98.66h0c0,.09,0,.18-.07.27s.24-.21.35-.31h0a.34.34,0,0,1,0,.22s-.05,0-.08,0-.1.08-.13.12a6.15,6.15,0,0,1-.5.67c-.05,0-.21.17-.25.08s.1-.36.12-.47c.14-.31.35-.33.51-.54Zm-.83,1,0-.41a3.51,3.51,0,0,0,.25-.48l0,0c0,.1-.06.2-.08.3l0,.22c0,.07-.06.15-.1.23a.85.85,0,0,1-.08.24l0,0S59.61,99.69,59.62,99.64Zm-.39.34a.59.59,0,0,0-.07-.2c0-.08.07-.15.1-.23s.16-.21.21-.17A1.94,1.94,0,0,1,59.23,100Zm-1.78-2.31c.1,0,.27,0,.34-.14s0-.15,0-.17.06,0,.07.06a2.09,2.09,0,0,1,0,.49.18.18,0,0,1-.09,0h-.28S57.49,97.74,57.45,97.67Zm.6.65c0,.11-.29.18-.31.05h0l.12-.1C58,98.18,58,98.18,58.05,98.32Zm-1.78-.15.39-.15c.05,0,.13-.06.17,0a0,0,0,0,1,0,0,0,0,0,0,0,0,0l-.18.07-.15.11-.1,0c-.07,0-.11.1-.18.12s-.14-.06-.2-.08S56.18,98.19,56.27,98.17Zm-9.78,20.17a.09.09,0,0,1,.07,0,1.5,1.5,0,0,1-.15.32C46.44,118.57,46.46,118.46,46.49,118.34Zm-.22,1.08a.27.27,0,0,1,.12.09c.11.22,0,.47-.25.69C46.18,119.93,46.23,119.67,46.27,119.42ZM46,120.84c.21-.22.41-.47.58-.65s.2-.34.34-.41h.17l.16.11a2.56,2.56,0,0,1,0,.27l-.33.76a2.24,2.24,0,0,1-.18.56l-.54,0c0,.09-.09.17-.13.26l-.27.15Zm-.15,1.08h0l.26.08a2.43,2.43,0,0,1-.33.39C45.84,122.24,45.85,122.08,45.88,121.92Zm-.27,2.59a.64.64,0,0,0,.35-.24c0-.09-.05-.19-.08-.28a4.81,4.81,0,0,1,1-1.93l.53-.22c.28-.21.33-.4.65-.39,0,0,0,0,0,0s-.14.6,0,.67l.3.08a6.17,6.17,0,0,1-.55.93l-.26.14c-.09,0-.26-.13-.34-.1l-.17.12v.06l.29.19a2.15,2.15,0,0,1-.4.73c-.15.14-.33.18-.48.34l.14.15a2.81,2.81,0,0,1-.51.82.57.57,0,0,1-.42-.13c-.06.13-.14.29-.09.4l.08.15a.49.49,0,0,1-.15.37C45.53,125.78,45.56,125.14,45.61,124.51Zm11.1,3.38a.65.65,0,0,0,0,.31c-.2.17-.37.47-.58.56s-.43-.1-.7.29l0,.11.21.09a.07.07,0,0,1,0,.05c-.24.41.08.67-.21,1.09a1,1,0,0,0-.4-.2l-.33.73,0,0a.83.83,0,0,1-.06-.69c-.53-.09-.79-.69-1.06-1.05l.34-.1.13.18c.11-.05.2-.05.3-.17l-.09-.18a4.11,4.11,0,0,1,.76-.32c.43-.21.42-.55,1-.1.14-.16.24-.39.41-.49l.27-.12Zm3.6-9.57c0,.07.09.2.1.26-.06.27-.32.16-.33.47h0a.49.49,0,0,1,.44-.06.46.46,0,0,0,0,.48.61.61,0,0,1-.37.1v0l.31.28.32.13v0a.7.7,0,0,1-.4.26c-.1,0-.15-.06-.24-.05s0,.16,0,.24-.2,0-.33,0l-.12-.17c-.11,0-.17.18-.29.26-.28.17-.57.06-.85.37,0,.1-.06.25,0,.33l.44-.06a.08.08,0,0,0,0,0l-.11.19a.8.8,0,0,0-.47.13,3.23,3.23,0,0,0,.61.1l.2-.21a7.18,7.18,0,0,0,.78.09.64.64,0,0,1,0-.07v-.12c.12-.1.29-.07.42-.13l.32-.18,0,0,0,.13,0,.07c.39,0,.55-.35,1,0l-.05,0a1.18,1.18,0,0,0-.62,0c.25.22.52,0,.8.22h0l-.16.15.46.07a1,1,0,0,1-.64.15c-.29.51-.72.4-1.13.54l.24.11c-.19.14-.35.1-.53.38.35.18.75-.17,1.06-.29a1.62,1.62,0,0,1,1.11-.07l-.93.68c-.18.16-.25.34-.43.43l-.33,0-.18.2-.16.07c-.06,0-.11.13-.12.13-.22.07-.33.29-.57.23a.82.82,0,0,0-.07-.3l-.33.15-.19.2a.63.63,0,0,1-.72,0c-.19.28-.35.29-.55.5l0,0c.07,0,.21.06.23.12s0,0,0,.06l-.39.33.06.33a2.78,2.78,0,0,1-.79.81c-.26-.16-.32-.32-.18-.58,0,0-.19-.14-.21-.19a2.45,2.45,0,0,1,.59-.57l.3,0h0c-.11-.07-.18-.08-.24-.17a2.71,2.71,0,0,0,.24-.62l.21-.26h0l0-.06a3,3,0,0,1-.71.06,5.14,5.14,0,0,1,0-.75c0-.08-.1-.16-.14-.24s-.07-.27-.1-.41a1.88,1.88,0,0,0-1-.14,1.63,1.63,0,0,1-.62.33l-.41,0a2.53,2.53,0,0,1,0,.27l-.13.19c0,.14-.13.33-.17.48h0l-.28-.13.27-.49-.09-.08-.81.29-.15.19-.15.07c-.34-.19-.45,0-.72.14l-.3.07a1.46,1.46,0,0,0,0,.2c-.1.1-.47.22-.48.35s0,.05,0,.08h0c.28,0,.66-.55,1-.48a.23.23,0,0,1,.12.08.59.59,0,0,1-.05.25c-.16.34-.76.4-.76.7h0c.15.08.28,0,.39.09-.11.07-.42.11-.48.29l-.06.26c-.08,0-.26.1-.31.22s0,.12-.08.19l-.52.51-.37.53-.18.13a.52.52,0,0,0-.26-.14l-.2.19a1.09,1.09,0,0,1,.08.15c-.19.39-.74.89-1,.58.11-.18.6-.72.55-.88-.58,0-.78.52-1.25.93-.28-.21-.33-.29-.24-.58a.31.31,0,0,0-.1,0l-.27.11a1.9,1.9,0,0,1,.19-2.78.19.19,0,0,0,0,.07A2.74,2.74,0,0,0,47.9,126l.18.08.36-.11c.22.56.74.17,1.08.13l0,0c0,.11,0,.21,0,.31l.11.08.37-.44c-.09-.12-.11-.31-.32-.35s-.22.11-.36.16L49,126a.58.58,0,0,1-.06-.34,1.11,1.11,0,0,0,.25-.34h0l-.27.1-.11.13-.22.09a.67.67,0,0,1-.28-.24v-.2a2.4,2.4,0,0,0,.37-.5h0l-.48.24a.14.14,0,0,0,0-.06c.06-.33.23-1.38.72-1.58l.48,0,.4,0c.13,0,.25.5.33.6l.29.2c.22-.18.28-.44.06-.63a.57.57,0,0,1,.32-.34l.28.16.18-.14s0,0,0,0l-.34-.19c-.4-.56.19-.84.54-1.22.11-.12.11-.29.27-.35s.24,0,.35,0a1.82,1.82,0,0,1,.37-.13l.07.05a.83.83,0,0,0,0,.6l.15,0a.6.6,0,0,1,.08-.08.57.57,0,0,1,.08-.53,3.66,3.66,0,0,1,.57,0s0,0,0,0a2.55,2.55,0,0,1-.15-.54,2.66,2.66,0,0,1,.61-.4h0l.14.5c.13-.22.12-.38.24-.59l.25.14.22-.07c.17-.32.11-.72.59-.74.14.21-.1.46,0,.68l0,.09.14,0a1.48,1.48,0,0,0,.09-.33c0-.08.08-.16.13-.24s0-.16,0-.24a.71.71,0,0,1,.67-.14,2.06,2.06,0,0,0-.29.51l.06.06c.18,0,.36-.3.52-.39a.44.44,0,0,1,.28,0s0,0,0,0a2,2,0,0,1-.27.38c-.08.07-.3.12-.35.28l0,.11h0l.34-.09.05.07c-.06.1-.12.22-.17.32.33,0,.6-.36.9-.47.1,0,.28.08.38.07,0-.33.17-.26.37-.46s0-.26.17-.36a1.14,1.14,0,0,1,.68-.12l0,0c0,.1-.08.21-.12.31l.14.1c.19-.26.28-.51.45-.72l.14.19c.18-.17.26-.28.23-.49l.54-.2Zm-5.76,5.77c0-.11.09-.22.13-.32a.77.77,0,0,1,.42-.23l.37.28a.83.83,0,0,1-.36,1C54.76,124.89,54.53,124.32,54.55,124.09Zm-.9-11.52c-.06.07-.13.16-.21.13a.44.44,0,0,1-.07-.21h0A.26.26,0,0,1,53.65,112.57ZM57.19,114a.59.59,0,0,1,0-.17.25.25,0,0,0,.09-.16h0a.28.28,0,0,1-.08.12h0v0a.47.47,0,0,1,0,.1l-.18.16-.11.11s0,0,0,0a.63.63,0,0,1,.12-.21c-.09,0-.16.06-.25.08s0-.06,0-.12a.39.39,0,0,0,.08-.1c-.08,0-.12.09-.19.07a.66.66,0,0,1,0-.32A.77.77,0,0,1,57,113a.79.79,0,0,0,.29-.11c.1-.08.35-.3.42-.13a.84.84,0,0,1,0,.5c0,.1-.1.14-.13.25l-.06.24C57.49,113.89,57.24,114,57.19,114Zm41.73,26.33a1.17,1.17,0,0,1-.35.86.93.93,0,0,1-.63-.46c.15-.21.55-.78.69-.81S98.89,140.16,98.92,140.28Zm-23.9-17-.23.19-.17-.09c0,.06,0,.12,0,.18l-.07.06-.08,0a.38.38,0,0,0-.15-.24h-.18l-.06,0a4.37,4.37,0,0,1,.12.83.55.55,0,0,1-.17.17s0,0-.06,0c.09-.27,0-.43,0-.66l0,0-.2.24a.15.15,0,0,1,0,.14l0,.07h0l-.14-.09-.09.16c.1.11,0,.31-.13.45l-.44.48-.25.47c-.07,0-.17,0-.19-.08-.12-.21,0-.49,0-.71l-.21.17s0,0,0,0c-.18-.25,0-.3,0-.51l-.26,0a3.07,3.07,0,0,1-.56-1.49l.15-.41.06,0h.06l0,0c0,.07,0,.17-.08.25.41.06.27.72.65,1,.07-.19-.1-.29,0-.47l.21-.15a2.56,2.56,0,0,0,0,.27h0a.77.77,0,0,0,.54-.38.75.75,0,0,0-.07-.12,1,1,0,0,1,.46-.41l0,.1,0,.35,0,0a.41.41,0,0,0,.24,0,.63.63,0,0,0,.07-.25l.07,0,.05,0c0,.24,0,.2-.05.44h0a1.25,1.25,0,0,0,.32,0v0a.29.29,0,0,1,0-.16l.09-.07h0c.11.13.17.15.28,0C74.84,122.9,74.91,123.12,75,123.26Zm-8.18-9h0c0-.06,0-.2,0-.24s0,0,0-.06h.06A.64.64,0,0,1,66.84,114.23Zm-3.13-11.18a1.74,1.74,0,0,0-.13.2c-.09.13-.26.27-.38.25h0l0,.08c.07,0,.27-.23.35-.13s0,0,0,.08h0s.08-.11.12-.13.13.19.16.24l.07.06c0,.08,0,.23,0,.29s.13.05.17.11,0,.13,0,.18a.26.26,0,0,0,.21.09l.08,0c0,.06,0,.15.07.21h0a.18.18,0,0,1,.16,0,1.09,1.09,0,0,1,.08.15c.06.11.14.2.2.3a.21.21,0,0,1,0,.22s-.1,0-.14.06-.25.34-.21.39.19-.15.25-.09,0,.1,0,.15l.14.1c0,.11-.14.25-.2.3h0l0,0a.55.55,0,0,1,.08.32h0c0,.06-.12,0-.17,0h0a.27.27,0,0,1,0,.31c.08,0,.13,0,.19.07h0c0,.06-.07.14-.12.15s-.08-.1-.14-.11h-.07c-.05,0-.06-.14-.09-.2a2.26,2.26,0,0,1-.16-.26.66.66,0,0,1-.21.34c.07,0,.16,0,.14.11h0a.05.05,0,0,0,0,0,.88.88,0,0,1,0,.29s0,.12,0,.14.35-.32.38,0a0,0,0,0,0,0,0c0,.08.06.1.06.17a.34.34,0,0,1-.14.26l-.07,0,0,0a.35.35,0,0,0-.14.06h0l.21,0h0s0,0,0,0-.11.06-.17.08v0c.1.12.13.11,0,.36h0c.08-.07.15-.19.23-.23s.25.13.26.22a1.77,1.77,0,0,1,0,.2c-.16.2-.24.08-.33.47l.08-.06c.16.11.2-.09.35-.18l.09,0h.11s0,0,.06,0,.09,0,.07.12.11-.08.17,0-.09.12-.13.23,0,.19,0,.3a1.33,1.33,0,0,1,0,.19l.22-.18a1.27,1.27,0,0,1,.1-.12h.09l.13-.06c.05,0,.18-.08.2,0s0,.14-.06.18a1.37,1.37,0,0,0-.13.2l-.15.16s.08,0,.11,0l.06-.09c.06-.08.17-.15.19-.28s.09,0,.11.07a1.56,1.56,0,0,0-.06.15s0,.07,0,.11-.06.11-.08.17v0c.06,0,.1-.07.16-.08s0,0,0,.08-.1.09-.15.16h0s.17,0,.23-.08,0,0,0,0h0a.79.79,0,0,1-.27.25h0c0,.12.17,0,.25,0h.14a1.14,1.14,0,0,1-.06.25c0,.1,0,.2,0,.3s.12,0,.18,0,.14-.12.21-.17h0c0,.12-.25.23-.32.37a1.15,1.15,0,0,0,.44-.32c.1.07.22,0,.33,0a.38.38,0,0,1,0,.37h0a.93.93,0,0,0,.1-.2s0,0,0,.07.08.08.07.17.16.1.17.14a.07.07,0,0,1,0,.06c-.08.05-.21.19-.17.29s0,0,0,.06.17-.22.27-.26h0c0,.2.07.09.12.2s0,.12-.06.18h0a.41.41,0,0,1,.12-.11,2.22,2.22,0,0,0-.14.31c.07,0,.19-.06.24-.14a.77.77,0,0,0,0-.19l.06-.09c.1.06,0,.53-.14.76a.18.18,0,0,0,.21-.16c0-.06,0-.11,0-.18.06.1.16-.11.25,0s0,0,0,.06-.08.12-.11.17l-.11.17c-.07.09-.2.17-.25.31s.11.19.1.3l0,0s-.12,0-.17.09-.06.23-.13.3-.06-.34-.19-.31a0,0,0,0,1,0,0l-.12-.22a.65.65,0,0,0,0,.14s.1.18,0,.26-.1-.14-.16-.18-.12,0-.14.12.14.12.1.25h0a.23.23,0,0,0-.12,0c0,.05,0,.1-.06.15a1.85,1.85,0,0,1,0-.23s0-.07,0-.11,0-.17,0-.2-.08,0-.11,0a.25.25,0,0,1-.12,0s0,.11,0,.16,0,.08,0,.12a.48.48,0,0,0,0,.17,1,1,0,0,1-.07-.32.11.11,0,0,0-.06,0c-.06,0-.1,0-.16,0s0,.26.1.16,0,.13,0,.22,0,.1,0,.18a1.11,1.11,0,0,0,0,.19c0,.08-.08.1-.11.15h0c0,.06,0,.07,0,.11a.93.93,0,0,1,0,.13h0s0,0,0,.05a1.08,1.08,0,0,1-.29.41c.05-.1.08-.24,0-.27s-.11,0-.16,0l0,0a.4.4,0,0,0,0,.21l0,0c-.1,0-.06-.16-.16-.14s-.25.28-.36.34c0-.11.09-.21,0-.26h0c-.12.12,0,.14-.06.22s0,0-.06.08v0a.28.28,0,0,1-.22.25c0-.06,0-.12,0-.19s-.07,0-.11,0,0-.29-.11-.33a3,3,0,0,1-.09.45c-.07-.06-.06-.13,0-.25a.14.14,0,0,0,0-.09h0c0,.06,0,.15-.06.22a.18.18,0,0,1-.09,0s0,0,0,0a.67.67,0,0,0,0-.17.3.3,0,0,0-.13,0l-.17.21-.15.22c-.1.09-.22.08-.26,0s-.11-.26-.17-.38,0-.13-.07-.15l0,0c0,.15.07.25,0,.44h0c-.06,0-.07-.11-.09-.14h0c0,.06,0,.14-.11.2s0-.19-.11-.26-.19,0-.26.08,0,.21-.12.29h0c0-.16,0-.33,0-.48a1.19,1.19,0,0,0-.08.22c0,.11,0,.23-.1.33s-.14-.09-.26,0v0c0-.07.07-.14.05-.18h0l0,0c-.07,0-.13,0-.2,0s.07-.16.09-.23.1-.32.15-.48.06-.12.07-.17-.12.06-.19,0a.28.28,0,0,1,0,.09c0,.17-.06.34-.1.5s-.14.26-.21.26a.58.58,0,0,1,.05-.2c0-.15,0-.25,0-.38s0-.13,0-.16-.12,0-.15,0,0,0,0,0a.41.41,0,0,1,.06-.31c.06-.05.15,0,.21,0a.75.75,0,0,0,.37-.28h0a.61.61,0,0,0-.18.05l-.12.09a.59.59,0,0,1-.32,0,.88.88,0,0,1-.1.22s-.14,0-.19,0,0,0-.06,0l-.13.06h0a1,1,0,0,0,.14.15L62,115a1,1,0,0,0,0,.1h0a.42.42,0,0,0-.19,0v0a.26.26,0,0,0,0,.14l.07,0a.75.75,0,0,1,.08.32s0,.14,0,.19,0,0,0,0-.13-.11-.15-.14-.37-.17-.24-.46c0,0-.11,0-.16,0s-.08.21-.17.2,0,0,0,0a.78.78,0,0,0,0-.14.11.11,0,0,0-.08,0,.38.38,0,0,1,0,.17.27.27,0,0,1-.14.07c-.05-.12,0-.33,0-.46h0v0a1.73,1.73,0,0,1-.08.35h0c0-.07-.2-.25-.28-.07s-.06.23-.15.28,0,0,0,0a.35.35,0,0,0,0-.32c-.06.16,0,.25-.19.3s-.07,0-.08,0,0-.18,0-.25a3,3,0,0,1,.06-.77h0a.28.28,0,0,0,0-.23s0,0,0,0a1,1,0,0,0,0-.33,3,3,0,0,0,.26-.5.57.57,0,0,0,0-.18l-.1.09s0,.1-.05.14l-.08.21a1.29,1.29,0,0,0-.06.21,1.32,1.32,0,0,0,0,.32,2.89,2.89,0,0,0,0,.29l0,.15a3.84,3.84,0,0,0,0,.48.81.81,0,0,1,0,.3c0,.07-.07.12-.11.08s0-.1,0-.12-.06.06-.08.07-.15-.09-.14-.17.07-.1.11-.17.09-.27.09-.28a1.72,1.72,0,0,1-.27.27h0c0-.16.21-.42.21-.57s-.12-.11-.17,0,0,.06,0,.1-.24.28-.26.29h-.14c-.06,0-.1.13-.17.15s0-.15.08-.23a2.67,2.67,0,0,1,.53-.93l.18-.19a.37.37,0,0,0-.29.11l-.08.12-.1.09-.07.15c-.13.24-.27.68-.42.79l0-.19s0-.11.05-.17l0-.32a.79.79,0,0,1,0-.24.86.86,0,0,1,.18-.2c.11-.14.21-.31.32-.47,0,0-.09,0-.13,0s0-.16,0-.24h0a.83.83,0,0,0-.17.24h0c.08,0,.06.1.06.17a.22.22,0,0,0,0,.08c-.07.11-.08.18-.16.2s0,0,0-.06a1.13,1.13,0,0,0-.09.4s0,.1,0,.15.09.29,0,.42,0,0,0,0-.05-.16-.08-.23-.15-.16-.07-.35.23-.23.24-.31,0,0,0,0-.23.26-.27.23l0,0h0l.25-.27c.06-.07.13-.13.19-.21l.14-.25a1.87,1.87,0,0,1,.25-.29s0,0,0,0-.28.25-.37.19,0-.16-.06-.19-.13.14-.1.2h0a.05.05,0,0,1,.07,0h0c0,.1-.06.15,0,.23s-.11.16-.17.23l-.09.09-.08.2-.13.18c.07-.23,0-.39,0-.6a1.53,1.53,0,0,1,.16-.25,1.92,1.92,0,0,0,.12-.33s.08-.1.09-.16-.05-.21-.14-.14,0,.18-.07.3a1.42,1.42,0,0,0-.08-.18.24.24,0,0,0,0-.08l0,0a.84.84,0,0,1,0-.17c0-.1.17-.26.12-.33h0l-.05,0s-.07,0-.11,0,0,.13-.06.26h0s0-.1,0-.14-.09,0-.12,0a.52.52,0,0,1,0-.11h0s0,0-.05.06,0,0-.08-.07,0-.1,0-.11-.08,0-.12,0,0-.07,0-.09-.06-.07-.08-.11,0-.11,0-.16-.06.08-.09.15a.57.57,0,0,1-.07.28h0v-.06h0a.2.2,0,0,0,0,.19s0,0-.07.08a1.13,1.13,0,0,1-.28.26,1.39,1.39,0,0,0-.43.23.35.35,0,0,1,0,.08s0,0,0,0a.7.7,0,0,1-.35.26s0,0-.09,0-.1.09-.16.08-.07-.23,0-.35l.17-.15c.06-.06.09-.22.15-.28a1.67,1.67,0,0,1,.43-.28.94.94,0,0,0,.26-.14,1.64,1.64,0,0,0,.27-.32.12.12,0,0,0-.06-.14l0,0a.25.25,0,0,0,0,.09.26.26,0,0,1-.17.17h0v0c0-.07.08-.11.1-.19h0c-.07-.08-.18.2-.27.13s.12-.16.09-.25-.38.41-.49.32l0,0h0c.05-.06.3-.21.23-.33a.32.32,0,0,0-.2.14s0,0,0,0-.09-.07-.13-.07,0,.38-.16.45a.78.78,0,0,0,0-.14.49.49,0,0,1,0-.12c0-.1,0-.21,0-.32h0a.61.61,0,0,0-.1.18c0,.08,0,.22-.1.29h-.11a2.49,2.49,0,0,0,.15-.47.16.16,0,0,0,0-.07,1.37,1.37,0,0,1-.14.4l-.1.11s-.08.1-.13.08a.3.3,0,0,0-.11-.27c-.09.1,0,.22,0,.27a0,0,0,0,1,0,0h0s-.05,0-.08,0a0,0,0,0,1,0,0c.06.06,0,.16,0,.25a.34.34,0,0,1,.2.33c0,.18-.27.38-.36.46s-.08.1-.12.1-.07,0-.09-.05-.09,0-.12,0,.08-.21.1-.31a1.07,1.07,0,0,0,0-.25c0-.07,0-.14,0-.17s0,0,0,0a.38.38,0,0,0,0,.1c0,.12-.15.3-.22.31s0-.33,0-.45-.06-.1-.13-.07-.17.23-.28.27h0c0-.13.13-.16.19-.24l.1-.15s.09-.13.08-.16l-.07-.05c-.1-.06-.2,0-.29.09-.09,0-.08-.12-.16-.16l0,0,0,.07-.13.1s-.06.09-.09.1,0-.16,0-.24,0-.06,0-.1,0-.12-.06-.07l-.13.07-.15,0-.07,0c-.06,0-.09-.07-.06-.12l.07-.09,0,0s-.07,0-.1,0-.33.08-.36,0a2.69,2.69,0,0,1-.18.38h0a3.29,3.29,0,0,0,0-.44h0s0-.13,0-.17-.28.1-.34.14a.43.43,0,0,0-.38,0c-.06,0-.14.11-.2.12l-.1,0a.89.89,0,0,1-.43,0,1,1,0,0,0-.24-.14l-.08.15s-.09,0-.13,0-.14.13-.22.14-.13,0-.19,0-.18.18-.27.23-.08,0-.1.08,0,.14,0,.19h0a.14.14,0,0,0-.24,0c0,.1,0,.28,0,.36a.31.31,0,0,1-.16,0v0a.29.29,0,0,1,0,.23c0,.07-.1.06-.13.16s.06.08,0,.13-.1-.16-.22-.16a.22.22,0,0,0,0,.31h0l0,0c-.05,0-.09,0-.14,0s0,0,0,0,.08,0,.12.1a.67.67,0,0,1-.63.41h-.17s0-.11,0-.19h0a1,1,0,0,0,0-.17,2.17,2.17,0,0,1,.07-.24h0a1,1,0,0,1-.38.32c-.09.05-.14,0-.12-.12h0c0,.08,0,.1,0,.17s-.19.16-.22.06a.91.91,0,0,1,0-.17.2.2,0,0,1,0-.18l.13-.15.36-.39a.86.86,0,0,0,.2-.22h0a.27.27,0,0,0-.16.06c-.07.08-.15.25-.24.23s0,0,0,0,.31-.45.38-.51.1,0,.12-.11c-.19,0,0-.1-.06-.24a.3.3,0,0,0-.24.07.15.15,0,0,0,0,.09,1.24,1.24,0,0,1,0,.16c0,.11-.15.21-.21.31S48,113,48,113l-.06,0a47.66,47.66,0,0,1,6-12q.82-1.2,1.71-2.34s0,.09-.05.21h0l.11-.06h0c.07,0,.07.13.1.17s0,0,.07.06-.17.15-.23.23v0h0c.08,0,.2,0,.26,0s.09-.16.15-.19h0c.06-.13.14-.11.22-.12h0c0-.08,0-.11,0-.18s.07-.13.1-.2a.4.4,0,0,0,0-.15.32.32,0,0,1,.16-.15c.05,0,.07,0,.07.07a1.45,1.45,0,0,1,0,.29.86.86,0,0,1,0,.28h0a1.53,1.53,0,0,0,.07-.24.45.45,0,0,1,.05-.18l.07-.11c.07-.11.12-.25.2-.29s.08,0,.12,0,.23-.15.36-.15a.13.13,0,0,1,.11.21s-.09,0-.13.06-.06.18-.07.25-.14.15-.21.21a1.58,1.58,0,0,0-.24.31h0s.12-.12.16-.11,0,.07,0,.14.15-.2.23-.31a1.07,1.07,0,0,1,.14-.16.31.31,0,0,1,.07-.09h0a.86.86,0,0,0,.05.23l0,.07v0c-.05.06-.21.2-.19.3.08-.15.23-.2.29-.38s-.15-.1,0-.34a1.07,1.07,0,0,0,.25,0c.06,0,.12.08.15.11a.75.75,0,0,0,0-.15c0-.15,0-.29.08-.44s.2-.23.26-.2.12.18.1.33,0,0,0,.08-.12.09-.17.17,0,.28-.1.4a1.77,1.77,0,0,1-.17.2h0c.08,0,.24-.13.29,0s0,.08,0,.1,0-.1.08-.12.11.1.17.12h0c0-.09.11-.17.16-.25h0a.11.11,0,0,1-.08,0c-.08-.11.16-.34.23-.43s.07-.11.11-.15.42-.09.42,0a1.14,1.14,0,0,1-.07.28s0,0,0,.07a.94.94,0,0,1,.18.36l-.1.14a3.19,3.19,0,0,1-.2.33.84.84,0,0,1-.24.14h0c0-.09.16-.31.19-.37s0-.13,0-.15a.22.22,0,0,1,0,.08.3.3,0,0,1,0,.1l-.05.09c-.09.16-.2.44-.08.48a.11.11,0,0,1,.08,0,3.16,3.16,0,0,1-.2.27.39.39,0,0,0,.2-.15h0a1,1,0,0,0,0,.29l0,0a.34.34,0,0,1,.08.27c-.09,0-.15.21-.19.33h0s.1-.12.14-.09-.11.41.14.31a.13.13,0,0,0,.07-.06c-.12-.06-.11-.14-.1-.3v-.14c0-.08,0-.09,0-.16a3.14,3.14,0,0,1,.31-.32,0,0,0,0,0,0,0c0,.14.09.25.08.37s-.11.17-.09.24h0a.22.22,0,0,1,.26-.15s0,0,0,0a.54.54,0,0,1-.1-.16s0-.08,0-.12a.16.16,0,0,1,0-.16c0-.08.12-.08.17-.13s.12-.15.18-.14.1.18.1.23,0,.08,0,.11.21,0,.26,0h0a1.15,1.15,0,0,1-.06-.17,1.67,1.67,0,0,0-.12-.16,2.5,2.5,0,0,1,.27-.38c.2,0,.17-.07.32-.3a1.4,1.4,0,0,0,.12-.18h0a.06.06,0,0,1,0-.05l0,0s0,0,.08,0,.09-.14.17-.08l0,0c0-.08-.06-.14,0-.23a.4.4,0,0,0,.23.08.91.91,0,0,1,.14.07l0,0h0a1.18,1.18,0,0,1-.18-.21h0c.21-.18.27-.11.47,0h0l0-.08a.46.46,0,0,1,.07.07c0-.19.12-.06.18,0l0-.08s.07,0,.1,0,0,0,0,0,.23-.16.28,0a.12.12,0,0,1,0,.1.2.2,0,0,1-.08.14,1,1,0,0,1-.44.17h0c.11.09.3-.06.36,0s0,0,0,.09a.65.65,0,0,1-.21.45.75.75,0,0,1-.3.22h-.15s0,0-.06.06H61.7l-.11.08a1.75,1.75,0,0,0-.25.16c0,.06,0,.07,0,.14s-.24.19-.33.35a1.92,1.92,0,0,0-.14.49,5.45,5.45,0,0,0-.56.42,2.05,2.05,0,0,1-.16.26.47.47,0,0,0-.1.1.35.35,0,0,0,.28-.15s0-.1.05-.14.25-.28.3-.23,0,.2,0,.26h0a.5.5,0,0,1,.05-.23c0-.06.12-.07.16-.14s0-.2.1-.36,0-.2.13-.34a.35.35,0,0,1,.1-.08.25.25,0,0,1,.15,0,1.2,1.2,0,0,1,.14.44c0,.08,0,.17-.06.26s0,0,0,0c-.06.18-.13.36-.2.54.07,0,.13-.12.2-.14.25-.06.14.53.3.54h0s0,0,0,0a.5.5,0,0,1,0-.32s.06,0,.09,0a1.6,1.6,0,0,0,.12-.55,1.72,1.72,0,0,0,.07-.21s0,0,0-.12.1-.06.13,0-.05.25-.05.32.12.14.11.28a.45.45,0,0,1-.06.12.32.32,0,0,0-.05.23s0,.05.05,0,0-.22.11-.27h0a2,2,0,0,0,.15-.29c0-.11,0-.16-.06-.25a1.19,1.19,0,0,0-.07-.27,2.41,2.41,0,0,1-.07-.48h0l.11,0a1.48,1.48,0,0,0,.19-.46,1.36,1.36,0,0,1,.16-.25,1.5,1.5,0,0,0,.15-.38,1.2,1.2,0,0,0,0-.32c0-.06,0-.08,0-.15l.2.09-.06,0c0,.09,0,.25.07.28s.08-.06.12,0v0a.51.51,0,0,1-.09.16h0s0,0,.06,0c0,.13-.13.56.08.51l.19-.09h0a.31.31,0,0,0-.06.25c.06,0,.1,0,.15,0s-.05.2,0,.29.1-.07.14,0,0,.19,0,.24a.19.19,0,0,1,.19,0s0,.06,0,.07l.06,0a.26.26,0,0,0,0,.2H64c.08,0,0,.09,0,.15s0,0,0,0a.21.21,0,0,0,0,.06c.07,0,.06.28.05.38s0,.08,0,.13a1.29,1.29,0,0,0,0,.19,2.81,2.81,0,0,0,0,.29,2.25,2.25,0,0,1-.08.24c0,.12.13.09.09.22a.25.25,0,0,1-.23.16.08.08,0,0,1,0,0c.07.07.18,0,.26.05a.26.26,0,0,1-.07.21c-.15,0-.08,0-.18.17.07,0,.17-.13.24-.09s-.08.26-.13.33S63.77,103,63.71,103.05Zm-6,9.22c.13,0,.21.16.21.24l0,0C57.65,112.6,57.74,112.42,57.71,112.27Zm-1.81.48a.27.27,0,0,1,0-.15s0,0,0,0,.25,0,.27.1S56,112.88,55.9,112.75Zm-.25-.45h0c.08-.09.27-.17.19,0A.12.12,0,0,1,55.65,112.3Zm3-14.07,0,.15a.85.85,0,0,1,0,.16.44.44,0,0,1-.28.3c-.1,0-.07-.21-.06-.34S58.58,98.32,58.69,98.23ZM62,100c0,.11,0,.15,0,.25a.13.13,0,0,1-.08.08v0c0,.07,0,.14,0,.2s0,.11,0,.16a.19.19,0,0,0,0,.08.86.86,0,0,1,0,.22,1.17,1.17,0,0,1-.1.26s-.1-.16-.12-.19-.15-.12-.15-.21a2.87,2.87,0,0,0,0-.31c0-.14,0-.28,0-.42a0,0,0,0,0,0,0C61.68,100.1,62,99.94,62,100Zm7.45,3.12a1.89,1.89,0,0,1-.43.38l-.3.11c-.24.17-.45.82-.73.84-.05-.24,0-.41-.05-.67a.52.52,0,0,1-.46.23c-.07.15-.17.47-.31.56h-.08l0,0c-.09-.18.31-.71.3-1l-.06-.09-.11-.05a1.76,1.76,0,0,0-.36.28c-.22.23-.12.68-.47.66a.15.15,0,0,1-.11-.06,3.9,3.9,0,0,1,.19-.44H66.2c-.18-.3.32-.18.32-.48h0a.48.48,0,0,0-.29,0,0,0,0,0,0,0,0l0-.11c.22-.19.5-.49.78-.37s.12.25.2.26h.32l0-.23c0-.12.08-.21.06-.33s-.29-.14-.33-.24v-.11h0a.82.82,0,0,0,.49,0,.29.29,0,0,0,0-.09h0l-.18-.06c0-.15,0-.31.16-.35a.41.41,0,0,0,.38-.16.52.52,0,0,0-.26-.08c.2-.24.45-.46.45-.74l-.24-.16a.65.65,0,0,1,.22-.22c.27,0,.34-.15.58-.29h.09a.33.33,0,0,0,.18.15l.16-.07c.1-.07.17-.28.28-.29s.41.24.48.37-.08.21-.13.32l.11.09a.31.31,0,0,1-.09.5,2.87,2.87,0,0,1,0,.77c-.08.17-.17.33-.25.49S69.8,102.78,69.47,103.13Zm38.47,9.2-.06,0-.08-.05c0-.09,0-.17-.07-.25a.18.18,0,0,1,.15-.06C107.87,112.14,108,112.2,107.94,112.33ZM128.56,100a.87.87,0,0,1-.36,0v.1a.8.8,0,0,0,.49.14c.14.15.11.35.23.48s.31.19.42.33c.56.72,1.12,1.43,1.69,2.14.2.26.74.79.73,1.07l-.18.34c-.07.2,0,.33-.11.54-.27,0-.4.29-.66.29-.08,0-.11-.07-.21-.09s-.24.08-.42-.12a1.63,1.63,0,0,1-.17-.2l-.6-.06a.92.92,0,0,1-.37-.45.74.74,0,0,0,0-.14c0-.12-.4-.81-.6-.88l-.27,0-.09-.16a1.21,1.21,0,0,1-.7-.22c-.14-.22-.1-.38-.42-.59l.13-.21s0-.11,0-.17.12-.06.13-.14a.74.74,0,0,0,0-.14c0-.17.19-.17.24-.29l-.13-.06c0-.1,0-.2,0-.3s.09,0,.1-.07v-.08a.39.39,0,0,1-.15,0,1.64,1.64,0,0,0,0-.22h0s.06,0,.1,0,0-.12,0-.18-.12,0-.19,0l0,0a.19.19,0,0,0,0-.15l0-.05a.57.57,0,0,1-.28-.11l.06-.08a.17.17,0,0,0,.17,0c-.07-.09,0-.15,0-.25s-.21-.32-.37-.41,0-.16.11-.2.22-.08.34-.07.68.32.95.4l.31,0C128.5,99.73,128.55,99.94,128.56,100ZM117.3,91.66c.09.06.07.18.12.25l.36.29.27.54c0,.1,0,.21,0,.31l.13.07.3.69.18.2a6,6,0,0,1,.48,1.47c.07.23.13.46.2.69,0,.53,0,1.09,0,1.62s.27,1.09.4,1.63a.16.16,0,0,1,.14.11c0,.13,0,.22-.12.33.22.16.12.3.11.49.32.25.19.44.35.65s.17.06.22.2,0,.12,0,.18a1.41,1.41,0,0,0,.56.61c.17,0,.35-.06.52-.07a2.12,2.12,0,0,1,.23.35s.08,0,.14,0a1.33,1.33,0,0,0,.89.45c.25,0,.39-.16.66-.12.06.1.11.2.16.3a2.13,2.13,0,0,1,.64.32c0,.06.07.13.11.17.23,0,.45.2.71.34l.12-.07.05,0a1.08,1.08,0,0,1,.11.28.33.33,0,0,1,.12,0,3.52,3.52,0,0,1,.25.88c0,.42-.2.82-.22,1.25a6.78,6.78,0,0,0,.19,1c0,.26,0,.53,0,.79l.3.21a.32.32,0,0,1,.33,0,1,1,0,0,0,.6.31.38.38,0,0,0,0-.13,2.61,2.61,0,0,1,.56.43l.1.15,0,0c.06,0,.07-.07.17,0,.28.44,0,.84-.08,1.34a1.7,1.7,0,0,0,.1.59h.06a.31.31,0,0,0,.2-.06,1.65,1.65,0,0,1,.65.63c0,.07-.05.13,0,.2s.18,0,.23.12,0,.53.13.75a8,8,0,0,1,.65,2.66c0,.19,0,.39.07.58s-.33.54-.31.66.07.09.08.13l-.23.21a.45.45,0,0,1,0,.25c-.12.09-.4.15-.47.36a1.49,1.49,0,0,1,0,.21c-.12.17-.28.2-.33.49l0,.23c0,.21-.29.33-.35.53s0,.28,0,.41a.63.63,0,0,1-.3.16c-.07,0-.11,0-.17,0l-.1.15h-.14a.1.1,0,0,0,0,.08l0,.08,0,0-.07,0-.17-.23c-.12,0-.56,0-.58-.06s0-.1.06-.16a1.54,1.54,0,0,0-1.18-.37c-.41,0-.81-.22-1.21-.24l-.94.12-.56-.17s0-.1-.13-.13-.27,0-.4-.08-.13-.19-.27-.25l-.32-.06-.71-.3c-.07-.41-.76-.24-1-.28l-1.28-.18a2.35,2.35,0,0,1-.7,0,4.64,4.64,0,0,1-1-.64c0-.4-.58-.68-.81-1a1.89,1.89,0,0,1,0-.23,1.37,1.37,0,0,1-.13-.2l0-.16c0-.17-.2-.42-.34-.56l-.47-.27c-.24-.06-.9.11-.81-.36-.27-.25-.46-.14-.72-.19l-.31-.13h-.41c-.21,0-.3-.19-.43-.21a2.73,2.73,0,0,0-.5-.06c-.27.06-.53.13-.8.18a1.33,1.33,0,0,0-.52.09l0-.09c-.1,0-.08.06-.18.11h-.4a0,0,0,0,1,0,0v-.14c-.12,0-.13.08-.22.1a1.27,1.27,0,0,1-.28,0,.67.67,0,0,0-.24-.58l.13-.15h0l-.33.09c0-.12,0-.21-.17-.28l-.09.09,0,0a1.05,1.05,0,0,0-.23-.49l-.17-.06-.16-.18a2.66,2.66,0,0,0-.46-.09v-.13h-.11c-.23.34-.22.19-.47.16-.09,0-.26.16-.26.21a.16.16,0,0,1,.1,0,1.07,1.07,0,0,1-.34.51.61.61,0,0,1-.83.59s-.07-.1-.1-.16h-.06l-.08.09h-.15a1.92,1.92,0,0,0-.64.28c0,.08,0,.12,0,.18l-.57,1c0,.13.07.2.07.32s-.15.28-.23.41l-.21,1.19a2.38,2.38,0,0,0-.53.26s0,.06,0,.09-.2.2-.27.27a1.82,1.82,0,0,0-.37.62l-.2.56c0,.2,0,.41-.07.61s-.54.34-.65.4a5.76,5.76,0,0,1-1,.33c-.14.08-.28.16-.43.23a2.42,2.42,0,0,0-.66.25c-.06,0-.07-.07-.14-.08a.65.65,0,0,1-.57.17h0a.81.81,0,0,0,0-.16l0,0a.23.23,0,0,1-.11.07l-.14-.1c-.13,0-.25.06-.37,0l-.16-.07a1.1,1.1,0,0,1-.52.23.22.22,0,0,0-.14-.09.28.28,0,0,1-.17.14s0,0-.09,0-.12.09-.17.11-.13-.18-.16-.28-.17.18-.22.29l-.24.11-.08,0c-.2.08,0,.12-.29.11-.1-.12-.3-.17-.35-.31a.3.3,0,0,1,0-.1.22.22,0,0,0-.13-.06c-.15.08-.43-.11-.73.08,0,0,0,0,0,0a1,1,0,0,0-.26-.77l-.27-.24c-.28-.34-.68-.92-1.19-.76-.11-.28-.59-.6-.82-.32l0,.12a1.21,1.21,0,0,1-.51-.49c0-.12,0-.24-.08-.36l-.45-.73c-.06-.17,0-.43-.11-.59l-.18-.15a1.64,1.64,0,0,1-.34-.5c-.06-.16.06-.36,0-.53s-.38-.47-.35-.68.16-.36.2-.53a3.35,3.35,0,0,0-.13-1.34c-.18-.48-.57-.25-.79-.56-.09-.13-.08-.31-.15-.44s-.2-.13-.26-.22a2.06,2.06,0,0,1-.11-.61c0-.35.2-.67.09-1s-.53-.75-.54-.91l0-.19c.23,0,.44,0,.64-.16a2.37,2.37,0,0,0,.39-.77c.17,0,.38-.15.46-.38s-.06-.28-.06-.45a2.12,2.12,0,0,1,.11-.45.22.22,0,0,0,.15-.09,2.11,2.11,0,0,1-.05-.62c.05-.22.27-.43.37-.68a2.56,2.56,0,0,0,0-.27c0-.09.16-.08.19-.21l0-.24c.12-.34.48-.38.6-.68a1.09,1.09,0,0,0,.06-.53c.1-.07.21-.08.31-.18s0-.17,0-.27.25-.08.28-.11c.24-.2.15-.63.2-.81s.05-.09.07-.14L93,101a.63.63,0,0,0,.22.07l0,0,0-.4c.31.21.08.8.7.5l.22.08c.13.08.18.7.22.86A.66.66,0,0,0,95,102c0-.09,0-.12.09-.21l.17.07.64-.4.27-.44.25-.26.2,0c.08-.05.1-.14.19-.2s.54.11.76,0,.51-.54.72-.68.57-.15.75-.36,0-.2.06-.28c.06-.63-.43-.31-.63-.75a1.32,1.32,0,0,1,.48-1.36c.17-.1.26,0,.39,0a4.17,4.17,0,0,0,.43-.41l.15-.22c.1-.07.23,0,.33,0l.32-.47.59-.56h.11l.22-.25c.08-.07.25-.11.3-.25s0-.18,0-.27a1.48,1.48,0,0,1,.45-1c.13,0,.17,0,.28,0,.09-.2.24-.2.23-.45.32-.16.22-.32.32-.51l1.07.25c0,.3.41.51.56.79a.14.14,0,0,1-.1.1,2.84,2.84,0,0,1-1.35-.06.37.37,0,0,0,0,.23,3.12,3.12,0,0,0,1.08.09l.8.19c.44,0,.91.13,1.36.13l.38-.07a1.11,1.11,0,0,1,0,.17,1.6,1.6,0,0,0,.44.14c.11,0,.2-.1.31-.14a1.67,1.67,0,0,1,.88.06c.37.14.84.61,1.16.61s.53-.32.75-.28c.46.09,1.2.5,1.61.39v0s-.12-.09-.14-.14.27,0,.39,0a.66.66,0,0,1,.14-.18l.7-.09c.06,0,.09-.12.15-.14s.33.08.37.06c.24,0,.53-.34.78-.17a1.9,1.9,0,0,1,0,.53h0a2.78,2.78,0,0,1,.21-.27,2.83,2.83,0,0,0,.77-.06l.18-.26c0-.18.07-.35.1-.53s.26-.13.3-.31,0-.31,0-.46v0l.21-.25c0-.1,0-.25.1-.36a.81.81,0,0,0,.23-.25,1.7,1.7,0,0,0,.08-.79l.25-.16h0l.12.2C117.11,91.61,117.24,91.62,117.3,91.66Z"/></svg>